<svg width="2710" height="615" viewBox="0 0 2710 615" fill="none" xmlns="http://www.w3.org/2000/svg">
<path d="M1940.34 553.336C1940.34 553.336 99.6778 547.59 66.5889 553.336C33.5 559.082 13.0889 511.582 13.0889 511.582C13.0889 511.582 -9.41109 511.582 4.58891 443.082C18.5889 374.582 19.5889 320.082 19.5889 320.082L66.5889 305.961C66.5889 305.961 399.391 266 1005.51 266C1611.63 266 1940.34 305.961 1940.34 305.961C1940.34 305.961 2281.51 429.178 2448.06 496.759C2614.62 564.339 2307.7 553.336 2307.7 553.336H1940.34Z" fill="#040D17"/>
<path d="M610.909 273.792C604.197 272.603 593.625 267.213 593.625 267.213C593.625 267.213 604.446 268.421 610.909 269.016C606.517 264.528 609.599 255.705 609.599 255.705C609.599 255.705 611.936 266.024 615.797 267.808C615.824 265.206 616.176 262.622 616.841 260.136L620.702 266.101C620.702 266.101 617.752 252.867 623.237 244.255C623.552 261.325 631.291 267.597 631.291 267.597C631.291 267.597 636.262 258.64 633.611 252.963C635.115 254.569 636.329 256.505 637.182 258.658C638.035 260.811 638.511 263.139 638.582 265.506C638.582 265.506 639.626 255.36 647.365 251.467C645.35 255.972 644.798 261.164 645.807 266.101C645.807 266.101 659.478 256.837 648.127 233.266C663.356 248.494 654.076 265.199 654.076 265.199C654.076 265.199 660.008 256.837 664.135 255.053C660.522 261.632 663.621 264.317 663.621 264.317L666.935 259.234C666.935 259.234 669.255 262.821 666.421 268.498C669.735 268.191 672.089 261.325 672.089 261.325L669.719 268.21C669.719 268.21 685.71 260.155 667.913 242.836C683.141 257.47 681.352 263.646 681.352 263.646C681.352 263.646 676.38 249.395 674.624 241.34C681.584 253.883 695.785 257.163 695.785 257.163L709.257 269.898L637.803 282.748L610.909 273.792Z" fill="#040D17"/>
<path d="M1339.51 281.62C1333.04 279.338 1323.23 272.28 1323.23 272.28C1323.23 272.28 1333.8 275.234 1340.11 276.902C1336.32 271.743 1340.46 263.477 1340.46 263.477C1340.46 263.477 1341.5 274.064 1345.12 276.48C1345.46 273.879 1346.13 271.348 1347.09 268.962L1350.19 275.521C1350.19 275.521 1348.89 261.923 1355.37 254.309C1353.58 271.264 1360.46 278.744 1360.46 278.744C1360.46 278.744 1366.43 270.688 1364.57 264.647C1365.85 266.487 1366.8 268.602 1367.37 270.87C1367.94 273.138 1368.11 275.514 1367.88 277.861C1367.88 277.861 1370.15 267.984 1378.31 265.433C1375.76 269.556 1374.59 274.601 1374.99 279.645C1374.99 279.645 1389.68 272.74 1381.34 247.52C1394.6 265.107 1383.28 280.124 1383.28 280.124C1383.28 280.124 1390.19 272.836 1394.48 271.743C1390.11 277.65 1392.82 280.815 1392.82 280.815L1396.68 276.404C1396.68 276.404 1398.54 280.24 1395.03 285.476C1398.34 285.744 1401.54 279.319 1401.54 279.319L1398.39 285.744C1398.39 285.744 1415.21 280.393 1399.73 260.312C1412.99 277.305 1410.46 283.136 1410.46 283.136C1410.46 283.136 1407.39 268.195 1406.63 259.948C1411.98 273.508 1425.62 279.127 1425.62 279.127L1437.32 294.049L1365 294.95L1339.51 281.62Z" fill="#040D17"/>
<path d="M1003.32 272.721C996.694 270.937 1003.24 255.21 1003.24 255.21C1003.24 255.21 1013.96 257.339 1020.36 258.49C1016.26 253.637 1019.91 245.064 1019.91 245.064C1019.91 245.064 1021.57 255.575 1025.31 257.684C1025.51 255.056 1026.03 252.473 1026.85 250.013L1030.32 256.303C1030.32 256.303 1028.25 242.878 1034.26 234.746C1033.47 251.796 1040.77 258.72 1040.77 258.72C1040.77 258.72 1046.24 250.224 1044.09 244.335C1045.47 246.073 1046.54 248.109 1047.24 250.328C1047.94 252.546 1048.25 254.903 1048.16 257.262C1048.16 257.262 1049.82 247.232 1057.82 244.029C1055.5 248.38 1054.61 253.556 1055.32 258.605C1055.32 258.605 1069.56 250.569 1059.78 226C1073.92 242.513 1063.61 258.375 1063.61 258.375C1063.61 258.375 1070.07 250.55 1074.31 249.13C1070.29 255.364 1073.19 258.317 1073.19 258.317L1076.86 253.542C1076.86 253.542 1078.95 257.377 1075.75 262.728C1079.07 262.728 1081.87 256.073 1081.87 256.073L1079.12 262.728C1079.12 262.728 1095.59 256.073 1078.97 237.258C1093.19 253.177 1091 259.199 1091 259.199C1091 259.199 1087.02 244.546 1085.75 236.357C1091.88 249.456 1105.81 253.983 1105.81 253.983L1118.29 267.945L1046.21 274.524L1003.32 272.721Z" fill="#040D17"/>
<path d="M355.016 297.768C350.383 296.7 345.685 296.059 340.964 295.85C344.862 294.256 349.009 293.648 353.127 294.066C353.127 294.066 349.531 286.126 350.89 282.75C352.431 286.912 358.264 293.261 358.264 293.261L357.684 287.257C359.573 288.255 360.601 292.609 360.601 292.609L359.573 283.69C363.335 286.663 364.362 293.011 364.362 293.011C364.362 293.011 367.461 275.558 374.487 272.182C367.627 284.093 369.847 290.422 369.847 290.422L372.084 282.75C372.852 283.794 373.355 285.063 373.537 286.418C373.718 287.772 373.571 289.159 373.112 290.422C373.2 288.41 373.778 286.468 374.777 284.819C375.777 283.171 377.158 281.882 378.763 281.101C377.735 284.937 376.36 291.036 376.36 291.036C376.36 291.036 390.826 269.018 388.092 262.439C388.971 271.776 387.228 281.191 383.121 289.29L389.633 277.783L387.396 286.299C389.227 284.959 390.746 283.12 391.82 280.943C392.895 278.767 393.492 276.318 393.56 273.813C396.145 276.977 393.908 287.104 393.908 287.104C393.908 287.104 398.88 277.975 407.961 277.188C400.934 282.539 399.559 288.696 399.559 288.696L407.845 283.939C404.249 287.123 405.442 288.312 405.442 288.312C407.754 286.968 409.625 284.787 410.77 282.102C411.915 279.416 412.273 276.371 411.788 273.429C413.661 275.807 411.788 287.718 411.788 287.718L420.173 280.046C418.801 281.897 417.83 284.099 417.34 286.471C417.34 286.471 427.117 288.389 422.311 275.75C424.558 277.949 426.319 280.737 427.448 283.882C424.188 274.934 423.044 265.144 424.134 255.516C426.868 275.961 435.27 283.287 435.27 283.287C434.432 282.024 433.955 280.49 433.905 278.899C433.854 277.308 434.233 275.738 434.988 274.407C434.59 280.161 439.959 283.498 439.959 283.498C439.959 283.498 444.765 273.18 440.655 268.807C446.819 273.18 441.848 284.285 441.848 284.285C441.848 284.285 444.93 277.936 448.709 276.613C445.096 279.375 446.637 286.203 446.637 286.203L355.016 297.768Z" fill="#040D17"/>
<path d="M452.886 286.774C448.274 285.561 443.587 284.772 438.867 284.415C442.797 282.932 446.955 282.436 451.063 282.957C451.063 282.957 447.633 274.94 449.075 271.603C450.533 275.803 456.234 282.305 456.234 282.305L455.836 276.34C457.692 277.376 458.636 281.768 458.636 281.768L457.791 272.83C461.503 275.899 462.332 282.267 462.332 282.267C462.332 282.267 465.762 265.005 472.854 261.726C465.762 273.444 467.883 279.831 467.883 279.831L470.269 272.159C471.026 273.231 471.508 274.527 471.66 275.9C471.812 277.273 471.629 278.668 471.131 279.927C471.265 277.917 471.884 275.992 472.918 274.371C473.953 272.75 475.36 271.498 476.98 270.759C475.87 274.499 474.379 280.617 474.379 280.617C474.379 280.617 489.293 258.983 486.608 252.366C487.277 261.701 485.343 271.037 481.09 279.006L487.834 267.671L485.531 276.148C487.39 274.857 488.946 273.057 490.064 270.907C491.183 268.757 491.828 266.322 491.944 263.816C494.446 267.057 491.944 277.107 491.944 277.107C491.944 277.107 497.098 268.132 506.195 267.518C499.07 272.677 497.578 278.795 497.578 278.795L505.864 274.25C502.201 277.338 503.378 278.546 503.378 278.546C505.713 277.264 507.623 275.137 508.819 272.486C510.015 269.835 510.432 266.804 510.006 263.855C511.846 266.271 509.725 278.124 509.725 278.124L518.275 270.625C516.876 272.474 515.891 274.694 515.409 277.088C515.409 277.088 525.136 279.332 520.579 266.52C522.781 268.779 524.485 271.613 525.55 274.787C522.491 265.749 521.565 255.933 522.865 246.344C525.301 266.885 533.587 274.461 533.587 274.461C532.788 273.17 532.35 271.626 532.333 270.039C532.315 268.451 532.718 266.895 533.487 265.581C532.974 271.334 538.21 274.768 538.21 274.768C538.21 274.768 543.181 264.583 539.188 260.115C545.269 264.641 540.083 275.611 540.083 275.611C540.083 275.611 543.297 269.359 547.092 268.074C543.43 270.74 545.253 278.814 545.253 278.814L452.886 286.774Z" fill="#040D17"/>
<path d="M1200.88 272.261C1196.45 270.371 1191.9 268.896 1187.26 267.85C1191.31 266.958 1195.48 267.075 1199.49 268.195C1199.49 268.195 1196.97 259.737 1198.76 256.687C1199.76 261.079 1204.68 268.368 1204.68 268.368L1204.96 262.441C1206.7 263.745 1207.15 268.195 1207.15 268.195L1207.3 259.2C1210.61 262.806 1210.82 269.25 1210.82 269.25C1210.82 269.25 1216.14 252.525 1223.53 250.416C1215.25 261.003 1216.57 267.677 1216.57 267.677L1219.79 260.427C1222.09 264.033 1219.79 268.253 1219.79 268.253C1220.14 266.278 1220.96 264.456 1222.16 262.998C1223.36 261.539 1224.9 260.502 1226.58 260.005C1225.08 263.554 1222.92 269.403 1222.92 269.403C1222.92 269.403 1240.02 250.224 1238.17 243.185C1237.81 252.547 1234.86 261.529 1229.77 268.809L1237.7 258.567L1234.39 266.603C1236.37 265.597 1238.12 264.043 1239.46 262.077C1240.81 260.111 1241.72 257.793 1242.11 255.326C1244.25 258.912 1240.72 268.521 1240.72 268.521C1240.72 268.521 1246.82 260.37 1255.9 261.175C1248.26 265.241 1246.1 271.072 1246.1 271.072L1254.85 267.811C1250.89 270.324 1251.92 271.647 1251.92 271.647C1254.4 270.74 1256.55 268.919 1258.04 266.463C1259.54 264.007 1260.3 261.052 1260.21 258.049C1261.76 260.734 1258.35 272.165 1258.35 272.165L1267.66 265.97C1266.07 267.62 1264.85 269.703 1264.12 272.031C1264.12 272.031 1273.51 275.694 1270.41 262.307C1272.35 264.873 1273.73 267.937 1274.44 271.245C1272.4 261.827 1272.56 251.951 1274.9 242.629C1274.9 263.304 1282.31 272.031 1282.31 272.031C1281.65 270.636 1281.38 269.038 1281.54 267.458C1281.69 265.877 1282.27 264.392 1283.19 263.208C1282.05 268.77 1286.87 273.028 1286.87 273.028C1286.87 273.028 1292.95 263.669 1289.45 258.644C1294.97 264.033 1288.63 274.141 1288.63 274.141C1288.63 274.141 1292.5 268.387 1296.4 267.696C1292.49 269.806 1293.4 278.092 1293.4 278.092L1200.88 272.261Z" fill="#040D17"/>
<path d="M1462.97 292.936C1458.68 290.688 1454.25 288.841 1449.71 287.412C1453.82 286.854 1457.98 287.318 1461.92 288.774C1461.92 288.774 1459.92 280.124 1461.92 277.266C1462.64 281.735 1467.09 289.407 1467.09 289.407L1467.74 283.48C1469.4 284.919 1469.55 289.445 1469.55 289.445L1470.26 280.469C1473.36 284.305 1473.16 290.788 1473.16 290.788C1473.16 290.788 1479.49 274.562 1487 273.066C1478.03 282.924 1478.99 289.675 1478.99 289.675L1482.64 282.713C1483.2 283.934 1483.45 285.313 1483.37 286.693C1483.29 288.073 1482.88 289.399 1482.17 290.519C1482.64 288.576 1483.58 286.825 1484.87 285.468C1486.15 284.111 1487.75 283.203 1489.47 282.847C1487.81 286.261 1485.24 291.9 1485.24 291.9C1485.24 291.9 1503.47 274.121 1502.06 266.967C1501.13 276.294 1497.65 285.033 1492.12 291.9L1500.65 282.31L1496.86 289.982C1498.9 289.142 1500.74 287.734 1502.2 285.881C1503.67 284.029 1504.72 281.788 1505.26 279.357C1507.16 283.193 1503.05 292.418 1503.05 292.418C1503.05 292.418 1509.68 284.746 1518.65 286.338C1510.78 289.752 1508.27 295.41 1508.27 295.41L1517.2 292.859C1513.08 295.045 1514.02 296.503 1514.02 296.503C1516.54 295.786 1518.78 294.139 1520.41 291.813C1522.04 289.487 1522.97 286.608 1523.05 283.614C1524.43 286.415 1520.32 297.558 1520.32 297.558L1530 292.149C1528.3 293.664 1526.95 295.64 1526.07 297.903C1526.07 297.903 1535.22 302.334 1532.96 288.735C1534.74 291.452 1535.93 294.622 1536.43 297.98C1534.98 288.418 1535.75 278.582 1538.66 269.479C1537.31 290.059 1544.17 299.361 1544.17 299.361C1543.59 297.913 1543.43 296.295 1543.68 294.731C1543.94 293.168 1544.61 291.736 1545.61 290.634C1544.12 296.081 1548.66 300.742 1548.66 300.742C1548.66 300.742 1555.29 291.9 1552.12 286.587C1557.31 292.437 1550.33 301.931 1550.33 301.931C1550.33 301.931 1554.56 296.541 1558.5 296.177C1554.46 297.961 1554.85 306.304 1554.85 306.304L1462.97 292.936Z" fill="#040D17"/>
<path d="M303 307.607C303.348 302.966 307.192 296.1 309.628 290.212C309.227 294.39 308.523 298.521 307.524 302.563C307.524 302.563 315.594 293.856 311.053 283.115C315.246 289.387 315.594 298.881 315.594 298.881C315.594 298.881 318.361 291.458 319.952 289.847C318.046 295.601 319.273 298.286 319.273 298.286C319.273 298.286 324.36 294.911 322.156 292.379C323.299 294.642 324.874 298.478 324.874 298.478C324.6 295.838 325.022 293.164 326.083 290.806C327.31 294.642 328.668 299.053 328.668 299.053C328.668 299.053 325.918 287.776 333.789 284.324C328.37 296.483 333.408 299.111 333.408 299.111C333.239 297.49 333.548 295.85 334.285 294.458C335.022 293.066 336.143 292.002 337.468 291.439C336.589 294.68 335.711 298.516 335.711 298.516C335.711 298.516 341.478 294.68 336.937 286.587C342.008 289.809 340.964 297.308 340.964 297.308C340.964 297.308 340.616 294.469 345.339 292.647C344.427 295.467 353.906 296.963 353.906 296.963L303 307.607Z" fill="#040D17"/>
<path d="M1291.85 279.162C1293.24 274.789 1298.48 269.304 1302.21 264.375C1300.87 268.287 1299.26 272.065 1297.39 275.671C1297.39 275.671 1307.13 269.707 1305.16 257.969C1307.79 265.295 1305.97 274.597 1305.97 274.597C1305.97 274.597 1310.34 268.249 1312.22 267.194C1309.07 272.2 1309.67 275.115 1309.67 275.115C1309.67 275.115 1315.35 273.408 1313.77 270.301C1314.37 272.814 1315.02 277.014 1315.02 277.014C1315.35 274.373 1316.37 271.911 1317.93 269.956C1318.25 274.041 1318.56 278.682 1318.56 278.682C1318.56 278.682 1318.46 266.983 1326.85 266.043C1318.85 276.055 1323.14 280.198 1323.14 280.198C1323.34 278.579 1324 277.086 1325.03 275.961C1326.06 274.836 1327.38 274.146 1328.79 274.003C1327.21 276.86 1325.47 280.313 1325.47 280.313C1325.47 280.313 1331.92 278.395 1329.37 269.15C1333.53 273.811 1330.83 280.658 1330.83 280.658C1330.83 280.658 1331.12 277.819 1336.1 277.493C1334.6 279.967 1343.4 284.206 1343.4 284.206L1291.85 279.162Z" fill="#040D17"/>
<path d="M1415.67 287.162C1417.07 282.77 1422.3 277.304 1426.03 272.375C1424.7 276.282 1423.08 280.054 1421.21 283.652C1421.21 283.652 1430.94 277.707 1428.98 265.969C1431.62 273.295 1429.79 282.578 1429.79 282.578C1429.79 282.578 1434.15 276.249 1436.04 275.175C1432.89 280.2 1433.47 283.115 1433.47 283.115C1433.47 283.115 1439.16 281.408 1437.6 278.282C1438.18 280.814 1438.84 285.014 1438.84 285.014C1439.17 282.373 1440.19 279.911 1441.76 277.956C1442.07 282.041 1442.39 286.682 1442.39 286.682C1442.39 286.682 1442.27 274.964 1450.67 274.043C1442.69 284.112 1446.96 288.198 1446.96 288.198C1447.16 286.577 1447.83 285.081 1448.85 283.953C1449.88 282.825 1451.2 282.131 1452.61 281.984C1450.95 284.841 1449.3 288.294 1449.3 288.294C1449.3 288.294 1455.74 286.376 1453.19 277.131C1457.35 281.811 1454.63 288.639 1454.63 288.639C1454.63 288.639 1454.95 285.8 1459.92 285.474C1458.43 287.948 1467.23 292.187 1467.23 292.187L1415.67 287.162Z" fill="#040D17"/>
<path d="M548.005 276.745C548.09 275.899 548.417 275.11 548.933 274.502C549.449 273.894 550.125 273.503 550.855 273.389C549.513 275.192 551.634 276.995 551.634 276.995C551.634 276.995 560.997 266.024 554.948 259.58C557.33 261.317 559.3 263.714 560.68 266.553C562.06 269.393 562.807 272.586 562.853 275.844L567.824 268.613C567.326 270.475 567.213 272.446 567.492 274.367C567.492 274.367 569.614 272.046 569.382 270.359C569.976 270.84 570.48 271.455 570.864 272.167C571.248 272.878 571.505 273.672 571.619 274.501C571.619 274.501 575.844 264.682 582.539 262.879C576.292 267.654 576.855 273.581 576.855 273.581C576.855 273.581 582.539 270.876 581.826 267.52C583.715 267.405 582.937 273.466 582.937 273.466C582.937 273.466 591.305 268.172 582.721 257.969C587.958 260.558 590.294 267.002 586.947 272.296C590.626 271.663 590.261 266.024 593.393 265.219C592.894 266.183 592.604 267.273 592.549 268.396C592.494 269.518 592.676 270.639 593.078 271.663L595.647 267.827C597.768 268.978 594.984 271.816 594.984 271.816C594.984 271.816 600.552 271.049 598.215 262.668C599.192 263.949 599.909 265.465 600.316 267.108C600.723 268.75 600.809 270.476 600.568 272.161L604.744 268.326C603.75 271.682 612.218 274.904 612.218 274.904L544.227 279.066C544.175 278.008 544.376 276.954 544.809 276.02C545.242 275.085 545.889 274.308 546.679 273.773C546.517 274.057 546.424 274.386 546.408 274.726C546.392 275.067 546.455 275.405 546.59 275.708C546.725 276.011 546.927 276.267 547.176 276.449C547.425 276.631 547.711 276.734 548.005 276.745V276.745Z" fill="#040D17"/>
<path d="M805.026 266.997C805.204 265.726 805.744 264.562 806.561 263.689C807.378 262.816 808.425 262.286 809.533 262.183C807.445 264.791 810.511 267.649 810.511 267.649C810.511 267.649 825.093 251.864 816.41 241.795C819.893 244.562 822.725 248.292 824.649 252.645C826.574 256.999 827.529 261.839 827.43 266.728L835.301 256.256C833.925 262.202 834.505 264.733 834.505 264.733C834.505 264.733 837.82 261.396 837.554 258.884C840.173 260.552 840.67 265.213 840.67 265.213C840.67 265.213 847.514 250.828 857.622 248.584C848.027 255.297 848.558 264.216 848.558 264.216C848.558 264.216 857.208 260.552 856.379 255.489C859.229 255.489 857.738 264.446 857.738 264.446C857.738 264.446 870.531 257.1 858.202 241.258C865.907 245.477 869.089 255.297 863.803 262.988C869.354 262.259 869.089 253.82 873.828 252.842C873.029 254.243 872.537 255.849 872.396 257.521C872.254 259.192 872.467 260.878 873.016 262.432L877.06 256.812C880.158 258.73 875.85 262.758 875.85 262.758C875.85 262.758 884.235 261.991 881.153 249.332C885.726 257.273 883.837 263.755 883.837 263.755L890.366 258.462C888.709 263.41 901.204 268.819 901.204 268.819L799.242 270.334C799.233 268.763 799.594 267.219 800.286 265.867C800.978 264.515 801.975 263.407 803.17 262.662C802.965 263.077 802.852 263.544 802.84 264.022C802.828 264.499 802.917 264.973 803.101 265.401C803.284 265.829 803.555 266.199 803.891 266.477C804.227 266.755 804.616 266.934 805.026 266.997Z" fill="#040D17"/>
<path d="M330.909 285.792C324.197 284.603 313.625 279.213 313.625 279.213C313.625 279.213 324.446 280.421 330.909 281.016C326.517 276.528 329.599 267.705 329.599 267.705C329.599 267.705 331.936 278.024 335.797 279.808C335.824 277.206 336.176 274.622 336.841 272.136L340.702 278.101C340.702 278.101 337.752 264.867 343.237 256.255C343.552 273.325 351.291 279.597 351.291 279.597C351.291 279.597 356.262 270.64 353.611 264.963C355.115 266.569 356.329 268.505 357.182 270.658C358.035 272.811 358.511 275.139 358.582 277.506C358.582 277.506 359.626 267.36 367.365 263.467C365.35 267.972 364.798 273.164 365.807 278.101C365.807 278.101 379.478 268.837 368.127 245.266C383.356 260.494 374.076 277.199 374.076 277.199C374.076 277.199 380.008 268.837 384.135 267.053C380.522 273.632 383.621 276.317 383.621 276.317L386.935 271.234C386.935 271.234 389.255 274.821 386.421 280.498C389.735 280.191 392.089 273.325 392.089 273.325L389.719 280.21C389.719 280.21 405.71 272.155 387.913 254.836C403.141 269.47 401.352 275.646 401.352 275.646C401.352 275.646 396.38 261.395 394.624 253.34C401.584 265.883 415.785 269.163 415.785 269.163L429.257 281.898L357.803 294.748L330.909 285.792Z" fill="#040D17"/>
<path d="M1059.51 293.62C1053.04 291.338 1043.23 284.28 1043.23 284.28C1043.23 284.28 1053.8 287.234 1060.11 288.902C1056.32 283.743 1060.46 275.477 1060.46 275.477C1060.46 275.477 1061.5 286.064 1065.12 288.48C1065.46 285.879 1066.13 283.348 1067.09 280.962L1070.19 287.521C1070.19 287.521 1068.89 273.923 1075.37 266.309C1073.58 283.264 1080.46 290.744 1080.46 290.744C1080.46 290.744 1086.43 282.688 1084.57 276.647C1085.85 278.487 1086.8 280.602 1087.37 282.87C1087.94 285.138 1088.11 287.514 1087.88 289.861C1087.88 289.861 1090.15 279.984 1098.31 277.433C1095.76 281.556 1094.59 286.601 1094.99 291.645C1094.99 291.645 1109.67 284.74 1101.34 259.52C1114.6 277.107 1103.28 292.124 1103.28 292.124C1103.28 292.124 1110.19 284.836 1114.48 283.743C1110.11 289.65 1112.82 292.815 1112.82 292.815L1116.68 288.404C1116.68 288.404 1118.54 292.24 1115.03 297.476C1118.34 297.744 1121.54 291.319 1121.54 291.319L1118.39 297.744C1118.39 297.744 1135.21 292.393 1119.73 272.312C1132.99 289.305 1130.45 295.136 1130.45 295.136C1130.45 295.136 1127.39 280.195 1126.63 271.948C1131.98 285.508 1145.62 291.127 1145.62 291.127L1157.32 306.049L1085 306.95L1059.51 293.62Z" fill="#040D17"/>
<path d="M723.323 284.721C716.694 282.937 723.24 267.21 723.24 267.21C723.24 267.21 733.961 269.339 740.358 270.49C736.265 265.637 739.91 257.064 739.91 257.064C739.91 257.064 741.567 267.575 745.313 269.684C745.51 267.056 746.029 264.473 746.854 262.013L750.317 268.303C750.317 268.303 748.246 254.878 754.261 246.746C753.465 263.796 760.773 270.72 760.773 270.72C760.773 270.72 766.242 262.224 764.087 256.335C765.47 258.073 766.541 260.109 767.241 262.328C767.94 264.546 768.254 266.903 768.164 269.262C768.164 269.262 769.821 259.232 777.825 256.029C775.502 260.38 774.614 265.556 775.323 270.605C775.323 270.605 789.557 262.569 779.78 238C793.915 254.513 783.608 270.375 783.608 270.375C783.608 270.375 790.071 262.55 794.313 261.13C790.286 267.364 793.186 270.317 793.186 270.317L796.865 265.542C796.865 265.542 798.953 269.377 795.755 274.728C799.069 274.728 801.869 268.073 801.869 268.073L799.118 274.728C799.118 274.728 815.59 268.073 798.969 249.258C813.187 265.177 811 271.199 811 271.199C811 271.199 807.023 256.546 805.747 248.357C811.878 261.456 825.814 265.983 825.814 265.983L838.292 279.945L766.208 286.524L723.323 284.721Z" fill="#040D17"/>
<path d="M75.0163 309.768C70.3833 308.7 65.6846 308.059 60.9641 307.85C64.8618 306.256 69.0093 305.648 73.1272 306.066C73.1272 306.066 69.5313 298.126 70.8901 294.75C72.4312 298.912 78.2642 305.261 78.2642 305.261L77.6842 299.257C79.5733 300.255 80.6007 304.609 80.6007 304.609L79.5733 295.69C83.3349 298.663 84.3623 305.011 84.3623 305.011C84.3623 305.011 87.4611 287.558 94.4872 284.182C87.6268 296.093 89.8473 302.422 89.8473 302.422L92.0844 294.75C92.8525 295.794 93.3552 297.063 93.5366 298.418C93.718 299.772 93.571 301.159 93.1118 302.422C93.2003 300.41 93.7776 298.468 94.7772 296.819C95.7768 295.171 97.1582 293.882 98.7625 293.101C97.7351 296.937 96.3597 303.036 96.3597 303.036C96.3597 303.036 110.826 281.018 108.092 274.439C108.971 283.776 107.228 293.191 103.121 301.29L109.633 289.783L107.396 298.299C109.227 296.959 110.746 295.12 111.82 292.943C112.895 290.767 113.492 288.318 113.56 285.813C116.145 288.977 113.908 299.104 113.908 299.104C113.908 299.104 118.88 289.975 127.961 289.188C120.934 294.539 119.559 300.696 119.559 300.696L127.845 295.939C124.249 299.123 125.442 300.312 125.442 300.312C127.754 298.968 129.625 296.787 130.77 294.102C131.915 291.416 132.273 288.371 131.788 285.429C133.661 287.807 131.788 299.718 131.788 299.718L140.173 292.046C138.801 293.897 137.83 296.099 137.34 298.471C137.34 298.471 147.117 300.389 142.311 287.75C144.558 289.949 146.319 292.737 147.448 295.882C144.188 286.934 143.044 277.144 144.134 267.516C146.868 287.961 155.27 295.287 155.27 295.287C154.432 294.024 153.955 292.49 153.905 290.899C153.854 289.308 154.233 287.738 154.988 286.407C154.59 292.161 159.959 295.498 159.959 295.498C159.959 295.498 164.765 285.18 160.655 280.807C166.819 285.18 161.848 296.285 161.848 296.285C161.848 296.285 164.93 289.936 168.709 288.613C165.096 291.375 166.637 298.203 166.637 298.203L75.0163 309.768Z" fill="#040D17"/>
<path d="M172.886 298.774C168.274 297.561 163.587 296.772 158.867 296.415C162.797 294.932 166.955 294.436 171.063 294.957C171.063 294.957 167.633 286.94 169.075 283.603C170.533 287.803 176.234 294.305 176.234 294.305L175.836 288.34C177.692 289.376 178.636 293.768 178.636 293.768L177.791 284.83C181.503 287.899 182.332 294.267 182.332 294.267C182.332 294.267 185.762 277.005 192.854 273.726C185.762 285.444 187.883 291.831 187.883 291.831L190.269 284.159C191.026 285.231 191.508 286.527 191.66 287.9C191.812 289.273 191.629 290.668 191.131 291.927C191.265 289.917 191.884 287.992 192.918 286.371C193.953 284.75 195.36 283.498 196.98 282.759C195.87 286.499 194.379 292.617 194.379 292.617C194.379 292.617 209.293 270.983 206.608 264.366C207.277 273.701 205.343 283.037 201.09 291.006L207.834 279.671L205.531 288.148C207.39 286.857 208.946 285.057 210.064 282.907C211.183 280.757 211.828 278.322 211.944 275.816C214.446 279.057 211.944 289.107 211.944 289.107C211.944 289.107 217.098 280.132 226.195 279.518C219.07 284.677 217.578 290.795 217.578 290.795L225.864 286.25C222.201 289.338 223.378 290.546 223.378 290.546C225.713 289.264 227.623 287.137 228.819 284.486C230.015 281.835 230.432 278.804 230.006 275.855C231.846 278.271 229.725 290.124 229.725 290.124L238.275 282.625C236.876 284.474 235.891 286.694 235.409 289.088C235.409 289.088 245.136 291.332 240.579 278.52C242.781 280.779 244.485 283.613 245.55 286.787C242.491 277.749 241.565 267.933 242.865 258.344C245.301 278.885 253.587 286.461 253.587 286.461C252.788 285.17 252.35 283.626 252.333 282.039C252.315 280.451 252.718 278.895 253.487 277.581C252.974 283.334 258.21 286.768 258.21 286.768C258.21 286.768 263.181 276.583 259.188 272.115C265.269 276.641 260.083 287.611 260.083 287.611C260.083 287.611 263.297 281.359 267.092 280.074C263.43 282.74 265.253 290.814 265.253 290.814L172.886 298.774Z" fill="#040D17"/>
<path d="M920.882 284.261C916.451 282.371 911.896 280.896 907.261 279.85C911.312 278.958 915.481 279.075 919.49 280.195C919.49 280.195 916.971 271.737 918.761 268.687C919.755 273.079 924.677 280.368 924.677 280.368L924.959 274.441C926.698 275.745 927.146 280.195 927.146 280.195L927.295 271.2C930.609 274.806 930.825 281.25 930.825 281.25C930.825 281.25 936.144 264.525 943.535 262.416C935.249 273.003 936.575 279.677 936.575 279.677L939.79 272.427C942.093 276.033 939.79 280.253 939.79 280.253C940.138 278.278 940.96 276.456 942.162 274.998C943.363 273.539 944.896 272.502 946.584 272.005C945.076 275.554 942.922 281.403 942.922 281.403C942.922 281.403 960.023 262.224 958.167 255.185C957.809 264.547 954.864 273.529 949.765 280.809L957.703 270.567L954.389 278.603C956.374 277.597 958.117 276.043 959.463 274.077C960.809 272.111 961.718 269.793 962.111 267.326C964.248 270.912 960.719 280.521 960.719 280.521C960.719 280.521 966.817 272.37 975.898 273.175C968.258 277.241 966.104 283.072 966.104 283.072L974.854 279.811C970.893 282.324 971.921 283.647 971.921 283.647C974.396 282.74 976.546 280.919 978.042 278.463C979.538 276.007 980.298 273.052 980.206 270.049C981.764 272.734 978.35 284.165 978.35 284.165L987.663 277.97C986.067 279.62 984.848 281.703 984.117 284.031C984.117 284.031 993.513 287.694 990.414 274.307C992.352 276.873 993.732 279.937 994.441 283.245C992.402 273.827 992.562 263.951 994.905 254.629C994.905 275.304 1002.31 284.031 1002.31 284.031C1001.65 282.636 1001.38 281.038 1001.54 279.458C1001.69 277.877 1002.27 276.392 1003.19 275.208C1002.05 280.77 1006.87 285.028 1006.87 285.028C1006.87 285.028 1012.95 275.669 1009.45 270.644C1014.97 276.033 1008.63 286.141 1008.63 286.141C1008.63 286.141 1012.5 280.387 1016.4 279.696C1012.49 281.806 1013.4 290.092 1013.4 290.092L920.882 284.261Z" fill="#040D17"/>
<path d="M1182.97 304.936C1178.68 302.688 1174.25 300.841 1169.71 299.412C1173.82 298.854 1177.98 299.318 1181.92 300.774C1181.92 300.774 1179.92 292.124 1181.92 289.266C1182.64 293.735 1187.09 301.407 1187.09 301.407L1187.74 295.48C1189.4 296.919 1189.55 301.445 1189.55 301.445L1190.26 292.469C1193.36 296.305 1193.16 302.788 1193.16 302.788C1193.16 302.788 1199.49 286.562 1207 285.066C1198.03 294.924 1198.99 301.675 1198.99 301.675L1202.64 294.713C1203.2 295.934 1203.45 297.313 1203.37 298.693C1203.29 300.073 1202.88 301.399 1202.17 302.519C1202.64 300.576 1203.58 298.825 1204.87 297.468C1206.15 296.111 1207.75 295.203 1209.47 294.847C1207.81 298.261 1205.24 303.9 1205.24 303.9C1205.24 303.9 1223.47 286.121 1222.06 278.967C1221.13 288.294 1217.65 297.033 1212.12 303.9L1220.65 294.31L1216.86 301.982C1218.9 301.142 1220.74 299.734 1222.2 297.881C1223.67 296.029 1224.72 293.788 1225.26 291.357C1227.16 295.193 1223.05 304.418 1223.05 304.418C1223.05 304.418 1229.68 296.746 1238.65 298.338C1230.78 301.752 1228.27 307.41 1228.27 307.41L1237.2 304.859C1233.08 307.045 1234.02 308.503 1234.02 308.503C1236.54 307.786 1238.78 306.139 1240.41 303.813C1242.04 301.487 1242.97 298.608 1243.05 295.614C1244.43 298.415 1240.32 309.558 1240.32 309.558L1250 304.149C1248.3 305.664 1246.95 307.64 1246.07 309.903C1246.07 309.903 1255.22 314.334 1252.96 300.735C1254.74 303.452 1255.93 306.622 1256.43 309.98C1254.98 300.418 1255.75 290.582 1258.66 281.479C1257.31 302.059 1264.17 311.361 1264.17 311.361C1263.59 309.913 1263.43 308.295 1263.68 306.731C1263.94 305.168 1264.61 303.736 1265.61 302.634C1264.12 308.081 1268.66 312.742 1268.66 312.742C1268.66 312.742 1275.29 303.9 1272.12 298.587C1277.31 304.437 1270.33 313.931 1270.33 313.931C1270.33 313.931 1274.56 308.541 1278.5 308.177C1274.46 309.961 1274.85 318.304 1274.85 318.304L1182.97 304.936Z" fill="#040D17"/>
<path d="M23 319.607C23.348 314.966 27.1925 308.1 29.6284 302.212C29.2269 306.39 28.5229 310.521 27.5239 314.563C27.5239 314.563 35.5939 305.856 31.0535 295.115C35.246 301.387 35.5939 310.881 35.5939 310.881C35.5939 310.881 38.3613 303.458 39.9521 301.847C38.0464 307.601 39.2727 310.286 39.2727 310.286C39.2727 310.286 44.36 306.911 42.156 304.379C43.2994 306.642 44.8737 310.478 44.8737 310.478C44.5999 307.838 45.0215 305.164 46.0834 302.806C47.3096 306.642 48.6684 311.053 48.6684 311.053C48.6684 311.053 45.9177 299.776 53.7889 296.324C48.3702 308.483 53.4077 311.111 53.4077 311.111C53.2392 309.49 53.5484 307.85 54.2852 306.458C55.022 305.066 56.1434 304.002 57.4676 303.439C56.5894 306.68 55.7111 310.516 55.7111 310.516C55.7111 310.516 61.4778 306.68 56.9374 298.587C62.0081 301.809 60.9641 309.308 60.9641 309.308C60.9641 309.308 60.6161 306.469 65.3388 304.647C64.4274 307.467 73.906 308.963 73.906 308.963L23 319.607Z" fill="#040D17"/>
<path d="M1011.85 291.162C1013.24 286.789 1018.48 281.304 1022.21 276.375C1020.87 280.287 1019.26 284.065 1017.39 287.671C1017.39 287.671 1027.13 281.707 1025.16 269.969C1027.79 277.295 1025.97 286.597 1025.97 286.597C1025.97 286.597 1030.34 280.249 1032.22 279.194C1029.07 284.2 1029.67 287.115 1029.67 287.115C1029.67 287.115 1035.35 285.408 1033.77 282.301C1034.37 284.814 1035.02 289.014 1035.02 289.014C1035.35 286.373 1036.37 283.911 1037.93 281.956C1038.25 286.041 1038.56 290.682 1038.56 290.682C1038.56 290.682 1038.46 278.983 1046.85 278.043C1038.85 288.055 1043.14 292.198 1043.14 292.198C1043.34 290.579 1044 289.086 1045.03 287.961C1046.06 286.836 1047.38 286.146 1048.79 286.003C1047.21 288.86 1045.47 292.313 1045.47 292.313C1045.47 292.313 1051.92 290.395 1049.37 281.15C1053.53 285.811 1050.83 292.658 1050.83 292.658C1050.83 292.658 1051.12 289.819 1056.1 289.493C1054.6 291.967 1063.4 296.206 1063.4 296.206L1011.85 291.162Z" fill="#040D17"/>
<path d="M1135.67 299.162C1137.07 294.77 1142.3 289.304 1146.03 284.375C1144.7 288.282 1143.08 292.054 1141.21 295.652C1141.21 295.652 1150.94 289.707 1148.98 277.969C1151.62 285.295 1149.79 294.578 1149.79 294.578C1149.79 294.578 1154.15 288.249 1156.04 287.175C1152.89 292.2 1153.47 295.115 1153.47 295.115C1153.47 295.115 1159.16 293.408 1157.6 290.282C1158.18 292.814 1158.84 297.014 1158.84 297.014C1159.17 294.373 1160.19 291.911 1161.76 289.956C1162.07 294.041 1162.39 298.682 1162.39 298.682C1162.39 298.682 1162.27 286.964 1170.67 286.043C1162.69 296.112 1166.96 300.198 1166.96 300.198C1167.16 298.577 1167.83 297.081 1168.85 295.953C1169.88 294.825 1171.2 294.131 1172.61 293.984C1170.95 296.841 1169.3 300.294 1169.3 300.294C1169.3 300.294 1175.74 298.376 1173.19 289.131C1177.35 293.811 1174.63 300.639 1174.63 300.639C1174.63 300.639 1174.95 297.8 1179.92 297.474C1178.43 299.948 1187.23 304.187 1187.23 304.187L1135.67 299.162Z" fill="#040D17"/>
<path d="M268.005 288.745C268.09 287.899 268.417 287.11 268.933 286.502C269.449 285.894 270.125 285.503 270.855 285.389C269.513 287.192 271.634 288.995 271.634 288.995C271.634 288.995 280.997 278.024 274.948 271.58C277.33 273.317 279.3 275.714 280.68 278.553C282.06 281.393 282.807 284.586 282.853 287.844L287.824 280.613C287.326 282.475 287.213 284.446 287.492 286.367C287.492 286.367 289.614 284.046 289.382 282.359C289.976 282.84 290.48 283.455 290.864 284.167C291.248 284.878 291.505 285.672 291.619 286.501C291.619 286.501 295.844 276.682 302.539 274.879C296.292 279.654 296.855 285.581 296.855 285.581C296.855 285.581 302.539 282.876 301.826 279.52C303.715 279.405 302.937 285.466 302.937 285.466C302.937 285.466 311.305 280.172 302.721 269.969C307.958 272.558 310.294 279.002 306.947 284.296C310.626 283.663 310.261 278.024 313.393 277.219C312.894 278.183 312.604 279.273 312.549 280.396C312.494 281.518 312.676 282.639 313.078 283.663L315.647 279.827C317.768 280.978 314.984 283.816 314.984 283.816C314.984 283.816 320.552 283.049 318.215 274.668C319.192 275.949 319.909 277.465 320.316 279.108C320.723 280.75 320.809 282.476 320.568 284.161L324.744 280.326C323.75 283.682 332.218 286.904 332.218 286.904L264.227 291.066C264.175 290.008 264.376 288.954 264.809 288.02C265.242 287.085 265.889 286.308 266.679 285.773C266.517 286.057 266.424 286.386 266.408 286.726C266.392 287.067 266.455 287.405 266.59 287.708C266.725 288.011 266.927 288.267 267.176 288.449C267.425 288.631 267.711 288.734 268.005 288.745V288.745Z" fill="#040D17"/>
<path d="M525.026 278.997C525.204 277.726 525.744 276.562 526.561 275.689C527.378 274.816 528.425 274.286 529.533 274.183C527.445 276.791 530.511 279.649 530.511 279.649C530.511 279.649 545.093 263.864 536.41 253.795C539.893 256.562 542.725 260.292 544.649 264.645C546.574 268.999 547.529 273.839 547.43 278.728L555.301 268.256C553.925 274.202 554.505 276.733 554.505 276.733C554.505 276.733 557.82 273.396 557.554 270.884C560.173 272.552 560.67 277.213 560.67 277.213C560.67 277.213 567.514 262.828 577.622 260.584C568.027 267.297 568.558 276.216 568.558 276.216C568.558 276.216 577.208 272.552 576.379 267.489C579.229 267.489 577.738 276.446 577.738 276.446C577.738 276.446 590.531 269.1 578.202 253.258C585.907 257.477 589.089 267.297 583.803 274.988C589.354 274.259 589.089 265.82 593.828 264.842C593.029 266.243 592.537 267.849 592.396 269.521C592.254 271.192 592.467 272.878 593.016 274.432L597.06 268.812C600.158 270.73 595.85 274.758 595.85 274.758C595.85 274.758 604.235 273.991 601.153 261.332C605.726 269.273 603.837 275.755 603.837 275.755L610.366 270.462C608.709 275.41 621.204 280.819 621.204 280.819L519.242 282.334C519.233 280.763 519.594 279.219 520.286 277.867C520.978 276.515 521.975 275.407 523.17 274.662C522.965 275.077 522.852 275.544 522.84 276.022C522.828 276.499 522.917 276.973 523.101 277.401C523.284 277.829 523.555 278.199 523.891 278.477C524.227 278.755 524.616 278.934 525.026 278.997Z" fill="#040D17"/>
<path d="M1177.12 275.286C1170.5 273.67 1160.29 267.614 1160.29 267.614C1160.29 267.614 1171.01 269.513 1177.42 270.521C1173.33 265.76 1176.97 257.154 1176.97 257.154C1176.97 257.154 1178.64 267.601 1182.38 269.628C1182.57 267.033 1183.09 264.477 1183.91 262.039L1187.38 268.239C1187.38 268.239 1185.29 254.843 1191.31 246.601C1190.53 263.656 1197.86 270.41 1197.86 270.41C1197.86 270.41 1203.39 261.79 1201.11 255.955C1202.51 257.654 1203.59 259.664 1204.31 261.867C1205.02 264.071 1205.35 266.424 1205.27 268.791C1205.27 268.791 1206.96 258.733 1214.93 255.343C1212.63 259.71 1211.75 264.856 1212.44 269.847C1212.44 269.847 1226.67 261.478 1216.86 237.228C1231.08 253.401 1220.75 269.477 1220.75 269.477C1220.75 269.477 1227.2 261.512 1231.44 259.997C1227.41 266.33 1230.33 269.209 1230.33 269.209L1233.96 264.349C1233.96 264.349 1236.05 268.077 1232.86 273.56C1236.18 273.467 1238.97 266.765 1238.97 266.765L1236.17 273.485C1236.17 273.485 1252.64 266.47 1235.99 248.047C1250.25 263.626 1248.07 269.675 1248.07 269.675C1248.07 269.675 1244.02 255.135 1242.78 246.984C1248.92 259.947 1262.89 264.13 1262.89 264.13L1275.51 277.702L1203.38 285.948L1177.12 275.286Z" fill="#040D17"/>
<path d="M1903.73 329.78C1897.41 327.087 1888.07 319.415 1888.07 319.415C1888.07 319.415 1898.43 323.04 1904.62 325.109C1901.17 319.718 1905.83 311.734 1905.83 311.734C1905.83 311.734 1906.19 322.366 1909.64 325.009C1910.16 322.435 1910.98 319.951 1912.09 317.632L1914.77 324.377C1914.77 324.377 1914.35 310.724 1921.3 303.54C1918.43 320.345 1924.81 328.251 1924.81 328.251C1924.81 328.251 1931.28 320.594 1929.82 314.446C1930.98 316.364 1931.79 318.536 1932.21 320.836C1932.63 323.136 1932.66 325.518 1932.28 327.846C1932.28 327.846 1935.18 318.134 1943.48 316.111C1940.67 320.063 1939.18 325.021 1939.26 330.081C1939.26 330.081 1954.35 324.132 1947.65 298.428C1959.75 316.829 1947.5 331.091 1947.5 331.091C1947.5 331.091 1954.86 324.26 1959.21 323.444C1954.47 329.059 1956.98 332.391 1956.98 332.391L1961.11 328.236C1961.11 328.236 1962.72 332.183 1958.88 337.183C1962.17 337.664 1965.77 331.457 1965.77 331.457L1962.22 337.667C1962.22 337.667 1979.35 333.404 1965.19 312.373C1977.33 330.181 1974.42 335.837 1974.42 335.837C1974.42 335.837 1972.32 320.73 1972.09 312.451C1976.56 326.326 1989.81 332.808 1989.81 332.808L2000.53 348.448L1928.31 344.715L1903.73 329.78Z" fill="#040D17"/>
<path d="M1568.79 299.36C1562.29 297.155 1569.83 281.88 1569.83 281.88C1569.83 281.88 1580.4 284.691 1586.71 286.25C1582.93 281.145 1587.12 272.823 1587.12 272.823C1587.12 272.823 1588.1 283.418 1591.7 285.763C1592.07 283.152 1592.75 280.608 1593.73 278.206L1596.79 284.706C1596.79 284.706 1595.58 271.175 1602.1 263.445C1600.22 280.41 1607.07 287.787 1607.07 287.787C1607.07 287.787 1613.07 279.659 1611.29 273.645C1612.56 275.467 1613.5 277.568 1614.06 279.827C1614.61 282.085 1614.78 284.457 1614.53 286.806C1614.53 286.806 1616.83 276.902 1625.02 274.219C1622.43 278.413 1621.21 283.521 1621.59 288.605C1621.59 288.605 1636.31 281.497 1628.13 256.352C1641.18 273.737 1629.88 288.906 1629.88 288.906C1629.88 288.906 1636.83 281.511 1641.15 280.366C1636.73 286.329 1639.44 289.462 1639.44 289.462L1643.41 284.932C1643.41 284.932 1645.25 288.894 1641.72 294.029C1645.03 294.241 1648.25 287.779 1648.25 287.779L1645.07 294.244C1645.07 294.244 1661.94 288.658 1646.56 268.817C1659.73 285.614 1657.16 291.484 1657.16 291.484C1657.16 291.484 1654.13 276.606 1653.38 268.351C1658.66 281.817 1672.28 287.227 1672.28 287.227L1683.83 301.96L1611.48 303.907L1568.79 299.36Z" fill="#040D17"/>
<path d="M920.215 282.82C915.66 281.457 911.012 280.516 906.315 280.005C910.307 278.665 914.485 278.324 918.567 279.005C918.567 279.005 915.488 270.85 917.06 267.569C918.331 271.821 923.745 278.53 923.745 278.53L923.551 272.502C925.373 273.618 926.119 278.029 926.119 278.029L925.665 269.063C929.228 272.27 929.847 278.672 929.847 278.672C929.847 278.672 934.058 261.453 941.286 258.534C933.676 269.981 935.487 276.439 935.487 276.439L938.211 268.927C938.91 270.017 939.331 271.316 939.425 272.68C939.519 274.043 939.284 275.417 938.744 276.648C938.962 274.646 939.662 272.745 940.765 271.164C941.869 269.582 943.33 268.385 944.981 267.708C943.71 271.47 941.946 277.469 941.946 277.469C941.946 277.469 957.794 256.423 955.487 249.683C955.766 259.056 953.423 268.341 948.805 276.16L956.041 265.094L953.263 273.448C955.176 272.228 956.81 270.491 958.022 268.388C959.234 266.284 959.987 263.879 960.215 261.383C962.592 264.707 959.711 274.67 959.711 274.67C959.711 274.67 965.257 265.877 974.369 265.674C967.015 270.564 965.248 276.62 965.248 276.62L973.821 272.404C970.029 275.351 971.143 276.614 971.143 276.614C973.537 275.421 975.543 273.365 976.858 270.758C978.173 268.151 978.725 265.135 978.43 262.168C980.147 264.662 977.515 276.428 977.515 276.428L986.374 269.309C984.886 271.068 983.775 273.203 983.135 275.539C983.135 275.539 992.768 278.08 988.783 265.158C990.884 267.497 992.463 270.392 993.388 273.603C990.708 264.465 990.194 254.621 991.898 245.083C993.317 265.661 1001.23 273.511 1001.23 273.511C1000.48 272.196 1000.1 270.635 1000.15 269.044C1000.2 267.453 1000.68 265.911 1001.52 264.631C1000.75 270.347 1005.9 274.022 1005.9 274.022C1005.9 274.022 1011.35 264.032 1007.53 259.405C1013.41 264.164 1007.73 274.927 1007.73 274.927C1007.73 274.927 1011.22 268.79 1015.07 267.711C1011.29 270.236 1012.39 277.148 1012.39 277.148L920.215 282.82Z" fill="#040D17"/>
<path d="M1018.59 278.118C1014.06 276.612 1009.44 275.524 1004.75 274.866C1008.77 273.638 1012.95 273.409 1017.01 274.193C1017.01 274.193 1014.1 265.972 1015.76 262.734C1016.94 267.019 1022.22 273.873 1022.22 273.873L1022.2 267.895C1023.99 269.048 1024.65 273.491 1024.65 273.491L1024.38 264.518C1027.88 267.818 1028.3 274.226 1028.3 274.226C1028.3 274.226 1032.83 257.219 1040.12 254.401C1032.29 265.641 1034 272.15 1034 272.15L1036.87 264.647C1037.56 265.766 1037.96 267.09 1038.02 268.47C1038.08 269.85 1037.81 271.23 1037.23 272.454C1037.5 270.458 1038.24 268.576 1039.37 267.024C1040.51 265.473 1042 264.314 1043.66 263.68C1042.31 267.341 1040.43 273.351 1040.43 273.351C1040.43 273.351 1056.7 252.717 1054.45 245.942C1054.52 255.3 1051.99 264.494 1047.23 272.174L1054.69 261.294L1051.85 269.606C1053.78 268.436 1055.45 266.74 1056.71 264.666C1057.96 262.592 1058.76 260.203 1059.04 257.71C1061.33 261.105 1058.19 270.974 1058.19 270.974C1058.19 270.974 1063.9 262.347 1073.02 262.317C1065.58 267.009 1063.7 273.019 1063.7 273.019L1072.26 269.014C1068.41 271.861 1069.5 273.142 1069.5 273.142C1071.92 272.013 1073.96 270.012 1075.32 267.443C1076.69 264.874 1077.3 261.877 1077.06 258.906C1078.74 261.435 1075.86 273.128 1075.86 273.128L1084.88 266.192C1083.36 267.948 1082.24 270.1 1081.6 272.458C1081.6 272.458 1091.17 275.321 1087.44 262.243C1089.49 264.638 1091.01 267.575 1091.87 270.811C1089.4 261.596 1089.1 251.74 1091.01 242.255C1092.13 262.91 1099.91 271.001 1099.91 271.001C1099.2 269.661 1098.86 268.093 1098.94 266.508C1099.03 264.922 1099.53 263.395 1100.38 262.133C1099.5 267.842 1104.51 271.603 1104.51 271.603C1104.51 271.603 1110.12 261.758 1106.42 257.043C1112.2 261.95 1106.32 272.565 1106.32 272.565C1106.32 272.565 1109.93 266.532 1113.8 265.493C1109.97 267.918 1111.28 276.093 1111.28 276.093L1018.59 278.118Z" fill="#040D17"/>
<path d="M1765.98 311.557C1761.68 309.387 1757.23 307.623 1752.67 306.282C1756.77 305.652 1760.92 306.036 1764.85 307.41C1764.85 307.41 1762.88 298.808 1764.86 295.88C1765.57 300.326 1770.01 307.915 1770.01 307.915L1770.67 302.019C1772.33 303.432 1772.49 307.901 1772.49 307.901L1773.21 298.934C1776.29 302.744 1776.09 309.189 1776.09 309.189C1776.09 309.189 1782.47 292.84 1789.98 291.208C1781.04 301.243 1781.93 307.988 1781.93 307.988L1785.6 300.959C1787.67 304.705 1785.1 308.768 1785.1 308.768C1785.58 306.82 1786.51 305.055 1787.81 303.676C1789.1 302.298 1790.7 301.361 1792.41 300.973C1790.68 304.418 1788.15 310.117 1788.15 310.117C1788.15 310.117 1806.45 292.073 1805.05 284.93C1804.09 294.25 1800.58 303.024 1795.02 309.963L1803.6 300.25L1799.78 308.058C1801.82 307.181 1803.66 305.742 1805.13 303.866C1806.6 301.99 1807.66 299.735 1808.21 297.298C1810.11 301.014 1805.97 310.377 1805.97 310.377C1805.97 310.377 1812.58 302.633 1821.59 304.019C1813.71 307.587 1811.18 313.268 1811.18 313.268L1820.12 310.575C1816.01 312.828 1816.95 314.215 1816.95 314.215C1819.48 313.468 1821.74 311.788 1823.39 309.434C1825.04 307.079 1825.99 304.178 1826.09 301.175C1827.47 303.955 1823.33 315.143 1823.33 315.143L1833.02 309.558C1831.33 311.103 1829.98 313.102 1829.1 315.379C1829.1 315.379 1838.24 319.637 1836 306.078C1837.77 308.763 1838.96 311.909 1839.45 315.256C1838.02 305.727 1838.81 295.882 1841.75 286.729C1840.42 307.361 1847.25 316.545 1847.25 316.545C1846.68 315.111 1846.52 313.498 1846.77 311.931C1847.03 310.364 1847.7 308.919 1848.7 307.797C1847.2 313.274 1851.74 317.832 1851.74 317.832C1851.74 317.832 1858.41 308.881 1855.24 303.643C1860.4 309.374 1853.42 319.055 1853.42 319.055C1853.42 319.055 1857.66 313.561 1861.59 313.121C1857.55 314.976 1857.93 323.303 1857.93 323.303L1765.98 311.557Z" fill="#040D17"/>
<path d="M2026.2 348.982C2022.07 346.465 2017.76 344.337 2013.32 342.62C2017.46 342.326 2021.59 343.056 2025.43 344.761C2025.43 344.761 2023.98 336.001 2026.16 333.277C2026.59 337.783 2030.54 345.724 2030.54 345.724L2031.57 339.851C2033.13 341.393 2032.99 345.92 2032.99 345.92L2034.28 337.008C2037.12 341.034 2036.51 347.491 2036.51 347.491C2036.51 347.491 2043.87 331.704 2051.45 330.692C2041.87 339.956 2042.4 346.755 2042.4 346.755L2046.48 340.04C2046.97 341.295 2047.13 342.687 2046.96 344.059C2046.79 345.431 2046.29 346.728 2045.52 347.801C2046.11 345.891 2047.16 344.204 2048.53 342.932C2049.9 341.661 2051.55 340.856 2053.29 340.612C2051.42 343.912 2048.49 349.375 2048.49 349.375C2048.49 349.375 2067.82 332.8 2066.87 325.571C2065.35 334.82 2061.32 343.317 2055.36 349.816L2064.49 340.792L2060.21 348.205C2062.3 347.498 2064.22 346.21 2065.8 344.455C2067.38 342.7 2068.58 340.532 2069.27 338.14C2070.93 342.09 2066.24 351.033 2066.24 351.033C2066.24 351.033 2073.34 343.802 2082.19 345.965C2074.11 348.867 2071.25 354.353 2071.25 354.353L2080.33 352.38C2076.07 354.298 2076.92 355.813 2076.92 355.813C2079.48 355.258 2081.82 353.759 2083.59 351.542C2085.37 349.324 2086.48 346.511 2086.76 343.529C2087.95 346.412 2083.14 357.269 2083.14 357.269L2093.14 352.491C2091.35 353.894 2089.88 355.78 2088.85 357.982C2088.85 357.982 2097.7 362.989 2096.32 349.275C2097.92 352.1 2098.9 355.339 2099.19 358.722C2098.35 349.087 2099.75 339.32 2103.24 330.423C2100.57 350.873 2106.82 360.596 2106.82 360.596C2106.34 359.114 2106.28 357.489 2106.64 355.945C2106.99 354.401 2107.76 353.015 2108.82 351.98C2106.98 357.32 2111.21 362.262 2111.21 362.262C2111.21 362.262 2118.39 353.863 2115.58 348.358C2120.38 354.528 2112.81 363.556 2112.81 363.556C2112.81 363.556 2117.37 358.448 2121.33 358.337C2117.18 359.858 2117.04 368.209 2117.04 368.209L2026.2 348.982Z" fill="#040D17"/>
<path d="M867.675 289.305C868.32 284.695 872.597 278.09 875.405 272.37C874.736 276.514 873.769 280.592 872.513 284.561C872.513 284.561 881.125 276.389 877.282 265.379C881.064 271.907 880.803 281.403 880.803 281.403C880.803 281.403 884.04 274.173 885.731 272.668C883.46 278.287 884.512 281.046 884.512 281.046C884.512 281.046 889.805 278.003 887.768 275.335C888.764 277.667 890.089 281.596 890.089 281.596C889.985 278.944 890.577 276.302 891.788 274.017C892.766 277.924 893.839 282.413 893.839 282.413C893.839 282.413 891.817 270.983 899.893 268.042C893.706 279.829 898.565 282.774 898.565 282.774C898.501 281.146 898.914 279.529 899.739 278.187C900.563 276.845 901.751 275.855 903.108 275.378C902.024 278.557 900.902 282.328 900.902 282.328C900.902 282.328 906.902 278.87 902.89 270.502C907.744 274.042 906.221 281.459 906.221 281.459C906.221 281.459 906.056 278.604 910.886 277.088C909.796 279.844 919.159 281.944 919.159 281.944L867.675 289.305Z" fill="#040D17"/>
<path d="M1856.32 324.273C1857.99 319.998 1863.56 314.859 1867.6 310.179C1866.02 313.998 1864.16 317.665 1862.06 321.144C1862.06 321.144 1872.17 315.816 1870.95 303.976C1873.11 311.456 1870.7 320.622 1870.7 320.622C1870.7 320.622 1875.47 314.567 1877.41 313.634C1873.95 318.428 1874.35 321.375 1874.35 321.375C1874.35 321.375 1880.14 320.036 1878.76 316.835C1879.2 319.38 1879.57 323.613 1879.57 323.613C1880.07 320.999 1881.25 318.607 1882.94 316.757C1882.99 320.854 1883.01 325.506 1883.01 325.506C1883.01 325.506 1883.66 313.824 1892.08 313.423C1883.46 322.902 1887.47 327.311 1887.47 327.311C1887.78 325.708 1888.54 324.261 1889.63 323.204C1890.73 322.148 1892.1 321.544 1893.51 321.491C1891.76 324.242 1889.8 327.575 1889.8 327.575C1889.8 327.575 1896.35 326.074 1894.4 316.685C1898.25 321.603 1895.12 328.263 1895.12 328.263C1895.12 328.263 1895.6 325.449 1900.58 325.442C1898.93 327.816 1907.44 332.609 1907.44 332.609L1856.32 324.273Z" fill="#040D17"/>
<path d="M1979.37 340.191C1981.04 335.897 1986.62 330.777 1990.66 326.097C1989.07 329.911 1987.22 333.572 1985.12 337.043C1985.12 337.043 1995.21 331.732 1994.01 319.894C1996.17 327.374 1993.76 336.521 1993.76 336.521C1993.76 336.521 1998.51 330.484 2000.47 329.533C1997 334.346 1997.39 337.292 1997.39 337.292C1997.39 337.292 2003.18 335.953 2001.82 332.733C2002.24 335.297 2002.63 339.531 2002.63 339.531C2003.13 336.917 2004.3 334.525 2005.99 332.675C2006.05 336.772 2006.06 341.424 2006.06 341.424C2006.06 341.424 2006.7 329.722 2015.14 329.341C2006.52 338.878 2010.53 343.229 2010.53 343.229C2010.83 341.624 2011.59 340.174 2012.69 339.114C2013.78 338.054 2015.15 337.447 2016.57 337.389C2014.73 340.135 2012.85 343.474 2012.85 343.474C2012.85 343.474 2019.41 341.973 2017.46 332.584C2021.31 337.521 2018.16 344.16 2018.16 344.16C2018.16 344.16 2018.65 341.348 2023.64 341.341C2021.99 343.715 2030.5 348.508 2030.5 348.508L1979.37 340.191Z" fill="#040D17"/>
<path d="M1114.15 274.203C1114.29 273.364 1114.67 272.597 1115.22 272.024C1115.78 271.45 1116.48 271.103 1117.21 271.036C1115.76 272.75 1117.76 274.685 1117.76 274.685C1117.76 274.685 1127.81 264.336 1122.18 257.518C1124.45 259.404 1126.26 261.922 1127.46 264.844C1128.65 267.767 1129.19 271.001 1129.03 274.255L1134.45 267.358C1133.84 269.184 1133.6 271.143 1133.75 273.078C1133.75 273.078 1136.02 270.898 1135.9 269.199C1136.46 269.718 1136.92 270.364 1137.26 271.099C1137.6 271.833 1137.8 272.642 1137.86 273.477C1137.86 273.477 1142.71 263.948 1149.51 262.578C1142.97 266.943 1143.15 272.894 1143.15 272.894C1143.15 272.894 1148.99 270.559 1148.5 267.164C1150.39 267.17 1149.22 273.168 1149.22 273.168C1149.22 273.168 1157.91 268.422 1150 257.689C1155.06 260.609 1156.98 267.19 1153.3 272.258C1157.01 271.862 1157.01 266.211 1160.19 265.608C1159.63 266.539 1159.27 267.608 1159.14 268.725C1159.02 269.841 1159.12 270.972 1159.46 272.019L1162.27 268.356C1164.31 269.64 1161.35 272.294 1161.35 272.294C1161.35 272.294 1166.96 271.885 1165.16 263.371C1166.06 264.712 1166.67 266.272 1166.98 267.937C1167.28 269.602 1167.25 271.33 1166.9 272.996L1171.32 269.436C1170.11 272.722 1178.35 276.48 1178.35 276.48L1110.24 276.277C1110.25 275.218 1110.52 274.179 1111.01 273.274C1111.5 272.37 1112.2 271.635 1113.02 271.152C1112.84 271.425 1112.73 271.748 1112.69 272.086C1112.65 272.425 1112.69 272.767 1112.81 273.078C1112.92 273.388 1113.11 273.656 1113.35 273.854C1113.58 274.052 1113.86 274.173 1114.15 274.203V274.203Z" fill="#040D17"/>
<path d="M1371.27 280.941C1371.53 279.685 1372.14 278.557 1373.02 277.739C1373.89 276.92 1374.97 276.458 1376.08 276.426C1373.83 278.895 1376.7 281.943 1376.7 281.943C1376.7 281.943 1392.27 267.125 1384.25 256.521C1387.55 259.506 1390.13 263.409 1391.77 267.877C1393.42 272.345 1394.06 277.236 1393.65 282.109L1402.17 272.162C1400.42 278.008 1400.84 280.571 1400.84 280.571C1400.84 280.571 1404.36 277.453 1404.25 274.929C1406.76 276.762 1406.96 281.445 1406.96 281.445C1406.96 281.445 1414.71 267.528 1424.94 265.937C1414.93 272.021 1414.89 280.955 1414.89 280.955C1414.89 280.955 1423.76 277.853 1423.26 272.747C1426.1 272.93 1424.04 281.773 1424.04 281.773C1424.04 281.773 1437.28 275.262 1425.99 258.662C1433.41 263.367 1435.95 273.37 1430.18 280.707C1435.77 280.335 1436.05 271.896 1440.84 271.224C1439.95 272.571 1439.36 274.142 1439.11 275.801C1438.86 277.46 1438.97 279.156 1439.41 280.742L1443.81 275.393C1446.78 277.506 1442.22 281.249 1442.22 281.249C1442.22 281.249 1450.64 281.02 1448.37 268.191C1452.43 276.408 1450.13 282.756 1450.13 282.756L1456.98 277.892C1455.01 282.723 1467.14 288.921 1467.14 288.921L1365.29 283.901C1365.38 282.333 1365.84 280.815 1366.61 279.51C1367.39 278.206 1368.46 277.164 1369.7 276.497C1369.47 276.898 1369.32 277.356 1369.28 277.832C1369.24 278.308 1369.3 278.787 1369.45 279.226C1369.61 279.665 1369.86 280.051 1370.17 280.35C1370.49 280.649 1370.87 280.852 1371.27 280.941Z" fill="#040D17"/>
<path d="M1084.47 158.232C1027.15 156.594 990.864 170.097 986.536 216.221C982.208 262.346 1009.8 318.345 1112.19 306.542C1193.84 297.127 1198.64 235.985 1197.09 210.787C1195.53 185.589 1157.81 164.662 1107.92 161.554C1105.95 145.664 1108.31 135.53 1113.41 129.406C1112.64 122.043 1100.46 125.135 1094.56 129.789C1088.67 134.443 1088.79 141.959 1084.47 158.232Z" fill="#040D17"/>
<path d="M1009.2 176.451C1016.54 169.21 1042.69 159.366 1086.34 159.933C1087.89 148.222 1090.86 135.975 1094.1 132.638C1097.34 129.3 1105.78 124.983 1110.48 126.866C1100.51 129.469 1094.1 135.975 1090.53 160.851C1099.75 164.939 1125.64 160.469 1156.58 174.415C1134.14 169.026 1121.34 166.317 1109.11 170.695C1125.29 187.044 1121.15 205.246 1121.15 205.246C1121.15 205.246 1107.98 167.847 1087.85 166.806C1067.71 165.765 1072.41 207.65 1072.41 207.65C1072.41 207.65 1060.19 182.406 1068.84 169.21C1056.61 160.193 1016.61 171.399 1009.2 176.451Z" fill="#0A2237"/>
<path d="M1173.82 186.492C1182.64 192.861 1194.59 224.565 1179.22 262.897C1207.32 224.304 1190.59 192.616 1173.82 186.492Z" fill="#0A2237"/>
<path d="M1010.63 229.602C1012.67 238.465 1038.86 255.672 1060.58 257.693V267.353H1070.32V258.458C1070.32 258.458 1102.65 259.989 1115.46 257.693V269.848H1123.22L1125.28 256.637C1125.28 256.637 1155.02 249.595 1166.56 238.266C1159.13 265.102 1135.39 292.229 1082.7 294.204C1042.99 295.643 1013.45 256.438 1010.63 229.602Z" fill="#FEC700"/>
<path d="M1027.3 181.762C1017.3 204.587 1026.28 235.939 1043.2 237.194C1060.13 238.45 1069.57 220.753 1069.57 220.753C1069.57 220.753 1042.18 220.232 1027.3 181.762Z" fill="#FEC700"/>
<path d="M1150.84 181.762C1160.85 204.541 1151.87 235.939 1134.94 237.194C1118.02 238.45 1108.57 220.753 1108.57 220.753C1108.57 220.753 1135.97 220.232 1150.84 181.762Z" fill="#FEC700"/>
<path d="M1090.9 231.637L1080.39 246.808H1098.33L1090.9 231.637Z" fill="#FEC700"/>
<path d="M1219.09 216.176C1257.3 215.078 1281.49 224.084 1284.38 254.836C1287.28 285.588 1268.82 322.872 1200.57 315.052C1146.16 308.77 1142.95 268.016 1144.01 251.219C1145.06 234.422 1170.2 220.467 1203.45 218.387C1204.7 207.799 1203.22 201.078 1199.79 196.934C1200.31 192.013 1208.42 194.078 1212.36 197.183C1216.29 200.287 1216.2 205.325 1219.09 216.176Z" fill="#040D17"/>
<path d="M1266.21 227.158C1261.44 222.589 1244.63 216.571 1216.75 217.347C1215.68 209.893 1213.6 202.088 1211.56 199.979C1209.51 197.87 1204.02 195.234 1201.03 196.465C1207.43 198.031 1211.59 202.117 1214.12 217.977C1208.19 220.686 1191.69 218.079 1172.05 227.29C1186.31 223.629 1194.46 221.725 1202.31 224.449C1192.15 235.051 1194.89 246.635 1194.89 246.635C1194.89 246.635 1202.93 222.663 1215.78 221.74C1228.64 220.818 1226.05 247.689 1226.05 247.689C1226.05 247.689 1233.62 231.434 1227.95 223.087C1235.74 217.171 1261.41 223.995 1266.21 227.158Z" fill="#0A2237"/>
<path d="M1161.1 235.17C1155.54 239.402 1148.21 259.699 1158.42 284.037C1140.11 259.655 1150.48 239.256 1161.1 235.17Z" fill="#0A2237"/>
<path d="M1214.79 265.102L1221.81 275.235H1209.83L1214.79 265.102Z" fill="#FEC700"/>
<path d="M1172.96 276.715L1180.19 298.227L1185.17 285.399L1196.79 304.582L1205 294.991L1215.74 309.181L1224.94 292.267L1232.77 306.047L1240.19 292.135L1248.44 300.775L1261.34 273.742L1247.42 289.353L1237.95 277.374L1233.68 291.93L1224.57 279.175L1215.74 293.497L1204.88 280.61L1196.79 291.593L1185.84 276.598L1180.59 288.123L1172.96 276.715Z" fill="#FEC700"/>
<path d="M1224.84 259.463L1259.45 238.537L1242.85 265.643L1224.84 259.463Z" fill="#FEC700"/>
<path d="M1209.64 259.463L1175.02 238.537L1191.63 265.643L1209.64 259.463Z" fill="#FEC700"/>
<path d="M928.575 205.797C890.365 204.699 866.162 213.705 863.283 244.457C860.405 275.209 878.835 312.493 947.079 304.673C1001.49 298.391 1004.7 257.637 1003.64 240.84C1002.59 224.043 977.469 210.088 944.2 208.008C942.894 197.421 944.467 190.699 947.865 186.555C947.346 181.634 939.229 183.699 935.297 186.804C931.364 189.908 931.454 194.946 928.575 205.797Z" fill="#040D17"/>
<path d="M881.149 218.113C885.839 213.486 902.562 207.204 930.444 207.555C931.409 200.072 933.338 192.252 935.386 190.114C937.434 187.976 942.805 185.252 945.773 186.438C939.392 188.093 935.386 192.296 933.026 208.141C938.962 210.762 955.448 207.892 975.228 216.81C960.938 213.369 952.821 211.582 945.001 214.379C955.389 224.82 952.688 236.448 952.688 236.448C952.688 236.448 944.274 212.651 931.409 211.948C918.544 211.245 921.556 238.044 921.556 238.044C921.556 238.044 913.736 221.935 919.271 213.486C911.451 207.672 885.898 214.877 881.149 218.113Z" fill="#0A2237"/>
<path d="M986.373 224.527C992.011 228.584 999.639 248.851 989.815 273.35C1007.74 248.69 997.057 228.437 986.373 224.527Z" fill="#0A2237"/>
<path d="M879.325 253.375C880.69 259.233 898.14 270.757 912.668 272.105V278.519H919.167V272.661C919.167 272.661 940.713 273.672 949.261 272.149V280.276H954.41L955.775 271.49C955.775 271.49 975.615 266.76 983.301 259.174C978.345 276.996 962.527 295.081 927.388 296.384C900.915 297.395 881.224 271.255 879.325 253.375Z" fill="#FEC700"/>
<path d="M932.863 254.723L925.844 264.856H937.82L932.863 254.723Z" fill="#FEC700"/>
<path d="M947.925 263.303C953.301 263.303 957.659 256.544 957.659 248.205C957.659 239.867 953.301 233.107 947.925 233.107C942.549 233.107 938.19 239.867 938.19 248.205C938.19 256.544 942.549 263.303 947.925 263.303Z" fill="#FEC700"/>
<path d="M923.381 251.748C922.031 256.141 919.004 259.07 916.615 258.323C914.226 257.576 913.454 253.476 914.73 249.127C916.006 244.778 919.182 241.805 921.511 242.566C923.841 243.328 924.731 247.399 923.381 251.748Z" fill="#FEC700"/>
</svg>
