<svg width="185" height="185" viewBox="0 0 185 185" fill="none" xmlns="http://www.w3.org/2000/svg">
<g opacity="0.5">
<path d="M180.723 87.5146C178.36 79.4286 171.704 64.6886 160.947 68.2756C160.476 68.4336 160.009 68.4316 159.571 68.3266C158.12 69.5586 156.161 70.2426 154.325 70.4736C152.971 70.6416 151.789 69.3817 151.397 68.2437C150.723 66.2917 152.439 64.1776 153.074 62.4216C154.086 59.6206 154.4 56.5496 154.926 53.6256C155.046 52.9516 155.422 52.4816 155.913 52.1896C156.135 51.1776 156.316 50.1686 156.172 49.1416C156.288 48.2276 156.401 47.3147 156.503 46.3987C156.569 45.9436 156.618 45.4846 156.668 45.0276C154.974 42.4776 154.144 38.4066 153.734 36.3116C153.634 35.8056 153.692 35.3236 153.853 34.8896C153.25 32.3946 152.742 29.8646 151.812 27.4616C150.296 23.5546 148.705 19.7096 146.338 16.2416C141.587 9.28564 133.86 4.11264 125.471 2.66464C116.016 1.03164 107.795 5.19665 99.8173 9.71265C93.6633 13.1976 86.4103 15.8186 79.3263 16.7066C79.2033 17.0686 79.0783 17.4276 78.9553 17.7896C78.9343 18.3126 78.8053 18.6956 78.5783 18.9496C78.5943 19.0166 78.6173 19.0866 78.6273 19.1536C78.7003 19.7046 78.5783 20.2857 78.3163 20.7906C79.3463 21.4576 80.6183 22.0186 80.9303 22.1926C85.3853 24.6596 89.7623 28.6096 94.9043 29.6516C96.4783 29.9716 97.6723 32.0126 97.1123 33.5396C97.0433 33.7276 96.9203 33.9316 96.7873 34.1346C96.8653 35.3286 96.4543 36.5826 95.6293 37.5486C95.4863 37.7176 95.3383 37.8776 95.1943 38.0436C94.8443 38.6556 94.5623 39.1506 94.5673 39.1696C95.0003 40.8736 94.0143 42.5746 92.3463 43.0776C90.6993 43.5786 89.5423 43.2006 87.9203 43.8076C87.9193 44.3116 87.8083 44.8446 87.5573 45.3886C86.6913 47.2636 84.0993 47.8647 81.8533 48.1786C81.5933 48.4436 81.3353 48.7127 81.0883 48.9846C78.2433 52.1186 75.0893 55.0177 71.8993 57.8087C71.7093 57.9757 71.5163 58.1066 71.3203 58.2226C70.3263 60.3976 69.1413 62.5386 68.0153 64.6956C67.2253 67.4837 66.4243 70.2667 65.6073 73.0717C65.3533 73.9437 65.0303 74.8526 64.7343 75.7646C64.7423 75.8587 64.7543 75.9487 64.7533 76.0457C64.7343 77.6857 64.7743 81.7946 65.6113 82.7726C65.8473 83.0506 68.1103 83.8646 68.8903 84.5146C70.3363 85.7216 70.9613 87.3866 70.5823 88.9356C71.4703 92.2366 68.3463 97.5816 67.2193 99.9036C66.2803 101.831 65.0433 103.58 63.5883 105.13C62.9983 105.96 62.3783 106.703 61.7713 107.308C59.9343 109.141 57.2353 110.908 54.6993 111.572C52.6003 112.123 50.7263 111.673 48.6833 111.459C47.0243 111.455 45.3333 111.386 43.5493 111.455C37.3403 112.1 32.0953 115.161 28.7063 120.788C28.6083 120.954 28.4993 121.148 28.3853 121.353C29.5543 120.315 30.7423 119.412 31.8703 118.723C34.2913 117.248 36.9823 116.784 39.7723 116.494C43.7673 116.079 47.8563 117.681 51.7863 117.021C55.1333 116.462 56.5643 121.161 53.2093 122.186C49.2493 123.395 45.1913 122.633 41.2253 122.816C41.2193 122.823 41.2153 122.83 41.2093 122.837C38.5373 125.488 34.2913 126.25 31.4333 128.862C29.7143 130.433 28.2913 132.324 26.9273 134.267C25.6913 136.192 24.5193 138.166 23.1023 139.945C21.3253 142.171 19.3863 144.211 17.3773 146.194C17.4123 146.199 17.4483 146.199 17.4843 146.204C19.3813 145.251 21.3013 144.68 22.8873 144.958C27.3303 141.912 29.9543 135.785 34.8943 133.301C37.7943 131.841 41.8113 131.444 45.0293 131.288C47.6573 131.163 51.2773 131.833 53.7173 130.584C55.6943 129.569 57.1973 132.261 55.4333 133.522C53.0843 135.201 49.6353 134.997 46.8753 135.399C42.4003 136.052 39.0143 137.134 35.6203 140.229C33.9873 141.717 32.4413 143.527 30.8223 145.273C30.4073 146.257 29.4843 147.068 28.3583 147.747C25.9823 149.923 23.3183 151.617 19.9423 151.802C19.6453 151.818 19.3803 151.777 19.1333 151.713C18.5233 152.017 17.9173 152.325 17.3163 152.643C15.2683 154.509 13.2193 156.376 11.3653 158.435C10.7763 159.781 10.2503 161.134 9.32633 162.313C8.64233 163.186 7.62833 164.179 6.57233 165.253C6.05933 166.129 5.54533 167.009 5.01733 167.883C5.57133 167.784 6.15333 167.784 6.77033 167.907C6.91433 167.937 7.03934 167.984 7.16634 168.03C8.73034 166.449 10.2123 164.8 11.8453 163.288C12.0083 163.138 12.1643 163.005 12.3263 162.859C13.0513 162.186 13.8043 161.55 14.5903 160.963C14.6283 160.935 14.6653 160.909 14.7013 160.881C15.0973 160.588 15.5003 160.304 15.9163 160.038C16.0133 159.975 16.1103 159.917 16.2093 159.857C16.5763 159.628 16.9543 159.411 17.3403 159.207C17.4033 159.175 17.4643 159.139 17.5283 159.106C18.9063 158.39 20.3883 157.82 22.0113 157.453C25.7663 156.609 29.7773 158.11 33.5463 158.275C34.7463 158.327 36.1643 158.473 37.5283 158.504C41.2213 156.972 44.7163 155.42 47.8553 152.779C49.6373 151.281 52.2123 153.77 50.4463 155.372C47.3783 158.155 44.4103 161.765 40.0543 162.161C39.4833 162.213 38.8923 162.253 38.2963 162.286C37.7253 162.49 37.1463 162.69 36.5553 162.881C35.7003 163.161 35.0543 162.871 34.6823 162.346C32.9553 162.302 31.2353 162.148 29.6463 161.836C27.7273 161.458 25.9643 161.004 24.2233 161.112C23.3093 161.328 22.4153 161.613 21.5513 161.971C20.5213 162.52 19.5853 163.166 18.7073 163.9C17.3053 165.228 16.0643 166.778 14.7603 168.137C14.7193 168.179 14.6793 168.22 14.6373 168.264C14.0933 168.959 13.5453 169.689 12.9803 170.458C10.9073 173.287 8.89133 176.169 6.84033 179.024C6.87633 179.036 6.91333 179.053 6.95133 179.063C9.03833 176.454 12.6413 174.035 15.6503 172.171C16.0003 171.768 16.4263 171.384 16.9493 171.036C18.7293 169.858 20.6113 169.109 22.5433 168.692C25.7193 167.699 29.0383 167.533 32.5463 168.138C39.2203 169.287 44.8523 172.337 51.5913 169.607C53.2503 168.935 54.6843 167.951 56.0153 166.829C57.5633 163.638 60.0183 160.785 63.1133 159.193C63.8753 158.802 64.6423 158.436 65.4123 158.077C65.8793 157.586 66.4283 157.372 66.9763 157.357C67.9923 156.899 69.0053 156.443 70.0123 155.974C70.7193 155.504 71.5023 155.132 72.3373 154.835C73.6293 154.17 74.9023 153.448 76.1313 152.605C77.5683 151.618 78.8833 152.545 79.3803 153.799C82.3193 153.759 85.2293 154.024 87.4743 154.097C88.5313 154.132 89.6353 154.201 90.7363 154.216C91.0323 153.17 92.3313 152.441 93.2193 153.495C93.4173 153.73 93.6713 153.888 93.9533 154.005C94.4613 153.915 94.9623 153.803 95.4443 153.632C96.8923 153.125 98.3283 152.65 99.7903 152.181C102.971 151.162 105.599 149.236 108.61 147.92C109.419 147.462 110.245 147.054 111.114 146.761C111.677 146.572 112.288 147.183 112.099 147.748C111.978 148.104 111.812 148.445 111.621 148.775C111.795 149.456 111.609 150.204 110.871 150.543C110.3 150.807 109.755 151.098 109.22 151.394C107.987 152.345 106.543 153.128 105.152 153.768C104.187 154.301 103.19 154.791 102.103 155.164C101.336 155.427 100.563 155.726 99.7893 156.025C99.2363 156.253 98.6703 156.469 98.0973 156.662C96.5353 157.229 94.9473 157.705 93.3233 157.819C89.5883 158.08 85.7903 157.355 82.0563 157.667C79.7303 157.861 76.4283 158.024 73.7633 158.997C73.8073 159.289 73.7903 159.594 73.7193 159.896C77.8093 159.713 82.6473 161.652 85.3883 163.446C88.6083 165.557 92.3023 166.831 96.1333 166.42C96.6343 166.366 97.1283 166.3 97.6233 166.229C99.5543 165.863 101.495 165.253 103.448 164.829C103.806 164.706 104.164 164.572 104.518 164.434C104.669 164.002 104.936 163.592 105.372 163.258C110.311 159.474 115.126 155.709 119.69 151.657C120.585 150.687 121.452 149.69 122.302 148.681C123.621 146.967 124.907 145.232 126.099 143.454C126.358 142.977 126.603 142.51 126.867 142.035C127.142 141.504 127.434 140.983 127.747 140.473C127.938 140.132 128.141 139.797 128.337 139.458C129.18 137.094 130.515 134.699 131.51 132.828C131.648 132.414 131.779 131.995 131.897 131.571C132.071 130.954 132.42 130.549 132.839 130.285C134.256 127.699 136.293 124.796 139.12 124.052C140.519 122.922 141.934 121.809 143.201 120.526C145.11 118.595 145.939 116.556 147.168 114.295C147.962 112.83 149.993 112.355 151.395 113.186C151.521 113.259 151.665 113.402 151.816 113.562C152.108 113.215 152.934 112.864 153.202 112.445C154.674 110.14 158.931 111.64 157.82 114.393C157.745 114.579 157.648 114.781 157.547 114.987C157.553 114.991 157.559 114.995 157.565 114.997C157.524 115.071 157.48 115.143 157.437 115.216C157.348 115.404 157.27 115.589 157.201 115.774C157.233 116.027 157.265 116.281 157.298 116.535C157.919 118.048 158.204 119.723 158.635 121.297C158.952 122.461 159.489 123.692 159.605 124.924C160.074 124.962 160.612 124.906 161.127 124.818C164.684 122.612 168.201 120.48 171.461 117.639C174.517 114.973 177.903 111.977 180.073 108.521C181.296 106.576 182.431 104.202 183.072 101.991C183.421 100.786 183.553 99.5176 184.048 98.4086C182.08 95.2096 181.743 91.0046 180.723 87.5146Z" fill="#E4F3F7"/>
<path d="M94.8094 19.7021C96.8274 16.9871 99.0704 14.4782 101.757 11.8042C96.8864 14.6072 91.9974 17.5922 87.8014 21.3222C89.3104 19.6592 90.9724 17.9041 92.8204 16.0551C88.4374 18.4901 83.8444 20.6361 79.7644 23.5511C79.8714 23.6031 79.9784 23.6522 80.0804 23.6992C84.9794 25.9712 90.0704 28.3601 94.7804 30.9651C94.9454 31.0591 95.0984 31.1582 95.2424 31.2652C96.2964 28.7582 97.3944 26.3941 99.5714 22.3051C102.558 16.5261 105.853 11.7802 110.049 7.16016C104.528 10.7332 99.3254 14.9021 94.8094 19.7021Z" fill="#99A9AC"/>
<path d="M98.1634 44.8828C90.7684 46.2498 83.9764 49.8218 78.1144 54.4648C74.7614 57.0768 71.3444 59.8838 68.4604 63.0988C67.5354 66.3998 66.5944 69.6818 65.6304 72.9898C67.7594 70.1648 71.1274 67.7928 73.4444 66.0678C76.3354 63.9138 81.0624 59.4928 85.1974 58.8228C85.2024 58.8138 85.2054 58.8058 85.2114 58.7998C87.8274 54.6638 90.6424 51.2448 95.1524 48.3318C92.4524 49.3628 89.7894 50.6588 87.2874 52.2148C90.2754 49.2778 93.8024 46.6828 98.1634 44.8828Z" fill="#99A9AC"/>
<path d="M82.3183 103.48C80.9463 99.7181 80.9873 98.5961 80.9163 94.3661C80.9603 91.2161 81.3993 87.6891 82.1643 83.7871C80.1233 84.5651 78.0343 85.1541 75.9143 85.4271C75.3503 87.6531 75.0423 89.9361 75.0983 92.2321C75.3173 95.5791 76.0843 98.9401 77.6663 101.915C79.7953 105.32 82.7613 108.391 86.5613 109.868C84.4113 108.086 82.9373 105.386 82.3183 103.48Z" fill="#99A9AC"/>
<path d="M78.5064 84.9473C76.0494 85.5513 73.5384 85.7792 71.0024 85.4302C71.0114 85.7002 71.0084 85.9733 71.0234 86.2403C70.3454 88.3563 69.6594 90.2973 68.9694 92.0623C68.9974 94.7093 68.0534 97.4473 66.4004 99.4423C65.4934 102.518 63.5753 105.508 61.7683 107.31C59.9313 109.143 57.2324 110.91 54.6954 111.575C52.3734 112.183 50.3274 111.563 48.0194 111.398C41.1164 110.905 35.0443 113.023 30.8083 117.904C30.8873 117.934 30.9644 117.967 31.0424 117.995C31.9664 118.342 32.9074 118.627 33.8584 118.877C35.4444 118.102 37.1003 117.541 38.8913 117.583C40.8843 117.63 43.0923 118.452 45.1123 118.586C45.1223 118.581 45.1344 118.576 45.1444 118.572C46.3734 117.717 49.2304 118.551 51.0584 119.011C53.9834 118.369 56.8124 117.331 59.4004 115.777C63.6294 113.209 67.2963 109.59 69.6863 105.236C70.0293 104.557 70.3423 103.865 70.6383 103.163C71.6173 101.99 72.4893 100.684 73.1993 99.1862C73.4543 98.7262 73.7073 98.2292 73.9593 97.7072C74.5723 98.9382 75.2503 100.141 75.9663 101.316C75.4153 99.1383 75.1954 96.9953 75.1934 94.8983C76.4404 91.8133 77.5894 88.2363 78.5064 84.9473Z" fill="#99A9AC"/>
<path d="M40.9114 123.459C40.1894 123.538 39.4624 123.615 38.7354 123.694C35.6904 125.271 32.7214 127.194 30.4434 129.579C27.5084 132.654 25.7334 136.642 23.0974 139.947C20.1914 143.591 16.8734 146.756 13.4664 149.929C12.8014 150.547 12.1464 151.15 11.4844 151.716C12.0404 151.774 12.6134 151.732 13.1784 151.573C13.2534 151.55 13.3194 151.518 13.3924 151.496C14.2484 151.039 15.1434 150.628 15.9644 150.258C16.7384 149.726 17.5454 149.315 18.3874 149.126C18.9914 148.76 19.5944 148.391 20.1724 147.988C21.0024 147.363 21.8214 146.72 22.6364 146.072C25.3794 143.681 27.6694 140.798 29.9224 137.953C29.6614 138.286 28.6434 139.607 29.2714 138.804C31.9364 135.541 33.2494 134.656 34.4364 133.82C37.4344 132 37.9734 131.916 42.8324 130.471C56.8274 127.24 65.1024 124.474 73.0924 111.656C63.4464 122.968 54.5504 122.379 40.9114 123.459Z" fill="#99A9AC"/>
<path d="M20.1803 147.983C20.5863 147.702 20.9843 147.407 21.3583 147.074L20.1803 147.983Z" fill="#99A9AC"/>
<path d="M158.635 124.6C159.492 125.343 161.865 124.667 162.749 124.464C165.419 123.849 167.767 122.391 169.742 120.534C172.713 117.736 175.149 114.437 178.012 111.562C178.457 108.443 178.467 105.253 178.097 102.166C177.6 104.416 177.014 106.424 176.329 108.337C175.94 105.042 175.083 101.8 173.69 98.8201C174.639 104.096 174.44 109.354 173.51 114.429C173.568 111.098 173.001 107.512 172.004 103.643C172.107 107.777 171.683 111.506 170.831 114.987C170.8 112.346 170.381 109.722 169.476 107.253C169.559 109.872 169.104 112.49 168.305 115.042C168.456 110.712 167.82 106.296 166.868 102.156C166.537 106.422 165.784 110.188 164.672 113.684C164.681 113.05 164.67 112.414 164.634 111.778C164.543 106.034 163.531 100.082 164.941 94.5781C161.223 101.316 160.244 109.125 158.487 116.518C158.193 117.837 157.858 119.177 157.505 120.517C157.795 121.816 157.793 123.871 158.635 124.6Z" fill="#99A9AC"/>
<path d="M43.2813 146.959C47.7483 143.996 52.2153 141.062 57.2803 139.335C51.3193 140.088 45.6173 142.058 39.7923 143.45C42.0653 141.848 44.5603 140.432 47.3103 139.156C41.6393 140.26 36.0003 141.973 30.9593 144.809C30.1633 148.057 23.9923 149.542 21.6003 150.563C19.6113 151.411 17.7133 152.424 15.8183 153.439C15.3073 153.835 14.7983 154.24 14.2983 154.665C13.9923 154.925 13.6513 154.991 13.3353 154.939C12.8003 155.808 12.2033 156.635 11.7493 157.582C10.9763 159.203 10.4433 160.886 9.32233 162.315C8.03933 163.95 5.59533 166.012 3.90833 168.229C4.77833 167.837 5.72333 167.7 6.76633 167.91C6.91533 167.937 7.04633 167.988 7.17733 168.035C8.73833 166.454 10.2083 164.801 11.8413 163.289C15.6443 159.765 18.9263 157.72 24.1153 157.355C24.5873 157.323 24.9063 157.53 25.0773 157.833C25.3333 157.83 25.5873 157.827 25.8443 157.833C26.1683 157.798 26.4863 157.755 26.8193 157.727C27.1793 157.699 27.4673 157.777 27.6863 157.923C30.7913 158.157 33.9843 158.69 37.1313 158.542C39.7743 157.76 42.3423 156.684 44.6853 155.242C48.1053 153.038 52.2813 149.068 54.0093 147.87C59.2603 144.028 64.4003 142.775 71.1913 143.5C58.6183 139.464 51.1183 143.365 43.2813 146.959Z" fill="#99A9AC"/>
<path d="M132.916 122.189C139.646 113.051 143.093 101.479 144.934 90.3672C142.373 95.9792 139.353 101.354 136.418 106.772C137.043 109.383 135.956 112.619 134.998 115.086C132.738 120.901 129.781 126.288 126.145 131.342C123.727 134.704 121.077 137.595 118.036 140.136C122.102 135.346 125.116 129.674 126.523 124.047C126.872 122.721 127.173 121.381 127.482 120.044C125.948 123.284 123.89 126.236 121.738 129.092C118.687 132.971 114.395 136.771 109.75 139.845C112.137 137.796 114.237 135.441 115.903 132.822C112.982 135.956 109.06 137.996 105.251 140.123C99.1693 143.219 95.5343 144.97 89.4433 147.05C88.3313 147.412 87.2023 147.732 86.0443 147.909C86.2883 147.943 86.5363 147.956 86.7833 147.978C83.3543 148.677 79.9453 149.455 76.6203 150.575C76.4203 150.635 76.2203 150.703 76.0203 150.764C69.3523 150.904 63.1833 154.613 59.3273 157.444C61.8433 154.797 64.5113 152.419 68.0573 151.283C64.4623 151.631 61.2003 153.224 58.1183 155.041C59.8723 153.184 61.8093 151.6 64.2203 150.528C60.3743 151.052 57.1143 152.945 53.9113 154.976C55.3163 153.358 56.9953 151.784 58.8323 150.305C56.3623 151.443 53.8713 152.577 51.7073 154.251C49.4153 155.898 47.4633 157.946 45.3573 159.816C43.9803 160.392 42.6433 160.806 39.0433 162.145C38.8443 162.236 38.6363 162.313 38.4253 162.39C37.8563 162.375 37.2863 162.348 36.7043 162.312C33.4893 161.905 30.2683 160.922 27.0113 161.213C24.5503 161.521 22.1113 162.236 19.8753 163.345C20.3233 163.056 20.7793 162.782 21.2473 162.523C21.8143 162.2 22.4013 161.915 22.9933 161.645C23.6923 161.374 24.4033 161.138 25.1193 160.921C23.9003 161.159 22.7013 161.496 21.5573 161.965C18.1143 163.795 15.7463 166.68 12.9723 170.462C10.2123 174.225 7.55234 178.092 4.77234 181.845C5.51934 181.56 6.27634 181.354 7.00834 181.259C7.19834 181.235 7.38034 181.219 7.55934 181.205C8.63734 179.466 10.3023 177.739 11.6673 176.594C12.6173 175.798 13.5973 174.836 14.6383 173.973C14.9603 172.9 15.6883 171.869 16.9433 171.037C22.5273 167.342 29.1013 167.823 35.2063 169.791C38.1363 170.737 40.7743 172.014 43.9013 172.093C45.7253 172.139 47.4324 171.993 49.2113 171.496C49.7364 171.349 53.0913 170.492 53.7683 169.869C53.9213 169.438 54.1453 169.089 54.4663 168.722C54.6293 168.535 54.8123 168.4 55.0003 168.292C55.2283 168.036 55.4553 167.789 55.6833 167.543C57.2003 164.069 59.7833 160.904 63.1073 159.195C63.5633 158.961 64.0223 158.739 64.4803 158.516C65.6393 157.211 67.2333 155.724 69.1113 154.408C71.0243 153.879 72.9883 153.55 74.9853 153.336C75.3683 153.099 75.7503 152.863 76.1253 152.606C77.2533 151.832 78.3074 152.235 78.9503 153.049C85.3593 152.781 92.0553 153.24 98.6763 152.212C100.738 151.831 102.753 151.186 104.701 150.333C106.802 149.06 108.822 147.534 111.109 146.762C111.673 146.573 112.284 147.184 112.094 147.747C110.893 151.299 106.02 153.511 102.747 154.778C101.262 155.35 99.3503 156.312 97.4233 156.874C94.4913 158.432 91.8783 159.52 89.2223 160.188C86.5073 160.836 83.8983 161.054 80.9273 161.24C82.6473 161.884 84.2073 162.679 85.3813 163.45C87.7784 165.018 90.4373 166.124 93.2183 166.419C96.3503 166.102 99.4424 165.271 102.351 164.049C108.732 161.621 114.524 157.693 118.971 152.494C121.714 149.247 124.167 145.733 126.151 141.967C127.077 140.77 127.954 139.53 128.79 138.259C129.82 135.802 131.239 133.404 132.083 131.717C132.747 130.388 133.6 128.809 134.665 127.416C137.108 121.911 138.983 116.141 140.392 110.447C138.065 114.716 135.455 118.813 132.742 122.841C132.802 122.627 132.859 122.408 132.916 122.189Z" fill="#99A9AC"/>
<path d="M90.6223 142.644C91.6303 142.145 92.6053 141.595 93.4393 141.089C94.3093 140.563 95.1433 139.953 95.9473 139.287C94.9823 139.988 93.7833 140.787 92.0553 141.853C91.5613 142.107 91.0663 142.345 90.5723 142.583C90.5873 142.602 90.6073 142.623 90.6223 142.644Z" fill="#99A9AC"/>
<path d="M77.5644 148.66C76.9194 148.329 76.4934 147.754 76.2924 147.072C74.4804 147.36 72.8974 147.528 70.7734 147.683C72.1544 147.93 73.5404 148.159 74.9304 148.355C75.8014 148.477 76.6804 148.579 77.5644 148.66Z" fill="#99A9AC"/>
<path d="M82.3023 78.4103C82.4683 77.8853 82.6723 77.3753 82.8963 76.8723C82.9553 76.0283 83.1253 75.1663 83.5363 74.0993C84.3803 71.9073 84.6933 70.8593 83.8983 69.2363C79.7813 72.1753 75.5413 75.0543 70.8333 76.5813C72.9703 76.6973 75.1493 76.4953 77.2563 76.0143C77.0953 76.0833 76.9473 76.1423 76.8373 76.1863C75.0113 76.9163 71.5143 78.4253 68.5683 78.9803C70.9403 79.4743 73.4253 79.5733 75.8573 79.2813C73.6473 79.9943 71.2883 80.5044 68.5683 80.9124C70.3763 81.4434 72.1013 81.7733 73.7383 81.9043C71.6803 82.2833 69.6273 82.2624 67.4343 81.3773C71.5403 85.3233 77.5363 84.9543 82.2803 82.3123C81.9523 80.9693 81.9443 79.5393 82.3023 78.4103Z" fill="#99A9AC"/>
<path d="M95.7204 97.1324C103.487 88.0074 104.223 73.6744 97.6725 63.6824C97.3735 63.2194 97.0705 62.7564 96.7345 62.3184C97.0265 64.3514 97.1494 66.4024 97.3584 68.4464C97.4204 69.3554 97.4735 70.2654 97.5275 71.1764C96.8355 68.6354 95.7264 66.2264 94.0954 64.1054C93.8314 63.7274 93.9444 63.9584 93.9904 64.2674C94.2364 65.7274 94.4294 66.9844 94.5724 68.0894C94.5724 68.0954 94.5744 68.1074 94.5764 68.1354C94.9944 71.4834 94.8354 74.8644 94.7814 78.2274C94.7104 85.4684 94.4615 89.7404 92.3145 96.5814C95.0475 92.5464 97.1845 87.9764 98.0305 83.1524C98.0325 83.2234 98.0354 83.2954 98.0374 83.3664C97.9524 88.4374 97.9114 92.4704 95.7204 97.1324Z" fill="#99A9AC"/>
<path d="M91.5893 68.4878C91.5063 68.2758 91.0653 67.5348 91.1973 67.9588C91.3283 69.5618 91.2333 71.1828 91.2043 72.7888C91.0643 77.2818 91.0183 81.7728 91.0263 86.2668C90.9423 89.1088 90.9113 91.4798 89.8833 94.0968C95.0713 86.8148 95.7003 76.4098 91.5893 68.4878Z" fill="#99A9AC"/>
<path d="M90.2284 71.2559C88.3124 76.8659 88.6004 82.7999 89.0874 88.6139C90.7334 82.9829 91.5494 77.0439 90.2284 71.2559Z" fill="#99A9AC"/>
<path d="M87.7244 77.7617C87.0544 79.9907 87.1504 82.3217 87.5734 84.5857C88.0794 82.3447 88.1754 80.0197 87.7244 77.7617Z" fill="#99A9AC"/>
<path d="M151.063 43.3322C150.998 42.9832 150.865 41.7812 150.835 42.4722C150.668 44.0052 150.409 45.5312 150.13 47.0832C149.593 50.0922 149.025 53.0942 148.454 56.0962C148.228 54.0702 147.909 52.0572 147.518 50.0642C147.392 49.3752 147.266 48.6892 147.144 47.9982C146.937 49.7632 146.612 51.5132 146.326 53.2662C145.837 55.9892 145.384 58.7222 144.935 61.4592C144.877 59.8482 144.741 58.4502 144.524 57.5012C143.26 61.7492 142.243 66.0592 141.287 70.3832C141.364 68.2372 141.268 66.0802 140.964 63.9302C139.972 68.3742 138.352 72.6562 137.469 77.1282C136.472 81.8342 135.967 86.6522 134.636 91.2842C134.663 91.2902 134.687 91.3032 134.713 91.3102C136.005 89.2232 137.134 87.0332 138.077 84.7652C137.484 87.2012 136.848 89.6232 136.135 92.0262C136.17 92.0572 136.198 92.0962 136.232 92.1292C137.858 89.4902 139.332 86.7342 140.598 83.8882C139.833 86.8682 138.963 89.8202 137.925 92.7272C139.963 89.8692 141.779 86.8412 143.352 83.6892C142.48 87.2132 141.439 90.6922 140.158 94.1052C151.721 77.8772 155.329 61.9602 151.063 43.3322Z" fill="#99A9AC"/>
<path d="M135.13 79.9248C134.576 82.5188 134.36 85.1858 133.708 87.7598C136.325 83.2288 137.413 77.9968 137.392 72.7988C136.539 75.1388 135.651 77.4808 135.13 79.9248Z" fill="#99A9AC"/>
<path d="M150.367 28.1204C149.077 23.5804 147.868 18.8604 145.14 14.9364C138.371 5.41437 126.93 1.93537 115.926 5.69537C115.255 5.91637 114.578 6.12638 113.923 6.39038C114.636 6.43638 115.343 6.54537 116.053 6.63537C117.173 6.76437 118.935 7.06838 120.677 7.42938C123.572 8.09138 125.812 8.68739 127.811 9.36539C125.345 9.15638 122.839 9.34936 120.383 9.62436C120.015 9.67436 118.393 9.78038 118.843 9.85138C120.759 10.2324 122.638 10.7764 124.528 11.2644C129.374 12.4754 132.017 13.6374 135.189 15.1154C139.555 17.2364 142.967 19.5204 145.962 23.2594C145.062 21.1224 143.834 19.1124 142.351 17.3154C145.178 19.9334 148.125 24.0904 150.367 28.1204Z" fill="#99A9AC"/>
<path d="M135.236 15.2746C132.475 13.6256 129.199 12.7106 125.988 12.6426C125.8 12.6606 125.197 12.6896 125.616 12.7586C126.486 13.0036 127.257 13.4956 128.057 13.9056C132.657 16.5096 136.13 16.9306 139.899 20.7426C138.799 18.5756 137.337 16.5606 135.236 15.2746Z" fill="#99A9AC"/>
<path d="M128.464 17.2383C130.192 18.0553 131.606 18.7333 133.379 19.3703C132.036 18.1323 130.323 17.2333 128.464 17.2383Z" fill="#99A9AC"/>
<path d="M97.8394 92.2512C102.823 84.1572 103.257 73.5572 98.3784 65.3092C98.2554 65.0662 97.6814 64.1162 97.7894 64.5142C97.9214 65.5392 97.9194 66.5762 97.9914 67.6042C98.0694 68.9202 98.1174 70.2352 98.1714 71.5512C97.8514 70.5672 97.4514 69.6032 96.9394 68.6692C97.2254 71.2662 96.6284 73.8792 96.7134 76.4872C96.6494 80.4412 97.0474 84.3912 96.9434 88.3452C97.6644 86.4302 98.2544 84.4122 98.6334 82.3582C98.7174 85.7202 98.5314 89.0802 97.8394 92.2512Z" fill="#6C7C6B"/>
<path d="M95.1914 71.0879C95.0734 74.0859 94.8404 77.0829 94.8304 80.0849C94.7994 82.3919 94.8144 84.7229 94.2554 86.9349C96.9544 82.0849 97.0754 76.2449 95.1914 71.0879Z" fill="#6C7C6B"/>
<path d="M80.5184 90.416C80.5134 90.446 80.5094 90.482 80.5054 90.514C80.4764 90.726 80.4624 90.826 80.5184 90.416Z" fill="#6C7C6B"/>
<path d="M83.3983 73.4671C83.5153 72.8981 83.1203 72.3311 82.5923 72.1331C82.3443 71.4551 81.4274 71.4471 80.9333 72.0271C80.9263 72.0341 80.9344 72.0251 80.9333 72.0271C79.9103 72.8321 77.8843 74.4521 75.5893 75.6621C76.6003 75.5521 77.6183 75.3771 78.5973 75.0921C78.3953 75.2811 78.1903 75.4671 77.9773 75.6431C76.8943 76.5791 74.8203 77.9651 72.8453 78.3501C74.0093 78.5181 75.3243 78.4331 76.6303 78.1351C75.4413 78.9651 74.0603 79.7061 72.2103 80.3971C73.5143 80.4841 74.9703 80.3971 76.4013 80.1091C75.2913 80.8891 73.9883 81.6031 72.5363 82.0791C74.0193 82.1981 75.5503 82.0602 76.9933 81.6442C76.9753 81.6522 76.9573 81.6611 76.9403 81.6671C76.9293 81.6731 76.9223 81.6761 76.9043 81.6811C74.9443 82.4541 73.1753 83.0171 71.1213 82.6941C72.2943 83.3641 73.6103 83.6781 74.9443 83.7901C74.9053 83.9671 74.8883 84.1442 74.8563 84.3212C74.7053 84.3812 74.5613 84.4661 74.4423 84.5891C73.8063 85.3571 73.9043 86.4791 73.7563 87.4171C73.5013 90.1471 73.8433 92.9161 74.6793 95.5261C74.6433 94.1261 74.8563 92.7681 75.1713 91.4171C75.5713 92.9691 76.1583 94.4751 76.8913 95.8921C76.7873 95.2331 76.7103 94.6232 76.6583 94.0452C77.0313 95.4302 77.5233 96.7871 78.0993 98.0981C79.0054 100.327 79.9643 102.603 81.7173 104.311C80.7133 102.376 80.5423 100.737 80.4263 98.7262C80.2233 96.3722 80.2983 91.9331 80.5053 90.5121C80.5253 90.3691 80.5513 90.1761 80.5663 90.0551C80.7033 89.0071 80.5593 90.1001 80.5593 90.1021C80.6753 88.4771 81.2763 86.8552 81.2373 85.2432C81.1823 84.3502 80.5823 83.6491 79.8153 83.2931C80.0613 83.1991 80.3053 83.0971 80.5393 82.9751C81.4863 82.3721 82.8073 81.7221 83.0323 80.5271C83.2123 79.6191 82.3963 78.8011 81.5203 78.8011C81.6663 78.5781 81.7773 78.3361 81.8273 78.0641C81.8633 77.8771 81.8413 77.6971 81.7823 77.5301C82.4113 76.9261 82.9323 76.2241 83.2873 75.3961C83.3723 74.9671 83.2003 74.5681 82.9093 74.2831C83.0933 74.0201 83.2633 73.7501 83.3983 73.4671Z" fill="#6C7C6B"/>
<path d="M80.7404 58.379C80.6234 58.516 80.4924 58.651 80.3554 58.783C82.2344 56.585 84.0934 54.371 85.9724 52.176C85.1964 52.7 84.4214 53.228 83.6484 53.761C84.9094 52.403 86.2074 51.079 87.5934 49.834C81.5734 52.773 76.0314 56.624 70.9824 61.013C70.1134 61.766 69.2524 62.525 68.4034 63.298C67.6314 66.05 66.8464 68.797 66.0454 71.549C67.1364 71.899 68.4454 71.632 69.2964 70.701C70.4974 69.416 71.6444 68.085 72.7764 66.739C73.0944 66.698 73.4024 66.571 73.6434 66.317C75.3794 64.486 77.0504 62.597 78.7044 60.693C78.6574 60.799 78.6134 60.905 78.5844 61.018C78.4094 61.896 79.3414 62.677 80.1844 62.424C80.5044 62.342 80.7544 62.119 80.9604 61.87C82.2414 60.41 83.4894 58.919 84.6744 57.379C85.9724 55.763 86.8814 54.354 88.8484 52.103C85.8554 53.778 83.2044 56.007 80.7404 58.379Z" fill="#6C7C6B"/>
<path d="M80.7144 23.9974C85.2774 26.1174 89.9774 28.3434 94.3714 30.7534C94.8174 29.7474 95.2744 28.7464 95.7534 27.7564C98.2644 22.2984 101.454 17.2004 104.485 12.0234C99.7354 16.3474 94.7864 20.6664 90.6994 25.6474C90.9164 25.2074 91.1404 24.7614 91.3804 24.3024C92.7644 21.6154 94.1284 18.8254 96.0644 16.5254C93.1994 18.2854 90.4444 20.5604 87.9594 23.1214C88.3854 22.4644 88.8244 21.8194 89.2844 21.1864C88.2374 21.8254 87.2254 22.5354 86.2494 23.3024C87.0244 21.9594 87.8964 20.5794 88.9124 19.1224C87.1554 20.3084 85.5004 21.6344 83.9334 23.0604C84.6064 22.1414 85.3034 21.2424 86.0534 20.3914C84.2634 21.4474 82.4614 22.6584 80.7144 23.9974Z" fill="#6C7C6B"/>
<path d="M147.525 21.4279C146.405 19.2559 145.013 17.1969 143.424 15.2969C144.34 15.9799 145.231 16.6849 146.086 17.4269C142.697 12.0709 137.981 7.16086 132.003 4.78886C128.76 3.58586 125.239 3.70886 121.835 3.49786C121.322 3.47686 120.647 3.43486 120.24 3.43986C121.094 3.68486 121.938 3.95986 122.781 4.24586C122.155 4.20786 121.53 4.18687 120.899 4.20187C120.352 4.21187 119.629 4.19786 119.191 4.26486C120.526 4.67286 121.849 5.11587 123.161 5.59187C126.134 6.65687 129.207 8.35286 132.287 10.1679C130.291 9.45586 127.04 8.82586 125.754 9.05186C127.451 9.84286 129.121 10.6889 130.785 11.5469C129.704 11.2719 128.537 11.0409 127.559 10.9309L127.811 11.0499C129.898 12.0879 131.941 13.1629 133.799 13.8699C134.991 14.3949 137.627 15.2579 139.185 16.0929C138.895 15.8329 138.595 15.5779 138.29 15.3319C139.496 15.9399 140.676 16.5939 141.77 17.3889C140.923 16.2609 139.955 15.2159 138.895 14.2629C142.025 16.3339 144.788 18.4289 147.525 21.4279Z" fill="#6C7C6B"/>
<path d="M152.077 52.1367C151.177 55.5227 150.085 58.8607 149.086 62.2237C149.187 59.7547 149.088 57.4047 148.701 56.3027C147.879 59.6877 147.006 63.0607 146.14 66.4367C146.425 63.3197 146.432 60.1607 146.474 57.1577C144.874 62.2497 143.553 67.4097 142.314 72.5917C142.431 71.4337 142.524 70.2707 142.593 69.1097C141.551 71.4077 140.73 73.7467 140.021 76.1137C140.272 74.7087 140.426 73.2837 140.457 71.8477C138.48 75.8997 137.401 80.2987 136.9 84.7257C137.64 83.4517 138.251 82.1187 138.76 80.7497C138.233 82.8577 137.742 84.9817 137.222 87.1167C138.414 85.2287 139.466 83.2347 140.311 81.1637C139.921 82.8507 139.528 84.5367 139.125 86.2207C140.779 83.2857 142.331 80.2497 143.569 77.0977C142.945 79.6987 142.272 82.2877 141.428 84.8257C143.037 82.1937 144.489 79.4367 145.7 76.5837C145.08 79.5547 144.419 82.5177 143.547 85.4257C149.927 75.6957 153.527 63.7947 152.077 52.1367Z" fill="#6C7C6B"/>
<path d="M85.3823 163.451C88.6033 165.562 92.2963 166.837 96.1293 166.425C99.2753 166.086 102.27 165.398 105.115 164.191C114.716 157.291 120.747 145.436 125.899 135.166C120.988 141.453 110.905 151.935 107.017 154.84C100.9 159.575 93.1423 162.141 89.1523 162.654C87.3803 162.779 85.7373 162.789 84.1643 162.725C84.6023 162.965 85.0143 163.211 85.3823 163.451Z" fill="#6C7C6B"/>
<path d="M104.239 142.762C97.7803 145.229 91.3522 147.804 84.7762 149.947C82.3342 150.673 79.9222 151.494 77.4792 152.218C77.7592 152.239 78.0223 152.318 78.2603 152.456C78.6063 152.468 78.9512 152.483 79.2962 152.494C86.6662 152.843 94.1782 152.298 101.147 149.716C109.514 146.361 117.11 140.55 121.665 132.684C116.49 137.584 109.578 140.664 104.239 142.762Z" fill="#6C7C6B"/>
<path d="M49.6543 165.965C52.5473 163.158 54.4423 159.548 56.4833 156.123C53.4043 159.1 50.9903 161.611 47.0763 163.346C49.6353 161.789 51.5553 159.349 52.4083 155.768C48.2033 162.817 39.1053 163.115 32.3743 161.657C29.6213 161.203 26.7433 161.042 24.0303 161.8C22.7603 162.206 21.5173 162.714 20.3103 163.295C19.8913 163.378 19.4763 163.497 19.0593 163.607C17.0193 165.23 15.2993 167.331 13.4293 169.852C13.4633 169.833 13.4963 169.81 13.5313 169.789C14.3193 169.351 15.1903 168.913 16.1023 168.491C18.8303 168.005 21.1843 168.097 23.6713 168.493C27.4663 167.931 31.4273 168.578 35.2083 169.797C38.0443 170.713 40.6113 171.927 43.6073 172.076C46.9253 170.605 49.6103 168.056 52.5033 165.913C50.7573 166.626 49.1163 167.193 47.5393 167.665C48.2783 167.131 48.9863 166.562 49.6543 165.965Z" fill="#6C7C6B"/>
<path d="M39.1403 149.082C37.3193 149.652 35.4843 150.17 33.6393 150.657C37.0253 148.437 40.4703 146.307 43.9433 144.23C39.9523 145.027 35.9263 145.826 32.0373 147.034C33.8943 145.577 35.8663 144.114 37.8073 142.969C35.4323 143.56 33.0953 144.336 30.8193 145.269C29.5883 148.203 23.8763 149.59 21.5993 150.563C21.2113 150.728 20.8293 150.905 20.4483 151.081C19.9423 151.454 19.4353 151.826 18.9443 152.219C18.0303 152.963 17.1743 153.763 16.3543 154.598C16.1973 154.631 16.0413 154.666 15.8843 154.7C14.9523 154.918 14.0193 155.134 13.0833 155.337C12.8923 155.636 12.7043 155.938 12.5133 156.239C12.9103 156.31 13.3053 156.383 13.7033 156.456C13.9623 156.515 14.2243 156.566 14.4863 156.62C14.4773 156.631 14.4683 156.639 14.4593 156.652C13.3203 157.437 12.2103 158.221 11.1123 159.004C10.6133 160.159 10.1133 161.301 9.31934 162.313C8.69034 163.114 7.77934 164.019 6.81934 164.996C7.80634 164.732 8.79233 164.462 9.77233 164.177C10.3363 164.026 10.8893 163.852 11.4423 163.675C11.5763 163.548 11.7033 163.413 11.8383 163.288C15.6393 159.766 18.9233 157.718 24.1123 157.356C24.5823 157.322 24.9013 157.526 25.0713 157.826C25.3243 157.826 25.5763 157.822 25.8323 157.828C25.8583 157.828 25.8853 157.826 25.9113 157.826C26.2133 157.792 26.5073 157.753 26.8153 157.728C27.0043 157.712 27.1683 157.734 27.3183 157.771C32.9793 157.511 38.5183 156.098 43.2653 152.858C48.3563 149.579 51.7043 145.734 56.9993 143.264C50.7963 144.297 45.1153 147.222 39.1403 149.082Z" fill="#6C7C6B"/>
<path d="M41.7433 126.743C42.8553 126.263 43.9783 125.819 45.1123 125.428C39.5903 125.633 35.4923 126.646 31.9993 128.662C31.5443 128.874 31.0993 129.116 30.6593 129.372C30.5893 129.441 30.5123 129.507 30.4443 129.578C27.5093 132.656 25.7333 136.641 23.0983 139.947C22.6753 140.475 22.2283 140.976 21.7903 141.487C21.3103 142.955 20.8753 144.437 20.3963 145.892C20.2183 146.464 19.9503 147.214 19.8223 147.674C20.4283 146.788 21.0753 145.931 21.7473 145.094C24.2963 142.005 27.3523 138.179 30.9013 135.274C32.7833 133.906 35.0693 131.87 38.8933 130.222C42.1943 128.892 45.6733 128.072 49.1843 127.527C46.6883 127.051 44.1853 126.761 41.7433 126.743Z" fill="#6C7C6B"/>
<path d="M74.6232 86.9482C75.3812 85.3812 73.0082 84.3812 72.4602 86.0362C71.9422 87.5082 71.6522 89.0412 71.3442 90.5672C71.3382 90.5942 71.3392 90.6002 71.3392 90.6062C71.3102 90.7242 71.2892 90.8412 71.2772 90.9542C71.3002 91.2222 71.4982 91.4012 71.7302 91.4662C70.4262 94.1402 68.7882 96.7082 67.1232 99.3402C66.5792 100.188 66.0382 101.038 65.4772 101.874C65.1522 102.571 64.7892 103.247 64.4012 103.888C64.3722 104.112 64.3932 104.331 64.4642 104.535C63.7942 105.174 63.3162 105.639 62.9252 106.008C62.5412 106.485 62.1522 106.926 61.7682 107.309C59.9312 109.142 57.2322 110.909 54.6962 111.574C53.0772 111.998 51.5922 111.826 50.0612 111.625C49.8422 111.677 49.6252 111.737 49.4052 111.783C46.9642 112.231 43.9152 112.217 40.5652 111.978C37.8142 112.654 35.3082 113.874 33.1372 115.638C34.7082 116.377 36.3042 117.057 37.9482 117.62C38.2582 117.593 38.5722 117.575 38.8912 117.582C40.8842 117.629 43.0932 118.451 45.1122 118.585C45.1212 118.58 45.1332 118.575 45.1432 118.571C46.3352 117.742 49.0592 118.502 50.8902 118.968C53.7702 118.476 56.5732 117.47 59.1632 116.002C61.8092 114.541 63.3832 113.509 65.4262 110.542C65.3402 110.65 65.2712 110.735 65.2122 110.81C67.0272 108.518 68.4572 105.952 69.7192 103.32C70.5892 101.396 71.4632 99.1832 72.2052 96.8732C72.6352 95.6892 72.9742 94.4732 73.2262 93.2422C73.4172 92.4452 73.5912 91.6452 73.7292 90.8532C73.6702 90.9922 73.6062 91.1182 73.5472 91.2582C73.6392 90.5002 73.6982 89.7382 73.7242 88.9732C74.0552 88.3122 74.3562 87.6342 74.6232 86.9482Z" fill="#6C7C6B"/>
<path d="M158.635 124.6C159.492 125.343 161.865 124.667 162.749 124.464C165.419 123.849 167.767 122.391 169.742 120.534C172.603 117.84 174.968 114.679 177.697 111.878C178.234 109.521 178.571 107.117 178.66 104.689C177.828 107.377 176.198 110.484 174.473 113.302C174.899 110.696 175.057 108.046 174.942 105.404C173.875 109.67 172.077 113.464 169.664 117.15C169.895 115.666 170.043 114.173 170.017 112.673C169.303 114.917 168.12 117.035 166.955 119.199C166.82 119.445 166.683 119.69 166.547 119.939C166.994 116.884 167.246 113.8 167.329 110.723C166.336 113.655 165.125 116.541 163.786 119.401C163.669 114.463 163.393 109.407 163.01 104.69C161.557 111.308 159.962 117.894 158.578 124.527C158.596 124.547 158.612 124.58 158.635 124.6Z" fill="#6C7C6B"/>
<path d="M127.706 65.5432C126.647 65.8882 125.371 66.2112 124.657 66.2712C123.341 66.3422 123.126 66.3132 121.994 66.0652C121.137 65.8662 120.31 65.5602 119.49 65.2462C116.336 63.8322 114.891 61.5012 114.139 57.8262C113.71 60.5952 114.179 63.6242 116.245 65.6582C118.815 68.3702 123.493 69.0432 126.487 66.6462C126.744 66.4632 127.915 65.5282 127.706 65.5432Z" fill="#99A9AC"/>
<path d="M120.526 68.9483C120.321 68.8713 119.989 68.7323 119.93 68.7073C118.149 67.8743 117.718 67.5173 116.47 66.2103C114.907 64.6143 114.094 63.3593 113.055 60.9883C113.144 65.2243 116.062 69.9213 120.816 69.1803C121.369 69.1113 120.734 69.0633 120.526 68.9483Z" fill="#99A9AC"/>
<path d="M178.306 80.2383C176.398 73.7683 172.229 66.8293 164.435 68.8973C160.503 69.8483 156.881 72.2463 152.83 72.1663C156.607 72.8443 160.251 71.3983 163.909 70.6953C171.156 69.0873 173.827 75.1133 176.149 80.8793C178.151 86.1433 179.564 89.0773 181.802 94.5603C180.664 89.7803 179.757 84.9373 178.306 80.2383Z" fill="#ECFAFC"/>
<path d="M120.187 62.3145C121.318 63.2385 122.703 63.9275 124.171 64.0785C125.707 64.1655 127.238 63.7835 128.697 63.3345C125.452 63.4985 123.205 63.3925 120.187 62.3145Z" fill="#ECFAFC"/>
<path d="M139.697 123.932C139.905 123.901 140.119 123.89 140.335 123.89C141.354 122.404 142.325 120.867 143.212 119.23C148.469 109.103 151.546 96.743 154.713 84.959C150.557 94.617 146.687 105.659 142.995 114.436C141.317 117.986 139.399 121.413 137.415 124.806C138.116 124.369 138.874 124.054 139.697 123.932Z" fill="#ECFAFC"/>
<path d="M124.676 136.891C119.851 143.93 114.188 150.414 107.301 156.199C104.67 158.465 98.5842 161.945 95.5662 163.124C93.3182 163.96 90.9732 164.64 88.6462 165.196C89.8692 165.714 91.1362 166.094 92.4342 166.303C98.7052 164.331 104.58 161.188 109.574 156.804C117.183 150.089 123.659 142.093 128.782 133.339C132.492 126.774 135.323 119.766 138.217 112.816C133.912 120.952 129.855 129.258 124.676 136.891Z" fill="#ECFAFC"/>
<path d="M101.225 148.231C96.0624 149.745 92.0374 149.981 86.6904 150.409C81.2804 150.694 75.7674 150.598 70.5014 152.034C67.6254 152.921 64.1264 154.98 62.4364 156.294C57.9344 159.603 54.0054 163.93 50.0744 167.045C49.4304 167.262 48.7784 167.42 48.1234 167.555C49.2474 166.891 50.2934 166.086 51.2104 165.169C49.4454 166.546 47.0054 167.5 44.9744 167.924C42.6194 168.008 40.2714 167.701 38.0534 167.177C37.6344 167.06 37.2214 166.945 36.8124 166.832C39.4164 167.221 42.0754 167.588 44.6444 166.957C41.9684 167.293 39.4834 166.539 36.8544 165.943C31.6064 164.509 27.7924 163.692 24.1654 164.316C26.4364 163.585 28.5484 163.442 30.9644 163.496C24.8224 162.2 19.5254 163.927 15.7604 168.544C15.2294 168.977 14.6874 169.435 14.1274 169.94C13.6544 170.409 13.2194 170.915 12.7864 171.422C13.3554 170.995 13.9454 170.596 14.5514 170.225C14.4404 170.397 14.3254 170.562 14.2164 170.74C13.9914 171.106 13.6804 171.62 13.5334 171.913C14.3524 170.988 15.2734 170.165 16.2014 169.352C16.9674 168.963 17.7194 168.578 18.4514 168.215C17.9704 168.544 17.4854 168.904 16.9954 169.302C15.5144 170.45 13.9904 172.258 13.0814 173.592C14.5264 172.317 15.7314 171.326 17.3794 170.371C19.5354 168.992 22.7344 167.974 24.5704 167.735C24.8084 167.712 25.0364 167.696 25.2694 167.678C25.6684 167.888 26.0724 168.093 26.4794 168.289C29.3924 168.283 32.3514 168.871 35.2074 169.793C36.5004 170.21 37.7354 170.688 38.9814 171.102C40.6354 171.067 42.2914 170.903 43.9174 170.586C43.5104 170.714 43.1004 170.824 42.6874 170.901C41.8834 171.147 41.0064 171.317 40.1024 171.451C41.3214 171.802 42.5664 172.059 43.9034 172.094C44.4884 172.11 45.0614 172.094 45.6274 172.064C46.8454 171.634 48.0254 171.067 49.1484 170.346C55.9584 165.4 60.6484 158.721 67.9774 155.36C70.0574 154.316 72.4124 153.735 74.9204 153.385C75.3264 153.135 75.7314 152.882 76.1294 152.609C77.2314 151.853 78.2624 152.22 78.9094 152.998C81.0834 152.855 83.3194 152.79 85.5524 152.68C91.1344 152.24 95.8774 151.883 101.563 150.112C108.973 147.334 115.659 142.646 121.116 136.945C115.183 141.996 108.07 145.955 101.225 148.231ZM28.3924 167.661C29.7004 167.75 30.9024 167.938 32.0364 168.148C34.0974 168.629 36.1604 169.038 38.2154 169.259C38.5054 169.383 38.7994 169.495 39.0994 169.597C35.5124 169.35 31.9524 168.659 28.3924 167.661Z" fill="#ECFAFC"/>
<path d="M56.6013 146.356C53.8673 146.761 51.0763 147.098 48.4973 148.145C44.6403 149.605 41.3653 152.164 37.7603 154.102C35.6023 155.271 32.8453 155.526 29.5553 155.193C23.2593 154.638 16.7043 152.497 12.0753 157.125C12.0183 157.176 11.9663 157.236 11.9113 157.291C11.8593 157.39 11.7983 157.48 11.7513 157.583C11.3593 158.4 11.0303 159.235 10.6553 160.044C10.7063 160.004 10.7553 159.965 10.8063 159.925C16.7343 154.777 19.8653 156.419 28.2683 157.262C31.6783 157.648 35.3113 157.703 38.4313 156.076C41.9083 154.157 44.9903 151.556 48.6283 149.909C54.1453 147.491 61.9323 146.577 68.4953 145.211C64.5203 145.475 60.5543 145.866 56.6013 146.356Z" fill="#ECFAFC"/>
<path d="M21.7283 143.875C20.6653 145.597 19.6073 147.366 18.5383 149.065C18.6093 149.032 18.6803 149.001 18.7523 148.968C20.7203 146.77 22.6963 144.582 24.6103 142.338C28.5123 137.703 33.1803 132.97 37.5593 131.343C42.2473 129.608 46.5263 130.034 51.8693 129.571C55.8333 129.192 59.2233 128.097 62.2693 126.327C65.6403 124.175 68.6473 121.256 71.2903 117.914C52.7203 137.64 38.5073 115.262 21.7283 143.875Z" fill="#ECFAFC"/>
<path d="M65.7473 110.985C61.7343 113.572 58.1413 114.525 54.6993 114.736C50.9243 114.999 48.8553 114.305 45.1043 113.726C38.7493 112.566 33.8273 115.469 29.5553 119.488C29.2603 119.906 28.9753 120.339 28.7033 120.789C28.5523 121.042 28.3833 121.348 28.1973 121.693C33.5783 118.06 37.8293 115.341 43.8713 116.063C46.5563 116.315 50.8073 117.558 54.5353 117.214C58.5343 116.938 62.4523 115.579 65.6223 113.1C69.2383 110.478 71.9683 107.243 73.2563 102.902C71.6333 106.562 68.8553 108.978 65.7473 110.985Z" fill="#ECFAFC"/>
<path d="M98.4834 62.9972C97.4964 61.1192 95.8544 59.5182 93.7954 58.8922C93.5224 58.8022 93.1974 58.7622 92.9394 58.7402C93.1304 58.7992 93.3214 58.8672 93.5004 58.9462C96.1164 60.2702 97.1864 62.5022 97.7624 65.2572C100.17 75.0692 101.228 84.4522 97.9234 92.9142C97.4104 94.1162 96.3214 96.5672 95.1224 97.7572C93.3244 99.8922 91.0174 101.151 88.3574 102.234C105.348 98.2832 104.673 75.6652 98.4834 62.9972Z" fill="#ECFAFC"/>
<path d="M64.1224 77.3851C64.1264 77.6141 64.2313 77.7871 64.3763 77.9071C64.3123 78.7191 64.3384 79.5361 64.5104 80.3421C65.0554 82.8721 67.1353 84.856 69.4273 85.896C72.4413 87.2691 75.8233 86.9401 79.0183 86.5601C78.9803 89.1961 79.1773 91.84 79.6493 94.4351C79.8933 95.7791 80.1903 97.113 80.5573 98.426C80.9393 99.793 81.3493 101.274 82.2723 102.39C85.7263 106.566 92.4043 104.442 96.0633 101.722C100.53 98.401 102.902 93.181 104.158 87.891C105.521 82.151 105.819 76.0281 104.858 70.2021C104.075 65.4721 102.338 60.348 98.3924 57.309C96.3904 55.765 93.9643 54.957 91.4323 55.051C88.6923 55.154 86.0683 56.2691 83.6693 57.5091C79.1603 59.8461 74.7164 62.5841 70.9974 66.0661C70.1714 66.8391 69.4043 67.6751 68.6863 68.5471C68.9823 67.8301 69.2803 67.1101 69.6043 66.4101C71.0493 63.2771 72.8883 60.2471 75.1513 57.6391C77.3193 55.1391 79.8903 53.0141 82.5333 51.0391C85.0413 49.1601 87.7434 47.6381 90.5754 46.3071C92.0514 45.6151 93.5533 44.984 95.0633 44.37C96.5213 43.773 97.9423 42.979 99.4323 42.499C100.229 42.242 100.263 40.852 99.2974 40.912C97.3004 41.043 95.3794 41.037 93.4094 41.516C91.5614 41.962 89.7154 42.663 87.9954 43.468C81.4844 46.521 76.1823 51.06 71.9583 56.86C67.5883 62.865 64.0304 69.7941 64.1224 77.3851ZM67.3644 73.563C68.3994 71.725 69.8184 70.0961 71.3814 68.6851C74.6034 65.7701 78.5084 63.6741 82.3644 61.7291C85.9834 59.9061 90.6074 57.143 94.7284 58.985C98.3084 60.587 100.14 64.6561 101.055 68.2421C102.325 73.2131 102.203 78.4751 101.618 83.5321C101.073 88.2531 99.9874 93.2251 96.8443 96.9491C94.4363 99.8051 90.0484 102.578 86.1594 101.178C84.9744 100.75 84.5044 99.8681 84.1334 98.7251C83.7284 97.4791 83.4023 96.1971 83.1433 94.9111C82.6143 92.2811 82.3564 89.5931 82.3494 86.9111C82.3354 81.3401 83.5214 76.0821 85.2284 70.8151C85.6824 69.4161 83.8783 68.4891 83.1263 69.8231C80.7793 73.9831 79.5473 78.9211 79.1533 83.7291C79.1333 83.7301 79.1183 83.72 79.0973 83.722C74.9453 84.247 68.4083 85.058 66.1543 80.403C65.0803 78.184 66.2524 75.539 67.3644 73.563Z" fill="#362F40"/>
<path d="M183.783 102.649C184.429 100.554 184.209 98.3767 183.909 96.2417C182.751 88.0317 179.813 80.1967 175.152 73.3327C172.674 69.6827 168.966 65.8497 164.134 66.3817C162.045 66.6107 160.051 67.6807 158.177 68.5657C156.095 69.5497 153.724 70.5547 151.498 69.3997C150.787 69.0317 150.344 70.1347 151.009 70.5217C154.237 72.3967 158.007 71.2917 161.239 70.0567C162.773 69.4687 164.416 68.8957 166.067 68.7937C168.017 68.6757 169.719 69.8807 170.989 71.2517C173.559 74.0297 175.188 77.8257 176.663 81.2657C178.129 84.6847 179.323 88.2267 180.148 91.8557C180.57 93.7077 180.899 95.5827 181.131 97.4677C181.375 99.4757 181.386 101.28 180.43 103.115C179.53 104.841 178.281 106.429 177.167 108.024C176.064 109.601 174.939 111.163 173.756 112.684C171.46 115.633 169.046 118.524 166.15 120.909C164.875 121.96 163.27 123.382 161.631 123.802C160.768 124.022 160.472 123.489 160.298 122.714C160.084 121.767 160.005 120.769 159.928 119.802C159.586 115.435 159.467 111.079 159.965 106.718C160.47 102.308 161.403 97.9527 162.694 93.7077C163.109 92.3417 161.207 91.4207 160.609 92.8007C157.193 100.68 156.04 109.658 157.026 118.176C157.144 119.187 157.347 120.189 157.528 121.189C157.706 122.178 157.834 123.25 158.261 124.169C159.13 126.04 161.024 126.549 162.874 125.81C164.7 125.082 166.445 123.791 168.003 122.61C169.644 121.364 171.182 119.972 172.609 118.489C175.493 115.492 177.912 112.099 180.265 108.682C181.568 106.789 183.096 104.871 183.783 102.649Z" fill="#362F40"/>
<path d="M78.8073 16.5507C80.8413 14.3427 83.6803 14.3727 86.4133 13.7877C91.7433 12.6487 96.3313 9.6007 100.984 6.9227C105.614 4.2597 110.395 1.56769 115.694 0.514694C126.453 -1.62931 137.325 3.1247 144.547 11.0607C148.32 15.2067 150.853 20.1927 153.05 25.3007C155.313 30.5587 156.403 35.9637 156.652 41.6727C156.956 48.6237 156.12 55.6447 154.472 62.3957C152.673 69.7617 150.014 76.8347 147.666 84.0317C147.339 85.0317 145.812 84.5457 146.109 83.5337C147.861 77.5657 149.351 71.4987 150.593 65.4047C151.796 59.5097 152.741 53.5207 152.986 47.5037C153.198 42.2167 152.636 37.0727 151.771 31.8677C150.909 26.6897 149.289 21.8597 146.262 17.5307C140.756 9.6557 131.427 4.0077 121.713 3.7097C111.465 3.3957 103.623 10.5307 94.6623 14.3137C92.0983 15.3957 89.4553 16.2447 86.6973 16.6457C85.2433 16.8577 83.6763 16.8957 82.2903 17.4187C81.3173 17.7847 79.8763 18.9037 80.5653 20.0997C81.1833 21.1747 83.0313 21.7757 84.0693 22.2937C85.7033 23.1087 87.3473 23.9107 88.9683 24.7527C92.3383 26.5017 95.5283 28.5347 98.7143 30.5987C99.6613 31.2117 98.9693 32.8537 97.8553 32.4337C94.4613 31.1517 91.0753 29.8577 87.8123 28.2677C86.3063 27.5347 84.8193 26.7667 83.3283 26.0047C81.8943 25.2697 80.4013 24.6197 79.1753 23.5517C76.9923 21.6497 76.8643 18.6587 78.8073 16.5507Z" fill="#362F40"/>
<path d="M109.606 9.44769C110.072 8.98369 110.927 9.66069 110.507 10.1967C106.82 14.9087 104.271 20.1897 101.941 25.6677C100.81 28.3237 99.8464 31.0677 99.0894 33.8537C98.6914 35.3147 98.3474 36.7937 98.0694 38.2817C97.7844 39.8137 97.5984 41.1697 96.8864 42.5667C96.2994 43.7167 94.5664 43.2267 94.2964 42.1147C93.8984 40.4777 94.1984 38.9897 94.5034 37.3577C94.7814 35.8697 95.1174 34.3907 95.5114 32.9277C96.3204 29.9267 97.3774 27.0137 98.6804 24.1937C101.252 18.6267 105.286 13.7517 109.606 9.44769Z" fill="#362F40"/>
<path d="M71.8623 160.31C78.2853 159.173 84.2974 162.264 90.5084 163.295C96.9374 164.36 103.27 162.079 108.355 158.184C114.438 153.526 119.166 147.168 123.524 140.936C127.969 134.583 131.957 127.914 135.397 120.966C139.332 113.015 142.513 104.638 144.737 96.0514C144.937 95.2784 146.066 95.6634 145.904 96.4244C142.55 112.13 136.75 127.421 127.925 140.899C123.59 147.52 118.684 154.224 112.668 159.424C107.428 163.956 100.774 167.39 93.6954 167.274C86.1504 167.151 79.6483 161.878 72.0433 162.429C70.8353 162.516 70.6823 160.518 71.8623 160.31Z" fill="#362F40"/>
<path d="M149.154 110.662C149.939 110.745 150.743 110.74 151.53 110.733C151.735 110.731 151.937 110.723 152.14 110.708C152.197 110.703 152.267 110.702 152.333 110.693C152.359 110.689 152.387 110.687 152.413 110.684C152.818 110.639 153.22 110.569 153.617 110.472C153.814 110.425 154.01 110.373 154.204 110.312C154.286 110.287 154.367 110.262 154.447 110.236C154.469 110.227 154.491 110.221 154.512 110.211C154.867 110.069 155.214 109.919 155.552 109.742C155.909 109.553 156.262 109.347 156.603 109.132C156.688 109.078 156.77 109.021 156.855 108.968C156.88 108.95 156.877 108.954 156.887 108.947C156.899 108.938 156.897 108.938 156.925 108.916C157.085 108.788 157.245 108.663 157.399 108.53C157.862 108.132 158.631 108.099 159.05 108.59C159.498 109.117 159.417 109.747 158.989 110.242C157.735 111.692 156.1 112.637 154.277 113.197C152.446 113.759 150.504 113.811 148.716 113.084C148.139 112.849 147.766 112.319 147.882 111.681C147.986 111.105 148.535 110.599 149.154 110.662Z" fill="#362F40"/>
<path d="M156.042 84.3355C154.017 92.7465 152.929 101.411 150.146 109.632C147.726 116.777 143.244 124.1 135.757 126.655C134.225 127.179 133.562 124.864 134.814 124.105C141.189 120.244 144.953 114.03 147.444 107.164C148.783 103.475 149.834 99.6795 151.02 95.9375C152.287 91.9415 153.719 87.9905 154.888 83.9665C155.108 83.2115 156.223 83.5825 156.042 84.3355Z" fill="#362F40"/>
<path d="M30.6613 115.39C33.8163 112.332 37.6743 110.797 42.0503 110.779C46.1513 110.765 50.2853 111.758 54.3553 110.828C58.6183 109.853 62.1463 106.787 64.3443 103.079C67.2563 98.1605 68.3833 92.3025 69.6183 86.7905C70.0633 84.8045 73.0903 85.7715 72.6353 87.7545C70.5873 96.6915 67.4643 106.477 58.8903 111.237C51.5823 115.296 42.5293 111.607 35.4013 116.225C31.2633 118.904 29.2823 123.501 26.6033 127.405C26.0073 128.275 24.2623 127.946 24.4643 126.725C25.1693 122.493 27.5903 118.367 30.6613 115.39Z" fill="#362F40"/>
<path d="M30.1994 119.066C32.6374 116.427 35.8024 114.888 39.4104 114.821C42.9464 114.758 46.2974 116.06 49.7604 116.55C53.0774 117.02 56.5094 116.755 59.7274 115.828C63.4804 114.745 66.7814 112.819 69.5714 110.091C69.8644 109.804 70.3684 110.212 70.1274 110.555C66.3264 115.953 60.1054 119.438 53.5434 119.956C50.0144 120.233 46.6844 119.347 43.2544 118.67C39.9254 118.011 36.7084 118.117 33.8414 120.116C32.3644 121.144 31.0574 122.506 29.9274 123.897C28.7114 125.391 27.8464 127.37 26.4144 128.654C25.7244 129.274 24.8754 128.566 25.0204 127.768C25.3124 126.175 26.4184 124.621 27.2204 123.235C28.0784 121.756 29.0374 120.326 30.1994 119.066Z" fill="#362F40"/>
<path d="M0.831332 151.56C6.34733 150.69 11.6343 149.49 16.2053 146.065C20.8253 142.606 23.6183 137.617 26.9063 132.995C30.1463 128.443 34.2183 124.455 39.7833 123.057C45.5103 121.619 51.4873 121.17 56.9583 118.825C62.7593 116.34 68.4953 112.305 72.0253 106.994C72.5963 106.134 73.9173 106.969 73.3793 107.853C70.2723 112.975 66.4053 117.402 61.1753 120.439C58.5833 121.942 55.7863 123.077 52.8893 123.848C49.8303 124.663 46.9063 124.616 43.7733 124.626C40.6843 124.636 37.5483 125.593 35.1273 127.537C32.9383 129.297 31.3153 131.61 29.8063 133.95C26.5963 138.934 23.7703 144.324 19.0283 148.065C14.1573 151.906 7.32833 154.805 1.01533 153.708C-0.0826701 153.518 -0.496668 151.77 0.831332 151.56Z" fill="#362F40"/>
<path d="M8.13129 150.327C12.4903 149.678 16.6713 148.428 20.3493 145.934C24.3013 143.251 26.7103 139.348 29.6343 135.692C31.0673 133.901 32.6933 132.279 34.7963 131.291C36.7443 130.377 38.8233 129.985 40.9533 129.809C45.2203 129.452 49.5063 129.962 53.7523 129.27C58.8113 128.444 63.6463 126.32 67.5413 122.968C68.0603 122.522 68.7643 123.274 68.2653 123.749C65.0223 126.832 61.2523 129.305 57.0503 130.873C52.7683 132.471 48.4733 132.728 43.9513 132.845C41.7743 132.9 39.6093 133.067 37.5163 133.708C35.4003 134.356 33.5563 135.63 31.9333 137.106C28.4283 140.296 26.0983 144.484 22.2193 147.311C18.2113 150.233 13.2883 152.182 8.2793 152.072C7.3043 152.051 7.13229 150.477 8.13129 150.327Z" fill="#362F40"/>
<path d="M89.4842 157.317C92.9422 157.482 96.2542 157.154 99.5102 155.927C102.544 154.784 105.305 153.008 107.871 151.05C110.81 148.808 113.575 146.257 116.097 143.555C116.528 143.097 117.145 143.803 116.752 144.263C112.469 149.302 108.253 154.408 102.372 157.665C99.4712 159.27 96.3072 160.245 93.0022 160.522C89.2582 160.832 85.5012 160.226 81.7632 160.075C78.0262 159.924 74.1312 160.504 70.9232 162.543C69.8792 163.204 69.0262 161.694 69.7472 160.893C74.6972 155.369 82.9522 157.008 89.4842 157.317Z" fill="#362F40"/>
<path d="M3.39531 182.582C6.81131 179.049 9.46331 174.724 13.2513 171.564C16.3793 168.953 20.1953 167.194 24.2033 166.473C28.2123 165.75 32.2713 166.079 36.1393 167.338C39.7443 168.512 43.7283 170.815 47.6323 169.863C51.6213 168.893 54.2273 164.754 57.1153 162.153C60.4043 159.188 64.2463 156.859 68.3083 155.124C72.5073 153.327 76.7933 152.21 81.3503 151.847C86.1393 151.466 90.9533 151.672 95.7023 150.85C100.47 150.025 105.071 148.333 109.285 145.959C113.521 143.575 117.714 140.657 120.903 136.951C121.354 136.427 122.255 137.174 121.837 137.728C119.195 141.238 116.363 144.495 112.767 147.062C109.247 149.575 105.352 151.486 101.225 152.785C96.7893 154.18 92.2463 154.626 87.6153 154.76C82.8453 154.895 78.0383 154.774 73.3583 155.852C68.9983 156.859 64.9223 159.056 61.5313 161.953C58.2723 164.734 55.9953 168.603 52.5563 171.151C48.9003 173.858 44.8233 173.971 40.6223 172.542C38.6603 171.874 36.7843 170.974 34.8283 170.292C32.9033 169.618 30.9113 169.273 28.8743 169.223C24.4003 169.108 19.8473 170.461 16.1973 173.064C11.7923 176.207 9.22831 181.395 4.47931 184.104C3.51931 184.651 2.67631 183.325 3.39531 182.582Z" fill="#362F40"/>
<path d="M7.82429 175.602C9.23329 173.363 10.6593 171.119 12.2033 168.971C14.7283 165.461 17.7223 162.135 21.9153 160.677C25.8973 159.289 30.1813 160.208 34.2593 160.559C36.2623 160.731 38.3023 160.785 40.2863 160.408C42.2963 160.023 44.0443 158.977 45.5933 157.669C49.2833 154.556 52.3003 150.693 56.7993 148.657C57.4353 148.368 57.9403 149.289 57.3133 149.623C53.4393 151.688 51.3333 155.834 48.3673 158.906C45.4323 161.946 41.6703 163.875 37.3653 163.526C33.4273 163.209 29.4803 161.522 25.4933 162.131C21.1733 162.791 18.0713 166.065 15.5553 169.4C13.8583 171.651 12.3153 174.023 10.7023 176.333C9.81529 177.603 8.86529 178.824 7.98029 180.094C7.06629 181.404 6.1853 182.893 4.9403 183.914C4.2833 184.451 3.25729 183.876 3.52229 183.013C3.90529 181.763 4.67329 180.631 5.37829 179.54C6.22029 178.241 7.00229 176.912 7.82429 175.602Z" fill="#362F40"/>
<path d="M0.950296 170.307C3.2293 169.699 4.8353 168.007 6.2283 166.187C7.6753 164.299 9.0623 162.325 10.7873 160.673C14.3173 157.296 18.9893 155.025 23.9603 155.544C26.6073 155.822 29.1763 156.606 31.8383 156.797C34.3553 156.981 36.8543 156.531 39.1603 155.51C41.3663 154.534 43.3653 153.138 45.4583 151.939C47.5213 150.755 49.5793 149.526 51.7143 148.474C54.1383 147.284 56.7383 146.384 59.4133 145.979C61.9473 145.598 64.4733 146.104 66.9213 146.764C67.5383 146.931 67.2283 147.82 66.6243 147.694C64.2393 147.203 61.9083 147.924 59.6513 148.625C57.4413 149.312 55.3563 150.415 53.3193 151.493C51.2103 152.608 49.1853 153.869 47.0943 155.018C44.9513 156.198 42.6913 157.023 40.3573 157.723C38.1283 158.392 35.7863 158.873 33.4513 158.889C30.8623 158.908 28.3403 158.258 25.7703 158.053C20.7113 157.645 16.0923 159.497 12.5043 163.055C9.1003 166.428 6.4443 171.595 1.0843 171.878C0.155299 171.926 0.122296 170.529 0.950296 170.307Z" fill="#362F40"/>
<path d="M1.71528 169.732C6.45328 166.523 8.25228 160.537 11.8063 156.26C13.5803 154.124 15.7453 152.601 18.2643 151.46C20.7843 150.32 23.5043 149.594 25.9073 148.202C30.8613 145.329 34.0863 140.343 39.1213 137.577C41.4353 136.307 43.9063 135.331 46.4093 134.502C48.8743 133.685 51.4193 133.098 53.8473 132.172C56.9723 130.982 59.6183 129.111 62.1483 126.959C64.9353 124.589 67.8133 122.285 70.5233 119.831C71.0643 119.34 71.7843 120.124 71.2943 120.649C66.9713 125.275 63.3163 130.838 57.5383 133.818C55.1663 135.043 52.5773 135.891 49.9993 136.559C47.4253 137.226 44.7783 137.646 42.2463 138.469C39.5563 139.344 37.2943 140.748 35.2383 142.69C33.0503 144.757 31.2923 147.238 29.0293 149.23C26.8993 151.105 24.3433 152.166 21.6743 153.036C18.9703 153.92 16.4643 154.811 14.4463 156.917C10.1363 161.413 8.52928 168.36 2.44428 171.082C1.53328 171.488 0.902279 170.281 1.71528 169.732Z" fill="#362F40"/>
<path d="M71.1025 148.145C71.6185 148.017 72.1195 147.84 72.6275 147.683C74.5515 147.853 76.4115 148.58 78.3275 148.837C80.3225 149.105 82.4614 148.881 84.4014 148.388C86.4094 147.88 88.3155 146.95 90.1395 145.984C92.0585 144.969 93.9065 143.92 96.0945 143.616C96.8725 143.508 96.6885 142.372 95.9815 142.304C93.5295 142.075 91.1395 141.388 88.6805 141.19C86.5515 141.02 84.3854 141.273 82.3044 141.731C78.1334 142.645 73.9114 144.43 70.4984 146.998C69.9514 147.408 70.4885 148.297 71.1025 148.145ZM75.9865 146.542C78.2945 145.672 80.5895 144.755 83.0045 144.186C85.0475 143.706 87.1345 143.484 89.2345 143.554C90.0955 143.581 90.9485 143.636 91.7975 143.682C91.2105 143.946 90.6224 144.213 90.0264 144.462C88.0904 145.268 86.1115 145.748 84.0555 146.135C81.9685 146.529 79.9325 146.582 77.8205 146.526C77.2005 146.509 76.5955 146.532 75.9865 146.542Z" fill="#362F40"/>
<path d="M119.858 28.0382C121.578 29.0132 123.27 30.0272 124.953 31.0692C126.4 31.9642 127.899 33.0793 128.283 34.8453C128.682 36.6763 127.799 38.7142 127.102 40.3742C126.378 42.0972 125.578 43.7923 124.429 45.2783C123.582 46.3743 122.534 47.4893 121.094 47.6993C119.055 47.9923 117.695 46.4053 117.053 44.6653C116.388 42.8593 115.893 41.0103 115.431 39.1433C114.934 37.1373 114.465 35.1162 114.124 33.0772C113.762 30.9162 113.603 28.7393 113.368 26.5633C112.948 22.6403 119.141 27.6322 119.858 28.0382Z" fill="#362F40"/>
<path d="M134.06 35.3978C134.079 35.3768 134.097 35.3547 134.115 35.3337C134.536 34.5447 135.169 33.8558 135.773 33.2288C136.158 32.8268 136.536 32.4328 136.905 32.0318C137.618 31.1298 138.289 30.1948 139.034 29.3158C139.451 28.8248 139.869 28.3238 140.32 27.8618C140.674 27.4988 141.074 27.2707 141.493 27.0067C141.572 26.9427 141.652 26.8867 141.745 26.8557C142.204 26.5727 142.686 26.3468 143.226 26.6248C143.906 26.9728 144.396 28.0437 144.721 28.6847C145.222 29.6717 145.347 30.7987 145.418 31.8917C145.516 33.3748 145.422 34.9007 145.318 36.3827C145.199 38.0937 144.971 39.8397 144.459 41.4817C144.047 42.8037 143.154 44.4088 141.678 44.7258C140.125 45.0608 138.528 44.2057 137.341 43.2787C135.943 42.1837 134.722 40.7908 134.066 39.1208C133.71 38.2108 133.5 37.2668 133.734 36.2948C133.797 36.0288 133.902 35.7787 134.018 35.5337C134.039 35.4897 134.023 35.4438 134.06 35.3978Z" fill="#362F40"/>
<path d="M125.828 50.5181C126.608 49.5821 127.445 48.6952 128.304 47.8302C129.103 47.0222 129.884 46.2051 130.849 45.5911C131.782 44.9991 132.942 44.6601 134.047 44.8281C135.362 45.0301 136.307 45.9142 137.157 46.8732C138.29 48.1522 139.077 49.6251 139.397 51.2581C139.543 51.6241 139.649 52.0021 139.639 52.3981C139.614 53.4461 138.905 54.2142 137.951 54.5452C137.067 54.8542 136.134 54.7531 135.216 54.8421C133.093 55.0541 131.325 55.9952 129.407 56.8342C127.644 57.5982 124.599 58.5291 123.509 56.2471C122.565 54.2721 124.667 51.9101 125.828 50.5181Z" fill="#362F40"/>
<path d="M94.5883 30.6553C97.8393 23.5513 101.895 16.3453 106.87 10.4043C104.701 12.5543 102.373 14.5643 100.552 17.0343C97.5323 21.0253 95.2173 25.5883 93.8193 30.4063C94.0763 30.4893 94.3323 30.5743 94.5883 30.6553Z" fill="#362F40"/>
<path d="M92.2673 29.8948C92.5323 29.9848 92.7973 30.0678 93.0623 30.1548C95.3163 24.3818 98.1453 18.7879 102.092 13.6309C97.4053 18.0379 93.9463 23.7008 92.2673 29.8948Z" fill="#362F40"/>
<path d="M90.7214 29.3786C90.9784 29.4656 91.2354 29.5506 91.4924 29.6366C93.1924 25.1816 95.3844 21.0226 98.2624 16.6836C94.5744 20.3136 91.8944 24.5416 90.7214 29.3786Z" fill="#362F40"/>
<path d="M89.9072 29.1068C91.3852 25.6738 93.2232 22.3608 95.1602 19.0078C93.1732 21.2628 91.4562 23.2868 90.1802 26.0318C89.7592 26.9458 89.4272 27.8988 89.1472 28.8568C89.4002 28.9398 89.6542 29.0228 89.9072 29.1068Z" fill="#362F40"/>
<path d="M87.6243 28.0518C88.1423 27.1448 88.6843 26.2538 89.2353 25.3678C90.4273 23.4688 91.5103 21.5108 92.9643 19.8828C90.3763 21.9738 88.3613 24.6538 87.0593 27.6688C87.2493 27.7978 87.4383 27.9258 87.6243 28.0518Z" fill="#362F40"/>
<path d="M85.7844 26.8054C86.1214 26.2284 86.4624 25.6534 86.8044 25.0804C87.8454 23.4264 88.7814 21.7684 90.1994 20.4824C88.0544 21.9944 86.3944 24.0844 85.2004 26.4184C85.3964 26.5464 85.5914 26.6774 85.7844 26.8054Z" fill="#362F40"/>
<path d="M145.388 18.5945C140.095 10.6835 130.908 4.7965 121.273 5.4545C125.753 5.8205 129.174 7.24048 132.825 9.34848C137.108 11.7245 140.246 14.1885 143.758 17.5465C144.727 18.4535 145.715 19.5395 146.542 20.4825C146.172 19.8445 145.794 19.2085 145.388 18.5945Z" fill="#362F40"/>
<path d="M125.71 7.04C124.888 6.895 125.877 7.146 126.048 7.26C131.349 9.895 136.539 13.334 140.97 16.855C136.999 12.199 131.773 8.345 125.71 7.04Z" fill="#362F40"/>
<path d="M126.647 9.63477C128.457 10.3108 130.166 11.4428 131.895 12.4068C133.764 13.5068 135.738 14.5388 137.401 15.8848C134.752 12.8298 130.189 10.1258 126.647 9.63477Z" fill="#362F40"/>
<path d="M129.073 13.4395C130.327 14.2935 131.694 14.9555 132.979 15.7545C131.907 14.6705 130.436 14.0115 129.073 13.4395Z" fill="#362F40"/>
<path d="M127.405 64.5713C124.556 65.0173 120.831 65.0662 118.696 64.0682C117.744 63.6662 116.92 62.7713 116.535 62.1873C115.68 60.8773 115.265 59.8982 115.072 58.2402C114.527 65.2172 119.806 67.1252 125.747 65.4753C126.839 65.1843 127.945 64.7612 128.964 64.3372C128.515 64.4092 127.673 64.5303 127.405 64.5713Z" fill="#362F40"/>
<path d="M119.667 66.9112C117.253 65.8102 114.975 63.5302 113.757 60.9102C114.367 64.1892 117.132 67.2921 120.607 67.3831C120.807 67.3861 121.069 67.3832 121.223 67.3632C120.69 67.2632 120.166 67.1212 119.667 66.9112Z" fill="#362F40"/>
<path d="M72.4652 67.4512C73.8302 64.7762 75.4342 62.2932 77.2142 60.2222C81.7492 55.1052 87.0732 50.5782 92.6152 46.8672C87.0552 49.6412 81.6002 52.9232 77.0482 57.1862C73.7072 60.5302 71.4242 64.8252 70.0952 69.3602C70.8562 68.6912 71.6582 68.0622 72.4652 67.4512Z" fill="#362F40"/>
<path d="M76.2393 64.6536C77.1353 64.0216 78.0603 63.4286 79.0383 62.9616C79.7933 61.8546 80.5722 60.7626 81.3672 59.6886C83.5552 56.7926 86.5443 53.0266 89.9563 50.4336C84.0653 53.5986 79.2133 58.6656 76.2393 64.6536Z" fill="#362F40"/>
<path d="M138.536 124.228C138.777 123.749 139.016 123.269 139.244 122.783C139.036 123.238 138.815 123.705 138.599 124.17C139.021 123.78 139.463 123.402 139.939 123.057C140.205 122.863 140.484 122.689 140.761 122.512C143.034 117.497 144.687 112.207 145.566 106.761C144.481 110.602 142.69 114.944 141.415 117.894C140.807 119.317 140.085 120.945 139.307 122.648C142.407 116.008 144.414 108.81 145.722 101.631C144.105 107.297 141.559 113.47 139.787 117.507C137.89 122.131 134.355 129.75 130.434 135.482C129.814 136.454 129.061 137.607 128.497 138.47C128.917 137.979 129.339 137.494 129.76 137.006C131.787 134.848 133.585 132.523 135.186 130.076C135.623 127.766 136.833 125.818 138.536 124.228Z" fill="#362F40"/>
<path d="M150.611 112.922C150.99 112.67 151.362 112.476 151.728 112.327C151.973 111.607 152.222 110.892 152.438 110.16C154.217 103.383 155.072 96.3749 155.836 89.4199C154.269 96.7699 152.749 104.171 150.41 111.323C150.2 111.919 149.98 112.494 149.763 113.076C150.036 113.006 150.315 112.948 150.611 112.922Z" fill="#362F40"/>
<path d="M153.624 111.951C155.077 106.986 155.929 101.861 155.926 96.6758C155.356 101.759 153.843 106.782 152.297 111.683C152.245 111.85 152.191 112.013 152.139 112.18C152.652 112.016 153.149 111.941 153.624 111.951Z" fill="#362F40"/>
<path d="M154.966 112.21C156.13 107.607 156.763 102.873 156.944 98.2031C156.284 102.886 154.976 107.425 153.655 111.955C154.115 111.968 154.555 112.056 154.966 112.21Z" fill="#362F40"/>
<path d="M152.632 70.0039C151.575 74.0109 150.571 78.0349 149.454 82.0249C150.788 78.6999 152.475 75.4119 153.598 71.9579C153.776 71.3879 153.942 70.8109 154.102 70.2349C153.61 70.2059 153.12 70.1279 152.632 70.0039Z" fill="#362F40"/>
<path d="M154.306 70.2512C153.365 73.4702 152.43 76.6892 151.515 79.9142C152.751 77.2002 154.175 74.5562 155.089 71.7082C155.251 71.2102 155.399 70.7092 155.538 70.2012C155.127 70.2442 154.715 70.2672 154.306 70.2512Z" fill="#362F40"/>
<path d="M157.165 69.8868C156.847 71.8748 156.452 74.0388 155.965 76.0328C156.902 73.9288 157.644 71.7598 158.216 69.5508C157.868 69.6788 157.516 69.7898 157.165 69.8868Z" fill="#362F40"/>
<path d="M156.009 70.129C155.335 72.585 154.655 75.037 153.956 77.484C155.217 75.077 156.177 72.545 156.878 69.957C156.589 70.029 156.299 70.085 156.009 70.129Z" fill="#362F40"/>
<path d="M158.719 69.356C158.337 71.095 157.876 72.841 157.276 74.595C158.385 72.801 159.193 70.875 159.766 68.873C159.421 69.048 159.072 69.21 158.719 69.356Z" fill="#362F40"/>
<path d="M160.185 68.6514C159.819 70.2334 159.409 71.8044 158.902 73.3444C159.779 71.7794 160.431 70.0354 160.91 68.2344C160.671 68.3804 160.429 68.5194 160.185 68.6514Z" fill="#362F40"/>
<path d="M169.851 74.1772C169.371 73.6362 168.85 73.0412 168.391 72.5332C168.9 73.3032 169.387 74.0872 169.872 74.8722C172.841 79.5752 174.266 83.1022 176.064 87.7942C177.846 92.1202 179.393 96.6342 179.96 101.278C180.322 91.3772 176.593 81.4312 169.851 74.1772Z" fill="#362F40"/>
<path d="M169.331 78.1199C169.162 77.9289 168.965 77.7029 168.817 77.5449C169.167 78.0869 169.499 78.6439 169.826 79.2019C173.535 85.5529 176.268 91.5949 178.21 98.5909C177.614 90.9909 174.709 83.6079 169.331 78.1199Z" fill="#362F40"/>
<path d="M168.914 81.7676C170.337 84.1046 171.515 86.5816 172.808 88.9916C173.858 90.9366 175.015 92.8106 175.711 94.8416C174.898 89.9806 172.123 85.1956 168.914 81.7676Z" fill="#362F40"/>
<path d="M169.322 85.8594C170.334 88.5414 171.612 91.0984 172.898 93.6554C172.18 90.7554 170.95 88.3094 169.322 85.8594Z" fill="#362F40"/>
<path d="M161.018 112.032C160.895 115.348 161.475 119.005 162.071 122.074C162.066 113.763 163.005 105.502 163.526 97.2148C162.303 102.066 161.278 107.026 161.018 112.032Z" fill="#362F40"/>
<path d="M164.59 101.455C163.556 106.73 163.487 112.285 164.089 117.774C164.508 112.592 165.021 105.939 164.59 101.455Z" fill="#362F40"/>
<path d="M166.64 106.057C166.216 108.863 166.139 111.693 166.151 114.527C166.802 111.759 166.868 108.855 166.64 106.057Z" fill="#362F40"/>
<path d="M82.5403 80.8164C81.4203 81.1404 80.1783 81.4364 79.1003 81.6584C75.7083 82.3784 72.6393 82.9044 69.0483 82.4774C73.3813 84.0594 78.3173 83.8004 82.5773 82.0074C82.5403 81.6144 82.5283 81.2154 82.5403 80.8164Z" fill="#362F40"/>
<path d="M82.7784 78.6289C78.9744 80.2639 74.8854 81.2989 70.4514 81.5759C74.7144 82.2739 78.8544 81.7919 82.5744 80.2059C82.6164 79.6839 82.6854 79.1569 82.7784 78.6289Z" fill="#362F40"/>
<path d="M83.2993 76.1504C82.4973 76.5324 81.6923 76.9074 80.8973 77.2924C77.8353 78.7184 75.7373 79.7974 72.1243 80.5504C75.8723 80.4474 79.6493 79.3944 82.9823 77.5734C83.0843 77.0964 83.1903 76.6224 83.2993 76.1504Z" fill="#362F40"/>
<path d="M83.8084 73.765C83.8524 73.52 83.9114 73.282 83.9614 73.043C83.5494 73.305 83.1374 73.567 82.7274 73.846C80.2174 75.482 77.7734 77.245 75.0474 78.518C78.1144 77.773 81.0754 76.391 83.6604 74.515C83.7124 74.264 83.7654 74.013 83.8084 73.765Z" fill="#362F40"/>
<path d="M84.6604 70.4941C83.7534 71.1981 82.8044 71.8611 81.7664 72.5621C80.1084 73.7221 78.5464 75.0181 76.8594 76.1331C79.4584 75.0261 82.0804 73.6401 84.2624 71.8051C84.3834 71.3611 84.5164 70.9231 84.6604 70.4941Z" fill="#362F40"/>
<path d="M100.393 74.6203C99.9593 71.6583 98.9593 68.8193 98.0933 65.9623C97.8433 65.1773 97.4823 63.9093 97.3103 63.4043C97.7323 66.1873 97.9503 68.5613 98.3193 71.1853C99.0413 75.2873 98.4733 80.4323 97.8763 83.8593C97.3653 87.5613 96.5133 91.2373 95.0953 94.7013C94.5303 95.9913 93.3373 98.5013 91.9333 99.7123C94.0613 98.1853 95.4163 96.0433 96.7013 93.8123C98.3123 90.7983 99.4713 87.5443 100.03 84.1693C100.574 81.0263 100.822 77.7923 100.393 74.6203Z" fill="#362F40"/>
<path d="M96.1844 70.2059C96.0824 69.9009 95.9424 69.5349 95.8384 69.2949C95.9734 69.8839 96.0484 70.3819 96.1074 70.9239C96.8514 80.0839 95.7674 87.1949 93.0234 96.0189C95.1954 91.8019 97.0454 87.2799 97.6784 82.5539C98.0534 78.4079 97.3894 74.1739 96.1844 70.2059Z" fill="#362F40"/>
<path d="M94.6232 70.9142C94.5522 70.4302 94.4752 69.9053 94.4042 69.4473C94.4122 70.2733 94.3962 71.1002 94.3702 71.9272C93.9582 78.2932 94.6052 84.5083 92.4282 90.2733C94.2202 87.5873 95.0442 84.3192 95.3992 81.1412C95.6492 77.6562 95.0992 74.2332 94.6232 70.9142Z" fill="#362F40"/>
<path d="M92.6994 73.6328C92.4774 75.9178 92.1654 78.1928 92.0494 80.4858C91.8974 82.1898 91.8694 83.8388 91.4534 85.4258C93.2654 81.8198 93.0174 77.3798 92.6994 73.6328Z" fill="#362F40"/>
<path d="M89.9395 83.7074C90.3665 82.0954 90.4975 80.3714 90.4785 78.7324C90.1935 80.4034 90.0305 81.9774 89.9395 83.7074Z" fill="#362F40"/>
<path d="M68.7893 73.7815C71.1433 71.5135 73.1833 68.8485 75.8883 67.1055C72.7623 68.3115 70.5043 71.1395 68.7893 73.7815Z" fill="#362F40"/>
<path d="M64.3012 107.465C62.6622 108.968 61.5572 110.026 59.8952 111.079C57.8982 112.317 55.9252 113.1 53.9672 113.897C52.7762 114.411 51.3842 114.733 50.1882 114.997C51.0062 114.963 51.8282 114.926 52.6402 114.807C55.4062 114.288 58.1672 113.465 60.6512 112.125C63.0742 110.693 65.2362 108.771 66.9802 106.565C69.3972 103.29 70.8172 99.3404 71.8742 95.4434C69.9992 99.9874 67.7472 104.277 64.3012 107.465Z" fill="#362F40"/>
<path d="M70.0732 103.508C66.9512 108.823 62.5602 112.668 56.5842 115.004C64.0222 113.549 69.0492 109.356 71.3442 102.079C71.5332 101.513 71.7392 100.878 71.8992 100.348C71.3022 101.407 70.7212 102.476 70.0732 103.508Z" fill="#362F40"/>
<path d="M60.4414 122.353C56.2874 124.263 50.7224 125.3 46.3184 125.718C44.7474 125.909 43.0264 126.075 41.5264 126.221C42.3294 126.305 43.1334 126.378 43.9394 126.436C53.4434 127.232 61.3474 125.235 67.4334 117.492C65.2034 119.392 63.1694 121.144 60.4414 122.353Z" fill="#362F40"/>
<path d="M64.4333 122.011C59.6323 125.38 53.9313 126.997 47.9233 127.658C54.2773 128.397 61.1173 126.602 65.4173 121.659C65.7663 121.305 66.1443 120.919 66.4713 120.582C65.7973 121.066 65.1164 121.539 64.4333 122.011Z" fill="#362F40"/>
<path d="M55.4633 144.564C51.8313 145.303 48.4073 146.851 45.1793 148.64C41.5633 150.73 37.2323 153.834 33.9213 155.093C32.7373 155.596 31.4523 156.04 30.2673 156.425C31.9733 156.221 33.6673 155.925 35.3193 155.455C41.5043 153.583 46.8633 149.779 52.7943 147.286C56.4523 145.594 62.1263 144.389 66.9343 144.743C63.1843 143.938 59.2413 143.93 55.4633 144.564Z" fill="#362F40"/>
<path d="M44.0683 145.982C39.9083 148.306 36.0543 151.143 31.8573 153.418C31.2313 153.788 30.4793 154.213 29.9143 154.53C31.0633 154.149 32.2123 153.769 33.3483 153.357C42.1213 150.389 48.9583 143.779 58.1023 142.666C53.0803 142.6 47.9623 144.011 44.0683 145.982Z" fill="#362F40"/>
<path d="M25.5233 154.874C32.2823 152.484 38.4693 148.601 44.4603 144.52C37.7423 147.187 31.5563 150.981 25.5233 154.874Z" fill="#362F40"/>
<path d="M28.9723 151.432C32.0093 149.95 34.9553 148.208 37.3463 145.789C34.4993 147.384 31.1553 149.434 28.9723 151.432Z" fill="#362F40"/>
<path d="M57.1843 159.228C54.7263 161.402 52.7673 164.106 50.0793 166.03C49.7703 166.271 48.8473 166.941 48.4133 167.259C49.2263 166.902 50.0373 166.536 50.8233 166.121C53.5123 164.842 56.7653 161.569 58.4643 160.274C61.8473 157.725 66.8333 153.735 71.6193 152.492C66.2723 153.13 61.2773 155.807 57.1843 159.228Z" fill="#362F40"/>
<path d="M54.6473 158.606C51.4383 161.282 48.6173 164.674 45.3353 167.004C45.0823 167.185 44.7403 167.383 44.5293 167.513C45.0773 167.337 45.6043 167.11 46.1263 166.869C52.9123 163.403 57.2233 156.985 63.5323 153.502C60.2993 154.673 57.2633 156.367 54.6473 158.606Z" fill="#362F40"/>
<path d="M43.2544 166.407C47.2044 164.047 50.8234 161.145 53.6494 157.492C50.2184 160.393 46.3284 163.4 43.2544 166.407Z" fill="#362F40"/>
<path d="M108.15 154.643C103.725 158.025 97.9553 161.534 91.9213 162.102C91.0483 162.231 89.5623 162.355 88.6433 162.329C89.3663 162.485 90.1023 162.586 90.8413 162.642C97.9623 163.318 105.011 160.096 110.068 155.208C113.405 151.931 115.593 147.742 118.119 143.859C115.021 147.648 112.068 151.642 108.15 154.643Z" fill="#362F40"/>
<path d="M109.533 141.654C102.653 145.399 97.5125 147.662 89.3815 149.274C88.0425 149.538 86.4314 149.784 85.2314 150.004C86.2764 150.03 87.3234 150.04 88.3694 150.035C94.1974 150.004 100.027 148.843 105.324 146.385C111.542 143.218 117.101 138.761 121.608 133.436C118.044 136.739 114.047 139.309 109.533 141.654Z" fill="#362F40"/>
<path d="M97.2693 145.878C102.835 144.213 108.296 141.783 112.528 137.744C107.513 140.588 102.378 143.211 97.2693 145.878Z" fill="#362F40"/>
<path d="M99.8484 142.577C102.289 142.173 104.699 140.502 106.467 139.133C104.213 140.186 102.148 141.685 99.8484 142.577Z" fill="#362F40"/>
<path d="M91.3572 139.623C85.7732 137.862 79.7012 139.011 74.8452 142.182C80.6132 140.34 85.0472 139.571 90.9002 139.802C91.3092 139.81 91.7602 139.823 92.1442 139.828C91.8822 139.758 91.6192 139.69 91.3572 139.623Z" fill="#362F40"/>
<path d="M78.8574 138.287C82.0144 137.948 84.8764 137.631 87.9234 136.874C84.8374 136.768 81.7454 137.156 78.8574 138.287Z" fill="#362F40"/>
<path d="M80.1323 136.301C81.4193 136.413 82.7173 136.008 83.9143 135.619C82.6223 135.661 81.3883 136.045 80.1323 136.301Z" fill="#362F40"/>
<path d="M127.348 128.705C126.956 129.512 126.559 130.347 126.183 131.149C126.399 130.857 126.613 130.566 126.826 130.272C130.631 124.989 134.295 119.539 137.071 113.637C139.155 109.06 141.062 102.956 142.353 97.3613C138.485 108.018 132.368 118.147 127.348 128.705Z" fill="#362F40"/>
<path d="M131.272 115.071C128.891 119.73 126.892 124.565 125.089 129.145C130.702 120.564 135.454 111.323 138.55 101.529C136.368 106.169 133.594 110.501 131.272 115.071Z" fill="#362F40"/>
<path d="M122.941 128.65C127.256 122.554 129.977 115.485 132.791 108.689C128.644 115.042 125.578 121.77 122.941 128.65Z" fill="#362F40"/>
<path d="M119.842 129.814C122.714 125.457 124.565 120.815 126.419 116.463C123.65 120.586 121.423 125.157 119.842 129.814Z" fill="#362F40"/>
<path d="M117.261 129.291C118.952 127.147 120.251 124.753 121.665 122.43C119.827 124.421 118.522 126.825 117.261 129.291Z" fill="#362F40"/>
<path d="M142.074 85.4071C141.886 86.0941 141.638 86.9311 141.477 87.5241C141.72 86.9951 141.956 86.4651 142.192 85.9341C144.962 79.5731 147.286 72.9911 148.779 66.2081C150.125 59.8261 150.638 53.5211 151.046 46.8691C149.006 59.9201 145.619 72.6981 142.074 85.4071Z" fill="#362F40"/>
<path d="M142.887 73.3354C141.408 78.3794 140.131 83.8464 138.803 88.7514C142.858 79.5414 145.622 69.7064 146.963 59.7324C145.842 64.3364 144.233 68.7974 142.887 73.3354Z" fill="#362F40"/>
<path d="M137.277 88.3399C139.771 82.2039 141.455 75.7969 142.869 69.3379C140.429 75.4809 138.481 81.8569 137.277 88.3399Z" fill="#362F40"/>
<path d="M136.53 84.7215C137.157 83.0925 137.627 81.4085 137.931 79.6895C137.331 81.2975 136.837 83.1145 136.53 84.7215Z" fill="#362F40"/>
<path d="M99.9333 37.7565C99.9083 37.9405 99.8753 38.1735 99.8743 38.2865C100.074 37.6835 100.311 37.0965 100.537 36.5055C103.766 28.4125 105.658 23.2735 109.505 15.3125C104.435 21.8165 101.018 29.5645 99.9333 37.7565Z" fill="#362F40"/>
<path d="M103.299 35.1188C105.04 31.2938 106.597 27.0148 108.151 23.0918C105.722 26.5418 103.828 31.3868 103.299 35.1188Z" fill="#362F40"/>
<path d="M106.011 34.337C106.899 32.398 107.548 30.371 108.16 28.332C107.079 30.165 106.438 32.306 106.011 34.337Z" fill="#362F40"/>
</g>
</svg>
