<svg width="220" height="212" viewBox="0 0 220 212" fill="none" xmlns="http://www.w3.org/2000/svg">
<g opacity="0.5">
<path d="M42.329 172.8C42.3433 172.864 42.3544 172.929 42.3677 172.995C42.474 173.22 42.5703 173.447 42.6566 173.678C42.7341 173.883 42.8227 174.237 42.8769 174.374C42.9544 174.588 43.0142 174.777 43.0485 174.984C43.1769 175.133 43.2854 175.32 43.3363 175.576C43.7847 177.852 44.4621 180.069 45.2769 182.201C46.044 184.206 46.633 186.423 47.6713 188.259C48.7329 190.135 50.0768 191.516 51.6642 192.726C52.5963 193.431 53.6004 194.13 54.5524 194.888C54.8922 192.743 54.807 190.555 54.0177 188.497C53.4454 187.011 52.7026 185.519 51.8746 184.105C51.8403 184.07 51.8082 184.038 51.775 184.001C51.4772 183.672 51.2856 183.318 51.1705 182.955C50.6347 182.116 50.0768 181.311 49.5111 180.568C47.647 178.117 45.5271 175.946 43.695 173.459C42.9422 172.435 42.3909 171.121 41.8319 169.944C41.823 169.924 41.8164 169.908 41.8087 169.889C41.7943 170.015 41.771 170.136 41.7489 170.26C41.7843 170.4 41.8264 170.54 41.8607 170.679C42.0356 171.382 42.185 172.088 42.329 172.8Z" fill="#E4F3F7"/>
<path d="M214.02 92.5021C213.645 92.5127 213.41 92.2895 213.28 91.9896C212.872 92.0042 212.465 92.0398 212.06 92.094C211.027 92.2353 210.078 92.2697 209.044 92.0689C208.825 92.0253 208.62 92.0121 208.409 91.9804C208.35 91.9936 208.287 91.9976 208.231 92.0134C206.208 92.5431 204.294 93.5653 202.298 94.2006C201.659 94.4014 201.032 94.6048 200.412 94.8134C199.839 95.1595 199.274 95.5214 198.684 95.8476C197.144 96.6982 195.819 97.6809 194.284 98.1973C193.488 98.8643 192.696 99.5365 191.903 100.198C188.639 102.914 185.448 105.771 181.957 108.052C180.136 109.244 178.279 110.458 176.292 111.212C175.763 111.413 175.229 111.615 174.701 111.817C174.014 112.201 173.325 112.58 172.63 112.952C172.094 113.236 171.575 113.278 171.1 113.158C170.781 113.275 170.458 113.395 170.138 113.512C168.134 114.226 166.088 114.752 164.032 115.2C163.355 115.347 162.675 115.466 161.995 115.581C161.219 115.84 160.446 116.096 159.668 116.322C159.411 116.395 159.177 116.387 158.963 116.324C158.469 116.404 157.978 116.437 157.498 116.359C156.349 116.17 156.68 114.344 157.498 113.953C157.659 113.876 157.828 113.829 157.995 113.772C158.152 113.397 158.443 113.093 158.893 112.961C163.167 111.725 167.102 109.63 170.749 106.942C171.671 106.044 172.594 105.148 173.546 104.297C175.002 102.996 176.462 101.708 177.866 100.325C177.94 100.075 178.06 99.8377 178.236 99.6224C179.256 98.3835 180.273 97.1499 181.316 95.9533C181.428 95.7816 181.553 95.6178 181.717 95.4725C181.781 95.4131 181.846 95.3523 181.91 95.2942C182.904 94.1874 183.928 93.1189 185.028 92.1455C185.646 91.4191 186.268 90.6979 186.921 90.0045C187.394 89.5013 187.92 89.1289 188.426 88.7128C188.845 88.2624 189.26 87.8055 189.692 87.3656C190.571 86.4688 191.562 85.3581 192.635 84.3028C191.485 84.4745 190.329 84.5392 189.167 84.382C189.146 84.3781 189.125 84.3715 189.105 84.3662C185.674 86.9139 182.284 89.574 178.629 91.6529C174.789 93.8361 170.455 95.9639 165.96 97.4946C164.948 97.9873 163.933 98.4601 162.891 98.8405C161.361 99.3979 159.886 100.124 158.363 100.515C156.597 100.968 154.843 100.61 153.068 100.68C152.107 100.717 151.109 100.7 150.15 100.497C149.565 100.571 148.977 100.627 148.393 100.654C146.395 100.74 144.381 100.357 142.396 100.111C138.228 99.592 134.069 99.3054 129.949 98.3069C128.092 97.8578 126.245 97.4246 124.486 96.5622C122.564 95.6165 120.72 94.441 118.892 93.2682C116.215 91.5498 113.765 89.5357 111.431 87.2851C109.514 85.9062 107.826 83.8801 106.519 81.9465C105.997 81.1726 105.521 80.3642 105.057 79.5467C103.924 77.9182 102.76 76.3016 101.765 74.5568C99.5373 70.6513 97.6299 66.3588 95.7923 62.1746C95.6163 61.7757 95.4591 61.3636 95.3053 60.9489C94.609 59.5687 93.9514 58.1621 93.3591 56.7211C92.5898 54.8562 91.8747 52.9939 91.3367 51.0418C91.2824 50.9203 91.2271 50.7975 91.1729 50.676C90.2131 48.4967 89.3098 46.291 88.3755 44.0959C87.7467 42.6193 87.067 41.2153 86.5744 39.7083C86.1825 39.2526 85.7917 38.7983 85.391 38.3572C84.6814 37.5713 83.9995 36.7762 83.9995 35.5109C83.9995 35.3445 84.015 35.19 84.0305 35.0367C83.8224 34.9403 83.6187 34.8254 83.4161 34.6749C81.4313 33.1996 82.1298 29.4274 84.4578 29.224C86.301 28.4052 88.0854 28.7037 90.1145 28.8054C91.3511 28.8674 92.6651 28.9308 93.8783 29.2425C94.8027 29.4789 95.5222 29.7854 96.4864 29.6718C98.1591 29.475 99.4709 28.7367 100.568 27.2112C101.095 26.4782 101.511 25.9974 101.804 25.1389C101.753 25.2129 101.846 24.5934 101.848 24.5076C101.852 24.1615 101.783 23.8076 101.696 23.3942C101.353 21.8092 100.468 20.507 99.3867 19.2034C98.1214 17.6739 96.7621 16.472 95.3086 15.2239C92.0086 12.3922 89.1902 8.87494 86.1039 5.73547C84.5752 4.17961 82.8394 2.9962 81.0848 1.84845C80.6531 1.87751 80.2225 1.90788 79.8051 1.94618C76.99 2.20637 74.2403 2.09808 71.4241 1.87751C66.9031 1.52486 62.6699 2.50883 58.2929 3.62621C56.2494 4.14791 54.2501 4.69075 52.4723 5.8834C51.4517 6.56624 50.6115 7.37587 49.8565 7.92663C48.961 8.58437 47.9735 9.13249 47.0492 9.74268C46.1901 10.308 45.1263 10.9472 44.4101 11.5416C43.6308 12.1927 42.9677 13.0248 42.2448 13.7565C40.5434 15.488 38.5231 16.6701 36.8538 18.4584C35.4767 19.9324 34.156 21.9268 32.5741 23.1551C31.3044 25.4229 30.0169 27.6259 28.9443 30.0469C28.4218 31.229 27.8229 32.3054 27.2085 33.4148C26.6661 34.3922 26.4258 35.0922 26.0904 36.1475C24.5274 41.1229 24.0536 46.501 24.4676 51.8898C24.5827 53.3677 24.7842 54.8324 24.9214 56.3051C25.0465 57.6285 25.0631 58.9889 25.2558 60.2991C25.6587 63.0027 26.8388 65.6178 27.5838 68.2066C27.7454 68.7692 27.8273 69.3662 27.834 69.95C29.2819 71.0885 30.0501 72.787 30.3468 74.9729C30.38 75.2383 30.3856 75.2304 30.379 75.1327C30.4155 75.3995 30.4476 75.6755 30.4575 75.9265C30.4797 76.4561 30.4221 77.0161 30.3036 77.5246C30.0878 78.4531 29.7004 79.3763 29.2332 80.1595C28.0731 82.1011 26.4768 83.1101 24.5152 83.468C23.9573 83.5711 23.3938 83.6437 22.8292 83.7216C22.4761 83.7692 22.3422 83.7824 22.1518 83.8141C21.3437 83.9475 20.6097 83.8814 19.8016 83.9092C19.0156 83.9356 18.233 84.1099 17.4482 84.0822C16.6301 84.0531 15.977 83.793 15.1522 83.8537C12.2076 84.0703 9.26082 85.4849 7.12875 87.9019C6.84979 88.2175 6.54978 88.3892 6.24979 88.4645C5.95644 89.1011 5.67083 89.7404 5.39519 90.3823C4.50074 92.4757 4.01145 94.7051 3.51109 96.9716C1.60927 105.559 0.332908 114.455 0.803381 123.347C0.998212 123.431 1.17422 123.593 1.28935 123.898C1.8672 125.421 2.70519 126.668 3.6395 127.9C3.88857 128.232 4.14428 128.556 4.39778 128.885C4.68782 129.194 4.97343 129.509 5.2535 129.831C5.43616 129.945 5.58892 130.04 5.65645 130.085C6.64388 130.725 7.7221 131.124 8.81581 131.427C10.9169 132.005 12.9648 132.919 14.8688 134.138C16.6721 135.288 18.5762 136.257 20.3009 137.569C22.0643 138.909 23.768 140.371 25.4417 141.863C27.0591 143.303 28.7218 144.546 30.0812 146.362C31.5601 148.342 32.946 150.457 34.3353 152.528C35.5342 154.313 36.8604 155.968 38.0349 157.772C38.3526 158.266 38.6681 158.76 38.9814 159.258C39.0866 159.42 39.7264 160.168 39.722 160.528C39.7419 160.509 39.764 160.493 39.7862 160.47C39.8116 159.762 39.8316 159.053 39.8404 158.345C39.867 156.441 39.8792 154.734 39.4463 152.881C39.164 151.675 38.4523 149.742 39.5869 148.994C39.4054 148.126 39.2316 147.259 38.9858 146.413C38.5187 144.798 37.6132 143.443 37.1637 141.824C36.908 140.916 37.7128 140.017 38.4556 140.284C40.0308 140.846 40.6817 143.827 41.2917 145.396C42.1574 147.626 43.3673 149.612 44.275 151.813C45.1794 154.004 45.6732 156.353 46.127 158.724C46.2078 159.151 46.2997 159.572 46.3905 159.995C46.7525 160.602 47.0469 161.285 47.3137 161.919C48.0953 163.759 48.7661 165.663 49.5266 167.518C50.2772 169.351 50.9856 171.233 51.7904 173.04C53.266 175.754 54.993 178.266 56.7564 180.722C57.4261 181.658 58.1401 182.555 58.8663 183.429C59.1408 183.394 59.4231 183.467 59.6468 183.741C60.0342 184.212 60.4216 184.677 60.8135 185.136C61.1833 185.142 61.5685 185.291 61.9205 185.668C62.3367 186.11 62.753 186.553 63.167 186.998C63.6939 186.849 64.2873 186.969 64.8164 187.528C68.9344 191.874 74.1262 194.397 78.5442 198.152C79.9988 198.75 81.4712 199.289 82.9556 199.747C83.0486 199.432 83.2268 199.162 83.5401 199.1C84.3792 198.931 85.2305 198.996 86.0807 199.158C84.698 197.894 83.3774 196.526 82.1154 195.089C80.6033 193.935 79.214 192.582 77.8225 191.23C77.6111 191.223 77.3919 191.139 77.1959 190.907C76.7221 190.358 76.2505 189.811 75.7768 189.268C72.6739 186.269 69.5787 182.923 67.3669 178.953C66.7847 178.143 66.2134 177.329 65.6622 176.486C64.0371 173.999 62.453 171.425 61.1954 168.648C60.6397 167.42 60.2202 166.139 59.794 164.838C59.2693 163.229 58.4291 161.594 58.1656 159.893C57.9564 158.518 59.4353 157.677 60.0862 158.928C61.4622 161.557 62.0124 164.75 63.2688 167.468C64.5164 170.175 66.0817 172.698 67.6758 175.125C69.9329 178.569 72.4303 181.757 74.9841 184.881C75.1502 184.624 75.4336 184.458 75.7247 184.458C76.0015 184.211 76.3989 184.146 76.7421 184.494C78.6727 186.441 80.5988 188.398 82.5106 190.374C83.3707 191.261 84.1722 192.249 85.1109 193.019C86.0275 193.777 87.0139 194.397 88.0068 194.999C88.6212 195.376 88.5005 196.198 88.0832 196.605C88.34 196.797 88.6057 196.986 88.8537 197.188C89.0851 197.12 89.3441 197.155 89.5677 197.408C90.2884 198.211 91.0411 198.939 91.816 199.615C95.3429 201.806 98.9694 203.76 102.641 205.584C104.719 206.256 106.749 207.088 108.809 207.8C109.374 207.98 109.936 208.161 110.497 208.347C111.031 208.505 111.565 208.656 112.105 208.783C114.415 209.332 116.755 209.833 119.099 210.251C119.103 210.251 119.106 210.247 119.11 210.247C123.528 209.884 127.957 209.945 132.383 209.889C136.291 209.841 140.095 209.516 143.965 208.866C145.883 208.548 147.799 208.31 149.72 208.114C149.825 207.956 149.975 207.829 150.206 207.789C155.398 206.902 160.499 205.696 165.764 205.572C166.837 205.547 167.915 205.547 168.992 205.534C168.631 204.822 168.237 204.136 167.774 203.518C167.731 203.489 167.69 203.46 167.65 203.43C167.098 203.045 166.555 202.64 166.009 202.24C164.682 201.514 163.35 200.805 162.019 200.093C156.377 198.143 150.554 197.119 144.778 195.92C143.224 195.595 141.638 195.543 140.081 195.172C138.589 194.821 137.192 194.357 135.658 194.273C132.696 194.104 129.599 194.64 126.674 194.035C125.295 193.748 123.97 193.054 122.656 192.5C121.324 191.94 119.95 191.541 118.568 191.203C115.852 190.534 113.068 190.082 110.429 189.028C108.733 188.349 107.177 187.288 105.624 186.225C105.566 186.196 105.507 186.174 105.451 186.145C105.246 186.04 105.081 185.904 104.935 185.758C104.29 185.323 103.642 184.897 102.979 184.507C100.339 182.946 97.6587 181.49 95.1458 179.641C94.8403 179.417 94.7451 179.073 94.7772 178.742C93.5949 178.319 92.395 177.941 91.2681 177.343C90.1766 176.765 91.0012 174.905 92.0374 175.165C94.3488 175.75 96.8152 176.382 98.9096 177.708C100.964 179.009 103.321 179.905 105.624 180.321C107.708 180.699 109.77 181.053 111.82 181.647C112.899 181.959 113.974 182.342 115.074 182.513C116.075 182.668 117.108 182.659 118.117 182.724C120.278 182.867 122.445 183 124.607 182.909C126.728 182.818 128.843 182.493 130.954 182.266C134.006 181.937 136.999 181.398 140.034 181.249C140.227 181.06 140.483 180.943 140.816 180.939C143.429 180.924 146.084 180.926 148.708 181.144C149.058 181.064 149.436 181.089 149.809 181.131C150.178 181.176 150.543 181.241 150.911 181.307C150.978 181.316 151.026 181.32 151.053 181.324C151.042 181.324 151.028 181.32 150.998 181.324C151.213 181.317 151.432 181.33 151.646 181.34C152.634 181.375 153.619 181.5 154.6 181.64C154.599 181.63 154.595 181.626 154.593 181.62C154.366 181.032 154.511 180.469 154.885 180.167C154.249 179.702 153.596 179.27 152.944 178.876C152.03 178.324 151.082 177.862 150.114 177.479C149.619 177.41 149.123 177.35 148.629 177.257C147.736 177.095 146.869 176.839 146.019 176.477C145.735 176.359 145.41 176.181 145.076 176.038C144.603 175.951 144.129 175.882 143.657 175.869C142.598 175.847 142.34 173.945 143.403 173.64C145.276 173.099 147.256 174.429 149.128 174.608C151.145 174.799 153.143 174.971 155.156 175.229C156.016 175.342 156.877 175.462 157.739 175.586C158.201 175.433 158.717 175.388 159.288 175.534C159.656 175.625 160.022 175.758 160.379 175.921C160.526 175.972 160.677 176.03 160.822 176.083C162.727 176.424 164.621 176.833 166.493 177.354C169.813 178.274 173.594 178.54 176.621 180.543C179.96 182.754 182.978 185.451 186.179 187.909C187.685 189.066 189.196 190.188 190.614 191.504C190.868 191.738 191.102 191.996 191.339 192.252C191.576 192.038 191.886 191.94 192.223 192.054C192.403 192.112 192.567 192.207 192.724 192.321C192.289 191.313 191.824 190.325 191.284 189.373C189.729 186.629 188.055 184.062 185.936 181.902C183.657 179.584 181.218 177.355 178.811 175.232C176.956 173.597 174.943 172.274 172.944 170.923C170.652 170.044 168.341 169.29 166.017 168.508C162.914 167.468 159.854 166.275 156.803 165.033C153.712 163.775 150.532 162.624 147.256 162.371C146.893 162.342 146.666 162.086 146.558 161.77C146.299 161.705 146.04 161.65 145.781 161.581C142.83 160.789 139.918 159.783 136.958 159.029C135.522 158.659 134.114 158.242 132.697 157.775C131.742 157.46 130.325 156.78 129.312 157.002C128.878 157.096 128.545 156.842 128.362 156.485C125.159 155.591 121.946 154.523 118.663 154.226C117.195 154.092 115.987 153.643 114.649 152.942C113.806 152.499 112.572 151.921 112.703 150.562C112.836 149.176 114.435 148.985 114.721 150.135C114.73 150.142 114.741 150.168 114.755 150.22C114.795 150.262 114.871 150.311 115.005 150.333C115.186 150.369 115.43 150.505 115.606 150.58C116.224 150.854 116.802 151.161 117.454 151.299C118.963 151.617 120.526 151.566 122.048 151.877C122.516 151.975 122.985 152.078 123.454 152.18C123.53 152.186 123.603 152.2 123.674 152.226C124.396 152.382 125.118 152.535 125.838 152.691C126.783 152.707 127.74 152.606 128.652 152.522C130.297 152.373 131.936 152.152 133.586 152.083C136.692 151.957 139.835 152.737 142.857 153.523C143.87 153.786 144.876 154.079 145.884 154.364C147.546 154.44 149.184 154.634 150.854 154.605C150.99 154.605 151.113 154.634 151.222 154.692C152.78 154.539 154.361 154.659 155.917 154.728C157.947 154.815 159.928 155.092 161.932 155.453C163.792 155.791 165.674 155.914 167.523 156.331C169.396 156.754 171.24 157.348 173.103 157.829C176.684 158.761 180.395 159.688 183.725 161.57C186.984 163.41 190.004 165.933 193.119 168.091C194.756 169.228 196.582 169.96 198.332 170.825C199.004 171.157 199.655 171.53 200.307 171.904C200.417 171.895 200.528 171.898 200.638 171.94C200.779 171.989 200.909 172.053 201.039 172.115C200.74 171.637 200.432 171.17 200.117 170.705C199.538 169.989 198.928 169.31 198.358 168.585C197.707 167.76 197.199 166.814 196.59 165.953C194.434 162.919 192.2 159.848 189.673 157.241C188.327 155.853 186.567 154.89 184.98 153.96C183.478 153.086 181.864 152.494 180.342 151.678C176.902 149.825 173.3 148.733 169.651 147.609C166.813 146.734 163.882 145.882 160.958 145.304C160.713 145.346 160.467 145.391 160.222 145.437C159.369 145.584 158.853 145.284 158.032 145.145C156.99 144.966 157.249 142.876 158.279 142.967C158.655 143 159.023 143.114 159.392 143.159C159.442 142.785 159.661 142.454 160.07 142.451C160.957 142.444 161.883 142.337 162.749 142.558C162.969 142.616 163.189 142.669 163.41 142.724C163.828 142.724 164.244 142.731 164.664 142.738C166.838 142.776 169.02 142.438 171.181 142.204C173.108 141.993 174.71 141.287 176.493 140.467C178.402 139.59 180.274 138.858 182.304 138.491C184.279 138.137 186.232 138.164 188.22 138.086C190.108 138.008 191.865 137.328 193.785 137.565C197.558 138.037 201.124 139.805 204.387 142.051C205.667 142.932 206.925 143.913 208.104 144.993C208.117 144.918 208.14 144.849 208.168 144.779C208.107 144.63 208.037 144.493 207.974 144.34C207.473 143.082 207.211 141.979 207.044 140.836C206.823 140.498 206.606 140.173 206.415 139.873C205.529 138.458 204.512 137.145 203.583 135.771C202.84 134.678 202.064 133.636 201.265 132.618C199.463 131.003 197.41 129.587 195.394 128.951C193.625 128.393 191.878 128.064 190.063 127.831C188.429 127.621 186.847 127.077 185.224 126.776C183.481 126.455 181.752 126.051 179.981 126.087C178.866 126.108 177.754 126.228 176.644 126.368C176.403 126.487 176.17 126.614 175.921 126.721C174.123 127.492 172.215 128.278 170.292 128.213C168.766 128.164 168.772 125.45 170.292 125.388C172.375 125.306 174.645 124.403 176.577 123.457C178.673 122.431 180.699 120.62 182.602 119.162C184.289 117.866 186.003 116.371 187.505 114.784C188.808 113.402 190.05 111.902 191.471 110.692C192.981 109.404 194.423 108.015 195.922 106.708C197.531 105.307 199.142 103.899 200.741 102.484C201.733 101.606 202.757 100.761 203.793 99.9367C204.588 99.1839 205.392 98.4403 206.218 97.735C207.63 96.5278 209.192 95.812 210.811 95.2757C212.26 94.5718 213.79 94.1385 215.27 93.5561C215.867 93.321 216.467 93.0965 217.069 92.8838C216.045 92.6817 215.093 92.4704 214.02 92.5021Z" fill="#E4F3F7"/>
<path d="M22.9333 138.843C27.9303 144.458 33.4797 149.911 37.5722 156.549C38.3305 157.782 38.9095 158.925 39.35 160.089C39.3113 159.702 39.267 159.315 39.2504 158.923C39.1951 157.519 40.0054 156.631 40.9585 156.354C40.4725 154.44 39.9722 152.536 39.4408 150.639C39.0301 149.676 38.8021 148.65 38.4932 147.528C38.3349 146.95 38.1523 146.378 37.9785 145.802C37.6929 144.921 37.4028 144.04 37.0884 143.169C37.032 143.009 37.0021 142.853 36.98 142.7C36.8527 142.33 36.7353 141.952 36.6025 141.585C36.3324 140.837 36.3634 140.17 36.5637 139.641C32.3583 132.863 27.8893 126.119 22.2127 121.026C23.6595 122.95 24.8551 125.085 25.9167 127.318C24.8241 126.39 23.6883 125.523 22.495 124.735C19.3101 122.442 16.2382 119.755 12.6571 118.412C15.46 120.261 17.5854 123.2 19.6943 126.012C20.1393 126.617 20.571 127.235 20.995 127.865C18.4245 126.312 15.9238 125.293 12.7268 123.864C10.0025 122.611 7.51291 121.696 5.29117 118.888C7.85054 123.645 12.0261 126.677 15.4246 130.497C17.5511 132.702 19.4585 135.169 21.2164 137.789C21.8119 137.917 22.4053 138.249 22.9333 138.843Z" fill="#99A9AC"/>
<path d="M43.4802 173.436C42.8658 172.702 42.2293 171.983 41.585 171.271C42.1142 172.864 42.6975 174.444 43.1104 176.112C43.5267 175.472 43.8245 174.72 43.9595 173.888C43.7979 173.765 43.6363 173.622 43.4802 173.436Z" fill="#99A9AC"/>
<path d="M33.132 86.563C32.8121 84.5792 32.4025 82.5228 32.087 80.4531C30.9003 81.3248 29.7812 82.322 28.7185 83.4103C29.4325 82.7526 29.4136 82.7711 28.6598 83.4645C28.5358 83.5926 28.4041 83.7128 28.2779 83.8369C28.238 83.8686 28.1893 83.9096 28.124 83.9637C24.1366 87.4413 19.0787 86.9275 12.9759 86.5247C15.812 87.4347 20.7082 90.1462 22.5038 90.2942C24.3181 90.6349 26.1668 90.5953 27.9779 90.2506C27.9103 90.2876 27.8417 90.3259 27.772 90.3602C26.7602 90.9308 23.9019 91.7536 22.1396 91.6215C26.034 93.1365 30.0623 92.2608 34.0032 91.4181C33.6678 89.8094 33.3922 88.1743 33.132 86.563Z" fill="#99A9AC"/>
<path d="M160.32 198.848C159.432 198.561 158.559 198.283 157.718 198.058C155.815 197.555 153.841 197.048 151.896 196.449C151.477 196.427 151.065 196.407 150.662 196.391C144.562 196.002 138.447 196.505 132.349 196.056C124.717 195.793 120.032 194.32 111.535 190.855C99.4066 186.063 87.2574 178.21 76.9734 166.988C85.091 178.863 95.2875 188.661 106.659 195.769C109.598 197.573 112.572 199.378 115.631 200.921C112.973 200.167 110.233 199.215 107.469 198.025C101.006 195.438 94.3554 190.782 87.9736 185.818C91.1086 189.182 94.3034 192.194 97.5723 194.915C91.4418 191.947 85.836 188.111 80.0708 182.474C86.7338 191.852 94.7097 199.862 103.718 205.856C104.756 206.607 105.807 207.335 106.873 208.036C108.662 208.45 110.492 208.684 112.216 208.999C116.339 209.76 120.179 210.254 124.354 209.923C130.739 209.415 136.957 207.673 143.302 206.782C148.898 205.992 154.266 205.384 159.796 204.25C162.319 203.732 164.854 203.885 167.394 203.976C165.581 201.865 162.57 200.343 160.32 198.848Z" fill="#99A9AC"/>
<path d="M142.575 176.679C141.848 176.432 141.626 175.493 141.824 174.775C128.326 171.32 114.747 168.312 101.182 165.26C106.187 167.471 112.623 170.501 118.315 173.233C117.117 173.165 115.916 173.087 114.716 172.996C109.176 172.524 105.609 171.718 99.7232 169.959C94.4307 168.444 89.158 166.738 84.1699 164.102C88.7363 167.485 93.6347 170.132 98.5996 172.566C104.696 175.71 110.96 178.357 117.397 180.323C121.273 181.429 125.161 182.481 129.052 183.509C131.606 183.093 134.142 182.83 136.676 182.67C136.936 182.281 137.297 181.968 137.696 181.769C141.503 179.874 146.839 180.94 150.828 181.307C152.085 181.425 153.345 181.567 154.598 181.756C150.546 179.784 146.766 178.111 142.575 176.679Z" fill="#99A9AC"/>
<path d="M183.836 179.876C180.209 176.973 176.495 174.574 172.617 172.214C171.888 171.772 171.38 171.187 171.058 170.524C168.895 169.46 166.732 168.392 164.616 167.185C163.725 167.107 162.832 167.035 161.935 167.002C159.27 166.909 156.676 166.615 154.055 165.952C150.277 165 147.312 162.429 143.735 160.878C143.255 160.669 142.766 160.465 142.266 160.264C141.917 160.453 141.526 160.547 141.075 160.491C140.824 160.459 140.571 160.4 140.321 160.355C140.321 160.359 140.32 160.364 140.32 160.368C140.292 160.359 140.267 160.352 140.241 160.342C138.743 160.062 137.243 159.574 135.747 159.009C134.629 158.717 133.511 158.415 132.404 158.048C126.996 157.254 118.156 155.798 112.139 154.146C105.421 152.442 98.9428 149.71 92.4758 146.998C104.918 154.9 117.295 160.76 130.632 166.021C123.607 165.443 116.679 164.321 109.916 161.463C116.557 165.429 123.685 168.192 130.794 170.698C134.684 171.914 138.615 172.925 142.542 173.946C142.65 173.917 142.759 173.888 142.885 173.899C143.888 174.004 144.889 174.156 145.888 174.322C148.445 174.66 150.9 175.008 153.501 175.866C156.197 176.445 158.899 176.981 161.631 177.225C166.72 177.681 171.65 178.633 176.667 179.654C179.627 180.255 182.487 181.884 185.227 183.73C185.026 182.725 184.898 181.718 184.846 180.72C184.511 180.436 184.178 180.153 183.836 179.876Z" fill="#99A9AC"/>
<path d="M192.871 162.707C190.534 159.869 187.958 157.253 185.4 154.717C184.42 153.751 183.404 153.064 182.469 152.343C176.385 150.604 170.204 149.302 164.026 148.108C152.505 146.167 141.306 142.223 129.831 140.036C133.719 141.382 137.495 143.102 141.242 144.909C132.58 143.42 120.73 141.209 111.666 138.413C118.334 141.583 125.131 144.437 131.813 147.145C129.088 146.953 126.365 146.748 123.653 146.391C120.468 145.955 115.704 145.198 110.713 143.494C103.695 141.154 96.9369 137.886 90.15 134.756C97.4805 139.781 104.741 145.054 112.471 149.163C112.682 148.998 112.942 148.907 113.262 148.942C118.259 149.523 123.111 151.514 128.153 152.202C132.45 152.791 136.783 153.161 141.074 153.708L141.071 153.727C141.262 153.75 141.451 153.776 141.638 153.803C142.081 153.38 142.695 153.169 143.459 153.36C143.571 153.389 143.683 153.422 143.795 153.451C143.937 153.422 144.085 153.412 144.248 153.418C146.184 153.539 148.114 153.77 150.036 154.079C151.971 153.841 153.908 153.636 155.887 153.838C158.704 154.128 161.529 155.24 164.278 156.715C168.185 157.46 172.755 158.197 176.717 159.861C178.152 160.313 179.575 160.807 180.978 161.343C185.151 162.936 190.44 165.038 193.871 168.562C194.468 168.373 195.09 168.335 195.708 168.491C196.26 168.556 196.812 168.713 197.363 168.91C195.979 166.745 194.514 164.703 192.871 162.707Z" fill="#99A9AC"/>
<path d="M203.463 136.539C203.081 136.175 202.719 135.781 202.373 135.376C202.016 135.018 201.657 134.66 201.276 134.31C199.457 132.619 197.539 130.897 195.498 129.586C193.954 128.592 192.389 128.082 190.935 127.071C184.354 128.11 177.819 129.905 171.272 131.069C171.252 131.071 171.246 131.071 171.226 131.075C165.335 131.845 162.856 132.187 156.938 131.687C151.91 131.193 145.133 129.271 139.307 126.762C144.39 130.159 149.732 133.101 155.258 135.307C152.924 135.565 150.432 135.665 147.217 135.707C140.621 135.512 134.661 134.462 128.236 130.852C137.515 138.123 148.497 141.927 159.606 142.684C161.3 142.788 162.996 142.804 164.692 142.777C164.942 141.78 165.625 140.924 166.742 140.831C171.397 140.441 177.081 138.425 182.557 137.694C187.592 135.632 194.584 135.571 198.843 138.666C201.464 139.046 204.039 139.67 206.494 140.766C206.377 140.552 206.258 140.343 206.134 140.138C205.307 138.769 204.422 137.618 203.463 136.539Z" fill="#99A9AC"/>
<path d="M212.58 91.0156C209.129 92.4724 205.542 94.2542 201.713 96.5061C193.137 101.278 182.41 113.437 176.957 115.582C173.824 116.993 170.54 117.831 167.255 118.554C164.895 119.083 158.968 119.779 154.352 118.996C151.332 118.674 144.024 115.537 140.119 112.556C145.116 117.465 150.736 121.714 157.06 123.641C160.741 124.691 164.534 125.419 168.344 125.673C168.466 125.263 168.734 124.932 169.174 124.837C172.486 124.119 176.049 123.349 178.899 121.141C181.334 119.256 183.72 117.225 186.132 115.298C188.521 113.389 191.021 111.625 193.099 109.312C194.09 108.212 194.738 106.904 195.963 106.031C196.202 105.862 197.79 104.799 198.274 104.612C198.604 103.946 199.656 102.234 200.015 101.849C201.611 100.121 203.219 100.243 204.89 99.2308C204.337 99.458 207.997 96.0332 207.177 96.6619C208.427 95.703 210.736 94.6147 212.464 94.5645C213.326 93.2874 214.43 92.2439 215.63 91.4039C214.613 91.33 213.596 91.2111 212.58 91.0156Z" fill="#99A9AC"/>
<path d="M189.166 84.3859C189.145 84.3832 189.126 84.3753 189.104 84.3727C185.673 86.9204 182.282 89.5805 178.625 91.6594C174.932 93.7594 170.779 95.8158 166.467 97.3321C164.983 98.847 163.506 100.376 162.056 101.939C160.74 103.549 154.543 108.325 151.245 108.596C142.648 109.411 135.256 107.149 126.959 104.184C132.671 107.502 138.458 110.685 144.548 112.895C147.343 113.983 150.223 114.878 153.167 115.091C154.734 115.098 156.308 114.929 157.857 114.595C157.834 113.884 158.139 113.183 158.892 112.965C166.06 110.888 172.28 106.4 177.783 100.752C177.822 100.35 177.96 99.9578 178.234 99.6249C179.263 98.3755 180.288 97.1274 181.338 95.9149C181.445 95.759 181.564 95.6085 181.713 95.4751C181.716 95.4711 181.719 95.4698 181.724 95.4658C182.969 94.0566 184.266 92.716 185.696 91.5352C185.923 91.3477 186.155 91.1522 186.388 90.9554C187.463 89.7337 188.554 88.5292 189.689 87.3708C190.568 86.474 191.562 85.3619 192.632 84.3066C191.485 84.4797 190.326 84.5444 189.166 84.3859Z" fill="#99A9AC"/>
<path d="M84.6914 19.7279C87.7666 19.7437 90.9669 20.1083 93.5761 21.153C89.9972 18.6779 85.9212 17.4271 81.9172 16.3243C80.8545 16.0297 79.7807 15.788 78.7069 15.5714C81.2176 15.545 83.8312 15.722 86.5035 15.7748C81.5641 14.2295 76.4631 12.3276 71.3355 12.601C72.7425 12.1546 74.2148 11.8257 75.8233 11.6369C71.3886 10.7982 66.7769 11.2763 62.5382 13.0144C64.8507 14.0367 67.1455 15.6956 69.2078 17.6926C72.2155 19.8243 75.1701 22.3126 77.1539 25.2949C77.3686 25.6185 77.5491 25.991 77.6985 26.3859C78.3572 26.1468 79.0147 25.9051 79.6734 25.6819C85.6323 23.5 91.009 23.5343 97.7373 24.7111C93.575 22.4328 89.1968 20.6022 84.6914 19.7279Z" fill="#99A9AC"/>
<path d="M107.053 122.308C109.28 124.03 111.346 125.337 112.994 127.333C113.138 127.238 113.278 127.131 113.396 126.995C114.395 125.835 113.652 124.316 112.952 123.247C111.31 120.328 109.303 117.727 107.276 115.185C103.387 110.57 100.279 106.211 97.6144 100.576C98.3262 103.57 99.214 106.217 100.22 108.628C99.5948 107.94 98.9638 107.261 98.3317 106.586C95.8598 103.45 93.1001 98.539 92.4801 92.8809C92.1049 103.031 93.3646 109.818 97.5413 115.281C100.814 117.41 103.929 119.891 107.053 122.308Z" fill="#99A9AC"/>
<path d="M63.1692 187.001C63.6972 186.851 64.2906 186.972 64.8175 187.53C68.0211 190.911 71.8691 193.19 75.5033 195.797C75.7291 195.79 75.9627 195.813 76.2162 195.9C78.9073 196.814 81.5752 197.822 84.2497 198.81C84.0393 198.416 83.7869 198.058 83.4869 197.756C83.3962 197.633 83.1936 197.402 82.9567 197.135C81.687 195.909 80.4017 194.697 79.194 193.328C76.069 189.795 72.7956 186.443 69.5897 183.004C66.8223 180.036 64.5452 177.193 62.7386 173.327C60.9342 169.474 58.3394 166.288 57.7427 161.825C57.5789 160.604 58.4833 159.723 59.2947 159.953C57.8468 156.342 56.1353 152.912 54.2667 149.596C52.3881 144.744 50.2007 140.059 47.4344 135.839C48.1915 137.757 48.8735 139.744 49.5177 141.766C47.7609 139.032 45.9621 136.331 44.1898 133.627C45.8735 137.83 47.4543 141.574 48.8502 145.358C48.6598 144.984 48.4794 144.604 48.2834 144.233C44.006 136.571 38.6891 129.469 32.1634 124.465C38.3836 130.893 43.1293 141.074 45.5259 148.764C47.6126 155.594 48.9354 162.717 50.9413 169.572C53.1719 174.272 55.1269 179.372 58.5386 182.978C59.2316 183.709 59.9378 184.428 60.6452 185.137C61.067 185.091 61.5175 185.237 61.9216 185.667C62.3367 186.113 62.7519 186.556 63.1692 187.001Z" fill="#99A9AC"/>
<path d="M33.0357 81.9395C32.4313 82.3172 31.8257 82.6896 31.2202 83.0555C27.5572 85.2665 24.7277 87.3691 20.892 88.2937C24.8982 89.3899 29.7557 88.6133 33.7453 86.2121C33.4752 84.7844 33.2505 83.3461 33.0357 81.9395Z" fill="#6C7C6B"/>
<path d="M33.8826 86.9199C32.397 88.0888 30.8826 89.0662 29.1934 89.6103C30.938 90.0198 32.7147 89.8481 34.4206 89.2947C34.2213 88.5141 34.042 87.7229 33.8826 86.9199Z" fill="#6C7C6B"/>
<path d="M26.6716 142.954C30.5605 147.197 34.4814 151.536 37.5711 156.548C38.3305 157.78 38.9094 158.924 39.35 160.087C39.3135 159.701 39.2659 159.314 39.2526 158.917C39.1961 157.516 40.0065 156.63 40.9563 156.35C40.4747 154.439 39.9699 152.534 39.4386 150.639C39.0279 149.676 38.7998 148.65 38.4932 147.528C38.3404 146.976 38.1733 146.429 38.0061 145.884C37.7128 144.974 37.4094 144.067 37.0884 143.17C37.0497 143.063 37.0253 142.958 37.0021 142.854C36.9346 142.737 36.867 142.616 36.7962 142.503C34.8423 137.166 32.2187 132.246 28.5203 128.32C29.4579 130.364 30.1376 132.423 30.7741 134.568C28.7118 132.358 26.4712 130.393 24.0658 128.747C25.5148 131.032 26.8044 133.434 28.01 135.898C23.9495 132.235 19.3854 129.319 14.622 127.26C20.1437 133.108 23.4436 137.512 26.6716 142.954Z" fill="#6C7C6B"/>
<path d="M45.0123 174.268C44.5098 174.272 43.9773 174.028 43.4802 173.436C42.867 172.702 42.2305 171.983 41.5862 171.271C41.9127 172.263 42.2648 173.249 42.5858 174.25C43.4293 175.96 44.2662 177.673 45.0245 179.438C45.2105 179.87 45.3887 180.303 45.5636 180.739C45.5282 180.241 45.4905 179.748 45.4507 179.246C45.3112 177.594 45.1673 175.93 45.0123 174.268Z" fill="#6C7C6B"/>
<path d="M62.7142 186.516C62.8659 186.679 63.0209 186.837 63.1725 186.998C63.6995 186.852 64.2917 186.976 64.8186 187.531C68.0223 190.912 71.8702 193.19 75.5056 195.797C75.7303 195.791 75.965 195.813 76.2174 195.898C79.111 196.883 81.9793 197.971 84.853 199.032C83.0143 197.105 81.0128 195.388 79.1941 193.33C76.0679 189.793 72.7967 186.445 69.5898 183.006C67.7223 181.003 66.0839 179.046 64.6559 176.803C60.0065 171.255 56.5682 165.286 53.4941 157.566C54.6155 164.718 56.7232 171.092 59.6479 176.674C58.1911 174.812 56.8361 172.861 55.6461 170.783C57.1339 176.525 59.6512 181.767 62.7142 186.516Z" fill="#6C7C6B"/>
<path d="M166.193 202.803C163.634 202.051 161.052 201.415 158.448 200.943C157.881 200.781 157.318 200.605 156.748 200.456C144.446 197.413 131.692 196.585 119.179 197.791C122.54 198.6 125.856 199.63 129.153 200.749C122.802 201.038 116.463 200.999 110.282 199.653C115.001 202.4 120.73 204.47 126.35 206.024C126.248 206.018 126.142 206.011 126.045 206.002C117.268 204.636 105.378 201.539 94.8403 196.354C100.541 201.005 106.541 205.37 112.785 209.103C116.693 209.806 120.37 210.24 124.354 209.926C130.739 209.421 136.957 207.679 143.302 206.785C148.9 205.998 154.266 205.388 159.797 204.253C162.319 203.735 164.855 203.888 167.395 203.98C167.038 203.566 166.628 203.177 166.193 202.803Z" fill="#6C7C6B"/>
<path d="M144.079 174.052C144.683 174.134 145.287 174.224 145.89 174.326C148.448 174.664 150.902 175.011 153.503 175.87C156.199 176.448 158.901 176.984 161.633 177.229C166.722 177.684 171.652 178.637 176.669 179.658C179.126 180.156 181.51 181.36 183.813 182.808C176.431 176.114 168.031 170.699 158.991 168.134C150.967 165.978 142.666 166.944 134.592 168.199C141.916 169.518 147.762 171.403 153.428 174.225C150.357 173.974 147.232 173.948 144.079 174.052Z" fill="#6C7C6B"/>
<path d="M142.575 176.678C141.559 176.329 141.518 174.64 142.262 174.087C134.853 172.663 127.284 172.318 119.809 172.839C122.01 173.622 124.194 174.48 126.373 175.365C120.12 175.875 113.988 176.197 108.212 175.579C116.403 179.201 124.986 181.548 133.667 182.9C134.674 182.8 135.676 182.725 136.679 182.663C136.941 182.276 137.299 181.968 137.695 181.768C141.502 179.873 146.838 180.939 150.827 181.306C152.084 181.424 153.344 181.566 154.597 181.755C150.546 179.783 146.766 178.11 142.575 176.678Z" fill="#6C7C6B"/>
<path d="M192.871 162.706C190.534 159.868 187.958 157.252 185.4 154.716C184.409 153.734 183.377 153.045 182.431 152.313C178.621 150.6 174.712 149.199 170.732 148.149C160.705 145.671 150.326 145.793 140.24 147.739C151.33 149.007 160.467 153.048 169.43 157.715C171.874 158.232 174.357 158.889 176.643 159.838C178.105 160.299 179.551 160.797 180.979 161.343C185.152 162.936 190.441 165.039 193.872 168.563C194.469 168.374 195.091 168.336 195.71 168.491C196.261 168.556 196.813 168.713 197.365 168.91C195.979 166.744 194.514 164.702 192.871 162.706Z" fill="#6C7C6B"/>
<path d="M206.298 140.423C197.511 132.974 187.701 128.601 175.581 130.828C167.057 132.069 158.923 135.502 150.592 137.832C158.255 138.449 166.48 138.829 173.654 139.551C176.55 138.862 179.583 138.092 182.552 137.692C187.588 135.63 194.581 135.569 198.842 138.664C201.469 139.044 204.043 139.685 206.503 140.78C206.436 140.66 206.366 140.543 206.298 140.423Z" fill="#6C7C6B"/>
<path d="M214.727 91.3359C212.989 92.6686 211.251 94.0039 209.512 95.3326C210.499 94.9073 211.56 94.5916 212.465 94.5652C213.329 93.288 214.432 92.2446 215.63 91.4046C215.329 91.3835 215.028 91.365 214.727 91.3359Z" fill="#6C7C6B"/>
<path d="M170.431 124.564C173.367 123.906 176.406 123.074 178.9 121.142C181.334 119.257 183.721 117.226 186.133 115.299C188.522 113.39 191.023 111.626 193.103 109.313C194.091 108.213 194.739 106.905 195.964 106.033C196.203 105.864 197.791 104.802 198.278 104.614C198.452 104.261 198.827 103.619 199.197 103.031C194.269 106.57 189.249 109.915 184.037 112.854C177.279 116.57 171.946 119.787 163.961 120.987C165.128 121.18 166.333 121.303 167.553 121.39C164.548 121.851 161.469 122.136 158.115 122.295C162.15 123.317 166.285 124.218 170.431 124.564Z" fill="#6C7C6B"/>
<path d="M189.166 84.3846C189.145 84.3819 189.126 84.374 189.104 84.3714C185.673 86.9191 182.282 89.5791 178.625 91.658C178.296 91.8469 177.951 92.0331 177.612 92.222C170.314 100.053 164.241 106.478 154.863 109.529C156.143 109.566 157.394 109.525 158.623 109.434C155.198 110.595 151.618 111.468 148.61 111.429C151.987 112.533 155.566 113.004 159.159 112.879C166.216 110.771 172.35 106.326 177.784 100.752C177.823 100.35 177.961 99.9577 178.235 99.6249C179.264 98.3755 180.289 97.1273 181.339 95.9149C181.446 95.759 181.566 95.6085 181.714 95.4751C181.717 95.4711 181.721 95.4698 181.725 95.4658C182.97 94.0565 184.267 92.716 185.697 91.5352C185.924 91.3477 186.156 91.1522 186.389 90.9554C187.464 89.7337 188.555 88.5291 189.69 87.3708C190.569 86.474 191.563 85.3619 192.634 84.3066C191.485 84.4783 190.326 84.543 189.166 84.3846Z" fill="#6C7C6B"/>
<path d="M107.383 120.088C105.949 118.452 104.463 116.892 103.002 115.331C104.399 116.582 105.939 117.608 107.622 118.334C104.511 114.158 100.718 110.901 97.1739 107.299C98.0152 109.056 99.0115 110.698 100.137 112.186C97.7141 109.413 95.5156 106.481 93.9381 102.977C94.5481 108.307 96.2927 113.878 100.047 117.154C102.697 119.407 105.823 120.782 108.92 121.886C108.409 121.286 107.89 120.695 107.383 120.088Z" fill="#6C7C6B"/>
<path d="M76.4819 24.3496C77.0177 24.2875 77.5513 24.2452 78.0848 24.1647C82.2892 23.6337 85.8482 22.6577 91.0843 22.6735C86.0153 20.9407 79.5361 20.4256 73.8683 21.4624C74.8214 22.3697 75.7059 23.3286 76.4819 24.3496Z" fill="#6C7C6B"/>
<path d="M73.6281 21.2291C77.2723 20.1091 80.9254 19.1185 84.5995 18.5307C79.1066 17.1532 74.2181 16.8798 69.5997 17.9707C70.9912 18.9732 72.3661 20.0536 73.6281 21.2291Z" fill="#6C7C6B"/>
<path d="M64.2197 14.3839C65.7086 15.3375 67.3348 16.3743 68.9566 17.5102C72.1879 16.3624 75.4613 15.3785 78.821 14.9822C74.9111 13.5928 70.7023 13.223 66.6861 14.0617C67.8673 13.5505 69.0584 13.0566 70.2739 12.6577C67.9016 12.4596 65.2149 12.7079 62.6423 13.4079C63.219 13.75 63.7559 14.0868 64.2197 14.3839Z" fill="#6C7C6B"/>
<path d="M60.3574 65.949C57.9066 71.1463 56.4608 78.1318 54.5325 80.9569C54.1539 81.4998 53.7786 82.0598 53.3303 82.5207C51.5447 83.9392 48.2303 84.3025 45.3079 82.7453C49.6351 88.0085 55.9173 88.1063 58.9006 81.0811C60.5013 77.305 60.2943 73.0046 60.394 68.897C60.312 68.0992 60.9132 64.1501 60.3574 65.949Z" fill="#99A9AC"/>
<path d="M32.6251 65.512C31.4085 63.5335 30.3901 60.4825 30.1786 59.8974C29.8875 59.0613 29.3118 57.2691 28.9 55.7119C28.2181 53.209 27.6591 50.6533 27.3126 48.0527C27.2916 48.2456 27.2661 48.4384 27.244 48.6325C25.6034 58.4551 27.0968 66.6782 36.0047 69.6381C34.6619 68.489 33.3557 66.6809 32.6251 65.512Z" fill="#99A9AC"/>
<path d="M74.9609 50.5449C74.6266 55.301 72.8787 58.5118 70.5474 62.3605C70.3226 62.8426 67.8419 66.2898 65.826 66.7349C69.2832 67.4455 72.5355 64.5675 74.3233 61.2445C76.0336 58.1341 76.2207 53.8244 74.9609 50.5449Z" fill="#99A9AC"/>
<path d="M85.3179 115.806C83.6342 109.564 82.277 102.985 83.1128 98.1246C83.9984 94.4674 85.5006 91.0308 87.6061 88.2189C89.4149 86.0383 91.1961 83.9105 93.4034 82.459C91.9311 83.0348 90.6293 84.0571 89.3275 85.0345C87.7389 86.2377 86.1913 87.5519 84.9371 89.2372C82.8039 92.2512 80.8556 95.8186 80.4671 99.8126C79.7575 106.729 82.6424 113.236 85.3091 119.138C86.3331 121.163 87.8519 122.9 89.716 123.762C90.1765 123.976 89.447 123.531 89.3507 123.395C87.2076 121.378 86.1515 118.499 85.3179 115.806Z" fill="#ECFAFC"/>
<path d="M89.6308 120.708C88.6356 119.436 88.0267 118.066 87.3337 116.374C86.4614 114.344 85.9843 112.894 85.4441 110.637C85.6843 114.789 86.7083 119.68 90.1776 121.546C90.7333 121.925 89.7492 120.984 89.6308 120.708Z" fill="#ECFAFC"/>
<path d="M88.1264 112.67C88.0909 114.329 88.8182 116.03 89.6784 117.199C89.2024 115.621 88.3765 114.269 88.1264 112.67Z" fill="#ECFAFC"/>
<path d="M33.3944 77.648C32.2542 71.7297 30.7376 65.9222 29.8033 59.9471C27.6823 47.5094 27.6413 35.5511 34.456 23.2852C29.9948 29.6447 26.9141 37.5389 26.593 45.8967C26.4801 51.0345 27.307 56.1512 28.1328 61.1754C29.2387 67.7687 30.7299 74.2616 32.3749 80.6911C33.7176 85.5991 35.2121 91.7037 37.6419 95.4256C35.449 89.8216 34.6453 83.6126 33.3944 77.648Z" fill="#ECFAFC"/>
<path d="M49.7347 81.7321C48.1351 80.8828 47.1632 79.8196 45.9543 78.3496C46.4946 79.3481 47.0359 80.41 47.8971 81.0625C48.4783 81.497 49.1569 81.7321 49.8377 81.7849C49.8034 81.7664 49.7679 81.7493 49.7347 81.7321Z" fill="#ECFAFC"/>
<path d="M22.9333 138.84C23.023 138.941 23.1182 139.042 23.2089 139.147C24.0215 139.783 24.8207 140.411 25.5923 141.006C22.1385 137.235 18.8595 133.097 14.8013 130.234C12.7777 128.822 9.68478 126.955 8.74605 125.874C7.20733 124.203 6.41252 122.493 5.79924 120.32C5.0166 116.795 4.94242 114.657 4.70995 112.744C4.47859 109.967 4.20959 107.172 4.369 104.38C4.65571 98.6386 6.11254 92.3583 8.92652 86.959C5.30665 92.0796 2.89891 98.4668 2.21479 105.122C1.81517 110.758 2.20705 116.621 3.57529 122.045C4.31366 124.31 5.43172 126.48 6.97266 128.094C9.04716 130.243 11.6752 131.354 14.115 132.773C16.6732 134.183 19.2238 136.055 21.647 137.927C22.0942 138.103 22.5326 138.388 22.9333 138.84Z" fill="#ECFAFC"/>
<path d="M54.0974 173.446C49.5621 158.667 46.8521 144.135 37.5401 132.421C35.0892 129.076 32.2719 126.142 29.8642 122.756C27.2849 118.923 24.6336 115.086 22.6366 110.248C24.2429 115.629 26.769 120.543 29.5266 125.186C32.4955 129.803 36.2637 134.412 38.9116 138.553C39.3356 138.771 39.7109 139.203 39.9423 139.906C40.0341 140.186 40.1282 140.471 40.2245 140.755C45.754 150.689 48.3134 162.492 53.338 172.761C53.8771 173.827 54.5125 175.056 55.035 175.996C54.6918 175.114 54.3952 174.304 54.0974 173.446Z" fill="#ECFAFC"/>
<path d="M128.348 209.453C133.35 208.719 138.289 207.491 143.303 206.784C148.899 205.994 154.268 205.387 159.798 204.252C161.735 203.854 163.679 203.852 165.629 203.914C158.869 201.872 152 202.682 144.381 204.362C133.505 206.764 121.486 207.574 110.526 202.947C103.737 200.333 96.9558 195.715 90.3747 190.429C84.6128 185.706 80.1228 181.993 75.3993 175.752C69.4249 168.126 65.0998 159.626 59.9457 150.583C55.8531 143.642 51.6521 136.644 49.5034 128.457C50.2141 132.381 51.3178 136.219 52.6727 139.895C54.8469 145.19 57.6465 150.079 60.2534 155.082C66.4006 166.466 72.696 178.188 81.7092 186.675C95.1879 199.191 109.973 209.249 127.496 209.46C127.775 209.462 128.063 209.457 128.348 209.453Z" fill="#ECFAFC"/>
<path d="M150.108 181.237C145.298 179.777 140.372 178.851 135.403 178.458C126.137 177.911 117.782 177.368 109.124 175.243C102.637 174.102 94.2957 171.421 89.8223 168.787C82.8748 165.238 76.752 160.26 72.1879 153.061C79.6745 167.744 93.8717 174.811 107.596 177.334C116.382 179.514 125.317 180.305 134.26 180.922C135.578 181.033 137.006 181.205 138.502 181.423C141.997 180.109 146.5 180.856 150.108 181.237Z" fill="#ECFAFC"/>
<path d="M142.889 173.905C143.308 173.947 143.726 174.005 144.141 174.061C152.121 174.818 159.846 174.383 167.046 176.873C168.608 177.38 169.933 177.949 171.2 178.599C173.019 178.934 174.838 179.284 176.673 179.658C177.732 179.872 178.778 180.224 179.812 180.666C177.125 178.693 174.348 176.908 171.472 175.403C164.768 172.286 157.483 171.808 150.363 171.532C138.317 171.331 127.224 168.544 115.602 163.271C123.636 168.014 132.102 172.23 141.041 173.699C141.617 173.78 142.193 173.855 142.769 173.92C142.809 173.918 142.844 173.898 142.889 173.905Z" fill="#ECFAFC"/>
<path d="M194.324 164.551C188.446 160.754 182.114 157.981 175.662 155.898C163.024 151.409 151.097 149.625 138.34 148.115C129.057 147.241 119.42 147.234 110.912 145.437C103.001 144.029 95.4503 140.745 88.2006 136.803C107.393 150.556 120.639 148.658 141.665 150.885C155.149 152.449 169.765 156.044 183.861 161.918C187.375 163.476 191.523 165.981 195.589 168.475C195.63 168.484 195.67 168.484 195.71 168.495C196.261 168.557 196.813 168.716 197.365 168.913C196.399 167.405 195.397 165.961 194.324 164.551Z" fill="#ECFAFC"/>
<path d="M206.134 140.138C205.694 139.41 205.232 138.75 204.758 138.12C200.396 135.935 195.867 134.251 191.196 133.339C186.942 132.724 182.612 133.031 178.375 133.702C167.248 136.025 158.809 139.139 148.127 138.496C139.484 137.964 130.657 134.563 121.829 131.312C140.077 140.833 148.785 143.495 168.72 139.091C175.64 137.391 180.829 135.811 187.834 136.106C188.38 136.139 188.917 136.19 189.454 136.252C192.877 136.125 196.291 136.857 198.793 138.657C201.433 139.038 204.022 139.661 206.495 140.764C206.376 140.554 206.257 140.343 206.134 140.138Z" fill="#ECFAFC"/>
<path d="M137.938 113.457C138.377 113.927 138.879 114.308 139.389 114.66C138.932 114.235 138.406 113.787 137.938 113.457Z" fill="#ECFAFC"/>
<path d="M189.733 84.4261C189.609 84.5542 189.488 84.6824 189.364 84.8092C184.309 90.0117 178.839 94.357 172.913 99.508C167.559 104.359 163.215 108.323 156.761 109.354C153.642 109.901 151.392 110.556 147.291 110.229C144.004 109.978 140.379 108.636 136.956 107.225C140.834 109.37 144.813 111.448 149.084 112.137C153.869 112.664 158.895 112.409 163.425 110.369C166.936 108.739 169.928 105.935 172.93 103.284C175.573 100.941 178.264 98.6852 180.936 96.3883C181.061 96.2417 181.191 96.0991 181.318 95.9525C181.428 95.7821 181.553 95.6196 181.714 95.4757C181.744 95.4466 181.776 95.4176 181.808 95.3885C183.027 94.0083 184.297 92.6941 185.695 91.5372C185.922 91.3522 186.151 91.1581 186.381 90.964C187.458 89.7383 188.552 88.5324 189.689 87.3728C190.568 86.476 191.562 85.3639 192.635 84.3086C191.672 84.4512 190.702 84.5027 189.733 84.4261Z" fill="#ECFAFC"/>
<path d="M214.645 91.3226C213.343 91.1892 212.045 90.9515 210.735 90.5605C204.541 95.1317 198.919 101.107 193.632 106.809C189.393 111.128 183.652 116.449 178.693 118.549C166.682 123.258 154.005 122.391 141.735 116.66C148.016 120.518 154.913 123.152 161.946 124.045C166.993 124.363 172.173 123.942 177.062 122.316C177.697 121.972 178.316 121.592 178.9 121.14C181.334 119.256 183.721 117.224 186.132 115.297C188.52 113.389 191.02 111.624 193.101 109.312C194.09 108.21 194.736 106.904 195.962 106.031C196.2 105.862 197.791 104.798 198.277 104.611C198.605 103.944 199.657 102.233 200.016 101.848C201.588 100.145 203.171 100.234 204.816 99.2697C204.829 99.2578 204.843 99.2433 204.856 99.2301C204.619 99.1918 207.965 96.0563 207.175 96.6612C207.705 96.2544 208.429 95.8291 209.212 95.4659C210.988 94.0183 212.804 92.6447 214.645 91.3226Z" fill="#ECFAFC"/>
<path d="M216.149 73.2939C215.944 73.2278 215.749 73.2674 215.56 73.344C215.402 73.1274 215.197 72.9571 214.952 72.8791C213.299 72.6955 212.617 73.0033 210.837 73.5857C209.508 74.1088 208.274 74.8867 207.101 75.7809C206.222 76.2246 205.382 76.7728 204.622 77.445C204.102 77.906 203.378 78.7948 203.991 79.5318C204.305 79.9149 204.786 79.8105 205.142 79.5794C205.202 79.5464 205.26 79.5081 205.318 79.475C205.52 79.6705 205.763 79.8039 206.026 79.7986C208.96 78.886 211.864 77.5718 214.637 76.0344C214.88 75.942 215.114 75.8192 215.32 75.6541C215.542 75.5259 215.773 75.4097 215.996 75.2763C216.739 74.9078 217.063 73.6716 216.149 73.2939Z" fill="#6C7C6B"/>
<path d="M44.6403 177.027C46.2211 182.593 48.6963 190.458 52.4679 193.096C49.2067 188.407 47.11 182.44 44.6403 177.027Z" fill="#ECFAFC"/>
<path d="M216.346 74.0402C216.48 73.9702 216.616 73.9042 216.749 73.8328C213.694 74.1142 210.839 75.5895 208.037 76.9683C209.986 76.4466 212.062 75.8615 214 75.1008C210.66 76.6368 207.53 78.0725 203.522 78.8914C206.234 78.7699 208.987 78.6206 211.582 77.5785C213.405 76.8244 216.263 74.7032 217.151 73.6836C216.878 73.7998 216.613 73.92 216.346 74.0402Z" fill="#ECFAFC"/>
<path d="M100.955 18.3988C99.3811 15.5565 97.0277 13.6493 94.6985 11.7804C92.0949 9.69356 89.5034 7.58429 86.8898 5.51729C84.4699 3.60614 81.9393 1.85215 79.1109 0.96856C76.1973 0.0598701 73.1443 -0.0140959 70.1521 0.0017533C64.1975 0.0360933 58.2939 0.213081 52.7601 3.13066C47.6867 5.80522 43.5233 10.3487 39.4496 14.7349C35.4644 19.0288 31.3995 23.3133 28.28 28.5766C25.042 34.0459 23.3251 40.5018 23.4447 47.2021C23.5864 55.0448 25.4394 62.6815 27.2926 70.1465C28.332 74.3333 29.3604 78.5307 30.5515 82.6582C31.1504 84.7265 31.7394 86.7988 32.3748 88.8526C33.0146 90.9183 33.7762 92.8928 34.3474 94.9994C34.7238 96.4008 36.5315 95.8566 36.2105 94.417C35.4223 90.8945 34.9729 87.2993 34.239 83.7597C33.5416 80.4023 32.7932 77.0766 31.9929 73.7509C30.4575 67.3689 28.7239 61.0121 27.752 54.4597C26.8575 48.4146 26.6605 41.7103 28.3763 35.8408C30.0135 30.2315 33.4519 25.799 37.033 21.8301C40.6839 17.7806 44.586 13.8104 48.7804 10.5877C50.7985 9.03714 52.9206 7.56449 55.1744 6.55674C57.7748 5.39578 60.5234 4.83313 63.2843 4.60332C65.992 4.37746 68.7229 4.3669 71.4384 4.38671C74.1981 4.40652 76.9711 4.60464 79.5914 5.72994C82.0799 6.79844 84.295 8.69771 86.4714 10.4438C88.9245 12.4104 91.3764 14.3757 93.8284 16.3423C95.9162 18.0184 98.6472 19.6614 99.3878 22.7771C99.7021 24.1045 99.6822 25.4768 98.7601 26.4092C97.9797 27.1977 97.1118 27.5213 96.1022 27.6415C91.0266 28.2491 85.857 23.7809 81.0659 27.619C79.1198 29.1789 80.9076 32.9827 82.8792 31.4229C85.0323 29.7191 87.7134 30.5379 90.0558 31.1838C92.3252 31.8072 94.6919 32.3434 97.0166 31.8019C99.4442 31.234 101.159 29.4932 102.001 26.75C102.848 23.9922 102.29 20.8078 100.955 18.3988Z" fill="#362F40"/>
<path d="M40.571 158.783C37.1991 151.375 32.5973 144.926 27.1321 139.598C24.4222 136.952 21.5417 134.57 18.513 132.474C15.5396 130.413 12.4323 128.881 9.25525 127.344C6.35603 125.946 3.64942 124.133 3.59407 120.002C3.56196 117.488 3.78336 114.95 3.88299 112.441C3.98705 109.854 4.0579 107.269 4.15089 104.682C4.31362 100.214 4.57043 95.1949 6.71468 91.358C7.6202 89.7414 8.83901 88.2648 10.3135 87.4036C12.0936 86.3629 14.0839 86.3695 16.0145 86.5887C20.2089 87.0682 24.9258 88.2384 28.6642 85.1279C30.152 83.8904 31.0187 82.0994 31.3697 80.006C31.7195 77.91 31.3586 76.3079 30.3579 74.5539C29.8343 73.6373 28.5789 74.4561 29.0837 75.4177C29.8652 76.9062 29.1734 78.8635 28.2789 80.0588C27.1908 81.517 25.8768 82.2711 24.2716 82.6409C20.4027 83.5285 16.4197 82.1351 12.5242 83.156C4.90587 85.1557 1.95793 94.6877 1.13211 102.915C0.609611 108.101 0.237665 113.363 0.0184803 118.578C-0.168602 123.039 1.05241 126.686 4.24388 129.16C6.95823 131.266 10.2172 132.19 13.1795 133.666C16.4086 135.274 19.4872 137.251 22.3786 139.595C28.9332 144.91 34.467 152.08 38.6902 160.055C39.433 161.451 41.2374 160.245 40.571 158.783Z" fill="#362F40"/>
<path d="M35.688 137.311C34.0441 134.102 32.0161 131.116 30.1331 128.103C28.1372 124.911 26.4181 121.555 24.6413 118.189C24.4697 117.866 24.0823 118.14 24.2107 118.482C25.5347 121.911 27.1797 125.175 28.7992 128.416C30.4199 131.662 32.4766 134.565 34.0619 137.842C37.0729 144.074 37.6496 151.651 38.5563 158.636C38.8175 160.661 41.3879 159.829 41.1333 157.827C40.2256 150.635 38.9027 143.592 35.688 137.311Z" fill="#362F40"/>
<path d="M87.5142 199.01C75.4247 195.909 64.1422 187.614 56.5892 175.876C54.6863 172.915 53.0103 169.738 51.6941 166.354C50.1819 162.47 49.1779 158.372 47.9757 154.346C46.8078 150.433 45.3278 146.752 43.3418 143.333C41.4688 140.112 39.3024 137.154 37.0663 134.29C32.1468 127.991 26.1535 122.295 22.7905 114.537C22.3753 113.578 21.2097 114.401 21.5794 115.356C24.3834 122.576 28.476 128.818 32.9837 134.631C37.5998 140.576 41.8828 146.561 44.5152 154.124C45.9455 158.24 47.0613 162.495 48.755 166.48C50.1863 169.848 51.8634 173.121 53.7431 176.161C57.4848 182.224 62.0699 187.483 67.3049 191.689C73.1521 196.387 80.1671 199.531 87.1433 200.697C88.0489 200.85 88.4584 199.251 87.5142 199.01Z" fill="#362F40"/>
<path d="M54.1992 187.466C53.1852 185.126 51.7494 183.032 50.2483 181.115C47.3115 177.357 43.6728 173.86 42.2924 168.808C42.0079 167.764 40.6795 168.164 40.9042 169.24C41.0237 169.802 41.1666 170.349 41.3249 170.884C41.6016 176.049 42.7517 181.335 44.9093 185.785C47.1188 190.348 50.1166 193.723 54.2435 195.638C54.7604 195.878 55.2962 195.251 55.2984 194.67C55.3051 192.128 55.1999 189.771 54.1992 187.466ZM46.7879 183.833C45.9443 181.931 45.2779 179.955 44.6447 177.962C45.4539 179.259 46.3196 180.518 47.193 181.768C48.5292 183.677 49.8719 185.592 50.9756 187.704C51.7306 189.154 52.6638 190.89 53.2018 192.649C50.4741 190.496 48.2779 187.193 46.7879 183.833Z" fill="#362F40"/>
<path d="M87.4666 199.327C84.212 196.82 81.1235 194.213 78.1502 191.245C75.2642 188.362 72.5908 185.254 70.0337 181.961C67.4411 178.62 64.729 175.281 62.8438 171.29C60.9143 167.214 59.6888 162.689 58.2597 158.346C56.5162 153.038 54.5911 147.817 52.9041 142.482C52.6306 141.624 51.476 141.953 51.7262 142.85C53.1033 147.788 54.2446 152.816 55.5675 157.77C56.794 162.371 57.9143 167.087 59.7109 171.427C63.2179 179.894 69.7005 186.003 75.9373 191.5C79.4775 194.624 83.2457 197.549 87.1068 200.078C87.5198 200.345 87.8563 199.627 87.4666 199.327Z" fill="#362F40"/>
<path d="M169.354 205.355C159.48 202.329 149.115 203.908 139.157 205.479C129.628 206.981 120.047 207.715 110.577 205.283C101.73 203.012 93.5385 198.489 86.2899 192.031C79.0335 185.562 72.9694 177.072 67.6492 168.378C61.4755 158.301 56.7342 147.131 51.5579 136.319C51.0642 135.292 49.6152 135.939 49.9207 137.113C52.7313 147.929 57.1803 157.96 62.526 167.282C65.2426 172.018 68.1761 176.605 71.4927 180.776C74.6852 184.788 78.2619 188.363 81.9239 191.744C89.0607 198.333 97.0775 203.911 105.625 207.452C109.992 209.259 114.5 210.473 119.101 211.005C124.207 211.593 129.369 211.196 134.455 210.549C146.045 209.073 157.524 205.878 169.236 206.476C169.78 206.505 169.877 205.514 169.354 205.355Z" fill="#362F40"/>
<path d="M169.999 205.116C168.908 203.888 167.932 202.545 166.642 201.596C165.34 200.644 163.913 199.936 162.478 199.327C159.696 198.15 156.801 197.394 153.896 196.807C147.572 195.539 141.159 194.916 134.818 193.748C122.172 191.428 109.425 187.786 98.0871 180.483C92.1635 176.663 86.6584 171.904 82.2316 165.815C81.7201 165.113 80.8954 166.127 81.3792 166.83C88.9588 177.833 99.0114 185.904 110.159 190.885C122.841 196.551 136.254 198.378 149.601 200.338C152.91 200.825 156.213 201.368 159.442 202.389C161.032 202.892 162.587 203.535 164.127 204.226C165.754 204.954 167.561 205.559 169.084 206.547C169.822 207.025 170.637 205.836 169.999 205.116Z" fill="#362F40"/>
<path d="M116.261 129.696C111.317 126.419 105.878 124.314 100.244 123.659C97.6753 123.361 95.1558 123.847 92.5953 124.004C90.5573 124.129 88.1839 124.156 86.509 122.538C84.5286 120.625 83.8744 116.837 83.0231 114.119C81.9427 110.684 80.8844 107.176 80.6619 103.488C80.3309 97.9489 82.2903 91.596 86.0685 88.1554C88.03 86.3724 90.4156 85.214 92.5532 83.7625C93.7045 82.9819 94.7894 82.1274 95.8465 81.1725C96.9436 80.1819 97.5314 78.9602 98.3838 77.7279C98.8376 77.0702 98.0827 76.1258 97.5823 76.7743C96.793 77.8032 95.5023 78.4015 94.4639 79.0487C93.3613 79.7315 92.1458 80.2149 90.9735 80.697C88.6356 81.6546 86.3275 82.6993 84.2895 84.4005C82.029 86.2839 80.2401 88.7986 79.2715 91.9011C78.3704 94.7936 78.1867 98.0308 78.2575 101.094C78.3427 104.767 78.801 108.433 79.4121 112.03C79.9988 115.495 80.5866 119.192 81.8995 122.387C84.5452 128.813 90.399 128.655 95.5532 128.095C98.8465 127.736 102.218 127.341 105.516 127.802C109.01 128.29 112.398 129.321 115.605 131.065C116.367 131.478 117.017 130.198 116.261 129.696Z" fill="#362F40"/>
<path d="M144.012 119.684C142.222 118.677 140.529 117.461 138.798 116.32C137.053 115.17 135.348 113.922 133.69 112.6C130.431 110.004 127.302 107.149 124.352 104.07C117.973 97.4135 112.509 89.5496 107.371 81.5352C104.731 77.4144 102.059 73.3477 99.5251 69.1265C97.0011 64.9173 94.3698 60.5878 92.7015 55.7775C90.9901 50.8444 90.1522 45.5812 88.4153 40.6534C86.9386 36.4586 85.0024 32.5584 82.681 28.9501C77.7184 21.2302 70.3613 16.2654 62.8161 12.9225C62.2758 12.6835 61.8928 13.7797 62.4319 14.0491C69.2986 17.4977 74.5491 23.6366 79.1221 30.5191C81.3405 33.862 83.2268 37.4862 84.6891 41.3811C86.5367 46.2997 88.0234 51.3635 90.2484 56.0826C94.4816 65.0652 99.4421 73.6039 104.194 82.2048C108.869 90.6709 114.334 98.7408 120.575 105.633C123.814 109.211 127.305 112.534 131.15 115.14C133.099 116.46 135.11 117.62 137.192 118.61C139.304 119.616 141.427 120.209 143.653 120.733C144.155 120.849 144.528 119.977 144.012 119.684Z" fill="#362F40"/>
<path d="M194.786 82.0102C191.894 82.3879 189.38 83.4089 186.828 85.0612C184.13 86.8059 181.514 88.721 178.766 90.3548C173.198 93.6673 167.292 96.3049 161.219 97.9479C149.265 101.182 136.902 100.678 125.345 95.6009C122.171 94.2075 119.097 92.4944 116.174 90.4644C113.19 88.3895 110.255 86.1138 108.007 82.9453C107.649 82.446 106.899 83.117 107.228 83.6532C110.8 89.4448 115.953 93.7043 121.28 96.9203C126.804 100.253 132.842 102.357 138.972 103.289C151.611 105.21 164.624 102.285 175.863 95.1386C178.987 93.1509 181.871 90.7946 184.778 88.3987C186.753 86.7716 189.031 85.0585 191.442 84.2872C189.733 85.8378 188.161 87.7106 186.618 89.3154C184.067 91.9635 181.411 94.4532 178.829 97.0564C173.714 102.213 168.436 107.061 162.33 110.445C158.877 112.36 155.359 113.467 151.559 113.798C150.688 113.874 150.675 115.375 151.559 115.423C158.139 115.782 164.609 112.517 169.94 108.157C172.723 105.884 175.298 103.292 177.794 100.596C180.441 97.7432 182.874 94.5826 185.578 91.8129C187.125 90.232 188.77 88.8108 190.464 87.4663C192.073 86.1891 193.841 85.0678 195.348 83.6308C195.869 83.1355 195.451 81.9243 194.786 82.0102Z" fill="#362F40"/>
<path d="M218.513 91.7122C213.078 91.1232 207.54 90.6451 202.335 93.0026C197.712 95.0961 193.656 98.6199 189.573 101.878C181.078 108.662 171.073 114.389 160.691 114.72C154.726 114.909 148.879 114.037 143.477 110.841C142.815 110.45 142.293 111.549 142.913 112.03C147.261 115.412 152.34 117.576 157.511 118.184C162.795 118.812 168.265 117.8 173.29 115.828C178.321 113.851 182.979 110.951 187.202 107.14C191.33 103.413 195.128 99.1733 199.786 96.3587C202.526 94.7038 205.449 93.6696 208.516 93.3725C209.658 93.2602 210.805 93.2536 211.95 93.2826C204.624 96.0483 198.282 101.85 192.322 107.668C184.332 115.468 176.101 123.341 165.428 124.536C159.447 125.207 153.365 123.993 147.796 121.35C146.931 120.941 146.341 122.672 147.178 123.161C156.777 128.747 167.858 128.776 177.424 123.084C186.711 117.56 193.834 108.226 202.41 101.436C207.233 97.6174 212.671 94.4515 218.51 93.8334C219.657 93.7132 219.655 91.8377 218.513 91.7122Z" fill="#362F40"/>
<path d="M206.307 140.299C202.839 133.32 196.451 128.194 189.831 126.485C185.628 125.4 181.25 125.702 176.984 125.949C172.644 126.2 168.311 126.509 163.963 126.394C159.42 126.274 154.636 125.571 150.463 123.306C149.819 122.956 149.288 124.01 149.91 124.463C156.85 129.515 164.786 130.174 172.729 129.727C180.629 129.277 189.075 128.029 196.511 132.041C200.122 133.987 203.228 137.192 205.781 140.775C206.026 141.12 206.496 140.68 206.307 140.299Z" fill="#362F40"/>
<path d="M200.773 136.993C195.271 134.541 189.302 134.574 183.557 135.56C176.976 136.685 170.624 139.106 164.077 140.445C157.729 141.742 151.419 141.596 145.094 140.156C138.208 138.59 131.449 136.06 124.865 133.209C124.489 133.046 124.261 133.715 124.634 133.9C130.296 136.723 135.854 139.737 141.75 141.837C147.429 143.862 153.308 144.896 159.237 144.451C171.844 143.506 184.06 135.691 196.851 138.649C202.367 139.926 207.76 143.548 210.924 149.178C211.147 149.574 211.668 149.191 211.522 148.765C209.603 143.124 205.484 139.09 200.773 136.993Z" fill="#362F40"/>
<path d="M155.821 181.212C150.417 179.632 144.823 179.148 139.279 178.945C136.439 178.841 133.649 178.955 130.823 179.261C127.963 179.573 125.111 179.935 122.236 179.855C117.082 179.709 111.928 178.434 106.908 177.121C102.316 175.918 97.8358 174.325 93.4101 172.437C88.5304 170.356 83.3597 167.489 79.5107 163.282C78.9062 162.626 78.0339 163.654 78.6085 164.359C81.9726 168.503 85.525 172.085 89.8267 174.777C94.0599 177.427 98.5997 179.2 103.23 180.57C108.305 182.072 113.508 183.32 118.708 183.976C124.451 184.701 130.048 183.472 135.738 182.675C142.314 181.752 148.806 182.317 155.34 183.4C156.514 183.597 157.043 181.57 155.821 181.212Z" fill="#362F40"/>
<path d="M192.504 191.437C187.802 182.339 178.291 177.711 169.983 175.184C165.007 173.669 159.878 172.859 154.753 172.564C149.51 172.264 144.242 172.589 139.009 172.041C133.26 171.436 127.621 169.767 122.191 167.467C121.533 167.187 121.207 168.354 121.747 168.768C126.664 172.512 132.25 174.271 137.887 175.802C143.648 177.368 149.379 179.208 154.623 182.547C155.804 183.301 156.845 181.133 155.655 180.382C151.422 177.717 146.798 176.525 142.164 175.346C144.98 175.681 147.811 175.867 150.662 175.987C160.382 176.396 170.173 177.827 179.03 182.959C183.457 185.528 187.271 188.96 190.892 192.901C191.713 193.795 193.131 192.656 192.504 191.437Z" fill="#362F40"/>
<path d="M192.758 191.242C190.854 183.647 184.802 178.151 179.345 174.225C173.256 169.846 166.47 166.995 159.618 164.863C152.199 162.552 144.639 160.952 137.172 158.879C130.037 156.899 122.957 154.597 116.036 151.72C108.219 148.472 100.773 144.272 93.3114 140.043C92.6273 139.656 92.1392 140.73 92.7381 141.247C98.5077 146.239 105.082 149.769 111.721 152.764C118.378 155.767 125.212 158.183 132.108 160.247C146.15 164.45 161.092 166.313 174.147 174.216C177.544 176.269 180.795 178.714 183.683 181.686C186.428 184.511 189.145 187.835 190.403 191.981C190.928 193.709 193.214 193.055 192.758 191.242Z" fill="#362F40"/>
<path d="M200.481 171.465C195.013 166.264 188.53 161.996 181.892 159.379C178.396 158.004 174.813 156.964 171.246 155.89C167.642 154.807 164.021 153.794 160.349 153.101C146.494 150.485 132.362 151.079 118.464 148.83C110.843 147.601 103.195 145.677 96.0967 142.069C95.5277 141.782 95.0307 142.734 95.6085 143.092C107.747 150.556 121.192 152.429 134.636 153.514C141.759 154.089 148.915 154.382 156.013 155.387C163.276 156.414 170.416 158.595 177.454 160.92C181.426 162.23 185.269 163.892 188.961 166.075C192.562 168.2 195.946 170.831 199.566 172.895C200.284 173.305 201.197 172.141 200.481 171.465Z" fill="#362F40"/>
<path d="M200.619 171.432C199.507 169.452 198.029 167.73 196.724 165.933C195.409 164.119 194.057 162.344 192.627 160.656C189.777 157.301 186.565 154.393 182.958 152.296C175.859 148.174 168.037 146.828 160.349 145.163C155.913 144.201 151.479 143.063 147.168 141.481C146.742 141.325 146.464 142.113 146.87 142.356C153.69 146.458 161.384 147.784 168.759 149.813C172.508 150.847 176.28 152.014 179.823 153.824C183.416 155.664 186.68 158.166 189.707 161.108C191.471 162.821 193.146 164.665 194.763 166.576C196.372 168.471 197.782 170.694 199.486 172.46C200.06 173.055 201.097 172.284 200.619 171.432Z" fill="#362F40"/>
<path d="M116.483 129.314C114.929 126.958 113.289 124.732 111.319 122.856C109.255 120.896 107.02 119.7 104.627 118.442C100.601 116.322 96.3668 112.922 94.6797 107.852C94.5746 107.537 94.1893 107.642 94.2447 107.989C95.1103 113.406 98.6593 116.998 102.573 119.484C104.924 120.977 107.36 122.166 109.474 124.143C111.574 126.11 113.422 128.466 115.364 130.646C116.123 131.499 117.095 130.247 116.483 129.314Z" fill="#362F40"/>
<path d="M219.279 71.9951C217.456 71.871 215.651 71.9159 213.824 71.9568C212.278 71.9912 210.636 71.9304 209.144 72.501C207.667 73.065 206.653 74.2774 205.615 75.589C204.469 77.0352 203.225 78.3428 201.949 79.6186C201.347 79.9713 201.703 81.2273 202.474 81.09C204.229 80.7769 205.971 80.95 207.735 80.8575C209.287 80.773 210.865 80.4151 212.313 79.7322C215.248 78.3507 217.53 76.0235 219.789 73.4678C220.267 72.925 219.877 72.0348 219.279 71.9951ZM211.23 77.4341C209.003 78.4841 206.737 78.7892 204.437 79.1405C204.989 78.6703 205.527 78.1684 206.029 77.6137C207.177 76.3576 208.107 74.8123 209.683 74.3078C211.119 73.8469 212.684 73.9882 214.156 73.9644C215.083 73.9486 216.004 73.9261 216.924 73.8838C215.146 75.3182 213.185 76.5095 211.23 77.4341Z" fill="#362F40"/>
<path d="M44.9835 44.0459C44.8373 42.5191 44.7277 40.8787 44.2528 39.4391C43.7968 38.0708 42.8292 36.4185 41.4787 36.3102C39.9798 36.1887 39.1939 38.1051 38.6204 39.484C38.3127 40.2263 38.0514 41.0016 37.809 41.7901C37.757 41.9103 37.7083 42.0357 37.6552 42.1572C37.064 43.478 36.5282 44.8648 35.5762 45.8778C34.55 46.9701 33.3501 47.8088 32.4434 49.0622C31.5645 50.2747 30.8947 51.8239 30.8338 53.4511C30.7032 56.9155 33.7641 58.9733 36.3367 59.0169C39.1573 59.0644 41.709 56.9657 43.2599 54.274C44.9846 51.2666 45.3178 47.583 44.9835 44.0459Z" fill="#362F40"/>
<path d="M69.199 48.1894C68.7008 46.1752 67.2507 44.5969 65.7108 43.679C63.7614 42.5154 60.8976 42.901 59.6489 40.6531C58.6947 38.9295 57.756 37.1702 56.3213 35.9498C54.9132 34.7519 52.6074 34.1021 51.207 35.6791C49.924 37.12 49.541 39.7114 49.3572 41.7044C48.5425 50.5734 55.4224 62.9609 63.8289 59.1452C67.2573 57.588 70.3193 52.7355 69.199 48.1894Z" fill="#362F40"/>
<path d="M51.5346 65.6828C51.1859 64.8706 50.762 64.0953 50.2173 63.4256C48.9122 61.8235 46.1635 60.0999 44.4089 61.7601C44.2263 61.9318 44.1953 62.229 44.2373 62.472C44.2395 62.4786 44.2396 62.4879 44.2396 62.4932C44.2473 62.5407 44.2982 62.5658 44.3193 62.6107C44.3093 62.616 44.2982 62.62 44.2883 62.6266C44.4964 63.0254 44.8894 63.0109 45.227 63.1813C45.3809 63.2566 45.5392 63.3596 45.6941 63.4613C45.8126 63.6396 45.9166 63.8192 45.9831 63.946C46.2056 64.3739 46.4358 64.7979 46.6528 65.2311C47.0646 66.046 47.4554 66.8636 47.679 67.7723C47.9137 68.7298 48.1716 69.6663 48.2801 70.6555C48.3819 71.588 48.1439 72.7397 48.7605 73.4952C49.5055 74.4144 50.6324 74.3207 51.4317 73.5189C52.252 72.6948 52.542 71.4929 52.6018 70.2949C52.6826 68.6559 52.2498 67.0789 51.5346 65.6828Z" fill="#362F40"/>
<path d="M57.5789 74.1832C56.5505 77.3926 55.1014 80.3393 53.3325 81.7142C51.2901 83.2476 48.1185 83.7376 46.406 80.721C47.2783 83.7733 50.4941 84.7837 52.8487 83.6901C54.9398 82.8778 56.2416 80.5559 57.0143 78.2168C57.642 76.4377 57.9608 74.3443 58.066 72.5098C57.9232 73.0751 57.7527 73.6311 57.5789 74.1832Z" fill="#362F40"/>
<path d="M56.0988 83.3491C55.8309 83.8351 55.408 84.3898 54.8789 84.7095C57.2556 83.7625 58.1401 80.4209 58.7634 77.8203C57.9231 79.6958 57.1405 81.6162 56.0988 83.3491Z" fill="#362F40"/>
<path d="M91.051 61.3975C87.1865 53.111 84.0371 44.3146 79.5283 36.4785C82.2869 42.7812 83.8633 49.3005 86.4902 55.9401C89.3086 62.6113 92.9462 69.9045 98.0262 73.9421C95.055 70.3246 93.0447 66.0215 91.051 61.3975Z" fill="#362F40"/>
<path d="M94.6675 75.6079C92.2941 72.6349 90.8628 68.8667 89.0882 65.1303C86.8754 60.3042 84.4754 55.5903 82.5493 50.5859C83.8998 56.9705 85.8813 63.2283 89.0373 68.6686C90.5905 71.4924 92.3694 74.1762 94.7671 76.0332C94.9819 76.2274 95.3107 76.44 95.4867 76.5219C95.1701 76.2736 94.9166 75.9434 94.6675 75.6079Z" fill="#362F40"/>
<path d="M83.2136 60.2324C84.5785 66.8191 87.6316 72.9369 91.8503 77.3866C88.7851 71.8156 85.8327 66.1244 83.2136 60.2324Z" fill="#362F40"/>
<path d="M83.5434 67.6992C84.584 71.0989 86.3109 74.1644 88.5049 76.662C86.9895 73.5634 85.3002 70.6049 83.5434 67.6992Z" fill="#362F40"/>
<path d="M83.8035 74.0332C84.0338 75.3791 84.8242 76.6391 85.5194 77.594C85.0035 76.3683 84.3006 75.2681 83.8035 74.0332Z" fill="#362F40"/>
<path d="M104.694 189.611C98.1756 185.836 92.2455 180.824 86.4492 175.685C85.2116 174.628 83.3286 172.837 82.4873 172.135C83.4858 173.286 84.4766 174.446 85.4884 175.581C91.1041 181.871 97.1096 187.861 104.122 191.802C111.797 196.107 122.805 198.879 132.159 199.584C122.578 197.812 112.801 194.266 104.694 189.611Z" fill="#362F40"/>
<path d="M119.924 200.621C115.283 198.745 112.25 197.273 107.989 194.772C101.826 191.106 95.6428 187.342 90.182 182.283C98.3472 192.363 109.287 199.834 121.046 201.342C121.573 201.397 122.231 201.455 122.678 201.479C121.748 201.244 120.827 200.962 119.924 200.621Z" fill="#362F40"/>
<path d="M119.051 203.441C115.129 201.432 112.317 199.888 108.747 198.214C105.88 196.804 103.736 196.003 101.056 194.057C106.424 199.551 113.413 202.057 120.174 203.998C119.791 203.808 119.365 203.601 119.051 203.441Z" fill="#362F40"/>
<path d="M125.563 176.969C112.615 174.575 100.017 170.126 87.3149 166.395C93.596 169.554 99.939 172.666 106.509 174.859C112.861 176.81 119.428 177.645 125.983 177.373C126.462 177.36 127.065 177.35 127.456 177.321C126.824 177.209 126.193 177.093 125.563 176.969Z" fill="#362F40"/>
<path d="M98.0217 167.301C103.74 171.124 110.739 173.207 117.025 173.438C110.715 171.293 104.297 169.57 98.0217 167.301Z" fill="#362F40"/>
<path d="M108.39 155.332C114.959 158.368 121.496 161.579 128.256 163.959C135.967 166.667 144.648 168.206 152.287 168.943C137.628 164.526 123.014 159.899 108.39 155.332Z" fill="#362F40"/>
<path d="M126.092 165.797C130.956 167.919 136.1 169.418 141.24 169.779C136.284 167.984 131.236 166.564 126.092 165.797Z" fill="#362F40"/>
<path d="M146.123 148.02C141.77 147.399 137.386 147.53 133.016 147.266C127.305 146.766 123.37 146.085 117.911 144.928C110.995 143.222 103.775 142.11 97.3465 138.537C101.103 141.492 105.377 143.407 109.625 145.093C115.044 147.222 120.618 148.951 126.322 149.482C133.237 150.45 140.115 148.975 147.027 148.786C148.32 148.724 149.882 148.689 151.022 148.669C149.39 148.442 147.758 148.212 146.123 148.02Z" fill="#362F40"/>
<path d="M109.402 140.652C114.115 142.038 118.707 144.004 123.489 145.054C128.238 146.071 133.471 146.138 138.064 145.139C128.344 144.963 119.324 141.904 109.402 140.652Z" fill="#362F40"/>
<path d="M118.083 139.344C122.603 141.184 127.295 142.536 132.086 142.738C127.481 141.246 122.852 139.86 118.083 139.344Z" fill="#362F40"/>
<path d="M145.148 105.827C139.337 105.385 133.407 103.528 127.373 101.237C125.229 100.43 122.7 99.2391 120.845 98.3555C122.069 99.2153 123.313 100.033 124.586 100.784C140.245 110.092 154.529 110.389 170.139 100.709C161.86 104.777 153.965 106.343 145.148 105.827Z" fill="#362F40"/>
<path d="M154.066 108.449C151.444 108.784 148.813 109.101 146.174 108.945C151.084 110.406 157.646 109.657 161.522 107.008C158.689 107.829 156.794 108.134 154.066 108.449Z" fill="#362F40"/>
<path d="M182.741 113.921C176.091 118.655 170.034 120.055 162.002 119.676C156.998 119.589 152.663 119.244 147.912 117.281C151.651 119.65 155.736 121.034 159.93 121.595C162.841 122.016 165.797 122.51 168.724 122.089C171.397 121.655 174.084 121.009 176.584 119.772C179.448 118.186 182.043 115.944 184.454 113.529C185.306 112.653 186.154 111.704 186.941 110.779C185.574 111.89 184.181 112.959 182.741 113.921Z" fill="#362F40"/>
<path d="M179.884 131.213C168.743 132.117 158.419 131.211 148.061 126.535C158.166 133.729 169.665 135.301 180.981 131.673C181.8 131.443 182.644 131.207 183.446 130.96C182.258 131.055 181.071 131.124 179.884 131.213Z" fill="#362F40"/>
<path d="M154.24 132.26C159.458 135.193 165.396 136.35 171.062 135.456C165.193 134.79 160.203 133.962 154.24 132.26Z" fill="#362F40"/>
<path d="M156.766 135.705C158.572 136.797 160.729 137.009 162.68 137.073C160.729 136.501 158.708 136.31 156.766 135.705Z" fill="#362F40"/>
<path d="M106.103 88.7926C104.878 86.8286 103.454 84.257 102.457 82.5176C103.148 84.1804 103.864 85.8301 104.623 87.452C113.76 106.424 126.587 119.429 144.424 125.141C128.526 117.721 116.321 104.813 106.103 88.7926Z" fill="#362F40"/>
<path d="M133.709 123.04C122.411 116.693 113.42 105.528 105.901 93.4492C108.671 99.118 111.559 104.773 115.316 109.602C120.713 116.365 127.335 121.777 134.931 124.277C135.707 124.572 136.515 124.869 137.284 125.123C136.08 124.456 134.896 123.744 133.709 123.04Z" fill="#362F40"/>
<path d="M126.718 123.108C122.386 119.039 116.764 114.332 112.375 108.66C116.083 115.84 121.985 121.104 128.398 124.748C128.537 124.828 128.741 124.943 128.807 124.965C128.091 124.379 127.411 123.735 126.718 123.108Z" fill="#362F40"/>
<path d="M115.844 117.609C117.854 120.129 120.334 122.384 122.958 123.763C120.546 121.63 118.504 119.782 115.844 117.609Z" fill="#362F40"/>
<path d="M54.2014 166.448C52.6726 158.428 50.6435 150.361 46.9561 143.351C44.1653 138.339 40.5831 133.987 36.8027 130.027C45.1041 140.871 49.3871 153.834 53.4907 165.989C53.9102 167.198 54.3918 168.592 54.8202 169.676C54.5877 168.606 54.3973 167.527 54.2014 166.448Z" fill="#362F40"/>
<path d="M47.2661 139.334C49.0716 143.726 50.969 148.396 52.945 152.522C51.776 147.721 49.9019 143.232 47.2661 139.334Z" fill="#362F40"/>
<path d="M33.2482 144.004C29.2863 136.934 24.0867 130.672 17.3994 127.413C13.733 125.386 9.83418 123.983 6.35712 122.072C11.2855 125.917 16.6212 128.963 21.5539 132.802C25.4517 135.86 28.2114 138.725 32.3881 143.568C32.9903 144.247 33.6777 145.043 34.2246 145.668C33.9014 145.112 33.5748 144.556 33.2482 144.004Z" fill="#362F40"/>
<path d="M16.4662 123.066C21.2119 127.084 25.6664 132.04 30.2804 136.617C26.6993 130.8 22.1617 125.738 16.4662 123.066Z" fill="#362F40"/>
<path d="M22.0908 123.584C23.3904 125.404 24.7398 127.287 26.2442 128.823C25.0487 126.877 23.7015 125.05 22.0908 123.584Z" fill="#362F40"/>
<path d="M76.6202 24.0761C77.1017 24.6348 77.5512 25.2291 77.9475 25.871C79.6511 25.4035 81.2186 25.0112 82.433 24.8237C85.8514 24.195 91.3133 24.5701 95.3815 25.7825C87.4787 21.7238 82.4917 21.9074 76.6202 24.0761Z" fill="#362F40"/>
<path d="M74.6133 22.0819C74.9332 22.3592 75.2443 22.6458 75.5498 22.9404C77.7549 22.3645 79.9047 21.9537 81.3925 21.7411C83.6818 21.2881 88.2835 21.0411 91.2603 21.7807C85.6301 19.2303 79.9811 19.6543 74.6133 22.0819Z" fill="#362F40"/>
<path d="M72.5664 20.4425C72.9339 20.7198 73.2981 21.0012 73.6579 21.2891C74.559 21.0064 75.4568 20.733 76.3512 20.4636C78.9427 19.6764 81.4655 18.5657 84.0791 17.8828C80.601 17.937 76.1962 18.8681 72.5664 20.4425Z" fill="#362F40"/>
<path d="M69.996 18.5513C70.3358 18.8036 70.6801 19.0545 71.0244 19.3081C74.1018 18.3466 77.177 17.3784 80.2489 16.3892C76.7774 16.3654 73.2782 17.1645 69.996 18.5513Z" fill="#362F40"/>
<path d="M68.4595 17.3674C68.6964 17.5589 68.9377 17.7478 69.1812 17.9327C71.8436 17.1469 74.4693 16.1933 76.8671 14.5898C74.2413 15.4721 71.1628 16.2884 68.4274 17.341C68.4362 17.3489 68.4462 17.3595 68.4595 17.3674Z" fill="#362F40"/>
<path d="M90.6083 86.3849C87.2629 88.0702 84.2154 90.9905 82.8261 95.0888C81.2575 99.8594 81.5486 105.309 83.9763 109.427C82.7099 106.301 82.7032 102.798 83.2124 99.8977C84.1146 94.8471 85.6954 91.6244 89.4282 88.0227C89.8964 87.5816 91.2901 86.3123 92.2477 85.5898C91.692 85.8289 91.1474 86.0983 90.6083 86.3849Z" fill="#362F40"/>
<path d="M84.1622 104.903C84.1788 105.059 84.264 105.585 84.2596 105.385C84.2707 104.796 84.3526 103.781 84.3969 103.415C84.9105 99.7746 85.598 98.0022 86.7404 95.2537C87.5385 93.4006 88.3588 91.5159 89.4857 89.9785C85.7507 93.431 83.239 99.2054 84.1622 104.903Z" fill="#362F40"/>
<path d="M85.8548 104.016C86.0828 101.991 86.705 100.083 87.336 98.1978C87.8474 96.745 88.164 95.5576 88.992 94.0176C86.8168 96.424 85.3766 101.003 85.8548 104.016Z" fill="#362F40"/>
<path d="M88.3478 101.62C88.8614 99.5635 89.2289 97.4291 89.902 95.4453C88.847 97.2284 88.3688 99.4988 88.3478 101.62Z" fill="#362F40"/>
<path d="M7.98219 91.524C5.12836 95.662 5.05753 101.262 5.60439 106.332C5.65752 106.895 5.72171 107.517 5.78813 108.04C5.79367 107.931 5.7981 107.821 5.80252 107.71C5.87448 106.173 6.15012 103.635 6.21765 102.986C6.77557 97.2046 8.49253 91.948 12.16 89.2721C13.5471 88.3066 14.9873 87.5208 16.7252 87.7334C13.712 86.6081 9.85079 88.617 7.98219 91.524Z" fill="#362F40"/>
<path d="M7.2527 104.251C7.25159 104.608 7.26708 105.07 7.30361 105.346C7.36007 104.791 7.47077 104.251 7.58036 103.708C8.68735 98.3764 10.1685 93.5199 13.6046 89.8125C9.15229 92.5359 7.11211 98.4979 7.2527 104.251Z" fill="#362F40"/>
<path d="M9.17331 103.608C9.17552 103.778 9.18328 103.971 9.19324 104.106C9.24748 103.687 9.32386 103.276 9.41131 102.867C9.84414 100.932 10.6168 98.1835 11.0973 96.7373C11.6652 95.3293 12.1124 93.7537 13.1408 92.7129C10.1109 94.9054 9.18881 99.6364 9.17331 103.608Z" fill="#362F40"/>
<path d="M10.4409 105.094C11.6608 101.617 12.3305 97.8102 13.7021 94.7051C11.5523 97.4906 10.8349 101.564 10.4409 105.094Z" fill="#362F40"/>
<path d="M73.5971 54.9805C73.431 55.802 73.2528 56.6235 72.9672 57.4014C71.7561 60.6849 69.9318 63.9617 66.9274 65.2825C70.7266 64.8691 73.276 60.4366 73.5672 56.1494C73.586 55.7782 73.6092 55.2592 73.5971 54.9805Z" fill="#362F40"/>
<path d="M34.2357 66.3424C33.0047 65.5156 32.0583 64.3718 31.4229 63.2796C30.7133 62.1463 30.0347 60.9378 29.6395 59.625C29.934 63.0365 31.9288 66.1945 34.8213 66.8866C34.9497 66.9262 35.1269 66.9843 35.2121 66.9975C34.8822 66.7915 34.5556 66.5683 34.2357 66.3424Z" fill="#362F40"/>
<path d="M76.9667 176.645C72.645 169.802 68.8381 162.554 64.9802 155.337C61.8408 149.454 58.3902 143.811 55.387 137.822C58.1821 145.546 61.2109 153.212 64.9636 160.347C68.4495 166.809 72.7236 172.589 77.4538 177.79C77.6885 178.054 77.9309 178.333 78.159 178.589C77.7527 177.945 77.3608 177.295 76.9667 176.645Z" fill="#362F40"/>
<path d="M61.4677 145.766C63.8278 151.327 66.5975 156.535 70.0702 160.976C67.5484 155.634 64.7975 150.446 61.4677 145.766Z" fill="#362F40"/>
<path d="M65.4064 147.615C66.0906 149.627 67.1322 151.497 68.3355 153.09C67.4743 151.179 66.4846 149.361 65.4064 147.615Z" fill="#362F40"/>
<path d="M84.9614 133.275C83.5113 131.011 81.7235 127.594 81.1157 125.473C79.1187 118.884 77.704 112.067 75.7612 105.457C76.8738 115.565 77.4925 126.908 85.1629 133.921C85.34 134.111 85.7496 134.435 85.826 134.458C85.4928 134.114 85.2238 133.694 84.9614 133.275Z" fill="#362F40"/>
<path d="M75.1712 116.703C74.89 122.084 76.338 127.745 78.8398 132.002C77.4051 126.981 76.2062 121.861 75.1712 116.703Z" fill="#362F40"/>
<path d="M72.438 122.285C72.9528 125.306 73.9967 128.188 75.417 130.75C74.6266 127.83 73.6059 125.019 72.438 122.285Z" fill="#362F40"/>
</g>
</svg>
