<svg width="518" height="510" viewBox="0 0 518 510" fill="none" xmlns="http://www.w3.org/2000/svg">
<g opacity="0.3">
<path d="M383.516 377.117C387.418 391.41 391.195 405.614 395.171 419.761C398.236 430.664 401.807 441.405 406.534 451.729C413.331 466.574 422.496 479.798 433.727 491.616C439.764 497.969 446.302 503.759 453.372 508.937C455.656 510.61 458.041 512.146 460.32 513.825C460.817 514.191 461.06 514.901 461.421 515.453C460.81 515.702 460.199 516.168 459.588 516.169C435.133 516.206 410.677 516.2 386.222 516.2C333.397 516.2 280.572 516.217 227.747 516.168C223.555 516.165 219.364 515.702 215.173 515.458C214.048 515.393 213.892 514.704 213.966 513.756C214.417 507.933 214.805 502.105 215.286 496.285C215.987 487.819 216.673 479.35 217.503 470.896C218.525 460.47 219.513 450.036 220.835 439.646C222.34 427.824 223.98 416.011 225.942 404.258C231.315 372.082 239.243 340.584 251.628 310.316C251.77 309.969 251.875 309.606 252.018 309.19C249.298 309.685 246.675 310.352 244.012 310.605C239.164 311.066 234.294 311.291 229.431 311.595C227.121 311.739 224.807 311.838 222.495 311.957C220.108 312.081 218.31 313.303 216.821 315.056C213.505 318.96 212 323.675 210.853 328.542C210.698 329.198 210.673 329.892 210.459 330.524C210.273 331.069 209.994 331.861 209.591 331.979C209.146 332.11 208.355 331.741 207.989 331.34C206.368 329.563 204.641 327.832 203.327 325.837C199.352 319.802 197.211 312.991 195.458 306.055C192.453 294.169 191.02 282.057 190.402 269.839C189.886 259.651 189.865 249.468 191.128 239.32C191.241 238.407 191.12 237.698 190.5 236.945C188.687 234.74 187.907 232.139 187.963 229.203C184.961 228.844 182.121 227.959 180.069 225.717C178.804 224.336 177.718 222.634 177.068 220.884C176.141 218.39 177.111 216.605 179.509 215.286C179.3 214.207 178.971 213.14 178.914 212.06C178.832 210.493 179.484 209.166 180.63 208.064C180.929 207.776 181.267 207.27 181.216 206.919C180.801 204.104 181.435 201.667 183.459 199.943C181.328 198.714 179.146 197.617 177.15 196.25C175.651 195.224 174.434 193.774 175.004 191.719C175.594 189.598 177.218 188.667 179.308 188.42C179.54 188.392 179.769 188.343 179.662 188.549C177.607 186.279 175.675 183.883 173.478 181.76C163.615 172.227 153.68 162.77 143.766 153.291C138.426 148.185 133.078 143.087 127.726 137.993C126.37 136.702 126.336 136.419 127.596 135.059C129.106 133.429 130.629 131.812 132.147 130.19C133.354 128.901 133.71 128.88 134.94 130.132C145.335 140.712 155.726 151.296 166.115 161.883C175.961 171.918 185.804 181.956 195.646 191.995C196.318 192.681 196.922 193.229 198.07 193.258C199.802 193.302 200.751 194.632 201.303 196.169C201.941 197.942 202.517 199.737 204.363 200.75C206.041 198.596 208.444 199.382 210.554 199.67C214.974 200.273 218.245 202.799 220.62 206.538C220.887 206.958 221.235 207.448 221.662 207.628C226.483 209.662 229.316 213.627 231.862 217.912C232.303 218.654 232.92 219.4 233.638 219.853C241.482 224.798 248.279 230.877 253.812 238.257C256.148 235.055 258.35 231.773 260.818 228.706C267.361 220.572 275.136 213.982 284.983 210.124C286.191 209.65 287.47 209.351 288.662 208.844C289.083 208.665 289.581 208.142 289.642 207.719C290.875 199.168 292.072 190.612 293.196 182.047C293.297 181.278 292.966 180.384 292.631 179.64C291.886 177.985 291.011 176.389 290.29 174.966C286.639 175.207 282.991 175.706 279.353 175.636C271.018 175.475 263.914 172.465 258.734 165.687C256.65 162.96 255.675 159.823 255.854 156.136C256.333 156.37 256.712 156.519 257.055 156.729C262.937 160.328 269.306 162.384 276.211 162.528C283.34 162.677 289.946 160.812 295.931 156.892C296.334 156.627 296.67 156.151 296.869 155.699C298.094 152.925 299.217 150.106 300.494 147.358C300.872 146.544 300.579 146.146 300.125 145.604C294.968 139.452 290.241 133.003 286.362 125.949C282.728 119.338 280.771 112.324 281.015 104.752C281.109 101.831 281.57 98.9642 283.15 96.447C283.55 95.8104 284.411 95.1966 285.143 95.0781C290.668 94.1828 296.111 95.0127 301.513 96.1466C311.661 98.2766 321.28 101.961 330.682 106.246C331.586 106.658 332.215 106.619 333.05 106.141C348.619 97.2329 364.325 88.5795 380.754 81.3351C385.288 79.3359 389.977 77.6794 394.631 75.9627C402.086 73.2125 409.485 73.7282 416.852 76.443C424.267 79.1757 431.052 83.1448 437.909 86.984C444.848 90.8697 451.769 94.7852 459.384 97.2728C466.865 99.7168 474.175 99.6332 481.289 96.0004C492.744 90.1506 496.03 77.9442 489.081 67.1127C488.616 66.3883 487.632 65.596 488.57 64.7181C489.612 63.7421 490.351 64.919 491.002 65.4806C496.563 70.2778 499.359 76.4781 499.896 83.7107C500.359 89.9452 499.106 95.9363 496.637 101.631C493.624 108.581 487.987 112.391 480.844 114.256C476.092 115.497 471.232 115.851 466.353 115.932C461.328 116.014 456.296 116.092 451.276 115.918C442.789 115.623 435.416 118.204 428.76 123.482C420.293 130.196 412.544 137.648 405.077 145.421C402.605 147.995 400.19 150.624 397.471 153.524C398.178 154.086 398.883 154.525 399.439 155.107C404.943 160.868 410.431 166.644 415.901 172.437C417.308 173.926 417.228 174.34 415.543 175.434C406.559 181.266 396.692 184.701 386.087 185.86C381.353 186.378 376.554 186.305 371.785 186.498C371.459 186.511 371.133 186.5 370.718 186.5C370.15 192.483 370.066 198.324 372.06 204.023C373.056 206.871 374.881 209.157 377.301 210.787C382.136 214.043 387.079 217.147 392.074 220.152C398.738 224.161 405.329 228.221 411.201 233.399C428.57 248.713 427.652 272.906 416.981 287.031C416.658 287.458 416.43 288.22 416.575 288.7C419.748 299.191 416.677 308.12 409.35 315.651C403.906 321.245 397.988 326.385 392.205 331.643C387.99 335.475 383.664 339.185 379.356 342.914C378.63 343.542 378.357 344.178 378.434 345.145C379.184 354.592 380.677 363.925 382.663 373.185C382.936 374.457 383.205 375.729 383.516 377.117ZM237.206 224.893C236.044 224.074 234.883 223.255 233.489 222.273C233.74 223.688 233.938 224.8 234.104 226.125C234.184 226.551 234.263 226.977 234.317 227.661C234.38 229.54 234.443 231.42 234.398 233.524C234.389 234.276 234.38 235.028 234.314 236.029C233.959 237.766 234.399 239.695 233.438 241.286C233.245 241.26 233.052 241.234 232.858 241.208C232.751 238.834 232.643 236.46 232.571 233.82C232.472 232.902 232.374 231.983 232.307 230.825C232.186 229.857 232.064 228.888 231.966 227.714C231.866 227.314 231.767 226.913 231.681 226.281C231.485 225.337 231.334 224.381 231.086 223.45C229.802 218.633 227.624 214.345 223.632 211.176C223.033 210.701 222.327 210.362 221.671 209.961C221.635 210.658 221.806 211.097 221.971 211.539C224.955 219.541 225.377 227.531 221.812 235.483C221.642 235.862 221.21 236.123 220.9 236.439C220.864 235.975 220.675 235.458 220.816 235.056C222.047 231.553 222.597 227.961 222.499 224.248C222.353 218.7 220.624 213.547 218.722 208.419C217.211 204.342 214.109 202.433 209.937 201.679C209.903 201.771 209.87 201.864 209.935 202.123C216.85 208.562 219.719 216.648 219.516 225.931C219.407 230.918 217.973 235.643 216.163 240.232C213.245 247.637 210.079 254.945 207.229 262.374C203.666 271.661 201.351 281.247 201.184 291.261C201.07 298.031 201.492 304.77 202.537 311.46C203.253 316.046 204.305 320.555 206.244 324.801C206.844 326.113 207.635 327.338 208.53 328.946C208.747 328.14 208.841 327.827 208.915 327.509C209.944 323.058 211.5 318.824 214.043 314.991C214.491 314.316 214.871 313.596 215.471 312.885C215.576 312.702 215.681 312.519 215.766 312.334C215.766 312.334 215.772 312.354 215.974 312.402C216.99 311.494 218.006 310.587 219.25 309.602C223.325 306.614 227.632 304.07 232.535 302.679C233.007 302.545 233.527 302.584 234.025 302.543C234.059 302.689 234.094 302.836 234.128 302.982C230.248 305.088 226.368 307.193 222.17 309.47C225.059 309.47 227.448 309.493 229.837 309.466C237.29 309.382 244.697 308.918 251.923 306.859C252.853 306.594 253.361 306.127 253.736 305.246C255.743 300.538 257.69 295.798 259.909 291.189C261.134 288.645 262.836 286.329 264.367 283.938C264.518 283.702 264.981 283.665 265.299 283.535C265.266 283.872 265.326 284.255 265.184 284.537C264.165 286.562 262.993 288.518 262.087 290.59C261.088 292.878 260.402 295.3 259.437 297.605C257.015 303.393 254.374 309.094 252.067 314.927C243.096 337.609 236.424 360.986 231.759 384.904C229.008 399.013 226.813 413.234 224.538 427.431C223.57 433.477 223.035 439.592 222.215 445.888C222.079 447.325 221.944 448.761 221.677 450.417C219.497 470.158 217.851 489.945 216.38 509.832C219.728 509.662 222.858 509.376 225.988 509.367C234.247 509.342 242.506 509.454 250.765 509.479C262.603 509.515 274.442 509.478 286.279 509.553C296.714 509.619 307.148 509.791 317.581 509.935C318.35 509.946 319.117 510.118 320.061 510.238C318.755 511.54 299.037 511.699 268.312 511.38C251.001 511.201 233.684 512.405 216.335 511.209C216.231 511.993 216.156 512.556 216.056 513.303C220.146 513.582 224.13 514.09 228.114 514.092C303.843 514.139 379.571 514.126 455.299 514.124C455.7 514.124 456.1 514.091 456.706 514.064C454.537 512.259 452.582 510.599 449.704 511.442C449.57 511.481 449.415 511.45 449.27 511.451C442.027 511.502 434.784 511.602 427.541 511.594C413.966 511.579 400.392 511.505 386.818 511.451C375.9 511.408 364.983 511.375 354.065 511.298C350.927 511.276 347.789 511.132 344.653 511.008C344.242 510.992 343.839 510.766 343.433 510.637C343.466 510.393 343.499 510.15 343.533 509.906C379.087 509.303 414.651 509.743 450.207 509.288C449.964 509.092 449.705 508.878 449.439 508.671C440.166 501.473 431.788 493.357 424.375 484.25C422.614 482.086 420.834 479.936 419.105 477.551C417.675 475.464 416.246 473.377 414.728 471.118C414.622 471.061 414.516 471.005 414.408 470.959C414.408 470.959 414.419 470.956 414.452 470.748C414.345 470.532 414.259 470.304 414.13 470.104C407.307 459.53 402.111 448.179 398.142 436.266C392.312 418.769 387.295 401.033 382.791 383.152C380.362 373.505 378.385 363.765 377.233 353.872C376.929 351.261 376.63 348.648 376.31 345.871C375.976 346.107 375.775 346.217 375.612 346.369C365.845 355.46 356.453 364.923 347.677 374.976C342.627 380.761 337.77 386.716 332.793 392.566C332.429 392.994 331.8 393.409 331.288 393.416C330.989 393.42 330.47 392.632 330.403 392.151C329.18 383.306 328.005 374.455 326.833 365.603C326.516 363.208 326.243 360.807 325.924 358.205C324.391 360.533 323.077 362.668 321.627 364.707C316.082 372.503 309.294 378.851 300.143 382.156C292.205 385.022 283.953 385.828 275.587 384.821C265.631 383.623 257.742 378.898 252.696 370.131C246.672 359.666 245.272 348.29 247.188 336.508C247.954 331.801 250.013 327.564 253.826 324.441C258.089 320.948 263.057 320.382 268.331 321.032C276.68 322.06 283.364 330.902 281.843 339.042C281.771 339.427 281.331 339.954 280.989 340.017C280.66 340.078 280.088 339.711 279.884 339.374C279.517 338.764 279.372 338.025 279.087 337.36C276.579 331.51 271.997 329.857 266.242 332.571C262.35 334.406 259.997 337.277 259.872 341.629C259.738 346.327 261.499 350.338 264.982 353.484C268.377 356.551 272.677 356.959 276.327 354.472C283.433 349.629 287.201 342.329 283.988 333.266C282.636 329.452 280.957 325.751 279.354 322.03C277.436 317.576 276.156 313.03 276.77 308.106C277.074 305.664 277.239 303.204 277.527 300.76C278.531 292.227 279.519 283.692 280.593 275.168C281.746 266.021 282.974 256.883 284.198 247.745C285.5 238.034 286.837 228.327 288.156 218.618C288.492 216.149 288.82 213.678 289.156 211.175C280.042 211.952 260.457 228.56 256.354 238.905C261.108 241.61 264.598 245.387 266.029 250.86C265.515 250.678 265.15 250.352 264.851 249.973C263.566 248.347 262.405 246.607 260.994 245.101C259.887 243.92 258.478 243.022 257.204 241.998C257.091 242.097 256.979 242.195 256.866 242.294C259.54 247.403 259.932 252.783 258.991 258.33C258.593 257.945 258.478 257.518 258.439 257.085C258.279 255.306 258.175 253.522 257.99 251.746C257.574 247.748 255.463 244.509 253.279 241.297C249.361 235.533 244.612 230.568 238.974 226.245C238.428 225.85 237.882 225.455 237.206 224.893ZM257.017 158.104C256.951 158.045 256.885 157.986 256.82 157.927C256.85 158.073 256.88 158.219 256.9 158.588C258.329 163.757 261.341 167.702 266.028 170.33C271.426 173.355 277.272 174.076 283.575 173.654C290.451 173.034 296.891 171.122 302.738 167.316C302.311 166.128 301.7 165.03 302.779 163.783C303.872 165.716 304.614 168.558 307.441 166.973C310.195 165.429 308.543 163.24 307.251 161.328C310.506 161.555 311.284 164.577 309.237 167.901C309.816 169.41 310.37 170.842 310.914 172.278C312.055 175.293 313.74 177.88 316.624 179.514C320.947 181.963 326.231 181.077 330.32 177.228C330.909 176.675 331.513 175.818 332.379 176.589C333.201 177.32 332.528 178.095 332.069 178.763C331.235 179.977 330.371 181.17 329.326 182.646C331.842 182.5 334.07 182.371 336.258 182.244C336.423 181.139 336.559 180.23 336.694 179.321C336.853 179.31 337.012 179.299 337.17 179.288C337.499 180.359 337.868 181.419 338.15 182.502C339.113 186.197 341.648 188.419 345.034 189.785C347.636 190.835 350.133 190.507 352.456 188.903C356.247 186.285 358.655 180.339 357.765 175.863C357.118 172.607 355.018 170.729 351.993 169.805C349.294 168.981 347.222 170.239 345.388 172.079C344.499 172.972 343.588 173.844 342.687 174.725C342.496 174.701 342.304 174.677 342.112 174.652C341.448 171.364 340.626 168.098 340.163 164.781C339.68 161.318 340.339 157.971 342.298 154.968C339.343 152.893 336.505 150.9 333.618 148.872C331.918 150.067 329.995 150.335 327.81 150.015C325.099 148.528 322.389 147.041 319.576 145.382C318.489 144.106 317.206 142.947 316.355 141.528C314.691 138.753 315.586 136.272 317.786 134.182C316.462 132.559 316.347 132.424 314.819 133.72C312.261 135.891 309.647 138.063 307.453 140.58C304.183 144.331 301.773 148.672 300.059 153.453C300.077 153.494 300.096 153.535 300.114 153.575C300.12 153.515 300.125 153.454 300.327 153.466C302.825 150.672 305.323 147.879 307.821 145.085C307.202 147.811 305.777 150.144 304.09 152.318C298.864 159.055 292.041 163.133 283.369 164.467C278.955 165.135 274.623 164.492 270.347 163.501C265.671 162.417 260.904 161.487 257.017 158.104ZM404.377 142.756C404.848 142.344 405.318 141.933 405.95 141.429C411.702 135.873 417.339 130.19 423.251 124.81C426.63 121.736 430.306 118.925 434.116 116.399C441.691 111.375 450.385 110.137 459.234 109.664C459.552 109.647 459.88 109.817 460.203 109.9C460.21 110.069 460.217 110.239 460.225 110.409C454.727 111.579 449.229 112.749 443.731 113.92C444.848 114.152 445.9 114 446.954 113.984C453.373 113.891 459.796 113.922 466.212 113.72C470.009 113.6 473.83 113.349 477.578 112.76C482.969 111.911 487.902 109.901 491.613 105.64C494.693 102.103 496.097 97.7922 497.03 93.3215C497.818 89.547 498.374 85.7294 497.522 81.8515C497.36 83.9966 497.34 86.1302 497.014 88.2158C496.109 94.0074 493.748 99.0907 489.304 103.062C488.932 103.395 488.445 103.601 487.95 103.905C487.843 103.533 487.767 103.414 487.799 103.356C488.192 102.647 488.601 101.946 489.156 101.125C489.463 100.752 489.775 100.384 490.075 100.005C494.032 95.01 496.727 89.5781 495.885 82.9537C495.676 81.3055 495.374 79.669 495.115 78.0271C494.74 79.8718 494.724 81.6933 494.259 83.3915C491.765 92.4881 485.346 97.5634 476.618 100.038C470.053 101.9 463.357 101.917 456.674 100.724C454.229 100.288 451.807 99.622 449.449 98.8354C448.57 98.542 447.905 97.6053 447.143 96.962C447.246 96.7715 447.35 96.581 447.453 96.3905C450.66 98.1068 454.012 99.2042 457.963 99.239C457.56 98.9892 457.457 98.8973 457.336 98.8542C449.979 96.2293 443.213 92.4055 436.436 88.5939C430.084 85.0218 423.759 81.4064 416.941 78.7358C409.393 75.7794 401.821 75.2595 394.227 78.3202C387.16 81.1682 380.107 84.0678 373.163 87.2013C368.248 89.4193 363.526 92.065 358.516 94.5501C357.707 94.9865 356.898 95.4229 355.893 95.9384C348.768 99.8327 341.643 103.727 334.22 107.784C335.077 108.253 335.52 108.518 335.981 108.746C344.553 112.984 353.016 117.467 360.789 123.033C368.782 128.756 376.425 134.967 384.318 141.133C388.25 144.653 392.181 148.173 396.192 151.764C397.159 150.723 398.082 149.752 398.978 148.758C400.741 146.805 402.489 144.838 404.377 142.756ZM325.924 182.34C318.406 184.659 311.981 180.547 309.332 174.004C308.809 172.712 308.353 171.392 307.804 170.111C307.437 169.255 304.517 168.198 303.774 168.712C300.297 171.117 296.506 172.845 292.057 174.191C293.269 176.182 294.206 178.146 295.526 179.804C298.579 183.636 302.71 185.976 307.203 187.793C314.587 190.779 321.427 187.819 326.449 182.405C326.455 182.34 326.461 182.274 326.466 182.208C326.362 182.243 326.257 182.278 325.924 182.34ZM346.518 277.709C346.466 277.725 346.413 277.741 346.36 277.758C346.398 277.811 346.436 277.865 346.437 278.145C346.685 279.15 346.932 280.154 347.153 281.417C347.613 284.857 347.908 288.292 346.935 291.724C346.643 291.307 346.565 290.875 346.528 290.438C346.335 288.133 346.228 285.817 345.95 283.522C345.268 277.904 342.627 273.529 337.592 270.736C333.918 268.697 327.927 268.966 324.37 271.22C335.026 274.058 341.429 278.688 340.978 283.799C337.87 277.572 332.772 274.815 326.477 273.576C326.297 273.576 326.117 273.576 325.937 273.576C325.936 273.621 325.935 273.666 325.934 273.711C326.114 273.754 326.294 273.796 326.596 273.994C328.201 275.066 329.845 276.085 331.405 277.219C335.621 280.282 338.801 284.07 340.105 289.286C341.772 295.948 342.184 302.721 342.24 309.541C342.338 321.491 341.448 333.383 339.902 345.219C338.49 356.03 336.855 366.813 335.27 377.601C334.768 381.025 334.11 384.425 333.523 387.836C335.123 386.05 337.004 384.606 337.621 382.061C340.76 369.117 342.405 355.961 343.309 342.707C343.878 334.374 344.152 326.021 344.577 317.678C344.6 317.23 344.804 316.792 344.924 316.349C345.069 316.356 345.215 316.363 345.361 316.369C345.467 316.754 345.631 317.132 345.672 317.523C346.309 323.649 346.11 329.773 345.53 335.887C344.927 342.23 344.336 348.575 343.593 354.902C342.867 361.081 342.026 367.248 341.092 373.399C340.708 375.931 339.95 378.406 339.267 381.309C340.157 380.286 340.763 379.546 341.415 378.849C349.624 370.063 357.841 361.284 366.047 352.496C366.362 352.159 366.593 351.744 367.01 351.257C367.921 350.466 368.831 349.675 369.92 348.803C377.917 341.661 385.9 334.504 393.916 327.383C399.512 322.411 405.256 317.604 409.964 311.715C415.257 305.094 416.921 297.794 414.6 289.564C413.027 283.991 410.665 278.776 407.844 273.76C401.133 261.827 392.772 251.076 383.725 240.868C379.121 235.673 374.306 230.626 369.213 225.916C365.053 222.069 359.901 219.738 354.245 218.736C353.412 218.588 352.516 218.279 352.358 219.695C352.02 222.714 351.59 225.724 351.181 228.736C350.063 236.959 348.935 245.182 347.813 253.405C346.914 260.004 346.049 266.607 345.097 273.198C344.878 274.715 345.407 275.219 346.837 275.692C349.752 276.656 352.764 277.633 355.331 279.247C357.352 280.517 358.998 280.29 360.624 279.836C358.164 273.335 355.719 266.896 353.302 260.446C353.079 259.851 353.032 259.189 352.904 258.558C353.09 258.495 353.275 258.431 353.461 258.367C354.168 259.491 355.025 260.548 355.558 261.75C358.024 267.308 360.42 272.897 362.785 278.5C363.153 279.372 363.6 279.619 364.512 279.526C369.485 279.019 374.454 279.131 379.392 279.899C384.738 280.731 389.836 282.292 394.361 285.379C394.91 285.753 395.373 286.253 395.876 286.694C395.77 286.9 395.664 287.105 395.558 287.31C389.972 284.609 384.152 282.813 378.011 282.114C371.844 281.412 365.702 281.508 359.328 282.172C361.908 285.19 363.683 288.364 363.606 292.307C363.087 291.957 362.781 291.499 362.624 290.995C361.493 287.347 359.61 284.203 356.512 281.891C353.708 279.798 350.434 278.782 346.978 277.851C346.837 277.838 346.696 277.825 346.518 277.709ZM278.412 331.965C278.475 331.992 278.537 332.019 278.6 332.046C278.599 331.901 278.597 331.757 278.564 331.402C278.02 330.385 277.549 329.319 276.919 328.358C272.857 322.157 262.934 321.857 257.883 324.363C252.965 326.804 250.525 331.123 249.444 336.194C247.425 345.657 248.537 354.935 251.997 363.902C255.338 372.56 261.227 378.743 270.258 381.552C275.837 383.287 281.564 383.388 287.331 382.799C295.142 382.001 302.445 379.859 308.821 375.045C315.995 369.629 321.069 362.538 325.262 354.728C325.468 354.345 325.452 353.795 325.411 353.334C324.918 347.803 324.376 342.277 323.898 336.746C323.479 331.901 323.126 327.05 322.743 322.189C319.663 321.419 317.434 319.555 315.478 317.28C313.509 314.99 312.823 312.169 312.198 309.217C311.221 311.118 311.307 311.839 311.857 315.071C312.534 319.055 313.051 323.069 313.504 327.084C313.641 328.297 313.237 329.553 311.883 330.037C310.432 330.555 309.245 329.874 308.507 328.724C307.446 327.073 306.402 325.357 305.712 323.533C304.019 319.059 302.429 314.528 303.142 309.188C301.746 311.286 301.485 313.2 301.552 315.204C301.677 318.969 301.855 322.734 301.858 326.5C301.859 327.664 301.551 328.916 301.055 329.973C300.272 331.64 298.331 331.883 297.1 330.509C296.411 329.74 295.855 328.777 295.488 327.807C293.35 322.15 292.858 316.267 293.301 310.283C293.482 307.833 294.368 305.621 295.666 303.528C299.57 297.231 303.941 291.283 308.956 285.832C310.549 284.101 312.384 282.581 314.194 281.067C315.261 280.175 317.062 279.714 317.5 278.639C317.97 277.485 317.245 275.835 317.011 274.407C316.859 273.484 316.919 272.696 317.864 272.182C319.796 271.13 321.641 269.888 323.645 269.002C327.432 267.328 331.413 266.673 335.507 267.698C338.328 268.404 340.801 269.861 343.268 271.932C346.412 244.808 351.292 218.174 353.395 191.039C353.009 191.174 352.789 191.232 352.585 191.325C346.616 194.051 339.522 191.206 336.959 185.102C336.818 184.767 336.226 184.417 335.848 184.422C333.919 184.444 331.986 184.716 330.065 184.638C328.181 184.562 326.768 185.083 325.28 186.332C321.101 189.837 316.292 191.802 310.704 190.864C305.387 189.972 300.805 187.478 296.687 184.07C296.256 183.714 295.828 183.354 295.28 182.897C294.778 186.371 294.286 189.653 293.833 192.939C291.31 211.25 288.694 229.548 286.307 247.877C283.776 267.308 281.451 286.767 279.071 306.217C278.648 309.675 278.318 313.194 279.614 316.534C281.944 322.539 284.416 328.488 286.84 334.487C287.695 329.312 287.107 324.152 286.593 318.943C287.051 319.336 287.259 319.771 287.406 320.225C290.384 329.443 289.568 338.429 285.546 347.136C283.706 351.119 280.836 354.314 277.015 356.547C272.747 359.041 267.871 358.633 264.043 355.493C260.693 352.745 258.781 349.159 257.985 344.925C256.839 338.828 259.255 333.785 264.745 330.937C267.124 329.704 269.638 328.991 272.343 328.897C270.725 328.735 269.099 328.656 267.533 328.923C262.076 329.854 258.237 333.015 255.925 338.158C255.71 338.023 255.495 337.888 255.28 337.754C255.558 336.762 255.716 335.716 256.135 334.788C258.477 329.603 266.472 325.94 272.232 327.27C274.965 327.901 276.742 329.717 278.412 331.965ZM308.548 114.13C306.36 110.772 304.338 107.286 301.926 104.096C300.173 101.777 297.954 99.7943 295.828 97.7817C295.292 97.2741 294.32 97.2275 293.548 96.9691C293.493 97.0962 293.439 97.2233 293.384 97.3504C297.844 100.59 300.82 105.002 303.322 109.795C308.62 119.942 315.435 128.986 323.52 137.053C339.214 152.711 357.94 163.035 379.389 168.505C389.159 170.996 399.099 172.28 409.151 172.792C410.463 172.859 411.781 172.801 413.205 172.801C411.635 170.619 411.625 170.735 409.219 170.534C401.574 169.896 393.905 169.404 386.306 168.399C378.944 167.426 371.909 165.144 365.451 161.338C364.955 161.046 364.524 160.641 364.063 160.289C364.15 160.103 364.237 159.918 364.324 159.732C371.534 162.726 378.752 165.682 386.474 167.045C394.21 168.411 402.022 168.881 410.066 169.255C409.647 168.756 409.397 168.41 409.099 168.112C402.776 161.799 396.597 155.332 390.089 149.215C375.67 135.662 360.003 123.78 342.463 114.477C329.672 107.694 316.531 101.812 302.364 98.496C300.965 98.1687 299.547 97.9255 298.138 97.6432C298.607 98.3994 299.229 98.8093 299.662 99.3662C301.851 102.18 304.019 105.011 306.14 107.876C310.568 113.854 314.965 119.856 319.362 125.857C319.698 126.316 319.933 126.847 320.215 127.345C320.047 127.464 319.879 127.583 319.711 127.702C315.357 123.814 312.034 119.037 308.548 114.13ZM372.272 225.563C372.67 225.913 373.109 226.228 373.461 226.619C379.438 233.253 385.585 239.746 391.33 246.575C399.391 256.156 406.694 266.302 412.247 277.593C413.447 280.033 414.458 282.566 415.605 285.167C415.892 284.793 416.135 284.508 416.343 284.2C425.154 271.174 425.754 249.881 410.76 235.915C405.672 231.175 399.951 227.364 394.028 223.792C388.249 220.306 382.465 216.819 376.82 213.123C373.627 211.033 370.974 208.219 370.022 204.394C369.202 201.095 368.693 197.696 368.352 194.31C368.089 191.697 368.3 189.037 368.3 186.366C365.876 186.029 363.267 185.833 360.743 185.259C359.004 184.863 358.148 185.242 357.226 186.794C356.3 188.352 355.552 189.77 355.435 191.658C355.155 196.185 354.604 200.695 354.171 205.212C353.817 208.904 353.474 212.598 353.116 216.403C360.474 217.404 366.628 220.73 372.272 225.563ZM295.24 314.769C295.454 319.025 295.897 323.245 297.539 327.231C297.84 327.961 298.388 328.589 298.822 329.264C299.005 329.213 299.188 329.163 299.371 329.113C299.533 327.845 299.847 326.575 299.829 325.309C299.779 321.786 299.604 318.265 299.454 314.744C299.333 311.92 300.211 309.405 301.847 307.159C302.782 305.875 303.847 304.681 304.899 303.486C305.535 302.764 306.194 302.028 306.967 301.471C307.398 301.161 308.083 301.205 308.654 301.09C308.504 301.61 308.452 302.189 308.181 302.636C307.812 303.246 307.007 303.691 306.858 304.318C306.168 307.21 305.042 310.172 305.192 313.05C305.438 317.777 307.062 322.296 309.451 326.452C309.81 327.076 310.393 327.571 310.873 328.126C310.997 328.071 311.122 328.017 311.246 327.962C311.317 327.412 311.516 326.843 311.438 326.315C310.849 322.312 310.171 318.323 309.601 314.318C309.421 313.05 309.117 311.617 309.513 310.484C310.602 307.365 312.009 304.355 313.351 301.329C313.551 300.879 314.08 300.574 314.456 300.202C314.59 300.27 314.723 300.338 314.856 300.406C314.784 300.884 314.829 301.423 314.62 301.832C313.377 304.262 314.003 306.73 314.376 309.201C315.052 313.677 317.211 317.166 321.239 319.356C322.01 319.775 322.923 319.934 323.771 320.213C323.844 320.063 323.918 319.914 323.992 319.764C323.651 319.256 323.321 318.74 322.967 318.24C321.907 316.744 320.764 315.299 319.785 313.752C317.419 310.016 317.007 306.171 319.516 302.323C320.737 300.448 321.606 298.477 322.125 296.284C322.637 294.128 322.889 292.04 322.296 289.871C322.043 288.944 321.982 287.965 321.833 287.01C322.024 286.968 322.215 286.926 322.406 286.883C325.205 289.307 324.955 292.692 324.862 296.072C329.512 295.982 333.408 298.131 337.64 299.908C337.395 298.459 337.223 297.177 336.956 295.915C335.745 290.179 333.8 284.776 329.803 280.311C328.84 279.235 327.923 278.763 326.265 278.988C319.846 279.857 314.381 282.389 310.332 287.502C306.319 292.57 302.484 297.778 298.564 302.92C295.952 306.346 294.992 310.243 295.24 314.769ZM190.707 230.557C190.563 230.959 190.216 231.414 190.305 231.755C191.596 236.659 195.146 239.219 199.805 240.226C202.339 240.773 204.691 241.493 206.803 242.98C206.866 243.024 206.986 242.985 207.223 242.985C209.908 238.172 212.626 233.297 215.402 228.321C214.351 227.67 213.379 227.068 212.424 226.476C211.466 227.186 210.624 227.922 209.675 228.474C209.046 228.84 208.262 228.941 207.548 229.16C207.972 228.59 208.335 227.958 208.832 227.461C211.446 224.853 213.266 221.998 212.298 218.052C211.449 214.596 209.355 211.904 207.117 209.291C204.195 205.879 201.159 202.557 199.77 198.125C199.411 196.978 199.189 195.336 197.633 195.404C196.193 195.467 195.801 197.002 195.48 198.198C194.018 203.637 195.441 208.31 199.478 212.166C200.271 212.924 200.431 213.502 200.062 214.539C199.551 215.977 199.181 217.497 199 219.012C198.518 223.039 199.838 226.621 201.986 229.959C202.485 230.735 202.93 231.547 203.4 232.343C203.228 232.449 203.056 232.555 202.885 232.661C199.994 230.269 198.3 227.045 197.05 223.435C196.693 223.639 196.444 223.774 196.202 223.921C193.649 225.466 192.241 227.941 190.707 230.557ZM166.276 165.049C155.419 154.005 144.561 142.961 133.605 131.817C132.108 133.398 130.703 134.882 129.227 136.441C150.562 156.855 171.749 177.128 192.961 197.426C193.647 196.265 194.252 195.244 194.861 194.213C190.075 189.329 185.347 184.502 180.617 179.676C175.885 174.848 171.153 170.021 166.276 165.049ZM363.063 165.466C359.004 163.594 354.952 161.707 350.878 159.869C350.424 159.664 349.713 159.501 349.346 159.711C346.39 161.405 344.337 166.233 345.011 169.681C348.881 166.848 351.684 166.708 355.601 169.146C359.358 171.484 360.175 175.156 360.013 179.433C364.615 176.539 367.564 172.655 369.629 167.906C367.404 167.084 365.336 166.321 363.063 165.466ZM192.874 204.661C192.874 203.473 192.874 202.286 192.874 200.903C191.348 200.739 189.923 200.443 188.503 200.465C186.436 200.499 184.528 201.131 183.641 203.233C182.756 205.327 183.148 207.352 184.598 209.063C186.486 211.292 188.988 212.294 191.893 212.328C193.228 212.343 194.386 211.874 194.711 210.536C195.019 209.272 194.161 208.322 193.135 207.701C191.536 206.732 189.868 205.878 188.238 204.959C187.808 204.716 187.411 204.412 186.999 204.135C189.061 203.464 190.835 204.247 192.874 204.661ZM317.452 136.066C316.081 138.211 316.078 139.9 317.841 141.849C320.626 144.926 323.942 147.316 327.906 148.69C329.537 149.256 331.102 149.05 332.445 148.173C327.759 143.832 323.091 139.507 318.171 134.949C318.046 135.145 317.81 135.515 317.452 136.066ZM179.629 221.813C181.356 224.93 184.129 226.481 187.541 227.002C189.188 227.253 190.777 226.111 191.156 224.55C191.503 223.119 190.689 221.246 189.392 221.002C186.632 220.485 184.194 219.344 181.864 217.819C181.327 217.468 180.239 217.384 179.744 217.704C179.252 218.023 179.024 218.994 178.986 219.696C178.952 220.323 179.333 220.974 179.629 221.813ZM186.917 194.576C186.079 193.777 185.11 193.075 184.432 192.158C183.096 190.35 181.268 190.209 179.387 190.588C178.562 190.755 177.581 191.429 177.218 192.149C176.99 192.601 177.607 193.736 178.14 194.271C180.292 196.427 183.08 197.428 185.981 198.04C187.47 198.354 189.029 198.332 190.399 198.449C189.247 197.161 188.156 195.94 186.917 194.576ZM190.891 214.415C187.315 214.065 184.427 212.439 182.237 209.602C180.472 211.367 180.571 213.535 182.585 215.491C184.535 217.385 186.955 218.538 189.644 218.8C190.553 218.888 191.712 218.331 192.436 217.701C192.881 217.313 192.955 216.154 192.747 215.479C192.602 215.007 191.7 214.768 190.891 214.415ZM343.388 166.424C343.925 163.217 345.249 160.41 347.743 158.155C346.488 157.418 345.345 156.747 344.12 156.028C341.523 160.245 341.892 164.537 343.161 168.916C343.227 168.168 343.294 167.421 343.388 166.424ZM197.801 214.34C197.422 213.618 197.043 212.896 196.631 212.11C195.778 212.884 195.181 213.425 194.597 213.955C195.599 217.35 195.286 218.285 192.475 220.562C192.848 221.734 193.208 222.865 193.563 223.98C194.383 223.409 195.282 222.852 196.091 222.187C196.392 221.939 196.58 221.454 196.654 221.047C197.048 218.886 197.389 216.716 197.801 214.34ZM214.532 214.226C214.036 213.61 213.54 212.995 213.044 212.379C213.372 214.222 214.062 215.744 214.477 217.338C214.83 218.693 215.788 219.291 216.995 220.287C216.73 217.816 216.541 215.768 214.532 214.226ZM320.453 305.088C319.304 307.856 320.123 310.286 321.848 312.567C321.56 309.878 321.272 307.19 320.97 304.372C320.761 304.614 320.639 304.755 320.453 305.088ZM278.756 332.474C278.806 332.478 278.856 332.483 278.906 332.487C278.884 332.456 278.862 332.425 278.756 332.474Z" fill="#2A1C1D"/>
<path d="M113.838 107.187C117.653 104.235 118.78 100.083 119.457 95.7133C119.649 94.4735 119.797 93.225 120.047 91.9972C120.116 91.6557 120.478 91.3737 120.706 91.0645C120.939 91.3767 121.315 91.6616 121.381 92.0056C121.811 94.2795 122.109 96.5796 122.574 98.846C124.013 105.874 128.962 109.167 135.445 110.754C136.866 111.101 138.321 111.31 139.76 111.582C139.769 111.704 139.777 111.826 139.786 111.947C139.32 112.044 138.843 112.104 138.39 112.242C135.546 113.105 132.573 113.694 129.895 114.924C124.905 117.214 122.889 121.694 122.102 126.858C121.876 128.337 121.709 129.826 121.419 131.292C121.335 131.718 120.917 132.078 120.652 132.468C120.434 132.095 120.094 131.744 120.019 131.344C119.675 129.496 119.42 127.631 119.103 125.777C117.832 118.355 113.039 114.463 106.043 112.816C104.611 112.479 103.154 112.248 101.674 111.767C105.967 110.891 110.193 109.941 113.838 107.187ZM121.075 123.768C122.723 117.18 127.121 113.457 133.794 111.805C130.429 110.83 127.469 109.583 125.116 107.242C122.775 104.912 121.575 101.973 120.774 98.6845C118.359 106.546 115.621 109.191 107.8 111.86C114.786 113.548 119.13 117.788 120.854 124.674C120.904 124.439 120.954 124.204 121.075 123.768Z" fill="#2F211E"/>
<path d="M103.199 145.334C102.852 147.002 102.564 148.565 102.194 150.108C102.099 150.508 101.748 150.846 101.514 151.213C101.242 150.822 100.858 150.465 100.724 150.032C100.512 149.348 100.429 148.615 100.358 147.897C99.9013 143.246 97.1806 140.639 92.8184 139.505C91.8685 139.258 90.9135 139.031 89.9463 138.461C90.3724 138.332 90.7956 138.191 91.2252 138.074C92.0144 137.859 92.8136 137.679 93.5976 137.447C97.5772 136.271 99.8393 133.639 100.337 129.499C100.446 128.591 100.604 127.684 100.829 126.8C100.904 126.504 101.259 126.28 101.485 126.023C101.707 126.282 102.054 126.509 102.128 126.804C102.359 127.737 102.534 128.691 102.65 129.646C103.138 133.686 105.403 136.216 109.224 137.413C110.455 137.799 111.718 138.084 113.033 138.732C112.493 138.887 111.928 138.984 111.418 139.207C109.367 140.105 107.206 140.844 105.344 142.044C104.363 142.676 103.916 144.136 103.199 145.334ZM98.8121 140.868C99.7353 142.158 100.659 143.447 101.656 144.842C102.666 141.716 104.878 139.794 108.137 138.58C104.739 137.409 102.64 135.372 101.629 132.362C100.703 133.688 99.9865 135.077 98.9293 136.121C97.8767 137.16 96.4818 137.853 95.3239 138.638C96.3982 139.312 97.5283 140.021 98.8121 140.868Z" fill="#2F211E"/>
<path d="M90.784 86.0775C91.1119 88.0763 91.4701 90.0126 93.2785 91.0348C94.8628 91.9302 96.608 92.5412 98.5296 93.3867C97.4587 93.7155 96.6104 93.9822 95.7583 94.2363C92.8752 95.0958 91.2063 96.9814 90.8446 99.9968C90.7702 100.617 90.6756 101.245 90.4834 101.835C90.3832 102.142 90.0498 102.373 89.8217 102.638C89.5823 102.372 89.2266 102.142 89.1279 101.831C88.9257 101.193 88.8215 100.516 88.7471 99.8471C88.4292 96.9867 86.8246 95.2095 84.1499 94.3228C83.2177 94.0137 82.2757 93.7339 81.3485 93.1059C81.9121 92.919 82.466 92.6918 83.041 92.5518C86.3714 91.741 88.54 89.8811 88.8013 86.2643C88.8081 86.1699 88.8392 86.0733 88.8776 85.9859C89.186 85.2844 89.4989 84.5849 89.8104 83.8848C90.1306 84.576 90.4507 85.2672 90.784 86.0775ZM91.0331 90.9285C90.6281 90.2967 90.2231 89.6649 89.951 89.2404C88.6864 90.6503 87.4369 92.0434 86.3498 93.2555C87.4761 94.529 88.719 95.9343 89.8086 97.1663C90.9242 95.9227 92.1887 94.5131 93.3936 93.17C92.7564 92.5798 91.9561 91.8384 91.0331 90.9285Z" fill="#2F211E"/>
<path d="M151.239 124.196C147.818 125.12 146.227 127.374 145.868 130.698C145.795 131.373 145.324 132.005 145.036 132.657C144.716 132.039 144.169 131.44 144.113 130.799C143.772 126.853 141.51 124.748 137.813 123.91C137.376 123.811 136.95 123.662 136.518 123.194C136.936 123.041 137.342 122.832 137.774 122.743C141.518 121.973 143.733 119.837 144.107 115.911C144.17 115.246 144.673 114.623 144.973 113.98C145.279 114.621 145.797 115.243 145.856 115.906C146.201 119.77 148.349 121.913 152.034 122.711C152.52 122.817 152.987 123.005 153.46 123.514C152.756 123.729 152.051 123.944 151.239 124.196ZM146.017 125.892C146.758 124.886 147.499 123.879 148.149 122.997C147.344 122.098 146.088 120.696 144.99 119.469C143.82 120.762 142.569 122.145 141.502 123.324C142.647 124.608 143.868 125.976 145.125 127.384C145.335 127.026 145.617 126.544 146.017 125.892Z" fill="#2F211E"/>
<path d="M210.022 201.771C214.109 202.434 217.211 204.342 218.722 208.419C220.624 213.547 222.353 218.7 222.499 224.248C222.597 227.961 222.047 231.553 220.816 235.057C220.675 235.458 220.864 235.975 220.9 236.439C221.21 236.123 221.642 235.862 221.812 235.483C225.377 227.531 224.955 219.541 221.971 211.54C221.806 211.098 221.635 210.658 221.671 209.961C222.327 210.363 223.033 210.701 223.632 211.176C227.624 214.345 229.802 218.633 231.086 223.451C231.334 224.381 231.485 225.337 231.572 226.424C230.417 226.92 229.34 227.21 228.344 227.671C228.068 227.799 227.782 228.644 227.92 228.811C229.41 230.61 230.984 232.338 232.535 234.086C232.643 236.46 232.751 238.834 232.858 241.208C233.052 241.234 233.245 241.26 233.438 241.286C234.399 239.695 233.958 237.766 234.428 235.943C236.372 237.078 238.202 238.298 240.314 239.706C235.498 241.228 230.922 242.668 226.352 244.125C225.906 244.267 225.493 244.513 225.065 244.71C225.367 245.111 225.592 245.622 225.983 245.895C232.272 250.296 238.58 254.667 244.887 259.041C245.46 259.438 246.05 259.811 246.838 260.331C245.856 260.493 245.193 260.617 244.527 260.708C235.618 261.935 226.854 263.788 218.371 266.826C217.881 267.002 217.495 267.469 217.061 267.801C217.394 268.225 217.652 268.756 218.074 269.056C221.881 271.759 226.257 273.126 230.7 274.313C232.538 274.804 234.396 275.221 236.246 275.672C229.24 277.783 222.125 279.2 215.282 281.554C215.264 281.769 215.246 281.983 215.228 282.197C221.629 285.027 228.03 287.857 234.696 290.804C232.621 291.248 230.8 291.62 228.987 292.029C222.645 293.462 216.454 295.284 211.168 299.295C210.742 299.619 210.512 300.201 210.191 300.663C210.73 300.737 211.299 300.963 211.801 300.86C217.891 299.609 223.969 298.297 230.06 297.05C230.481 296.964 230.98 297.264 231.814 297.481C232.174 297.28 232.906 296.872 233.638 296.463C233.595 296.312 233.553 296.16 233.51 296.009C227.597 295.787 221.818 297.001 215.994 297.973C217.282 297.25 218.567 296.536 219.944 296.175C225.489 294.722 231.065 293.393 236.619 291.973C237.151 291.836 237.603 291.388 238.093 291.085C237.691 290.725 237.348 290.235 236.88 290.026C232.384 288.021 227.868 286.06 223.354 284.096C221.77 283.407 220.174 282.746 218.357 281.976C218.918 281.807 219.19 281.711 219.469 281.643C226.214 279.987 232.961 278.345 239.698 276.657C240.126 276.55 240.467 276.09 240.848 275.795C240.455 275.508 240.103 275.083 239.663 274.956C235.866 273.855 232.011 272.936 228.257 271.706C225.146 270.688 222.148 269.323 218.772 267.98C219.372 267.788 219.588 267.707 219.809 267.649C229.284 265.168 238.809 262.93 248.531 261.618C248.986 261.557 249.402 261.197 249.836 260.976C249.538 260.586 249.315 260.088 248.931 259.823C242.093 255.112 235.234 250.432 228.386 245.736C228.1 245.54 227.873 245.259 227.502 244.907C228.174 244.717 228.634 244.586 229.095 244.456C233.459 243.23 237.827 242.021 242.179 240.754C242.673 240.61 243.071 240.136 243.513 239.815C243.153 239.414 242.855 238.922 242.423 238.626C239.801 236.826 237.149 235.07 234.507 233.299C234.443 231.42 234.38 229.541 234.447 227.52C236.07 227.042 237.563 226.706 239.055 226.369C244.612 230.569 249.361 235.534 253.279 241.297C255.463 244.509 257.574 247.749 257.99 251.747C258.175 253.522 258.279 255.306 258.439 257.085C258.478 257.519 258.593 257.946 258.991 258.33C259.932 252.783 259.54 247.403 256.866 242.294C256.979 242.195 257.091 242.097 257.204 241.999C258.478 243.023 259.887 243.921 260.994 245.102C262.405 246.607 263.566 248.348 264.851 249.974C265.15 250.352 265.515 250.678 266.029 250.861C264.598 245.388 261.108 241.611 256.354 238.906C260.457 228.56 280.042 211.952 289.156 211.175C288.82 213.679 288.491 216.149 288.156 218.618C286.836 228.327 285.5 238.034 284.198 247.745C282.974 256.883 281.746 266.021 280.593 275.169C279.519 283.692 278.531 292.227 277.527 300.76C277.239 303.205 277.074 305.664 276.769 308.106C276.156 313.03 277.436 317.577 279.354 322.031C280.956 325.752 282.636 329.452 283.988 333.266C287.201 342.329 283.433 349.629 276.327 354.472C272.677 356.959 268.377 356.551 264.982 353.485C261.499 350.338 259.738 346.327 259.872 341.63C259.997 337.277 262.35 334.406 266.242 332.571C271.997 329.857 276.579 331.511 279.087 337.361C279.372 338.025 279.517 338.764 279.884 339.374C280.087 339.711 280.659 340.078 280.989 340.018C281.331 339.954 281.771 339.427 281.843 339.042C283.364 330.902 276.68 322.06 268.331 321.032C263.057 320.382 258.089 320.948 253.826 324.441C250.013 327.564 247.953 331.802 247.188 336.508C245.272 348.291 246.672 359.666 252.696 370.132C257.742 378.898 265.631 383.623 275.587 384.821C283.953 385.828 292.205 385.023 300.143 382.156C309.294 378.851 316.082 372.504 321.627 364.707C323.077 362.668 324.391 360.533 325.924 358.205C326.242 360.808 326.516 363.208 326.833 365.603C328.005 374.455 329.18 383.307 330.403 392.152C330.47 392.632 330.989 393.42 331.288 393.416C331.8 393.409 332.429 392.994 332.793 392.566C337.77 386.716 342.627 380.762 347.677 374.976C356.453 364.923 365.845 355.46 375.612 346.369C375.775 346.217 375.976 346.107 376.31 345.872C376.63 348.649 376.929 351.261 377.233 353.873C378.385 363.765 380.362 373.506 382.791 383.153C387.295 401.033 392.312 418.77 398.142 436.266C402.111 448.18 407.307 459.53 414.13 470.104C414.259 470.304 414.345 470.533 414.334 470.869C414.09 470.921 413.944 470.875 413.84 470.781C407.947 465.491 402.062 460.193 396.159 454.915C395.792 454.587 395.287 454.413 394.847 454.167C394.615 454.612 394.238 455.036 394.174 455.504C392.963 464.341 391.797 473.185 390.601 482.025C390.35 483.876 390.017 485.717 389.722 487.562C387.324 482.643 385.197 477.732 383.052 472.829C381.735 469.821 380.408 466.818 379.038 463.835C378.866 463.462 378.4 463.224 378.07 462.924C377.781 463.261 377.453 463.574 377.216 463.945C377.067 464.177 377.057 464.496 376.982 464.776C376.078 468.149 375.173 471.522 374.19 475.186C373.838 474.516 373.611 474.113 373.41 473.699C368.833 464.273 364.271 454.84 359.663 445.43C359.267 444.622 358.569 443.962 358.011 443.234C357.482 444.039 356.802 444.783 356.449 445.659C353.38 453.265 351.808 461.267 350.327 469.289C349.798 472.151 349.271 475.014 348.678 478.229C348.248 477.539 348.006 477.196 347.809 476.829C346.206 473.853 344.612 470.873 343.014 467.895C339.02 460.448 334.694 453.103 332.285 444.976C329.024 433.977 326.293 422.821 323.354 411.727C322.637 409.023 322.023 406.292 321.292 403.592C321.179 403.175 320.71 402.588 320.377 402.569C320.029 402.549 319.589 403.074 319.299 403.447C319.041 403.78 318.919 404.224 318.761 404.629C316.283 410.965 313.676 417.254 311.361 423.649C305.981 438.512 301.922 453.739 299.256 469.329C298.84 471.762 298.425 474.196 297.94 477.034C297.349 475.966 296.915 475.279 296.574 474.548C293.776 468.557 291.008 462.551 288.188 456.57C287.974 456.115 287.437 455.813 287.05 455.44C286.794 455.863 286.389 456.258 286.303 456.714C285.555 460.694 284.839 464.68 284.164 468.673C283.738 471.194 283.4 473.73 282.976 476.573C282.701 476.06 282.574 475.861 282.483 475.647C277.129 462.979 271.611 450.372 268.056 437.029C267.922 436.525 267.352 436.139 266.986 435.697C266.658 436.167 266.166 436.594 266.03 437.113C265.396 439.539 264.848 441.987 264.29 444.432C262.338 452.989 260.373 461.544 259.498 470.301C259.357 471.713 259.178 473.121 259.017 474.531C258.672 474.28 258.541 474.028 258.456 473.761C256.013 466.085 253.478 458.437 251.163 450.723C249.138 443.978 247.263 437.182 246.954 430.071C246.934 429.617 246.412 429.185 246.124 428.742C245.729 429.162 245.146 429.514 244.968 430.012C240.41 442.728 235.886 455.457 231.382 468.193C230.819 469.787 230.4 471.432 229.914 473.054C229.73 473.075 229.547 473.096 229.363 473.118C227.01 463.971 224.657 454.823 222.304 445.676C223.035 439.592 223.57 433.477 224.538 427.432C226.813 413.234 229.007 399.013 231.759 384.905C236.424 360.986 243.096 337.609 252.067 314.927C254.374 309.094 257.015 303.393 259.437 297.605C260.402 295.3 261.088 292.878 262.087 290.591C262.993 288.518 264.165 286.562 265.184 284.537C265.326 284.256 265.266 283.872 265.299 283.536C264.981 283.665 264.518 283.702 264.367 283.938C262.836 286.329 261.134 288.645 259.909 291.189C257.69 295.798 255.743 300.538 253.736 305.246C253.361 306.127 252.853 306.594 251.923 306.859C244.697 308.918 237.29 309.382 229.837 309.466C227.448 309.493 225.059 309.47 222.17 309.47C226.368 307.193 230.248 305.088 234.128 302.983C234.094 302.836 234.059 302.69 234.025 302.543C233.527 302.584 233.007 302.545 232.535 302.679C227.632 304.07 223.324 306.614 219.18 309.514C222.158 306.135 225.207 302.844 228.195 299.619C228.051 299.678 227.745 299.766 227.479 299.922C224.283 301.797 221.617 304.302 219.298 307.146C217.979 308.765 216.938 310.61 215.772 312.354C215.772 312.354 215.766 312.334 215.697 312.352C215.513 312.545 215.398 312.721 215.283 312.897C214.871 313.597 214.491 314.316 214.043 314.991C211.5 318.824 209.944 323.058 208.915 327.509C208.841 327.827 208.747 328.14 208.529 328.947C207.635 327.339 206.843 326.114 206.244 324.801C204.305 320.555 203.253 316.047 202.537 311.46C201.492 304.77 201.07 298.031 201.183 291.261C201.351 281.247 203.666 271.662 207.229 262.374C210.079 254.945 213.245 247.637 216.163 240.233C217.973 235.643 219.407 230.918 219.516 225.931C219.719 216.648 216.85 208.562 209.933 201.995C209.931 201.866 210.022 201.771 210.022 201.771ZM205.345 285.287C205.769 282.037 206.044 278.759 206.646 275.543C208.138 267.58 211.802 260.443 215.24 253.203C216.965 249.568 218.123 245.662 219.469 241.854C219.595 241.496 219.224 240.963 219.083 240.512C218.811 240.798 218.431 241.037 218.283 241.377C215.615 247.526 213.067 253.729 210.307 259.837C206.188 268.955 203.577 278.403 203.38 288.463C203.175 298.953 204.501 309.252 207.114 319.398C207.197 319.719 207.414 320.005 207.569 320.308C207.709 320.27 207.849 320.232 207.989 320.194C207.31 314.483 206.441 308.787 206.003 303.058C205.558 297.243 205.538 291.396 205.345 285.287ZM230.719 297.95L230.691 297.996C230.691 297.996 230.751 297.99 230.719 297.95Z" fill="#29474F"/>
<path d="M419.063 477.779C420.834 479.936 422.614 482.086 424.375 484.25C431.788 493.358 440.166 501.474 449.439 508.672C449.705 508.878 449.964 509.093 450.207 509.289C414.651 509.743 379.087 509.304 343.533 509.907C343.499 510.15 343.466 510.394 343.432 510.637C343.839 510.766 344.242 510.992 344.653 511.009C347.789 511.132 350.927 511.277 354.065 511.299C364.982 511.375 375.9 511.408 386.818 511.451C400.392 511.505 413.966 511.58 427.54 511.594C434.784 511.602 442.027 511.502 449.27 511.451C449.415 511.45 449.57 511.481 449.703 511.442C452.582 510.6 454.537 512.26 456.706 514.064C456.1 514.091 455.7 514.124 455.299 514.124C379.571 514.127 303.842 514.139 228.114 514.093C224.13 514.09 220.146 513.583 216.056 513.303C216.156 512.556 216.231 511.993 216.335 511.209C233.684 512.406 251.001 511.201 268.312 511.381C299.037 511.699 318.755 511.541 320.061 510.238C319.116 510.119 318.35 509.947 317.581 509.936C307.147 509.791 296.714 509.62 286.279 509.554C274.442 509.479 262.603 509.515 250.765 509.48C242.506 509.455 234.247 509.342 225.988 509.367C222.857 509.377 219.728 509.662 216.379 509.833C217.851 489.945 219.497 470.159 221.787 450.434C223.627 457.369 225.312 464.299 227.115 471.199C227.612 473.103 228.416 474.934 229.177 476.759C229.333 477.133 229.924 477.326 230.314 477.603C230.479 477.21 230.699 476.831 230.793 476.422C230.909 475.916 230.824 475.353 230.991 474.872C235.113 462.971 239.253 451.077 243.402 439.185C243.978 437.536 244.623 435.911 245.237 434.274C245.703 435.51 245.817 436.699 246.101 437.845C247.837 444.866 249.583 451.885 251.382 458.891C253.235 466.102 255.528 473.167 258.767 479.89C258.998 480.368 259.688 480.625 260.164 480.985C260.278 480.442 260.455 479.903 260.489 479.356C260.533 478.646 260.339 477.908 260.46 477.22C262.171 467.436 263.911 457.657 265.662 447.88C266.074 445.578 266.554 443.288 267.003 440.993C271.023 454.808 275.535 468.295 283.45 480.962C285.37 473.696 285.986 466.559 287.458 459.308C288.365 461.412 289.068 463.261 289.939 465.028C292.457 470.134 295.026 475.215 297.634 480.275C297.807 480.61 298.478 480.689 298.917 480.886C299.076 480.491 299.336 480.103 299.369 479.697C299.427 478.992 299.218 478.253 299.339 477.567C302.422 460.105 306.63 442.922 312.428 426.157C314.727 419.508 317.321 412.961 319.78 406.367C320.256 406.837 320.387 407.238 320.487 407.647C322.03 413.972 323.523 420.31 325.123 426.621C327.209 434.851 329.246 443.1 332.53 450.969C336.693 460.943 342.409 470.092 347.695 479.468C347.963 479.944 348.562 480.235 349.29 480.852C352.442 469.269 353.484 457.522 358.073 446.332C358.502 447.217 358.752 447.731 359.001 448.245C363.633 457.805 368.271 467.363 372.885 476.931C373.19 477.563 373.301 478.284 373.538 478.951C373.624 479.192 373.775 479.456 373.976 479.589C374.062 479.646 374.427 479.443 374.534 479.275C374.811 478.841 375.102 478.385 375.235 477.896C376.24 474.192 377.208 470.479 378.282 466.41C378.724 467.378 379.028 468.019 379.312 468.669C382.575 476.146 385.827 483.628 389.121 491.093C389.295 491.487 389.807 491.732 390.162 492.047C390.423 491.633 390.859 491.243 390.92 490.801C392.009 482.92 393.062 475.034 394.103 467.147C394.488 464.232 394.801 461.308 395.204 458.395C395.262 457.978 395.64 457.605 395.87 457.211C396.258 457.438 396.692 457.612 397.021 457.903C397.525 458.349 397.924 458.912 398.423 459.362C402.295 462.857 406.172 466.344 410.063 469.817C413.052 472.484 416.062 475.126 419.063 477.779ZM304.355 503.483C296.578 503.454 288.8 503.37 281.023 503.412C273.545 503.452 266.068 503.616 258.59 503.747C257.978 503.758 257.37 503.935 256.759 504.035C256.764 504.158 256.768 504.282 256.772 504.405C257.022 504.486 257.269 504.618 257.524 504.639C259.736 504.815 261.949 505.095 264.164 505.11C270.876 505.153 277.59 505.053 284.303 505.078C304.831 505.155 325.358 505.344 345.886 505.334C359.79 505.327 373.694 505.065 387.598 504.882C388.121 504.875 388.64 504.498 389.16 504.294C388.655 504.052 388.159 503.785 387.64 503.578C387.427 503.493 387.163 503.53 386.922 503.522C381.18 503.336 375.438 502.989 369.697 503C359.075 503.021 348.454 503.297 337.831 503.381C326.77 503.468 315.707 503.453 304.355 503.483Z" fill="#29474F"/>
<path d="M278.38 331.78C276.742 329.717 274.965 327.901 272.232 327.27C266.472 325.939 258.477 329.603 256.135 334.788C255.716 335.716 255.558 336.762 255.28 337.754C255.495 337.888 255.71 338.023 255.925 338.158C258.237 333.015 262.076 329.854 267.533 328.923C269.099 328.656 270.725 328.735 272.343 328.897C269.638 328.991 267.124 329.704 264.745 330.937C259.255 333.785 256.839 338.828 257.985 344.925C258.781 349.159 260.693 352.745 264.043 355.493C267.871 358.633 272.746 359.041 277.015 356.546C280.836 354.314 283.706 351.119 285.546 347.136C289.568 338.429 290.384 329.443 287.406 320.225C287.259 319.771 287.051 319.336 286.593 318.943C287.107 324.152 287.695 329.312 286.84 334.487C284.416 328.488 281.944 322.539 279.614 316.534C278.318 313.194 278.648 309.675 279.071 306.217C281.45 286.766 283.776 267.308 286.307 247.877C288.694 229.548 291.31 211.25 293.833 192.939C294.286 189.653 294.778 186.371 295.28 182.896C295.828 183.354 296.256 183.714 296.687 184.07C300.805 187.478 305.387 189.972 310.704 190.864C316.292 191.802 321.101 189.837 325.28 186.331C326.768 185.083 328.181 184.562 330.065 184.638C331.986 184.716 333.919 184.444 335.848 184.422C336.226 184.417 336.818 184.767 336.959 185.102C339.522 191.206 346.616 194.051 352.585 191.325C352.789 191.232 353.009 191.174 353.394 191.039C351.292 218.174 346.412 244.808 343.268 271.932C340.801 269.861 338.328 268.404 335.507 267.698C331.413 266.673 327.432 267.328 323.645 269.002C321.641 269.888 319.796 271.13 317.864 272.182C316.919 272.696 316.859 273.484 317.01 274.407C317.244 275.835 317.97 277.485 317.5 278.639C317.062 279.714 315.261 280.175 314.194 281.067C312.384 282.581 310.549 284.101 308.956 285.832C303.941 291.283 299.57 297.231 295.666 303.528C294.368 305.621 293.482 307.833 293.301 310.283C292.858 316.267 293.35 322.15 295.488 327.807C295.855 328.777 296.411 329.74 297.1 330.509C298.331 331.883 300.272 331.64 301.055 329.973C301.551 328.916 301.859 327.664 301.858 326.5C301.855 322.734 301.677 318.969 301.552 315.204C301.485 313.2 301.746 311.286 303.142 309.188C302.429 314.528 304.019 319.059 305.712 323.533C306.402 325.357 307.446 327.072 308.507 328.724C309.245 329.874 310.432 330.555 311.883 330.037C313.237 329.553 313.641 328.297 313.504 327.084C313.05 323.068 312.534 319.055 311.857 315.071C311.307 311.839 311.221 311.118 312.198 309.217C312.823 312.169 313.509 314.99 315.478 317.28C317.434 319.555 319.663 321.419 322.743 322.189C323.126 327.05 323.479 331.901 323.898 336.746C324.376 342.277 324.918 347.803 325.411 353.334C325.452 353.795 325.468 354.345 325.262 354.728C321.069 362.538 315.995 369.629 308.821 375.045C302.445 379.859 295.142 382.001 287.331 382.799C281.563 383.388 275.837 383.287 270.258 381.552C261.227 378.743 255.337 372.56 251.997 363.902C248.537 354.935 247.425 345.657 249.444 336.194C250.525 331.123 252.965 326.804 257.883 324.363C262.934 321.857 272.857 322.157 276.919 328.358C277.549 329.319 278.02 330.385 278.524 331.547C278.484 331.691 278.38 331.78 278.38 331.78ZM318.707 363.515C320.867 360.339 322.516 356.929 323.384 353.172C323.48 352.758 323.397 352.303 323.397 351.867C323.25 351.842 323.102 351.817 322.954 351.792C322.709 352.291 322.497 352.81 322.212 353.285C320.064 356.878 318.173 360.666 315.68 364.003C311.939 369.01 307.589 373.51 301.709 376.103C294.814 379.144 287.587 379.817 280.164 378.88C279.516 378.798 278.857 378.797 277.968 378.744C278.256 379.208 278.303 379.379 278.411 379.439C278.66 379.579 278.934 379.675 279.205 379.77C283.111 381.137 287.149 381.499 291.205 380.906C302.845 379.205 311.773 373.104 318.707 363.515Z" fill="#FEC700"/>
<path d="M347.104 277.913C350.434 278.782 353.708 279.799 356.512 281.891C359.61 284.203 361.493 287.347 362.624 290.996C362.781 291.5 363.087 291.957 363.606 292.308C363.683 288.365 361.908 285.191 359.328 282.173C365.702 281.509 371.844 281.412 378.011 282.114C384.152 282.813 389.972 284.609 395.558 287.31C395.664 287.105 395.77 286.9 395.876 286.695C395.373 286.253 394.91 285.754 394.361 285.379C389.836 282.293 384.738 280.731 379.392 279.9C374.454 279.132 369.485 279.019 364.512 279.527C363.6 279.62 363.153 279.373 362.785 278.5C360.42 272.898 358.024 267.308 355.558 261.75C355.025 260.549 354.168 259.491 353.461 258.367C353.275 258.431 353.09 258.495 352.904 258.559C353.033 259.19 353.079 259.851 353.302 260.447C355.719 266.896 358.164 273.335 360.624 279.836C358.998 280.291 357.352 280.518 355.331 279.248C352.764 277.633 349.753 276.656 346.837 275.693C345.407 275.22 344.878 274.715 345.097 273.198C346.049 266.608 346.914 260.004 347.813 253.406C348.935 245.182 350.063 236.96 351.181 228.736C351.59 225.725 352.02 222.715 352.358 219.695C352.516 218.279 353.412 218.589 354.245 218.736C359.901 219.739 365.053 222.069 369.214 225.917C374.306 230.627 379.121 235.673 383.725 240.868C392.772 251.077 401.133 261.828 407.844 273.761C410.665 278.777 413.027 283.991 414.6 289.565C416.921 297.795 415.257 305.095 409.964 311.715C405.256 317.604 399.512 322.412 393.916 327.383C385.9 334.504 377.917 341.662 369.716 348.848C365.368 350.175 361.223 351.457 357.026 352.678C356.937 352.578 356.901 352.538 356.912 352.415C359.234 350.035 361.537 347.766 363.78 345.439C368.506 340.537 373.208 335.613 377.887 330.667C378.192 330.344 378.215 329.755 378.37 329.29C377.933 329.171 377.492 328.936 377.061 328.952C370.554 329.201 364.048 329.485 357.542 329.751C357.149 329.767 356.754 329.702 356.256 329.668C356.438 329.466 356.487 329.377 356.562 329.334C363.489 325.28 368.873 319.598 373.559 313.19C373.861 312.777 374.129 312.017 373.944 311.663C373.768 311.329 372.977 311.189 372.455 311.184C368.638 311.147 364.821 311.201 361.005 311.153C358.106 311.118 355.208 310.976 352.31 310.881C354.04 309.747 355.808 308.885 357.545 307.966C363.031 305.062 368.044 301.462 372.773 297.46C373.117 297.169 373.483 296.518 373.374 296.186C373.266 295.859 372.59 295.613 372.127 295.53C371.181 295.359 370.208 295.347 369.252 295.223C363.924 294.53 358.906 292.791 353.737 290.683C355.339 290.128 356.717 289.708 358.041 289.159C358.505 288.967 358.838 288.457 359.23 288.092C358.818 287.809 358.442 287.431 357.988 287.257C353.238 285.442 349.772 282.145 347.104 277.913Z" fill="#29474F"/>
<path d="M308.602 114.221C312.034 119.039 315.357 123.816 319.711 127.703C319.879 127.584 320.047 127.465 320.215 127.347C319.933 126.849 319.698 126.317 319.362 125.859C314.965 119.858 310.568 113.856 306.14 107.877C304.019 105.012 301.851 102.182 299.662 99.3679C299.229 98.8109 298.607 98.401 298.138 97.6448C299.547 97.9271 300.965 98.1703 302.364 98.4976C316.531 101.813 329.672 107.695 342.463 114.479C360.003 123.782 375.67 135.664 390.089 149.216C396.597 155.333 402.776 161.8 409.099 168.114C409.397 168.411 409.647 168.758 410.066 169.256C402.022 168.883 394.21 168.412 386.474 167.047C378.752 165.684 371.534 162.727 364.324 159.734C364.237 159.919 364.15 160.105 364.063 160.291C364.524 160.643 364.955 161.047 365.451 161.34C371.909 165.146 378.944 167.428 386.306 168.401C393.905 169.406 401.574 169.898 409.219 170.536C411.625 170.737 411.635 170.621 413.205 172.803C411.781 172.803 410.463 172.86 409.151 172.793C399.099 172.282 389.159 170.998 379.389 168.506C357.94 163.036 339.214 152.713 323.52 137.054C315.435 128.988 308.62 119.944 303.322 109.797C300.82 105.004 297.844 100.591 293.384 97.352C293.439 97.2249 293.493 97.0978 293.548 96.9707C294.32 97.2292 295.292 97.2757 295.828 97.7834C297.954 99.7959 300.173 101.779 301.926 104.098C304.338 107.288 306.36 110.773 308.602 114.221ZM331.451 141.388C337.23 146.52 354.573 156.783 357.451 156.404C356.61 155.763 356.083 155.289 355.49 154.921C351.309 152.329 347.107 149.772 342.927 147.177C336.097 142.937 329.626 138.255 324.399 132.048C324.172 131.778 323.859 131.58 323.587 131.348C323.463 131.459 323.339 131.57 323.215 131.681C325.254 135.394 328.163 138.413 331.451 141.388Z" fill="#29474F"/>
<path d="M358.718 94.5215C363.526 92.0667 368.248 89.4211 373.163 87.203C380.107 84.0696 387.159 81.17 394.227 78.3219C401.821 75.2613 409.393 75.7811 416.941 78.7375C423.759 81.4082 430.084 85.0236 436.435 88.5956C443.213 92.4072 449.979 96.231 457.336 98.856C457.457 98.899 457.56 98.9909 457.963 99.2408C454.012 99.206 450.66 98.1086 447.453 96.3923C447.349 96.5827 447.246 96.7732 447.143 96.9637C447.905 97.6071 448.57 98.5437 449.449 98.8371C451.807 99.6238 454.228 100.289 456.674 100.726C463.357 101.918 470.053 101.902 476.618 100.04C485.346 97.5652 491.765 92.4899 494.259 83.3932C494.724 81.6951 494.74 79.8736 495.115 78.0289C495.374 79.6707 495.676 81.3072 495.885 82.9554C496.727 89.5798 494.032 95.0117 490.075 100.007C489.775 100.386 489.463 100.754 488.974 101.183C488.657 101.288 488.501 101.307 488.39 101.388C483.805 104.759 478.59 106.166 472.979 106.443C466.683 106.753 460.523 105.47 454.304 104.908C448.786 104.41 443.334 104.709 437.927 105.726C429.815 107.252 422.175 110.105 414.939 114.11C408.192 117.845 402.108 122.441 396.506 127.704C396.111 128.074 395.886 128.625 395.576 129.086C395.569 129.079 395.574 129.061 395.488 129.061C395.262 129.15 395.122 129.239 394.908 129.368C394.688 129.493 394.542 129.578 394.285 129.664C391.614 130.452 389.054 131.24 386.284 132.092C386.443 131.628 386.489 131.402 386.592 131.206C388.513 127.527 390.404 123.832 392.375 120.18C394.689 115.894 397.082 111.651 399.416 107.376C399.673 106.905 399.767 106.346 400.006 105.617C389.627 108.169 380.324 112.467 371.574 118.078C374.91 111.028 378.428 104.161 382.896 97.827C383.164 97.4466 383.217 96.9137 383.37 96.4517C382.845 96.324 382.287 96.0103 381.801 96.0983C378.199 96.7515 374.592 97.3969 371.024 98.2117C364.496 99.7024 358.327 102.165 352.417 105.341C352.376 105.3 352.293 105.219 352.307 105.116C352.476 104.664 352.594 104.292 352.794 103.971C354.761 100.816 356.741 97.67 358.718 94.5215Z" fill="#29474F"/>
<path d="M372.195 225.497C366.628 220.732 360.474 217.406 353.116 216.405C353.474 212.6 353.817 208.907 354.171 205.215C354.604 200.697 355.155 196.187 355.435 191.661C355.551 189.772 356.3 188.355 357.226 186.796C358.148 185.244 359.004 184.865 360.743 185.261C363.267 185.835 365.876 186.031 368.3 186.368C368.3 189.039 368.089 191.699 368.352 194.312C368.693 197.698 369.202 201.098 370.022 204.396C370.974 208.221 373.627 211.035 376.82 213.126C382.465 216.821 388.249 220.308 394.028 223.794C399.951 227.366 405.672 231.177 410.76 235.917C425.754 249.884 425.154 271.176 416.343 284.202C416.135 284.511 415.891 284.795 415.605 285.169C414.458 282.568 413.447 280.035 412.247 277.596C406.694 266.304 399.391 256.159 391.33 246.577C385.585 239.748 379.438 233.255 373.461 226.621C373.108 226.23 372.67 225.916 372.195 225.497Z" fill="#FEC700"/>
<path d="M326.585 273.704C332.772 274.816 337.87 277.573 340.978 283.801C341.428 278.689 335.025 274.059 324.37 271.221C327.927 268.968 333.918 268.699 337.592 270.737C342.627 273.531 345.268 277.905 345.95 283.524C346.228 285.819 346.335 288.134 346.528 290.44C346.565 290.876 346.643 291.309 346.935 291.725C347.908 288.294 347.613 284.858 347.25 281.351C350.145 283.653 352.942 286.022 355.736 288.389C354.992 288.612 354.058 288.842 353.164 289.179C352.669 289.366 351.864 289.736 351.867 290.016C351.872 290.508 352.281 291.144 352.711 291.461C356.32 294.121 360.466 295.514 364.809 296.386C366.469 296.72 368.15 296.953 370.086 297.276C369.275 297.919 368.72 298.374 368.15 298.808C362.591 303.039 356.56 306.478 350.27 309.486C349.577 309.817 348.859 310.136 348.251 310.592C347.915 310.845 347.784 311.372 347.561 311.776C347.971 311.96 348.365 312.239 348.794 312.313C355.063 313.393 361.392 313.244 367.716 313.184C368.749 313.175 369.781 313.183 371.038 313.183C370.743 313.649 370.616 313.896 370.447 314.108C365.617 320.174 359.592 324.928 353.472 329.578C353.166 329.81 352.927 330.13 352.657 330.409C353.056 330.581 353.452 330.893 353.854 330.901C358.535 330.997 363.217 331.105 367.899 331.085C370.382 331.075 372.865 330.822 375.638 330.662C374.252 332.137 373.041 333.425 371.831 334.714C365.719 341.228 359.605 347.74 353.505 354.266C353.171 354.623 352.963 355.096 352.646 355.593C357.562 354.132 362.213 352.75 366.863 351.368C366.593 351.746 366.362 352.16 366.047 352.497C357.841 361.285 349.624 370.064 341.415 378.85C340.763 379.548 340.157 380.288 339.267 381.31C339.95 378.407 340.708 375.932 341.092 373.4C342.026 367.25 342.867 361.082 343.592 354.904C344.336 348.577 344.927 342.231 345.529 335.888C346.11 329.774 346.309 323.65 345.672 317.525C345.631 317.133 345.467 316.755 345.361 316.371C345.215 316.364 345.069 316.357 344.924 316.351C344.804 316.793 344.6 317.232 344.577 317.679C344.152 326.022 343.878 334.375 343.309 342.708C342.405 355.962 340.76 369.119 337.62 382.063C337.003 384.607 335.123 386.051 333.523 387.838C334.11 384.427 334.767 381.026 335.27 377.602C336.855 366.814 338.49 356.031 339.902 345.22C341.448 333.385 342.338 321.492 342.24 309.543C342.184 302.722 341.772 295.949 340.105 289.288C338.801 284.072 335.621 280.283 331.405 277.22C329.845 276.087 328.201 275.067 326.563 273.884C326.53 273.772 326.585 273.704 326.585 273.704Z" fill="#29474F"/>
<path d="M327.971 150.121C329.995 150.336 331.918 150.068 333.617 148.873C336.505 150.901 339.343 152.894 342.298 154.969C340.339 157.972 339.679 161.319 340.163 164.782C340.626 168.099 341.448 171.365 342.112 174.653C342.304 174.678 342.496 174.702 342.687 174.726C343.588 173.845 344.499 172.973 345.388 172.08C347.222 170.24 349.294 168.982 351.993 169.806C355.018 170.729 357.118 172.608 357.765 175.864C358.655 180.34 356.247 186.285 352.456 188.904C350.133 190.508 347.636 190.836 345.033 189.786C341.648 188.42 339.113 186.198 338.15 182.503C337.868 181.42 337.499 180.36 337.17 179.289C337.012 179.3 336.853 179.311 336.694 179.322C336.559 180.231 336.423 181.14 336.258 182.245C334.07 182.372 331.842 182.501 329.325 182.647C330.371 181.171 331.235 179.978 332.069 178.764C332.528 178.096 333.201 177.321 332.379 176.59C331.513 175.819 330.909 176.675 330.32 177.229C326.231 181.078 320.947 181.964 316.624 179.515C313.74 177.881 312.055 175.294 310.914 172.279C310.37 170.843 309.816 169.411 309.237 167.902C311.284 164.578 310.506 161.556 307.251 161.329C308.543 163.241 310.195 165.43 307.441 166.974C304.614 168.559 303.872 165.717 302.779 163.784C301.7 165.031 302.311 166.129 302.738 167.317C296.891 171.123 290.451 173.035 283.473 173.551C285.658 170.864 285.859 168.202 283.717 165.415C283.555 165.204 283.639 164.803 283.609 164.49C292.04 163.133 298.864 159.056 304.09 152.319C305.777 150.144 307.202 147.812 307.82 145.086C305.323 147.88 302.825 150.673 300.236 153.436C300.144 153.405 300.158 153.415 300.158 153.415C301.773 148.673 304.183 144.332 307.453 140.581C309.647 138.064 312.261 135.892 314.819 133.721C316.347 132.425 316.462 132.56 317.786 134.183C315.586 136.273 314.69 138.754 316.355 141.529C317.206 142.948 318.488 144.107 319.512 145.503C315.207 146.421 312.618 148.936 311.633 153.129C310.625 157.425 313.066 161.984 317.213 163.537C321.171 165.02 325.841 163.1 327.874 159.173C329.43 156.167 329.262 153.152 327.971 150.121ZM349.669 172.118C349.398 172.355 349.126 172.592 348.652 172.856C345.463 174.516 343.866 177.311 342.944 180.828C342.062 181.326 341.18 181.824 340.298 182.322C340.357 182.457 340.416 182.593 340.475 182.728C341.342 182.541 342.209 182.353 343.062 182.437C343.155 185.091 344.482 186.355 347.36 186.709C347.353 186.922 347.346 187.134 347.219 187.505C347.283 187.931 347.347 188.357 347.651 188.835C347.879 188.562 348.231 188.321 348.31 188.01C348.484 187.327 348.519 186.608 348.813 185.874C352.497 184.113 354.571 181.225 355.065 176.992C355.276 176.885 355.511 176.81 355.693 176.666C356.202 176.262 356.688 175.831 357.183 175.41C356.547 175.435 355.911 175.46 355.122 175.343C353.95 172.288 352.994 171.731 349.669 172.118ZM323.121 164.76C319.777 166.114 318.089 168.414 318.13 171.56C318.164 174.129 319.721 176.537 322.072 177.412C324.415 178.284 327.041 177.777 328.96 175.858C330.706 174.112 330.985 170.578 330.314 168.822C329.221 165.966 327.004 164.308 323.121 164.76ZM312.13 162.684C312.662 163.294 313.195 163.903 313.727 164.513C313.786 164.437 313.844 164.36 313.902 164.284C313.177 162.722 312.452 161.161 311.727 159.599C311.618 159.626 311.509 159.652 311.401 159.678C311.615 160.612 311.83 161.547 312.13 162.684ZM310.976 161.454C311.138 162.533 311.238 163.628 311.496 164.684C311.591 165.069 312.064 165.363 312.364 165.698C312.475 165.619 312.585 165.541 312.695 165.463C312.178 164.162 311.66 162.862 310.976 161.454Z" fill="#F7883F"/>
<path d="M419.084 477.665C416.062 475.126 413.052 472.483 410.063 469.816C406.173 466.344 402.295 462.856 398.424 459.362C397.924 458.911 397.525 458.348 397.021 457.903C396.692 457.611 396.258 457.438 395.871 457.211C395.64 457.605 395.262 457.978 395.204 458.395C394.801 461.307 394.488 464.232 394.103 467.147C393.062 475.034 392.009 482.92 390.92 490.801C390.859 491.243 390.424 491.632 390.162 492.046C389.807 491.732 389.295 491.487 389.121 491.092C385.828 483.628 382.575 476.146 379.312 468.668C379.028 468.018 378.724 467.377 378.282 466.41C377.208 470.478 376.24 474.192 375.235 477.896C375.102 478.385 374.811 478.841 374.534 479.275C374.427 479.443 374.063 479.646 373.977 479.589C373.775 479.456 373.624 479.192 373.538 478.951C373.301 478.284 373.19 477.562 372.885 476.931C368.271 467.362 363.633 457.805 359.001 448.245C358.752 447.731 358.502 447.217 358.073 446.331C353.484 457.522 352.442 469.269 349.29 480.852C348.562 480.235 347.964 479.944 347.695 479.468C342.409 470.091 336.693 460.942 332.53 450.968C329.246 443.1 327.209 434.851 325.123 426.62C323.523 420.31 322.031 413.972 320.487 407.647C320.387 407.238 320.256 406.836 319.78 406.367C317.321 412.96 314.728 419.507 312.428 426.156C306.63 442.922 302.422 460.104 299.339 477.566C299.218 478.253 299.427 478.992 299.37 479.697C299.336 480.103 299.076 480.49 298.918 480.886C298.478 480.688 297.807 480.61 297.634 480.275C295.026 475.215 292.457 470.134 289.94 465.028C289.069 463.261 288.365 461.412 287.459 459.308C285.986 466.558 285.37 473.696 283.45 480.962C275.535 468.295 271.023 454.808 267.003 440.992C266.554 443.288 266.074 445.577 265.662 447.879C263.911 457.656 262.171 467.435 260.46 477.22C260.339 477.908 260.533 478.646 260.489 479.355C260.455 479.903 260.278 480.442 260.164 480.984C259.688 480.625 258.998 480.368 258.768 479.89C255.528 473.167 253.235 466.102 251.383 458.89C249.583 451.885 247.838 444.866 246.101 437.845C245.817 436.698 245.703 435.51 245.237 434.274C244.624 435.91 243.978 437.535 243.403 439.185C239.253 451.076 235.113 462.971 230.991 474.872C230.824 475.353 230.91 475.916 230.793 476.422C230.699 476.83 230.479 477.21 230.314 477.603C229.924 477.326 229.333 477.133 229.177 476.758C228.416 474.934 227.612 473.103 227.115 471.198C225.312 464.299 223.627 457.369 221.852 450.324C221.943 448.761 222.079 447.325 222.26 445.782C224.657 454.823 227.01 463.97 229.363 473.118C229.547 473.096 229.73 473.075 229.914 473.053C230.4 471.432 230.819 469.786 231.382 468.192C235.886 455.457 240.41 442.728 244.968 430.011C245.146 429.514 245.729 429.162 246.124 428.742C246.412 429.184 246.934 429.617 246.954 430.071C247.263 437.181 249.138 443.978 251.163 450.723C253.478 458.437 256.013 466.085 258.456 473.76C258.541 474.028 258.672 474.28 259.017 474.531C259.179 473.121 259.357 471.713 259.498 470.301C260.373 461.544 262.338 452.989 264.29 444.432C264.848 441.987 265.396 439.538 266.03 437.113C266.166 436.593 266.658 436.167 266.986 435.697C267.352 436.138 267.922 436.525 268.056 437.028C271.611 450.371 277.129 462.979 282.483 475.647C282.574 475.861 282.701 476.059 282.976 476.573C283.4 473.73 283.738 471.194 284.164 468.673C284.839 464.68 285.555 460.693 286.303 456.714C286.389 456.258 286.794 455.863 287.05 455.44C287.437 455.813 287.974 456.115 288.188 456.569C291.008 462.551 293.776 468.556 296.574 474.548C296.915 475.279 297.349 475.965 297.94 477.033C298.425 474.196 298.84 471.762 299.256 469.328C301.922 453.739 305.981 438.512 311.361 423.649C313.676 417.254 316.283 410.964 318.761 404.629C318.919 404.224 319.041 403.78 319.299 403.447C319.589 403.074 320.029 402.549 320.377 402.569C320.71 402.588 321.179 403.174 321.292 403.592C322.023 406.292 322.637 409.023 323.354 411.727C326.293 422.821 329.024 433.977 332.285 444.976C334.694 453.102 339.02 460.447 343.014 467.894C344.612 470.873 346.206 473.853 347.809 476.828C348.006 477.195 348.248 477.539 348.679 478.229C349.271 475.014 349.798 472.151 350.327 469.288C351.808 461.266 353.38 453.265 356.449 445.659C356.802 444.783 357.482 444.039 358.011 443.233C358.569 443.962 359.267 444.621 359.663 445.429C364.271 454.84 368.833 464.273 373.41 473.698C373.611 474.113 373.838 474.516 374.19 475.185C375.173 471.521 376.078 468.149 376.982 464.776C377.057 464.496 377.067 464.177 377.216 463.945C377.453 463.574 377.781 463.261 378.07 462.924C378.4 463.224 378.866 463.462 379.038 463.835C380.408 466.818 381.735 469.821 383.052 472.828C385.197 477.732 387.324 482.643 389.722 487.562C390.017 485.717 390.35 483.876 390.601 482.025C391.797 473.185 392.963 464.341 394.174 455.503C394.238 455.036 394.615 454.611 394.847 454.167C395.287 454.413 395.792 454.587 396.159 454.915C402.062 460.193 407.947 465.491 413.84 470.781C413.944 470.874 414.09 470.921 414.317 470.973C414.419 470.956 414.408 470.959 414.427 471.055C414.57 471.198 414.693 471.244 414.817 471.29C416.246 473.377 417.675 475.464 419.084 477.665Z" fill="#FCC050"/>
<path d="M384.221 140.966C376.425 134.969 368.781 128.757 360.789 123.034C353.016 117.469 344.553 112.985 335.981 108.747C335.52 108.519 335.076 108.255 334.22 107.785C341.643 103.728 348.768 99.8339 355.991 96.0098C355.822 96.4786 355.531 96.8636 355.292 97.2781C353.727 99.9835 352.142 102.678 350.647 105.422C350.391 105.892 350.539 106.583 350.5 107.172C351.051 107.095 351.635 107.111 352.147 106.928C357.325 105.076 362.449 103.065 367.673 101.358C371.868 99.9868 376.179 98.9731 380.439 97.8009C380.504 97.9266 380.569 98.0523 380.634 98.178C375.982 104.827 371.711 111.661 369.613 119.93C379.292 115.43 388.575 111.115 397.858 106.799C397.928 106.92 397.998 107.041 398.068 107.162C397.871 107.477 397.693 107.805 397.474 108.103C392.27 115.203 388.57 123.107 385.18 131.173C384.979 131.651 384.967 132.468 385.249 132.816C385.525 133.154 386.329 133.272 386.839 133.171C388.681 132.809 390.498 132.313 392.301 131.964C389.914 134.84 387.558 137.627 385.175 140.39C384.945 140.658 384.543 140.778 384.221 140.966Z" fill="#29474F"/>
<path d="M395.582 129.091C395.886 128.624 396.111 128.073 396.506 127.702C402.108 122.439 408.192 117.843 414.939 114.108C422.175 110.103 429.815 107.251 437.927 105.724C443.334 104.707 448.786 104.408 454.304 104.906C460.523 105.468 466.683 106.752 472.979 106.441C478.59 106.164 483.805 104.757 488.39 101.386C488.501 101.305 488.658 101.286 488.899 101.24C488.601 101.946 488.192 102.647 487.799 103.356C487.767 103.414 487.843 103.533 487.95 103.905C488.445 103.601 488.932 103.395 489.304 103.062C493.748 99.0907 496.109 94.0074 497.014 88.2158C497.34 86.1302 497.36 83.9967 497.522 81.8516C498.374 85.7295 497.818 89.547 497.03 93.3215C496.097 97.7922 494.693 102.103 491.613 105.64C487.902 109.901 482.969 111.911 477.578 112.76C473.83 113.349 470.009 113.6 466.212 113.72C459.796 113.923 453.373 113.891 446.954 113.984C445.9 114 444.848 114.152 443.731 113.92C449.229 112.749 454.727 111.579 460.225 110.409C460.217 110.239 460.21 110.069 460.203 109.9C459.88 109.817 459.552 109.647 459.234 109.664C450.386 110.137 441.691 111.375 434.116 116.399C430.306 118.925 426.63 121.736 423.251 124.81C417.339 130.19 411.702 135.873 405.744 141.474C403.913 141.884 402.287 142.249 400.289 142.698C400.862 141.752 401.255 141.114 401.636 140.47C403.967 136.526 406.327 132.6 408.597 128.622C409.071 127.792 409.208 126.77 409.5 125.836C408.537 125.931 407.574 126.024 406.611 126.125C406.469 126.14 406.331 126.199 406.192 126.236C402.655 127.188 399.119 128.139 395.582 129.091Z" fill="#29474F"/>
<path d="M295.233 314.631C294.992 310.246 295.951 306.348 298.564 302.922C302.484 297.781 306.319 292.572 310.332 287.505C314.381 282.392 319.846 279.86 326.265 278.99C327.923 278.766 328.839 279.237 329.802 280.313C333.8 284.779 335.745 290.181 336.956 295.917C337.223 297.179 337.395 298.461 337.64 299.91C333.408 298.133 329.512 295.985 324.862 296.075C324.955 292.694 325.205 289.309 322.406 286.886C322.215 286.928 322.024 286.97 321.833 287.012C321.982 287.967 322.043 288.946 322.296 289.873C322.889 292.042 322.637 294.13 322.125 296.286C321.606 298.479 320.737 300.45 319.515 302.325C317.007 306.173 317.419 310.019 319.784 313.754C320.764 315.302 321.907 316.746 322.967 318.243C323.321 318.742 323.651 319.258 323.992 319.767C323.918 319.916 323.844 320.066 323.77 320.215C322.923 319.936 322.01 319.778 321.239 319.358C317.211 317.168 315.052 313.679 314.376 309.203C314.003 306.733 313.377 304.264 314.62 301.834C314.829 301.425 314.784 300.886 314.856 300.408C314.723 300.34 314.589 300.272 314.456 300.204C314.079 300.576 313.551 300.881 313.351 301.332C312.009 304.358 310.602 307.367 309.513 310.486C309.117 311.619 309.421 313.052 309.601 314.321C310.171 318.325 310.849 322.315 311.438 326.317C311.516 326.845 311.317 327.414 311.246 327.964C311.122 328.019 310.997 328.074 310.872 328.128C310.393 327.574 309.81 327.079 309.451 326.455C307.062 322.298 305.438 317.78 305.192 313.053C305.042 310.174 306.168 307.212 306.858 304.32C307.007 303.693 307.812 303.248 308.181 302.638C308.452 302.191 308.504 301.612 308.654 301.092C308.083 301.207 307.398 301.163 306.967 301.473C306.194 302.03 305.535 302.766 304.899 303.489C303.847 304.683 302.782 305.877 301.846 307.162C300.211 309.407 299.333 311.922 299.453 314.746C299.604 318.267 299.779 321.788 299.829 325.311C299.847 326.577 299.533 327.847 299.371 329.115C299.188 329.165 299.005 329.216 298.822 329.266C298.388 328.591 297.84 327.963 297.539 327.233C295.897 323.247 295.454 319.028 295.233 314.631Z" fill="#F6883F"/>
<path d="M190.8 230.512C192.241 227.942 193.649 225.466 196.202 223.921C196.444 223.775 196.693 223.64 197.05 223.436C198.3 227.046 199.994 230.269 202.884 232.661C203.056 232.556 203.228 232.45 203.399 232.344C202.93 231.548 202.485 230.736 201.985 229.959C199.838 226.621 198.518 223.04 198.999 219.013C199.181 217.498 199.551 215.977 200.062 214.54C200.431 213.502 200.271 212.924 199.478 212.167C195.441 208.31 194.018 203.637 195.48 198.198C195.801 197.002 196.193 195.468 197.633 195.404C199.188 195.336 199.411 196.978 199.77 198.126C201.159 202.558 204.195 205.879 207.117 209.292C209.355 211.905 211.449 214.597 212.297 218.053C213.266 221.998 211.446 224.854 208.832 227.462C208.334 227.958 207.972 228.591 207.548 229.161C208.262 228.941 209.045 228.84 209.675 228.474C210.624 227.923 211.466 227.186 212.424 226.477C213.378 227.068 214.35 227.67 215.402 228.321C212.626 233.298 209.907 238.172 207.223 242.986C206.986 242.986 206.866 243.024 206.803 242.98C204.691 241.494 202.339 240.774 199.805 240.226C195.146 239.219 191.595 236.66 190.305 231.755C190.215 231.415 190.563 230.959 190.8 230.512Z" fill="#F7883F"/>
<path d="M166.349 165.123C171.153 170.022 175.885 174.849 180.617 179.677C185.346 184.503 190.075 189.33 194.861 194.214C194.251 195.245 193.647 196.267 192.961 197.427C171.749 177.13 150.562 156.857 129.227 136.443C130.703 134.883 132.108 133.399 133.605 131.818C144.561 142.962 155.418 154.006 166.349 165.123Z" fill="#C6540D"/>
<path d="M366.937 351.312C362.213 352.748 357.562 354.131 352.646 355.592C352.963 355.094 353.172 354.621 353.505 354.265C359.605 347.739 365.719 341.227 371.831 334.712C373.041 333.423 374.252 332.136 375.639 330.661C372.865 330.821 370.382 331.073 367.899 331.084C363.217 331.103 358.535 330.996 353.854 330.9C353.452 330.892 353.056 330.579 352.657 330.408C352.927 330.129 353.166 329.809 353.472 329.577C359.592 324.926 365.617 320.172 370.447 314.107C370.616 313.894 370.743 313.648 371.038 313.182C369.781 313.182 368.749 313.173 367.716 313.183C361.392 313.243 355.063 313.392 348.794 312.311C348.365 312.238 347.971 311.958 347.561 311.774C347.784 311.371 347.915 310.844 348.251 310.591C348.859 310.134 349.577 309.816 350.27 309.484C356.56 306.476 362.591 303.037 368.15 298.806C368.72 298.372 369.275 297.917 370.086 297.275C368.15 296.952 366.469 296.718 364.809 296.385C360.466 295.512 356.32 294.12 352.711 291.46C352.281 291.143 351.872 290.507 351.867 290.015C351.864 289.734 352.669 289.365 353.164 289.178C354.058 288.841 354.992 288.611 355.736 288.388C352.942 286.021 350.145 283.652 347.264 281.221C346.932 280.154 346.684 279.15 346.475 278.005C346.513 277.865 346.555 277.812 346.555 277.812C346.696 277.825 346.837 277.838 347.041 277.881C349.772 282.145 353.237 285.441 357.987 287.257C358.442 287.43 358.818 287.809 359.23 288.092C358.837 288.457 358.505 288.967 358.041 289.159C356.717 289.708 355.338 290.127 353.737 290.682C358.906 292.791 363.924 294.529 369.252 295.222C370.208 295.347 371.181 295.358 372.127 295.529C372.589 295.613 373.266 295.858 373.374 296.186C373.482 296.517 373.116 297.168 372.772 297.459C368.044 301.461 363.031 305.061 357.544 307.965C355.807 308.885 354.04 309.747 352.31 310.881C355.208 310.975 358.106 311.117 361.005 311.153C364.821 311.2 368.638 311.146 372.454 311.184C372.977 311.189 373.768 311.328 373.944 311.663C374.129 312.016 373.861 312.777 373.559 313.19C368.873 319.597 363.488 325.28 356.562 329.333C356.487 329.377 356.438 329.465 356.256 329.667C356.754 329.702 357.149 329.766 357.541 329.75C364.048 329.484 370.554 329.2 377.061 328.952C377.492 328.935 377.933 329.171 378.369 329.289C378.215 329.755 378.192 330.344 377.887 330.667C373.208 335.613 368.505 340.537 363.78 345.438C361.537 347.765 359.234 350.035 356.848 352.453C356.701 352.673 356.664 352.769 356.626 352.866C356.777 352.823 356.928 352.781 357.078 352.738C361.223 351.456 365.368 350.174 369.627 348.888C368.831 349.675 367.92 350.466 366.937 351.312Z" fill="#FBC051"/>
<path d="M234.452 233.412C237.149 235.07 239.801 236.826 242.423 238.626C242.855 238.923 243.153 239.414 243.513 239.816C243.071 240.136 242.673 240.61 242.179 240.754C237.828 242.021 233.459 243.23 229.095 244.457C228.634 244.586 228.174 244.717 227.502 244.907C227.873 245.259 228.1 245.54 228.386 245.736C235.234 250.432 242.093 255.113 248.931 259.823C249.315 260.088 249.538 260.586 249.836 260.976C249.402 261.197 248.986 261.557 248.531 261.618C238.809 262.93 229.284 265.168 219.809 267.649C219.588 267.707 219.372 267.788 218.772 267.981C222.148 269.323 225.146 270.688 228.257 271.706C232.011 272.936 235.866 273.855 239.664 274.956C240.103 275.083 240.455 275.508 240.848 275.795C240.467 276.091 240.126 276.55 239.698 276.657C232.961 278.345 226.214 279.987 219.469 281.643C219.19 281.711 218.918 281.807 218.357 281.976C220.174 282.746 221.77 283.407 223.354 284.096C227.868 286.06 232.384 288.022 236.88 290.026C237.348 290.235 237.691 290.726 238.093 291.085C237.603 291.389 237.151 291.837 236.619 291.973C231.065 293.393 225.489 294.722 219.944 296.175C218.567 296.536 217.282 297.25 215.994 297.973C221.818 297.002 227.597 295.788 233.51 296.009C233.553 296.16 233.595 296.312 233.638 296.464C232.906 296.872 232.174 297.28 231.814 297.481C230.98 297.264 230.481 296.964 230.06 297.05C223.969 298.297 217.891 299.609 211.801 300.86C211.299 300.963 210.73 300.737 210.191 300.664C210.512 300.202 210.742 299.619 211.168 299.295C216.454 295.285 222.645 293.462 228.987 292.029C230.8 291.62 232.621 291.248 234.696 290.804C228.03 287.857 221.629 285.027 215.228 282.197C215.246 281.983 215.264 281.769 215.282 281.555C222.125 279.2 229.24 277.783 236.246 275.672C234.397 275.221 232.538 274.804 230.7 274.313C226.257 273.126 221.881 271.759 218.074 269.056C217.652 268.756 217.394 268.225 217.061 267.801C217.495 267.47 217.881 267.002 218.371 266.826C226.854 263.788 235.618 261.935 244.527 260.709C245.193 260.617 245.856 260.493 246.838 260.331C246.05 259.811 245.46 259.438 244.887 259.041C238.58 254.667 232.272 250.296 225.983 245.896C225.592 245.622 225.367 245.111 225.065 244.711C225.493 244.513 225.906 244.268 226.352 244.125C230.922 242.668 235.498 241.228 240.314 239.706C238.202 238.298 236.372 237.078 234.457 235.819C234.38 235.028 234.389 234.276 234.452 233.412Z" fill="#FBBF51"/>
<path d="M326.294 182.454C321.427 187.821 314.587 190.78 307.203 187.794C302.71 185.977 298.579 183.638 295.526 179.805C294.205 178.147 293.269 176.183 292.057 174.193C296.506 172.847 300.297 171.118 303.773 168.713C304.517 168.199 307.437 169.256 307.804 170.112C308.353 171.393 308.809 172.713 309.332 174.006C311.981 180.548 318.406 184.66 326.074 182.363C326.224 182.384 326.294 182.454 326.294 182.454Z" fill="#DE9400"/>
<path d="M384.269 141.05C384.543 140.777 384.945 140.657 385.176 140.39C387.558 137.626 389.914 134.839 392.342 131.907C392.482 131.696 392.566 131.658 392.773 131.647C397.667 130.293 402.445 128.931 407.538 127.48C406.82 128.915 406.325 130.065 405.694 131.134C403.444 134.948 401.141 138.73 398.883 142.538C398.682 142.877 398.657 143.321 398.55 143.716C398.946 143.765 399.36 143.917 399.733 143.846C401.243 143.561 402.74 143.207 404.243 142.878C402.489 144.839 400.741 146.805 398.978 148.759C398.082 149.753 397.159 150.723 396.192 151.765C392.181 148.174 388.249 144.654 384.269 141.05Z" fill="#29474F"/>
<path d="M392.659 131.64C392.566 131.658 392.482 131.696 392.366 131.81C390.498 132.312 388.681 132.808 386.839 133.171C386.329 133.271 385.525 133.153 385.249 132.815C384.967 132.467 384.979 131.65 385.181 131.172C388.57 123.106 392.271 115.202 397.474 108.102C397.693 107.804 397.871 107.476 398.068 107.161C397.998 107.04 397.928 106.919 397.858 106.798C388.575 111.114 379.292 115.429 369.613 119.929C371.711 111.66 375.982 104.826 380.634 98.1771C380.569 98.0514 380.504 97.9257 380.439 97.8C376.179 98.9722 371.868 99.9859 367.673 101.357C362.449 103.064 357.325 105.075 352.148 106.927C351.635 107.11 351.051 107.094 350.5 107.171C350.539 106.582 350.391 105.891 350.647 105.421C352.142 102.677 353.727 99.9825 355.292 97.2772C355.531 96.8627 355.822 96.4777 356.089 95.9693C356.898 95.4231 357.707 94.9867 358.617 94.5352C356.741 97.6685 354.761 100.815 352.794 103.969C352.594 104.29 352.476 104.663 352.259 105.152C352.285 105.322 352.371 105.351 352.458 105.381C358.327 102.164 364.496 99.7009 371.024 98.2102C374.592 97.3954 378.199 96.75 381.801 96.0968C382.287 96.0088 382.845 96.3225 383.37 96.4502C383.217 96.9122 383.164 97.4451 382.896 97.8256C378.428 104.16 374.91 111.026 371.574 118.077C380.324 112.466 389.627 108.167 400.006 105.616C399.767 106.344 399.673 106.904 399.416 107.374C397.082 111.65 394.689 115.893 392.375 120.178C390.404 123.83 388.512 127.525 386.592 131.204C386.489 131.4 386.443 131.626 386.284 132.091C389.054 131.239 391.614 130.451 394.242 129.745C393.76 130.432 393.209 131.036 392.659 131.64Z" fill="#FBC051"/>
<path d="M283.489 164.479C283.639 164.803 283.555 165.204 283.717 165.415C285.859 168.201 285.658 170.864 283.354 173.542C277.272 174.077 271.426 173.356 266.028 170.331C261.341 167.703 258.329 163.757 256.949 158.44C256.999 158.292 257.087 158.217 257.087 158.217C260.904 161.488 265.671 162.418 270.347 163.501C274.623 164.493 278.955 165.136 283.489 164.479Z" fill="#EC6723"/>
<path d="M363.166 165.514C365.336 166.323 367.404 167.086 369.629 167.908C367.563 172.657 364.614 176.541 360.012 179.435C360.175 175.158 359.358 171.486 355.601 169.148C351.684 166.71 348.88 166.85 345.011 169.683C344.337 166.235 346.39 161.407 349.346 159.713C349.713 159.503 350.424 159.666 350.878 159.871C354.952 161.709 359.004 163.596 363.166 165.514Z" fill="#B89000"/>
<path d="M327.89 150.069C329.262 153.153 329.43 156.167 327.874 159.173C325.841 163.101 321.171 165.02 317.213 163.538C313.066 161.984 310.625 157.425 311.633 153.129C312.618 148.937 315.208 146.422 319.563 145.59C322.389 147.042 325.099 148.529 327.89 150.069ZM315.78 157.206C316.195 157.324 316.603 157.491 317.026 157.551C318.874 157.812 320.697 156.847 321.599 155.164C322.579 153.335 322.324 151.116 320.964 149.636C319.686 148.245 317.796 147.813 316.075 148.577C314.33 149.352 313.388 150.772 313.236 152.63C313.077 154.567 313.884 156.093 315.78 157.206Z" fill="#FDECCC"/>
<path d="M192.763 204.679C190.835 204.247 189.061 203.465 186.999 204.136C187.411 204.412 187.808 204.716 188.238 204.959C189.868 205.879 191.536 206.733 193.135 207.701C194.161 208.323 195.018 209.272 194.711 210.537C194.386 211.875 193.228 212.344 191.893 212.328C188.988 212.295 186.486 211.292 184.598 209.064C183.148 207.352 182.756 205.328 183.641 203.233C184.528 201.132 186.436 200.499 188.503 200.466C189.923 200.443 191.348 200.739 192.874 200.904C192.874 202.286 192.874 203.474 192.763 204.679Z" fill="#F5873F"/>
<path d="M317.513 135.976C317.81 135.515 318.046 135.145 318.171 134.949C323.091 139.507 327.759 143.832 332.445 148.174C331.101 149.051 329.536 149.256 327.906 148.691C323.942 147.316 320.626 144.926 317.841 141.849C316.078 139.901 316.08 138.211 317.513 135.976Z" fill="#B89000"/>
<path d="M179.58 221.715C179.333 220.975 178.951 220.324 178.986 219.697C179.024 218.995 179.252 218.024 179.744 217.705C180.239 217.386 181.327 217.469 181.864 217.821C184.194 219.345 186.632 220.486 189.392 221.003C190.689 221.247 191.503 223.121 191.156 224.551C190.777 226.112 189.188 227.255 187.541 227.003C184.129 226.482 181.356 224.931 179.58 221.715Z" fill="#F5873F"/>
<path d="M392.773 131.648C393.209 131.037 393.76 130.433 394.353 129.746C394.542 129.578 394.688 129.493 394.996 129.369C395.297 129.24 395.436 129.151 395.574 129.062C395.574 129.062 395.569 129.079 395.576 129.086C399.119 128.141 402.655 127.19 406.192 126.238C406.331 126.201 406.469 126.142 406.611 126.127C407.574 126.026 408.537 125.933 409.5 125.838C409.208 126.772 409.071 127.794 408.597 128.624C406.327 132.602 403.967 136.528 401.636 140.471C401.255 141.116 400.862 141.754 400.289 142.7C402.287 142.251 403.913 141.886 405.663 141.522C405.318 141.935 404.848 142.346 404.31 142.819C402.741 143.208 401.243 143.562 399.733 143.848C399.36 143.918 398.946 143.767 398.55 143.717C398.657 143.322 398.682 142.879 398.883 142.54C401.141 138.731 403.444 134.949 405.694 131.136C406.325 130.066 406.82 128.916 407.538 127.482C402.445 128.933 397.667 130.294 392.773 131.648Z" fill="#D58145"/>
<path d="M186.99 194.649C188.156 195.941 189.247 197.162 190.399 198.45C189.029 198.333 187.47 198.355 185.981 198.041C183.08 197.429 180.292 196.428 178.14 194.272C177.607 193.737 176.99 192.602 177.218 192.15C177.581 191.43 178.562 190.756 179.387 190.589C181.268 190.21 183.096 190.351 184.432 192.159C185.11 193.076 186.079 193.778 186.99 194.649Z" fill="#F5873F"/>
<path d="M191.013 214.421C191.699 214.769 192.602 215.008 192.747 215.481C192.955 216.156 192.881 217.314 192.436 217.702C191.712 218.333 190.553 218.89 189.644 218.801C186.955 218.54 184.535 217.387 182.585 215.493C180.571 213.536 180.472 211.368 182.237 209.604C184.427 212.44 187.315 214.067 191.013 214.421Z" fill="#F5873F"/>
<path d="M343.374 166.55C343.294 167.423 343.227 168.17 343.161 168.917C341.892 164.538 341.522 160.246 344.12 156.029C345.345 156.748 346.488 157.419 347.743 158.156C345.249 160.411 343.925 163.218 343.374 166.55Z" fill="#FEC700"/>
<path d="M197.775 214.445C197.389 216.717 197.048 218.887 196.654 221.048C196.58 221.455 196.392 221.94 196.091 222.188C195.282 222.853 194.383 223.41 193.563 223.981C193.208 222.866 192.848 221.735 192.475 220.563C195.286 218.286 195.599 217.351 194.597 213.956C195.181 213.426 195.778 212.885 196.631 212.111C197.043 212.897 197.422 213.619 197.775 214.445Z" fill="#F5873F"/>
<path d="M215.873 312.379C216.938 310.611 217.979 308.765 219.298 307.147C221.617 304.303 224.283 301.798 227.479 299.922C227.745 299.767 228.051 299.679 228.195 299.619C225.207 302.845 222.158 306.136 219.066 309.553C218.006 310.587 216.99 311.495 215.873 312.379Z" fill="#FBBF51"/>
<path d="M232.553 233.955C230.984 232.34 229.41 230.611 227.92 228.813C227.782 228.645 228.068 227.8 228.344 227.673C229.34 227.211 230.417 226.922 231.565 226.541C231.767 226.915 231.866 227.316 231.843 227.832C231.055 228.077 230.391 228.206 229.444 228.39C230.553 229.438 231.414 230.252 232.276 231.066C232.374 231.985 232.472 232.903 232.553 233.955Z" fill="#FBBF51"/>
<path d="M214.606 214.3C216.54 215.768 216.73 217.816 216.995 220.287C215.788 219.292 214.83 218.693 214.477 217.339C214.062 215.744 213.371 214.222 213.044 212.379C213.54 212.995 214.036 213.611 214.606 214.3Z" fill="#C6540D"/>
<path d="M320.485 304.993C320.639 304.756 320.761 304.615 320.97 304.373C321.272 307.191 321.56 309.879 321.848 312.567C320.123 310.287 319.304 307.857 320.485 304.993Z" fill="#FEC700"/>
<path d="M239.014 226.308C237.563 226.706 236.07 227.043 234.46 227.392C234.263 226.978 234.183 226.552 234.225 226.006C235.343 225.61 236.339 225.335 237.336 225.061C237.882 225.456 238.428 225.85 239.014 226.308Z" fill="#FBBF51"/>
<path d="M237.271 224.977C236.339 225.335 235.343 225.61 234.24 225.899C233.938 224.801 233.74 223.689 233.489 222.273C234.883 223.256 236.044 224.075 237.271 224.977Z" fill="#29474F"/>
<path d="M232.291 230.945C231.414 230.25 230.553 229.436 229.444 228.388C230.391 228.204 231.055 228.075 231.831 227.934C232.064 228.889 232.185 229.857 232.291 230.945Z" fill="#29474F"/>
<path d="M326.502 273.805C326.294 273.797 326.114 273.754 325.933 273.712C325.935 273.667 325.936 273.621 325.937 273.576C326.117 273.576 326.297 273.576 326.531 273.64C326.585 273.703 326.53 273.771 326.502 273.805Z" fill="#29474F"/>
<path d="M215.377 312.892C215.398 312.722 215.512 312.546 215.706 312.354C215.681 312.52 215.576 312.703 215.377 312.892Z" fill="#FBBF51"/>
<path d="M256.954 158.327C256.879 158.218 256.85 158.073 256.82 157.928C256.885 157.987 256.951 158.045 257.051 158.16C257.087 158.216 256.999 158.291 256.954 158.327Z" fill="#EC6723"/>
<path d="M278.798 332.435C278.861 332.426 278.883 332.457 278.905 332.488C278.856 332.484 278.806 332.479 278.798 332.435Z" fill="#FEC700"/>
<path d="M278.539 331.652C278.597 331.757 278.598 331.902 278.6 332.046C278.537 332.019 278.475 331.992 278.396 331.873C278.38 331.781 278.484 331.692 278.539 331.652Z" fill="#FEC700"/>
<path d="M326.188 182.349C326.257 182.279 326.362 182.244 326.466 182.209C326.46 182.275 326.454 182.34 326.371 182.43C326.294 182.453 326.224 182.384 326.188 182.349Z" fill="#FDEDCD"/>
<path d="M209.884 201.912C209.87 201.866 209.903 201.773 209.979 201.727C210.022 201.773 209.931 201.867 209.884 201.912Z" fill="#29474F"/>
<path d="M346.493 277.892C346.436 277.866 346.398 277.812 346.36 277.759C346.413 277.742 346.465 277.726 346.536 277.761C346.555 277.813 346.513 277.865 346.493 277.892Z" fill="#FBC051"/>
<path d="M414.771 471.205C414.693 471.244 414.57 471.198 414.428 471.05C414.515 471.005 414.621 471.062 414.771 471.205Z" fill="#29474F"/>
<path d="M212.397 212.174C212.383 212.153 212.41 212.195 212.397 212.174V212.174Z" fill="#C6540D"/>
<path d="M300.137 153.398C300.125 153.454 300.119 153.515 300.114 153.575C300.096 153.535 300.077 153.494 300.109 153.434C300.158 153.415 300.144 153.404 300.137 153.398Z" fill="#F7883F"/>
<path d="M121.039 123.867C120.954 124.203 120.904 124.438 120.854 124.673C119.131 117.787 114.786 113.547 107.8 111.859C115.621 109.19 118.359 106.545 120.774 98.6836C121.575 101.972 122.775 104.911 125.116 107.241C127.469 109.582 130.429 110.829 133.794 111.805C127.121 113.456 122.723 117.179 121.039 123.867Z" fill="#FCC24B"/>
<path d="M98.7353 140.798C97.5284 140.02 96.3983 139.312 95.324 138.638C96.4819 137.852 97.8768 137.159 98.9294 136.12C99.9865 135.076 100.703 133.687 101.63 132.361C102.64 135.371 104.739 137.408 108.137 138.579C104.879 139.793 102.666 141.715 101.656 144.841C100.659 143.447 99.7354 142.157 98.7353 140.798Z" fill="#F9C04B"/>
<path d="M91.0945 91.0126C91.9562 91.8383 92.7565 92.5796 93.3937 93.1698C92.1888 94.513 90.9243 95.9226 89.8087 97.1662C88.7191 95.9342 87.4762 94.5288 86.3499 93.2554C87.437 92.0433 88.6865 90.6502 89.9511 89.2402C90.2232 89.6647 90.6281 90.2965 91.0945 91.0126Z" fill="#F9C04B"/>
<path d="M145.959 125.977C145.617 126.543 145.335 127.025 145.125 127.384C143.868 125.976 142.647 124.607 141.502 123.324C142.569 122.145 143.82 120.761 144.99 119.469C146.088 120.696 147.344 122.098 148.149 122.997C147.499 123.879 146.758 124.885 145.959 125.977Z" fill="#F9C04B"/>
<path d="M205.339 285.427C205.538 291.398 205.558 297.245 206.003 303.06C206.441 308.789 207.31 314.485 207.989 320.196C207.849 320.234 207.709 320.272 207.569 320.31C207.414 320.007 207.197 319.721 207.114 319.399C204.501 309.254 203.175 298.955 203.38 288.464C203.577 278.405 206.188 268.957 210.307 259.838C213.067 253.731 215.615 247.528 218.283 241.379C218.431 241.039 218.811 240.8 219.083 240.514C219.224 240.965 219.595 241.498 219.469 241.855C218.123 245.663 216.965 249.57 215.24 253.205C211.802 260.445 208.138 267.582 206.646 275.545C206.044 278.761 205.769 282.039 205.339 285.427Z" fill="#2C1D21"/>
<path d="M230.735 297.97C230.75 297.989 230.691 297.995 230.691 297.995C230.691 297.995 230.719 297.95 230.735 297.97Z" fill="#FBBF51"/>
<path d="M304.5 503.483C315.707 503.453 326.77 503.468 337.831 503.381C348.454 503.297 359.075 503.021 369.697 503C375.438 502.989 381.18 503.336 386.922 503.522C387.163 503.53 387.427 503.494 387.64 503.578C388.16 503.785 388.655 504.052 389.16 504.294C388.64 504.498 388.121 504.875 387.598 504.882C373.694 505.065 359.79 505.327 345.886 505.334C325.358 505.344 304.831 505.155 284.303 505.078C277.59 505.053 270.877 505.153 264.164 505.11C261.949 505.095 259.736 504.815 257.524 504.639C257.269 504.618 257.023 504.486 256.772 504.405C256.768 504.282 256.764 504.158 256.759 504.035C257.37 503.935 257.978 503.758 258.59 503.747C266.068 503.616 273.545 503.452 281.023 503.412C288.8 503.37 296.578 503.454 304.5 503.483Z" fill="#2A1C1E"/>
<path d="M318.65 363.604C311.773 373.105 302.844 379.206 291.205 380.907C287.149 381.5 283.111 381.139 279.205 379.771C278.934 379.676 278.66 379.58 278.411 379.441C278.303 379.38 278.256 379.209 277.968 378.745C278.857 378.798 279.515 378.799 280.164 378.881C287.587 379.818 294.814 379.145 301.709 376.104C307.589 373.511 311.939 369.012 315.68 364.004C318.173 360.667 320.064 356.88 322.212 353.287C322.497 352.811 322.709 352.292 322.954 351.793C323.102 351.818 323.25 351.843 323.397 351.868C323.397 352.304 323.48 352.759 323.384 353.173C322.516 356.93 320.866 360.34 318.65 363.604Z" fill="#2E2120"/>
<path d="M331.376 141.317C328.163 138.412 325.254 135.394 323.215 131.681C323.339 131.57 323.463 131.459 323.587 131.348C323.859 131.579 324.172 131.778 324.399 132.047C329.626 138.255 336.097 142.937 342.927 147.176C347.107 149.771 351.309 152.328 355.49 154.921C356.083 155.288 356.61 155.763 357.451 156.403C354.573 156.782 337.23 146.52 331.376 141.317Z" fill="#2C1D21"/>
<path d="M395.487 129.061C395.435 129.15 395.297 129.239 395.071 129.328C395.122 129.238 395.261 129.149 395.487 129.061Z" fill="#8C3990"/>
<path d="M323.245 164.745C327.004 164.309 329.222 165.966 330.314 168.823C330.985 170.578 330.706 174.112 328.96 175.858C327.042 177.777 324.415 178.284 322.072 177.412C319.721 176.537 318.164 174.129 318.13 171.56C318.089 168.414 319.777 166.114 323.245 164.745Z" fill="#EE6823"/>
<path d="M348.611 185.905C348.519 186.609 348.484 187.327 348.31 188.011C348.231 188.322 347.879 188.563 347.519 188.69C347.371 188.146 347.355 187.747 347.339 187.348C347.346 187.135 347.353 186.922 347.371 186.471C347.495 184.263 347.609 182.295 347.734 180.124C346.027 180.872 344.552 181.519 343.076 182.166C342.209 182.353 341.342 182.541 340.475 182.729C340.416 182.593 340.357 182.458 340.298 182.322C341.18 181.824 342.062 181.326 343.115 180.739C344.53 180.144 345.801 179.694 347.003 179.103C347.437 178.89 347.911 178.381 348.008 177.93C348.37 176.247 348.584 174.533 348.854 172.83C349.126 172.593 349.398 172.356 349.721 172.312C349.637 174.3 349.501 176.094 349.345 178.148C351.514 177.175 353.395 176.33 355.276 175.486C355.911 175.461 356.547 175.436 357.183 175.411C356.688 175.831 356.202 176.263 355.693 176.667C355.511 176.81 355.276 176.886 354.893 177.084C354.234 177.378 353.764 177.646 353.258 177.774C350.216 178.541 348.248 180.106 348.675 183.612C348.766 184.363 348.638 185.14 348.611 185.905Z" fill="#311E1B"/>
<path d="M348.712 185.888C348.638 185.138 348.766 184.361 348.675 183.61C348.248 180.104 350.216 178.539 353.258 177.772C353.764 177.645 354.234 177.376 354.825 177.154C354.571 181.224 352.497 184.112 348.712 185.888Z" fill="#CA5B35"/>
<path d="M355.199 175.414C353.395 176.329 351.514 177.174 349.345 178.148C349.501 176.093 349.637 174.3 349.785 172.374C352.994 171.73 353.95 172.287 355.199 175.414Z" fill="#CA5B35"/>
<path d="M348.753 172.842C348.585 174.531 348.371 176.246 348.008 177.929C347.911 178.38 347.437 178.888 347.003 179.102C345.802 179.693 344.53 180.143 343.182 180.665C343.866 177.311 345.463 174.516 348.753 172.842Z" fill="#CA5B35"/>
<path d="M343.069 182.3C344.552 181.518 346.027 180.871 347.734 180.123C347.609 182.294 347.496 184.262 347.354 186.364C344.482 186.355 343.155 185.09 343.069 182.3Z" fill="#CA5B35"/>
<path d="M312.087 162.583C311.83 161.547 311.615 160.613 311.401 159.679C311.51 159.652 311.618 159.626 311.727 159.6C312.452 161.161 313.177 162.723 313.902 164.284C313.844 164.36 313.786 164.437 313.728 164.513C313.195 163.904 312.663 163.294 312.087 162.583Z" fill="#311E1B"/>
<path d="M311.059 161.508C311.66 162.862 312.178 164.162 312.695 165.462C312.585 165.541 312.475 165.619 312.364 165.698C312.064 165.362 311.591 165.069 311.497 164.683C311.238 163.628 311.138 162.533 311.059 161.508Z" fill="#311E1B"/>
<path d="M347.279 187.426C347.355 187.746 347.371 188.144 347.399 188.663C347.347 188.357 347.283 187.931 347.279 187.426Z" fill="#CA5B35"/>
<path d="M357.025 352.68C356.927 352.782 356.776 352.825 356.626 352.868C356.664 352.771 356.701 352.674 356.802 352.539C356.901 352.54 356.936 352.58 357.025 352.68Z" fill="#29474F"/>
<path d="M352.417 105.34C352.371 105.352 352.285 105.322 352.246 105.256C352.293 105.219 352.376 105.299 352.417 105.34Z" fill="#29474F"/>
<path d="M315.673 157.161C313.884 156.091 313.077 154.565 313.236 152.628C313.388 150.77 314.33 149.35 316.075 148.576C317.795 147.811 319.686 148.243 320.964 149.634C322.324 151.114 322.579 153.333 321.599 155.162C320.697 156.845 318.874 157.81 317.026 157.549C316.603 157.489 316.195 157.322 315.673 157.161Z" fill="#2A1C1D"/>
</g>
</svg>
