<svg width="860" height="1059" viewBox="0 0 860 1059" fill="none" xmlns="http://www.w3.org/2000/svg">
<g clip-path="url(#clip0_205_304)">
<path d="M364.767 981.265C364.438 977.947 363.026 975.37 360.531 973.533C358.036 971.696 354.649 970.777 350.372 970.777C347.466 970.777 345.012 971.189 343.01 972.011C341.009 972.806 339.473 973.917 338.404 975.343C337.362 976.768 336.841 978.386 336.841 980.196C336.786 981.704 337.102 983.02 337.787 984.144C338.5 985.268 339.473 986.241 340.707 987.064C341.941 987.859 343.367 988.558 344.984 989.161C346.602 989.737 348.329 990.231 350.167 990.642L357.734 992.452C361.408 993.274 364.781 994.371 367.852 995.742C370.922 997.113 373.582 998.799 375.83 1000.8C378.079 1002.8 379.82 1005.16 381.054 1007.87C382.315 1010.59 382.959 1013.7 382.987 1017.21C382.959 1022.37 381.643 1026.83 379.038 1030.62C376.461 1034.37 372.732 1037.29 367.852 1039.38C362.998 1041.44 357.145 1042.46 350.29 1042.46C343.49 1042.46 337.568 1041.42 332.523 1039.34C327.505 1037.25 323.584 1034.17 320.76 1030.08C317.963 1025.97 316.496 1020.88 316.359 1014.83H333.592C333.784 1017.65 334.593 1020.01 336.019 1021.9C337.472 1023.76 339.405 1025.18 341.818 1026.14C344.258 1027.07 347.013 1027.53 350.084 1027.53C353.1 1027.53 355.719 1027.1 357.94 1026.22C360.188 1025.34 361.929 1024.12 363.163 1022.56C364.397 1020.99 365.014 1019.2 365.014 1017.17C365.014 1015.28 364.452 1013.69 363.327 1012.4C362.231 1011.11 360.613 1010.01 358.474 1009.11C356.363 1008.2 353.772 1007.38 350.701 1006.64L341.53 1004.34C334.428 1002.61 328.821 999.91 324.708 996.235C320.596 992.561 318.553 987.612 318.58 981.388C318.553 976.288 319.91 971.833 322.652 968.022C325.421 964.211 329.219 961.236 334.044 959.097C338.87 956.958 344.354 955.889 350.496 955.889C356.747 955.889 362.203 956.958 366.864 959.097C371.553 961.236 375.2 964.211 377.804 968.022C380.409 971.833 381.753 976.247 381.835 981.265H364.767ZM416.826 1041.27H397.742L426.82 957.041H449.769L478.806 1041.27H459.722L438.624 976.288H437.966L416.826 1041.27ZM415.633 1008.16H460.709V1022.06H415.633V1008.16ZM568.568 986.529H550.554C550.225 984.199 549.554 982.129 548.539 980.319C547.525 978.482 546.222 976.919 544.632 975.63C543.042 974.342 541.205 973.355 539.121 972.669C537.064 971.984 534.83 971.641 532.417 971.641C528.057 971.641 524.26 972.724 521.025 974.89C517.789 977.029 515.28 980.154 513.498 984.267C511.716 988.353 510.825 993.315 510.825 999.156C510.825 1005.16 511.716 1010.21 513.498 1014.29C515.308 1018.38 517.83 1021.46 521.066 1023.54C524.301 1025.63 528.044 1026.67 532.294 1026.67C534.679 1026.67 536.886 1026.35 538.915 1025.72C540.972 1025.09 542.795 1024.18 544.385 1022.97C545.975 1021.73 547.292 1020.24 548.333 1018.49C549.403 1016.73 550.143 1014.73 550.554 1012.48L568.568 1012.56C568.102 1016.43 566.937 1020.16 565.072 1023.75C563.235 1027.31 560.754 1030.51 557.628 1033.33C554.53 1036.13 550.829 1038.35 546.524 1040C542.247 1041.61 537.407 1042.42 532.006 1042.42C524.493 1042.42 517.775 1040.72 511.853 1037.32C505.958 1033.92 501.297 1029 497.87 1022.56C494.47 1016.11 492.77 1008.31 492.77 999.156C492.77 989.97 494.497 982.156 497.952 975.713C501.407 969.269 506.095 964.361 512.018 960.989C517.94 957.589 524.603 955.889 532.006 955.889C536.886 955.889 541.41 956.574 545.578 957.945C549.773 959.316 553.488 961.318 556.724 963.95C559.959 966.555 562.591 969.749 564.62 973.533C566.676 977.317 567.993 981.649 568.568 986.529Z" fill="white"/>
<path d="M428.492 0.196254C431.697 0.196254 434.921 0.362779 438.117 0.168501C458.03 -1.05268 477.194 4.71091 496.799 6.29289C497.933 6.3854 499.048 6.95898 500.135 7.39379C503.331 8.65198 505.608 9.03129 503.274 14.1565C499.217 23.0748 497.267 32.9182 494.315 42.3361C492.413 48.4142 490.492 54.5016 488.187 60.441C486.697 64.2803 487.559 66.1213 491.588 67.1945C509.169 71.8664 526.112 78.3516 542.53 85.9839C554.066 91.3404 565.115 97.7886 576.013 104.348C579.359 106.365 580.914 105.782 582.967 103.386C593.116 91.5532 605.008 81.275 614.5 68.8227C619.467 62.3005 620.254 62.2912 626.777 67.3887C644.807 81.4878 660.494 97.8996 675.272 115.218C679.864 120.602 684.381 126.07 689.179 131.278C691.447 133.749 691.41 134.961 688.57 137.098C675.357 147.006 662.35 157.173 649.305 167.303C645.941 169.912 645.21 172.095 647.956 176.601C656.024 189.895 663.549 203.578 669.828 217.815C674.045 227.4 678.459 236.929 680.951 247.188C681.888 251.028 685.599 249.899 688.073 249.548C704.51 247.244 720.957 245.125 737.534 244.191C741.854 243.951 742.867 247.522 743.185 250.343C745.153 267.782 749.529 284.851 749.773 302.632C749.914 313.012 749.848 323.494 750.598 333.892C750.944 338.74 748.986 339.887 744.357 339.933C728.594 340.118 713.01 337.482 697.276 337.343C692.469 337.297 690.95 338.74 690.257 343.513C686.949 366.161 681.504 388.364 674.56 410.188C673.333 414.046 670.765 417.404 669.528 421.363C668.497 424.666 668.113 426.35 672.142 428.542C686.78 436.517 701.718 443.918 716.534 451.541C720.366 453.512 721.004 456.056 718.83 459.525C707.678 477.362 697.051 495.541 684.231 512.295C678.028 520.399 671.121 527.985 664.571 535.83C662.753 538.004 661.403 538.476 658.835 536.228C648.012 526.755 636.813 517.698 625.971 508.252C623.056 505.717 618.596 505.726 616.487 501.795C615.756 500.425 613.582 501.739 612.439 502.96C599.544 516.726 584.063 527.356 568.516 537.838C561.891 542.297 554.816 546.155 547.722 549.874C544.339 551.65 543.458 553.001 545.754 556.414C554.778 569.81 563.418 583.465 572.508 596.815C574.935 600.377 574.439 601.783 570.728 603.763C559.079 609.98 546.597 614.143 534.312 618.796C516.45 625.559 497.577 628.593 479.087 633.006C476.117 633.719 474.177 632.794 473.905 629.185C473.296 620.804 472.827 612.367 471.394 604.114C470.129 596.834 470.494 589.59 470.344 582.328C470.25 577.397 468.535 574.307 462.894 575.01C449.971 576.619 436.852 575.028 424.051 576.499C410.603 578.044 397.68 574.63 384.476 574.871C383.192 574.899 381.89 574.02 380.606 573.539C374.786 571.365 373.325 572.53 372.753 578.571C371.9 587.675 369.154 596.436 367.065 605.308C365.64 611.34 364.141 617.39 363.288 623.505C362.66 628.048 360.242 629.13 356.372 628.344C341.744 625.402 327.856 620.341 313.874 615.151C295.375 608.287 278.638 598.073 260.711 590.219C257.057 588.618 256.138 585.843 259.081 582.124C269.52 568.922 279.65 555.489 290.043 542.26C291.824 539.993 290.334 538.966 289.022 537.93C283.774 533.813 278.367 529.9 273.1 525.793C262.595 517.605 251.94 509.667 242.203 500.472C236.309 494.893 230.761 489.203 225.851 482.829C224.398 480.942 223.33 481.146 221.484 482.561C211.822 489.953 201.982 497.123 192.264 504.45C188.029 507.651 183.83 510.926 179.829 514.413C177.336 516.587 176.221 514.589 175.012 513.238C169.118 506.652 163.992 499.473 159.494 491.923C151.837 479.083 144.528 466.029 137.2 453.003C133.892 447.128 132.851 440.227 128.419 434.75C127.266 433.325 129.084 431.105 131.343 430.032C138.259 426.766 144.884 422.825 151.95 419.929C161.387 416.062 170.13 410.872 179.445 406.83C183.156 405.211 182.078 401.852 181.15 399.752C173.419 382.314 173.353 363.339 169.924 345.077C168.752 338.823 168.49 332.023 169.436 325.418C169.942 321.856 168.078 319.543 164.376 319.71C153.065 320.209 141.763 321.051 130.452 321.588C124.061 321.884 117.661 322.004 111.26 321.875C107.746 321.801 107.652 318.748 108.365 316.574C110.557 309.894 109.423 302.965 110.295 296.174C111.485 286.895 112.694 277.644 114.109 268.383C116.611 252.027 120.791 236.105 124.97 220.138C125.851 216.77 127.566 213.717 127.838 210.063C128.11 206.473 131.446 205.909 134.182 207.334C148.098 214.55 163.176 219.129 177.233 226.021C180.663 227.705 182.715 227.798 184.842 223.477C194.617 203.624 204.559 183.798 217.941 165.98C222.655 159.699 227.997 153.842 233.385 148.097C236.328 144.961 236.524 142.704 233.357 139.66C221.502 128.263 209.554 116.957 197.025 106.291C194.148 103.839 194.345 101.332 196.566 99.2781C211.916 85.0865 227.238 70.8395 244.415 58.7757C251.143 54.0483 258.144 49.6539 265.21 45.4168C268.836 43.2427 271.638 41.1612 275.105 47.5169C282.471 61.0053 290.577 74.1515 298.018 87.6399C300.436 92.025 303.144 92.7559 307.642 90.2765C325.372 80.4701 344.518 73.7814 363.953 68.6377C373.259 66.1768 382.752 62.4485 392.873 63.1239C395.862 63.3274 397.343 62.0322 396.556 58.748C393.173 44.5657 389.274 30.4851 388.337 15.8218C388.178 13.3702 386.547 11.1868 385.826 8.73524C384.514 4.2946 386.603 3.75802 390.09 2.46284C402.759 -2.19984 415.766 1.69497 428.492 0.196254ZM437.329 228.149C437.62 225.957 437.873 225.18 437.798 224.439C436.861 215.937 435.23 207.519 433.862 199.109C432.41 190.2 431.819 180.042 421.801 174.825C419.693 173.724 418.634 171.503 418.119 169.052C417.519 166.221 416.994 163.214 415.617 160.744C409.881 150.457 410.622 139.669 413.105 128.919C413.817 125.839 416.029 122.453 419.721 121.426C423.638 120.343 423.816 124.127 425.259 126.181C426.703 128.244 428.202 128.67 429.776 126.357C432.278 122.684 435.455 119.483 436.889 115.079C437.461 113.322 438.941 111.573 441.415 111.925C442.446 112.073 443.561 112.933 443.233 113.766C442.502 115.625 442.024 117.864 444.095 118.253C446.504 118.706 447.047 115.727 448.275 114.108C450.562 111.111 451.583 107.429 446.644 107.253C432.438 106.744 418.034 105.8 404.015 107.503C388.356 109.399 372.959 113.534 357.928 118.891C338.895 125.672 321.296 135.072 304.924 146.478C287.906 158.329 273.484 173.243 260.365 189.164C249.953 201.801 241.641 215.928 234.631 230.666C228.634 243.266 224.642 256.597 220.809 270.039C217.895 280.253 216.367 290.596 215.496 300.92C214.427 313.595 215.411 326.417 215.158 339.175C215.055 344.392 217.548 345.465 221.849 344.346C238.146 340.1 254.498 336.131 270.898 332.273C292.826 327.12 314.436 320.607 336.458 315.695C341.987 314.464 347.423 312.79 352.886 311.254C355.65 310.477 356.625 308.497 355.988 305.851C354.91 301.337 353.617 296.868 352.558 292.354C350.065 281.798 347.582 271.233 345.239 260.649C342.606 248.743 340.216 236.771 337.536 224.874C335.231 214.652 333.75 204.494 337.798 194.336C338.801 191.819 337.592 189.497 336.055 187.832C330.292 181.624 327.115 173.696 321.652 167.275C318.072 163.057 318.166 157.682 318.906 152.621C319.656 147.478 327.059 143.842 331.96 145.729C335.559 147.117 338.679 149.254 340.938 152.316C345.783 158.875 350.768 165.37 355.051 172.29C357.937 176.952 361.536 178.803 366.812 178.368C372.05 177.933 377.232 178.174 381.524 181.68C391.739 190.043 401.878 198.48 412.027 206.927C420.143 213.708 428.239 220.526 437.329 228.149ZM247.264 346.502C239.608 347.408 232.935 348.426 226.122 348.213C217.267 347.936 216.957 348.435 217.679 357.113C217.791 358.436 218.288 359.74 218.719 361.017C221.39 368.918 223.555 377.031 225.654 385.024C230.836 404.693 240.442 422.252 251.546 438.737C264.479 457.934 281.244 473.967 299.77 488.352C324.229 507.345 352.146 518.382 381.674 526.19C387.719 527.791 394.166 527.883 400.417 528.753C403.949 529.243 405.065 527.143 404.006 524.618C400.951 517.346 401.597 509.344 398.645 501.998C394.597 491.942 394.991 491.812 383.942 491.822C365.893 491.84 347.854 491.831 329.805 491.775C326.019 491.766 322.224 491.313 318.456 491.461C316.667 491.526 314.886 492.321 313.49 490.684C311.85 488.75 313.836 487.316 314.614 486.03C319.853 477.353 325.56 468.943 330.62 460.164C341.922 440.578 353.608 421.234 365.443 401.963C368.348 397.227 373.25 392.647 372.678 386.902C371.197 372.045 366.755 357.686 363.55 343.116C363.185 341.46 362.426 339.776 359.905 340.118C346.954 341.913 333.825 342.32 320.846 342.958C296.022 344.18 271.235 346.677 247.264 346.502ZM643.57 314.649C643.223 308.913 643.317 302.289 642.576 295.591C640.665 278.31 636.354 261.713 630.31 245.495C621.988 223.163 610.218 202.893 595.14 184.168C579.096 164.25 559.764 148.606 537.919 135.608C532.194 132.204 531.631 132.583 531.631 139.355C531.613 193.429 531.65 247.503 531.556 301.586C531.547 304.815 532.381 307.174 534.855 309.283C549.118 321.421 564.187 332.625 577.831 345.484C581.28 348.731 585.787 349.138 590.089 347.834C604.511 343.467 618.989 339.36 633.749 336.27C643.373 334.253 643.589 334.022 643.579 324.474C643.57 321.504 643.57 318.535 643.57 314.649ZM424.65 481.238C451.311 481.238 477.982 481.238 504.642 481.238C508.653 481.238 512.664 481.266 516.675 481.22C519.608 481.192 522.101 479.989 521.632 476.816C519.992 465.603 520.93 454.363 520.995 443.16C521.089 427.599 519.842 412.01 521.707 396.468C522.017 393.896 520.826 392.786 518.09 393.989C507.482 398.651 496.874 403.314 486.209 407.856C483.735 408.911 483.379 410.641 483.407 412.963C483.51 420.281 483.51 427.608 483.445 434.935C483.379 442.105 482.255 443.197 475.189 443.197C457.346 443.206 439.494 443.567 421.661 443.076C408.541 442.716 395.965 443.548 384.664 450.94C383.548 451.671 382.415 451.662 381.356 450.875C379.847 449.756 381.215 449.025 381.684 448.044C387.99 434.926 394.335 421.826 400.454 408.624C409.797 388.466 418.728 368.113 428.324 348.065C434.321 335.548 432.766 337.445 421.727 337.38C417.266 337.352 414.389 337.981 411.952 342.727C406.358 353.588 399.564 363.848 393.201 374.33C385.02 387.8 376.717 401.196 368.592 414.693C356.456 434.87 344.452 455.131 332.298 475.308C331.398 476.807 329.561 478.241 330.227 479.86C331.154 482.135 333.731 481.201 335.615 481.21C365.312 481.257 394.981 481.238 424.65 481.238ZM307.23 332.689C307.323 333.106 307.417 333.522 307.511 333.938C308.907 333.938 310.304 333.994 311.69 333.929C327.584 333.152 343.487 332.44 359.371 331.542C371.263 330.876 383.211 330.543 394.991 329.017C410.865 326.963 426.862 329.285 442.69 326.917C447.263 326.232 448.181 328.591 446.241 332.68C435.736 354.754 425.334 376.883 414.951 399.012C410.416 408.671 406.03 418.403 401.541 428.089C400.894 429.486 399.536 430.985 401.288 432.225C402.375 433.002 403.94 432.641 405.28 432.002C416.254 426.757 427.621 422.418 438.81 417.672C450.852 412.556 462.763 407.005 474.861 402.111C491.448 395.395 507.697 387.92 524.406 381.527C535.567 377.253 546.11 371.489 557.73 368.372C559.211 367.974 560.701 367.289 560.232 365.726C559.726 364.014 557.758 364.625 556.605 364.94C548.34 367.197 540.197 369.908 531.875 371.924C517.406 375.431 503.199 379.936 488.73 383.276C480.296 385.218 472.115 388.086 463.606 389.548C461.76 389.863 459.08 391.482 457.571 389.326C455.997 387.078 458.133 384.802 458.977 382.795C462.557 374.256 466.736 365.966 470.232 357.4C479.303 335.141 488.374 312.891 498.617 291.132C499.348 289.587 499.507 288.052 498.72 286.599C497.745 284.804 496.255 286.081 495.075 286.359C477.522 290.503 459.951 294.602 442.446 298.913C428.942 302.243 415.523 305.934 402.028 309.302C389.499 312.429 376.951 315.51 364.338 318.304C348.66 321.782 333.357 326.768 317.435 329.303C313.94 329.868 310.622 331.533 307.23 332.689ZM524.359 497.067C524.837 500.018 524.65 504.69 527.508 506.633C530.572 508.715 533.056 504.246 535.886 502.84C536.589 502.488 537.31 502.174 538.004 501.795C558.302 490.545 575.535 475.502 591.016 458.609C606.16 442.077 617.434 422.927 626.786 402.667C628.37 399.225 628.651 396.709 624.902 394.34C613.948 387.448 603.096 380.389 592.338 373.201C585.478 368.612 579.481 367.373 571.121 371.545C560.719 376.735 550.008 381.795 538.641 385.117C533.15 386.717 531.032 389.779 531.219 396.57C532.025 425.24 531.603 453.937 531.519 482.626C531.51 486.16 530.966 490.249 527.077 491.47C523.9 492.469 524.425 494.301 524.359 497.067ZM523.225 159.948C517.134 163.149 516.356 168.774 513.554 172.946C505.514 184.936 498.645 197.638 491.195 209.97C483.464 222.774 476.004 235.782 468.292 248.613C461.47 259.974 455.144 271.631 447.544 282.538C446.71 283.731 445.389 285.415 446.476 286.867C447.685 288.477 449.325 286.775 450.758 286.71C458.18 286.405 464.787 283.019 471.9 281.529C485.497 278.68 498.917 275.017 512.374 271.584C513.583 271.279 514.763 270.659 515.579 271.769C516.347 272.815 515.56 273.916 515.063 275.026C512.842 279.957 510.79 284.952 508.663 289.92C502 305.509 494.85 320.922 488.936 336.788C487.015 341.931 482.901 346.391 483.37 352.524C483.773 357.835 483.717 363.219 483.361 368.538C483.042 373.349 485.282 373.83 489.114 372.812C497.614 370.564 506.02 367.521 514.67 366.42C521.37 365.569 522.157 362.608 522.138 357.113C521.988 316.759 522.045 276.395 522.063 236.041C522.063 229.972 522.757 223.903 522.972 217.871C523.413 206.02 522.551 194.104 522.007 182.226C521.698 175.065 522.804 167.96 523.225 159.948ZM428.727 531.094C440.619 530.973 452.333 529.197 464.112 527.754C482.648 525.478 499.938 519.677 516.872 512.276C521.098 510.435 522.804 509.001 520.161 504.283C518.859 501.943 517.743 498.927 517.359 496.105C516.694 491.183 513.489 491.091 509.778 491.359C507.604 491.516 505.43 491.794 503.256 491.803C479.04 491.831 454.825 491.886 430.61 491.766C426.3 491.748 421.998 492.266 417.584 491.026C415.345 490.397 410.931 491.026 411.952 495.365C413.77 503.108 413.611 510.898 413.752 518.725C413.977 531.094 414.061 531.094 426.318 531.094C427.124 531.094 427.93 531.094 428.727 531.094ZM472.321 181.143C473.624 189.775 474.917 198.406 476.248 207.038C476.529 208.869 475.189 211.811 477.241 212.311C480.015 212.996 480.737 209.776 481.889 207.843C488.14 197.37 494.325 186.851 500.585 176.379C508.878 162.492 517.256 148.662 525.484 134.738C526.955 132.241 528.52 129.4 524.181 127.643C514.585 123.776 505.064 119.714 495.449 115.884C490.548 113.932 487.503 115.412 486.284 120.556C484.363 128.753 483.735 137.135 483.473 145.526C483.192 154.324 484.513 163.519 477.363 170.652C474.439 173.585 470.663 176.027 472.321 181.143ZM452.248 257.023C452.23 254.219 450.815 253.109 449.559 252.36C441.415 247.522 437.001 238.973 429.514 233.311C417.566 224.291 405.927 214.809 395.112 204.429C394.166 203.522 393.163 202.976 391.917 203.393C390.361 203.911 390.642 205.446 390.952 206.39C393.885 215.401 390.146 222.312 383.951 228.418C381.937 230.407 382.396 231.581 384.598 232.969C403.312 244.718 421.97 256.56 440.722 268.254C441.828 268.948 443.646 270.909 444.883 269.123C447.741 265.044 450.102 260.612 452.248 257.023ZM384.101 298.848C382.611 286.155 381.262 275.507 380.137 264.84C379.172 255.709 378.479 246.541 377.654 237.391C377.401 234.542 375.855 233.793 373.128 234.468C365.94 236.244 358.996 235.967 352.774 231.443C351.687 230.647 350.478 230.203 349.475 230.814C348.36 231.489 348.575 232.988 348.856 234.089C352.268 247.235 354.91 260.547 357.815 273.795C359.624 282.048 361.386 290.383 363.11 298.672C364.759 306.619 366.127 307.785 373.952 305.555C375.086 305.231 376.276 305.111 377.457 304.991C382.546 304.491 385.188 302.206 384.101 298.848ZM396.799 300.624C405.468 298.302 414.23 295.388 423.226 293.75C429.72 292.566 433.6 289.384 436.767 284C439.307 279.67 438.782 277.616 434.312 274.924C420.424 266.561 406.892 257.615 393.238 248.872C392.161 248.178 391.476 246.513 389.752 247.762C388.403 248.743 388.262 250.084 388.693 251.463C390.895 258.466 389.218 265.774 390.671 272.935C392.32 281.104 392.592 289.56 393.21 297.914C393.388 300.448 394.531 300.893 396.799 300.624ZM642.342 346.853C642.267 342.413 641.115 341.867 637.151 343.449C632.634 345.253 628.548 347.852 623.881 349.453C615.991 352.173 608.353 355.623 600.603 358.741C597.595 359.953 596.705 361.368 599.835 363.598C602.543 365.532 605.27 367.474 607.706 369.713C614.229 375.69 622.241 380.01 627.686 387.152C628.529 388.262 628.979 389.826 630.609 389.53C632.1 389.261 632.446 387.846 632.821 386.412C634.686 379.316 636.916 372.313 638.65 365.189C640.168 358.991 641.19 352.672 642.342 346.853ZM459.174 191.255C456.053 191.69 452.942 192.347 449.802 192.513C443.336 192.855 441.678 195.214 442.83 201.616C443.861 207.343 445.979 212.801 446.316 218.713C446.635 224.116 447.769 229.481 448.65 234.847C449.531 240.194 454.151 242.803 458.199 244.469C461.61 245.875 460.832 240.222 463.147 238.622C464.075 237.974 464.899 236.882 465.284 235.828C466.568 232.275 470.616 229.491 469.023 225.161C465.621 215.937 467.045 206.196 465.602 196.759C464.974 192.633 463.569 190.58 459.174 191.255ZM451.855 433.77C458.237 433.77 463.625 433.723 469.013 433.788C471.281 433.816 472.874 433.501 472.79 430.661C472.649 426.128 472.762 421.595 472.752 417.062C472.743 414.536 471.853 413.306 469.116 414.619C456.672 420.605 443.721 425.416 430.91 430.541C429.598 431.068 427.124 431.438 427.518 433.279C427.968 435.398 430.489 435.277 432.1 434.815C438.96 432.817 445.942 434.297 451.855 433.77ZM559.304 353.412C559.211 352.57 558.789 352.136 557.992 351.701C550.299 347.519 542.858 342.949 535.802 337.768C534.743 336.991 533.065 337.074 531.838 337.953C530.554 338.869 530.844 339.915 531.125 341.46C531.997 346.289 531.884 351.238 531.228 356.123C530.657 360.397 532.447 361.054 536.467 360.832C543.42 360.443 549.287 355.781 556.437 356.419C558.208 356.567 559.286 355.3 559.304 353.412ZM379.978 339.794C372.387 339.794 372.584 339.757 373.952 346.844C375.124 352.904 378.469 358.445 377.879 364.958C377.691 367.067 379.238 369.315 379.894 371.526C380.447 373.386 382.499 373.775 382.967 372.711C385.048 367.992 390.389 364.375 389.396 358.797C388.768 355.272 388.609 351.84 388.553 348.361C388.421 339.794 388.487 339.794 379.978 339.794ZM464.29 128.744C461.601 129.946 460.757 131.204 460.579 133.221C460.354 135.719 459.951 138.254 459.164 140.632C458.649 142.195 458.18 144.536 456.259 144.739C454.048 144.98 453.167 142.824 452.098 141.131C450.59 138.726 451.152 136.172 451.077 133.665C451.03 131.797 450.618 130.677 448.378 130.779C446.382 130.871 446.204 132.065 446.204 133.545C446.204 136.505 446.195 139.475 446.195 142.436C446.195 154.805 446.195 154.805 458.358 152.159C462.482 151.261 464.881 149.43 464.403 144.573C463.897 139.503 464.29 134.35 464.29 128.744ZM329.552 155.748C327.696 156.581 326.384 157.33 328.212 159.967C333.216 167.164 337.93 174.556 342.737 181.893C344.208 184.131 346.101 184.168 348.182 182.929C350.965 181.263 348.969 179.552 347.957 178.164C343.131 171.522 338.098 165.018 333.328 158.339C332.354 156.951 331.679 155.684 329.552 155.748ZM366.249 218.741C371.113 218.731 375.161 215.096 375.264 210.636C375.396 205.289 371.422 200.932 366.362 200.886C362.52 200.849 357.234 206.113 357.131 210.091C357.009 214.846 361.123 218.75 366.249 218.741ZM458.452 160.392C455.875 161.521 452.305 161.419 448.884 162.122C446.326 162.659 445.867 164.722 446.185 167.09C446.588 170.125 448.425 169.32 450.421 168.95C453.673 168.349 456.981 168.071 460.261 167.599C463.25 167.164 463.184 164.953 463.128 162.715C463.053 159.856 460.889 160.67 458.452 160.392ZM553.101 338.61C553.166 337.352 553.457 336.473 553.185 336.242C546.775 330.811 540.309 325.436 533.815 320.098C532.85 319.303 531.969 319.867 531.21 320.626C529.767 322.069 530.807 323.077 531.819 324.104C537.854 330.266 545.248 334.401 553.101 338.61ZM438.913 149.624C437.657 146.756 438.023 142.796 437.592 138.92C437.47 137.791 437.076 135.932 435.465 135.802C433.843 135.673 433.628 137.347 432.869 138.485C429.851 143.055 435.08 146.525 434.237 150.78C433.862 152.677 434.706 154.638 437.03 154.324C438.801 154.092 439.222 152.251 438.913 149.624ZM419.534 146.617C420.49 148.93 421.558 151.807 422.87 154.573C423.423 155.739 424.791 156.054 425.99 155.609C427.434 155.082 427.274 153.574 426.927 152.603C425.972 149.901 424.828 147.237 423.507 144.693C423.029 143.768 422.101 142.547 420.714 142.944C419.131 143.398 419.983 144.915 419.534 146.617ZM462.144 108.252C459.239 108.058 456.934 108.465 457.084 111.823C457.168 113.729 457.871 116.763 459.633 116.227C462.238 115.422 464.965 113.248 465.377 110.074C465.705 107.493 463.25 108.539 462.144 108.252ZM429.926 164.037C427.733 164.074 425.381 164.676 426.112 166.748C426.89 168.959 428.736 171.124 431.819 171.235C434.218 171.328 434.518 169.875 434.181 168.191C433.703 165.832 432.991 163.482 429.926 164.037ZM473.849 115.329C474.036 116.874 473.193 119.131 476.154 118.983C479.153 118.826 480.83 117.207 481.149 114.284C481.458 111.471 479.359 111.934 477.625 111.767C474.927 111.518 473.362 112.295 473.849 115.329ZM401.71 340.331C401.522 339.563 402.356 337.38 400.295 337.731C398.467 338.046 396.912 339.628 396.884 341.894C396.855 343.439 396.977 345.549 398.889 345.188C400.744 344.846 402.038 342.995 401.71 340.331Z" fill="white"/>
<path d="M330.219 769.594C326.79 766.587 323.05 765.597 319.949 765.31C309.772 764.385 300.56 760.278 290.917 757.687C275.005 753.404 259.383 747.945 244.642 740.72C227.793 732.459 210.896 724.29 194.581 714.863C180.15 706.527 168.267 695.675 156.085 684.814C148.41 677.968 140.838 671.289 135.552 662.278C131.167 654.812 129.414 647.643 134.775 640.13C136.686 637.457 134.831 636.273 133.294 634.765C126.247 627.835 119.134 620.971 112.181 613.958C92.8668 594.457 76.2517 572.91 62.5792 549.199C52.702 532.056 43.6307 514.562 35.5621 496.439C28.7774 481.183 23.8107 465.382 18.6566 449.71C13.8398 435.075 10.9629 419.727 8.19838 404.453C5.57446 389.974 5.11527 375.339 3.40972 360.805C1.94782 348.353 -0.479311 335.937 0.0829578 323.411C0.626485 311.31 2.31329 299.246 3.84079 287.201C4.64671 280.809 5.84622 274.462 5.92119 268.005C6.05239 257.597 9.47286 247.707 10.7005 237.475C12.0406 226.272 16.8386 215.827 18.0193 204.587C18.4692 200.303 21.899 197.019 22.0302 192.412C22.0771 190.849 24.7478 191.071 26.5752 192.976C35.2623 202.006 44.3523 210.665 53.0394 219.694C55.9819 222.747 58.6246 222.784 61.9607 220.832C75.4926 212.904 89.9617 206.65 103.184 198.166C104.271 197.473 105.499 196.917 106.38 197.898C107.355 198.971 106.97 200.414 106.521 201.802C102.313 214.865 98.1334 227.928 94.8628 241.268C91.0207 256.94 88.0875 272.677 86.0446 288.746C83.833 306.148 82.5491 323.466 83.0083 340.896C83.3925 355.689 85.0606 370.38 87.1878 385.108C89.2214 399.207 92.3701 412.945 96.1373 426.545C100.935 443.863 107.148 460.738 115.376 476.844C121.036 487.918 126.565 499.048 133.303 509.548C143.527 525.469 154.726 540.642 166.758 555.296C176.551 567.23 189.418 576.333 197.936 589.396C203.456 597.852 207.054 607.001 209.05 616.752C209.838 620.582 209.041 624.486 206.708 627.983C204.262 631.647 205.489 634.422 209.088 636.828C229.77 650.631 251.689 662.398 274.648 671.761C294.319 679.791 314.832 685.73 335.702 690.68C352.448 694.648 369.494 696.027 386.259 699.422C398.919 701.985 412.105 701.115 425.084 700.995C434.305 700.902 443.535 700.801 452.747 700.986C464.911 701.235 476.784 698.858 488.742 697.341C504.364 695.361 519.732 692.058 534.904 687.997C549.476 684.093 563.57 678.921 577.552 673.176C595.554 665.784 612.619 656.912 628.841 646.329C633.601 643.23 638.202 639.899 642.85 636.633C645.521 634.765 646.083 632.415 644.125 629.723C639.842 623.82 640.779 617.844 643.132 611.433C649.363 594.466 660.956 581.44 673.972 569.395C684.552 559.607 694.055 548.857 703.323 537.866C714.081 525.099 723.189 511.213 731.698 496.948C739.842 483.293 746.655 469.055 752.137 454.077C755.239 445.593 758.922 437.332 761.761 428.682C765.547 417.192 766.981 405.285 769.773 393.638C775.471 369.816 776.53 345.549 775.705 321.228C775.209 306.574 774.337 291.808 771.948 277.367C768.939 259.253 764.825 241.25 759.962 223.534C757.282 213.764 754.986 203.643 749.841 194.623C749.091 193.309 749.288 191.977 750.028 190.136C760.852 196.908 771.591 203.597 782.303 210.332C787.119 213.366 791.852 216.54 796.669 219.565C799.564 221.387 802.029 221.609 805.253 219.185C813.377 213.08 820.574 206.058 827.771 198.981C832.298 194.531 833.91 194.512 836.037 200.414C841.931 216.817 848.201 233.099 850.6 250.584C851.462 256.838 853.017 263.129 854.367 269.309C860.533 297.581 859.596 326.177 858.312 354.551C857.516 372.064 855.098 389.734 850.993 407.154C847.929 420.161 845.549 433.419 841.819 446.259C837.677 460.507 832.345 474.421 827.434 488.455C823.339 500.167 818.597 511.648 812.965 522.694C805.028 538.273 796.584 553.575 786.913 568.238C771.188 592.079 752.202 613.089 731.277 632.489C728.231 635.31 726.788 637.697 730.171 641.139C732.261 643.267 731.811 646.329 731.042 648.466C725.476 664.064 715.842 676.932 703.051 687.553C687.317 700.616 670.664 712.411 652.568 722.023C641.707 727.796 630.809 733.495 619.254 738.102C609.292 742.08 599.321 745.975 589.238 749.638C570.44 756.475 551.369 762.368 531.68 766.18C529.047 766.689 526.386 767.188 523.256 769.825C526.489 769.825 528.569 769.825 530.659 769.825C597.026 769.816 663.392 769.806 729.749 769.806C737.921 769.806 737.874 769.816 736.3 777.79C735.962 779.511 736.093 781.333 736.093 783.11C736.075 804.527 736.075 825.944 736.065 847.36C736.065 855.27 736.075 855.27 728.287 855.27C603.585 855.27 478.874 855.27 354.172 855.27C281.789 855.27 209.416 855.27 137.033 855.27C128.655 855.27 129.339 855.187 128.29 846.796C126.912 835.75 127.812 824.75 127.568 813.741C127.296 801.168 127.437 788.596 127.521 776.023C127.559 770.917 130.614 769.732 135.421 769.751C178.931 769.89 222.432 769.816 265.943 769.816C285.791 769.816 305.639 769.834 325.487 769.825C326.79 769.825 328.083 769.705 330.219 769.594ZM606.762 845.834C644.041 845.834 681.328 845.834 718.607 845.834C720.209 845.834 721.84 846 723.414 845.76C726.066 845.344 728.259 843.66 727.5 840.995C725.673 834.547 726.563 828.044 726.675 821.614C726.91 809.032 725.42 796.413 727.528 783.841C728.053 780.686 725.945 779.169 722.355 779.178C679.22 779.289 636.084 779.298 592.949 779.261C580.073 779.252 567.216 779.52 554.349 780.297C545.006 780.862 535.635 779.696 526.292 779.465C511.261 779.104 496.164 779.909 481.151 779.927C470.009 779.946 458.726 779.872 447.518 779.52C432.206 779.048 416.846 779.086 401.478 780.168C387.187 781.167 372.764 780.418 358.398 779.428C351.108 778.928 343.714 780.085 336.367 780.381C325.684 780.815 315.038 779.243 304.308 780.279C298.62 780.825 292.735 777.957 287.121 779.419C277.882 781.833 268.632 779.918 259.458 780.094C223.191 780.815 186.906 780.39 150.621 780.39C148.822 780.39 146.929 780.63 145.242 780.177C139.76 778.734 138.111 781.167 138.167 786.154C138.279 797.237 138.233 808.32 138.195 819.403C138.176 826.323 138.411 833.271 137.876 840.154C137.502 844.946 139.291 847.416 144.043 846.99C149.019 846.546 154.004 845.982 158.999 845.954C179.297 845.834 199.595 845.908 219.893 845.908C244.408 845.899 268.913 845.806 293.428 845.899C307.466 845.954 321.551 846.666 335.533 846.463C347.565 846.287 359.645 846.777 371.724 846.139C383.382 845.519 395.208 846.074 406.96 846.528C418.074 846.953 429.441 846.37 440.687 846.019C459.56 845.427 478.462 845.852 497.345 845.852C533.808 845.825 570.28 845.834 606.762 845.834ZM427.951 768.659C434.961 767.984 443.751 768.15 452.485 767.827C473.336 767.04 493.812 764.172 514.194 760.278C528.063 757.632 542.092 755.3 555.568 751.258C569.409 747.113 583.016 742.034 596.585 736.89C619.235 728.314 641.126 718.452 661.63 705.658C680.054 694.158 698.468 682.474 711.691 664.915C724.829 647.457 722.805 639.945 710.998 629.427C703.407 622.664 694.682 617.141 686.614 610.887C683.802 608.704 681.713 609 679.37 611.387C676.193 614.634 672.669 617.511 669.24 620.49C665.566 623.682 660.009 626.503 659.522 631.24C659.025 636.032 656.307 638.178 653.421 640.399C646.908 645.413 640.114 650.076 633.292 654.683C617.511 665.331 600.39 673.528 583.119 681.484C572.604 686.332 561.696 690.291 550.676 693.446C532.44 698.673 514.025 703.345 495.105 706.12C483.569 707.813 471.949 709.849 460.441 710.071C437.688 710.515 414.85 711.819 392.116 709.182C377.637 707.508 363.168 705.972 348.774 703.465C334.605 700.995 320.848 697.248 307.148 693.261C294.44 689.56 282.183 684.472 269.841 679.624C243.864 669.42 220.202 655.451 197.674 639.289C193.607 636.365 192.623 631.443 187.956 628.872C182.343 625.782 177.507 621.128 172.812 616.669C169.757 613.764 167.911 613.81 164.987 616.752C156.834 624.949 150.134 634.173 143.499 643.563C139.47 649.261 140.585 653.628 143.921 658.457C150.893 668.541 160.339 676.377 169.392 684.417C174.883 689.301 179.981 694.732 186.41 698.719C202.341 708.618 218.553 717.916 235.543 725.974C258.558 736.881 282.07 746.179 306.923 752.414C326.574 757.345 346.15 761.823 366.364 764.302C386.287 766.744 406.144 768.853 427.951 768.659ZM11.7594 352.886C10.9441 358.214 12.7059 365.208 13.4369 372.193C14.6457 383.767 17.532 395.155 18.9658 406.71C21.2524 425.074 26.0785 442.966 31.8793 460.312C37.249 476.354 43.6963 492.22 50.8746 507.753C59.7022 526.839 69.8793 545.138 81.8088 562.308C97.2056 584.456 114.72 605.114 134.906 623.274C143.18 630.713 144.024 633.479 152.57 622.164C153.517 620.906 154.81 619.898 155.916 618.76C164.603 609.786 173.234 600.747 182.024 591.866C184.357 589.507 184.46 587.786 182.043 585.455C176.917 580.506 172.109 575.26 167.274 570.033C154.848 556.591 143.762 542.159 133.444 527.153C116.679 502.767 102.8 476.844 93.1854 448.878C91.105 442.818 88.3499 436.971 86.7193 430.828C84.0485 420.763 82.2211 410.475 79.8783 400.317C77.1513 388.531 74.7055 376.652 74.6492 364.552C74.593 353.422 73.6465 342.339 74.3306 331.164C75.3052 315.057 73.506 298.913 76.7109 282.788C80.8811 261.779 82.6147 240.26 91.1144 220.222C91.5173 219.278 91.2924 217.798 90.8051 216.863C90.3272 215.947 88.9777 216.16 88.125 216.678C79.1287 222.164 69.6357 226.809 60.5925 232.156C56.413 234.626 54.4075 234.08 51.5212 231.129C45.2613 224.727 38.8139 218.501 32.4416 212.201C29.4615 209.259 27.3249 209.425 26.2472 213.801C25.9755 214.921 25.282 215.975 25.1321 217.104C23.3328 230.74 19.4344 243.96 17.3446 257.615C13.9054 280.087 11.9468 302.568 10.6255 325.178C10.1195 333.893 12.406 342.413 11.7594 352.886ZM848.885 325.826C851.387 306.046 847.16 285.693 844.049 265.414C841.472 248.642 836.271 232.258 832.082 215.735C830.93 211.183 828.296 210.517 824.923 213.607C818.494 219.5 811.925 225.264 805.787 231.443C803.078 234.173 801.26 234.025 798.28 232.026C789.5 226.133 780.513 220.527 771.563 214.874C770.364 214.116 769.577 211.988 767.562 213.283C765.556 214.578 767.121 216.355 767.524 217.483C771.32 228.252 773.906 239.261 776.427 250.409C781.965 274.925 784.018 299.709 785.404 324.651C786.06 336.502 783.512 348.26 784.327 360.055C784.973 369.427 782.528 378.447 781.206 387.421C778.76 404.027 774.506 420.393 769.099 436.462C762.717 455.427 755.651 474.013 745.765 491.498C731.398 516.921 714.896 540.734 694.71 562.142C687.363 569.931 679.604 577.184 671.742 584.382C668.068 587.749 667.581 590.192 672.351 592.967C675.387 594.734 677.974 597.25 680.776 599.406C692.302 608.297 703.96 617.011 715.299 626.133C720.088 629.991 723.349 627.438 726.347 624.375C734.519 616.003 743.272 608.232 750.891 599.276C766.259 581.209 779.716 561.92 791.655 541.502C803.51 521.251 813.162 500.139 820.977 478.029C827.5 459.572 834.163 441.245 837.761 421.965C840.001 409.948 843.131 398.143 844.63 385.941C847.076 366.282 850.525 346.752 848.885 325.826Z" fill="white"/>
<path d="M371.591 210.984C371.094 213.334 369.529 215.397 366.503 214.999C364.113 214.685 361.039 214.111 360.955 210.855C360.87 207.441 363.991 206.211 366.493 206.081C368.808 205.961 371.666 207.043 371.591 210.984Z" fill="white"/>
<path d="M400.485 787.698C404.889 787.846 409.931 787.494 415.001 789.381C421.383 791.759 424.887 796.598 425.262 802.407C425.581 807.311 422.788 812.019 416.978 813.935C414.045 814.897 413.23 816.997 416.257 819.384C420.82 822.973 423.632 827.997 426.855 832.668C428.954 835.703 426.865 837.479 424.438 837.091C420.408 836.443 415.807 836.378 413.604 831.484C412.105 828.154 409.772 825.166 407.682 822.113C406.698 820.67 405.639 819.032 404.186 818.199C402.078 816.987 399.604 816.09 397.046 817.237C394.478 818.384 395.79 820.688 395.677 822.455C395.471 825.795 395.668 829.162 395.612 832.52C395.546 836.517 392.416 837.627 389.521 837.137C386.962 836.711 384.938 835.666 385.435 831.142C386.606 820.41 385.969 809.475 386.053 798.624C386.147 786.208 384.694 787.799 397.374 787.698C398.17 787.688 398.976 787.698 400.485 787.698ZM403.924 796.949C403.924 797.005 403.915 797.051 403.915 797.106C402.921 797.106 401.9 797.227 400.925 797.088C396.868 796.477 395.134 797.846 395.537 802.158C395.865 805.738 395.012 809.605 400.785 809.078C403.549 808.819 406.464 809.392 409.116 808.782C411.712 808.18 414.429 806.922 414.935 803.656C415.413 800.52 413.052 798.707 410.943 797.671C408.956 796.69 406.286 797.134 403.924 796.949Z" fill="white"/>
<path d="M173.183 812.732C173.183 806.219 173.22 799.706 173.173 793.193C173.145 789.89 174.682 787.744 178.018 787.744C186.106 787.735 194.146 787.17 202.158 789.798C207.931 791.694 210.602 795.487 211.501 800.64C212.476 806.219 210.939 811.178 205.101 813.805C201.924 815.239 200.912 816.775 203.78 819.855C207.191 823.519 209.918 827.802 213.123 831.669C214.331 833.14 214.322 834.519 213.582 835.934C212.851 837.322 211.464 837.535 209.946 837.248C205.438 836.406 201.727 834.898 199.488 830.272C197.651 826.479 194.502 823.315 192.028 819.809C189.957 816.877 186.949 816.793 183.997 817.432C180.698 818.144 181.607 821.086 181.607 823.315C181.598 825.647 181.42 828.163 182.198 830.272C183.144 832.826 182.113 834.584 180.67 836.036C179.218 837.489 177.25 836.859 175.254 836.378C172.039 835.601 173.305 833.316 173.258 831.669C173.089 825.369 173.183 819.051 173.183 812.732ZM189.648 809.004C192.122 809.004 193.93 809.17 195.702 808.967C198.447 808.652 201.343 808.254 202.008 804.85C202.758 801.057 200.537 799.095 197.323 797.717C194.427 796.477 191.428 797.476 188.514 797.051C182.985 796.246 181.279 798.448 181.392 803.943C181.561 811.326 186.827 808.328 189.648 809.004Z" fill="white"/>
<path d="M465.05 826.836C467.581 832.101 466.437 836.911 460.721 836.939C454.142 836.976 455.595 831.453 455.623 826.596C455.698 815.633 456.869 804.615 454.911 793.643C454.255 789.988 456.963 787.74 460.599 787.759C464.601 787.777 466.7 790.266 466.494 794.216C466.334 797.352 465.753 800.461 465.435 803.588C465.294 804.976 465.247 806.576 466.803 807.177C468.162 807.705 469.08 806.345 469.549 805.457C472.182 800.498 477.214 797.593 480.213 792.884C482.809 788.804 486.97 786.954 492.03 787.629C493.37 787.805 495.113 787.204 495.76 788.767C496.397 790.321 495.46 791.728 494.307 792.875C490.212 796.927 486.182 801.062 481.965 804.994C480.035 806.798 479.66 807.945 481.525 810.286C486.632 816.679 490.231 824.135 495.769 830.287C497.081 831.749 498.815 833.729 497.353 836.069C495.956 838.308 493.848 836.68 492.03 836.819C483.605 837.485 482.425 830.084 478.798 825.43C478.226 824.699 478.282 823.413 477.626 822.858C475.377 820.943 475.93 815.513 471.123 817.012C466.437 818.473 466.269 823.08 465.05 826.836Z" fill="white"/>
<path d="M286.126 813.173C287.101 829.779 274.309 839.881 257.001 837.411C247.948 836.125 238.408 822.97 239.945 813.866C240.714 809.352 240.508 804.819 242.757 800.295C248.595 788.564 259.147 786.168 268.265 787.963C278.348 789.952 286.042 800.378 286.117 810.795C286.126 811.591 286.126 812.377 286.126 813.173ZM250.038 812.506C250.038 813.691 250.029 814.875 250.038 816.059C250.15 825.764 260.037 831.962 268.743 827.78C274.872 824.838 278.095 815.226 275.668 807.381C274.047 802.126 271.966 797.778 265.35 797.01C256.007 795.919 248.342 802.08 250.038 812.506Z" fill="white"/>
<path d="M525.329 812.817C525.132 806.341 525.957 799.856 525.151 793.353C524.757 790.189 525.985 787.376 530.624 787.58C538.617 787.931 546.639 787.7 554.642 787.663C558.24 787.644 561.342 789.004 561.211 792.686C561.099 795.85 558.55 797.442 554.829 797.173C549.853 796.813 544.821 797.22 539.826 797.035C536.012 796.896 535.028 798.7 535.094 802.095C535.159 805.352 535.234 808.044 539.723 807.868C544.718 807.674 549.731 807.896 554.736 807.803C557.65 807.748 559.234 808.71 559.243 811.855C559.252 814.871 557.95 816.157 554.914 816.111C550.106 816.028 545.289 816.351 540.501 816.028C535.506 815.685 535.056 818.35 535.065 822.244C535.075 825.964 535.646 828.332 540.257 828.101C545.852 827.823 551.465 828.128 557.069 827.999C560.424 827.925 561.567 829.322 561.708 832.578C561.858 836.094 560.058 836.316 557.313 836.325C548.335 836.353 539.348 836.63 530.371 836.686C526.763 836.704 525.16 834.863 525.282 831.154C525.469 825.048 525.329 818.932 525.329 812.817Z" fill="white"/>
<path d="M327.009 808.013C327.009 812.555 326.944 817.107 327.028 821.649C327.131 826.811 330.364 829.476 336.052 829.226C341.394 828.995 344.224 825.812 344.112 820.9C343.905 811.621 343.999 802.332 343.99 793.044C343.98 789.778 345.545 787.9 348.966 787.697C351.983 787.512 354.598 788.844 354.542 791.702C354.307 802.887 355.685 814.072 353.764 825.266C352.48 832.778 346.979 835.489 341.01 837.219C337.355 838.283 332.96 837.894 329.118 837.126C320.346 835.378 316.588 829.91 316.251 820.123C315.951 811.5 317.188 802.841 315.164 794.265C314.143 789.963 317.038 787.909 320.834 787.826C324.47 787.752 327.318 789.223 327.094 793.793C326.85 798.521 327.037 803.276 327.037 808.013C327.028 808.013 327.019 808.013 327.009 808.013Z" fill="white"/>
<path d="M690.997 836.318C687.455 835.615 683.837 835.365 683.097 830.314C682.488 826.197 679.573 825.559 675.15 825.013C666.623 823.958 661.365 825.503 658.704 834.181C657.964 836.586 653.962 837.031 651.235 835.809C648.302 834.496 649.923 832.248 650.682 830.268C655.602 817.445 660.456 804.605 665.432 791.81C666.37 789.405 667.625 787.36 671.027 787.554C674.307 787.739 676.893 788.59 678.083 791.727C680.96 799.331 684.606 806.594 687.108 814.402C688.898 819.99 691.587 825.522 694.23 830.906C696.104 834.727 694.802 835.948 690.997 836.318ZM672.002 817.325C677.221 817.371 678.749 816.076 676.912 812.385C675.656 809.869 674.579 807.583 674.719 804.743C674.794 803.198 673.801 802.236 672.236 801.922C669.94 801.459 669.799 803.513 669.097 804.716C668.103 806.418 669.031 808.462 667.991 810.368C665.02 815.836 665.957 817.27 672.002 817.325Z" fill="white"/>
<path d="M591.818 811.383C591.818 805.259 591.958 799.125 591.771 793.001C591.658 789.346 592.689 787.515 596.803 787.579C600.683 787.644 601.47 789.522 601.432 792.816C601.329 802.104 601.798 811.42 601.254 820.681C600.879 826.953 603.222 828.748 609.135 828.119C613.09 827.702 617.138 828.128 621.14 828.017C624.373 827.924 625.46 830.006 625.263 832.439C625.076 834.78 623.764 837.092 620.728 836.722C612.959 835.779 605.162 836.371 597.393 836.38C593.298 836.389 591.593 835.187 591.761 830.95C592.014 824.437 591.818 817.905 591.818 811.383Z" fill="white"/>
<path d="M221.275 697.25C221.275 694.281 221.313 691.311 221.256 688.341C221.238 687.249 221.584 685.853 219.888 685.529C218.398 685.242 217.836 686.213 217.274 687.36C215.39 691.191 213.572 695.058 211.454 698.749C209.702 701.811 207.275 703.689 203.76 700.793C202.448 699.711 201.905 698.767 203.067 696.852C208.081 688.572 212.897 680.172 217.536 671.67C218.876 669.209 220.75 666.943 223.14 667.211C225.07 667.424 226.626 669.811 227.423 672.364C229.437 678.794 227.788 685.307 228.5 691.718C228.669 693.244 227.376 695.603 230.046 696.066C232.558 696.501 232.511 693.938 233.28 692.56C235.351 688.878 237.412 685.159 239.099 681.292C240.477 678.146 242.623 677.499 245.228 679.09C247.749 680.626 248.105 682.457 246.137 685.436C241.095 693.078 236.634 701.099 232.146 709.073C230.852 711.359 229.512 714.347 226.87 713.514C224.143 712.654 221.247 710.563 221.322 706.733C221.388 703.569 221.331 700.396 221.331 697.232C221.322 697.25 221.294 697.25 221.275 697.25Z" fill="white"/>
<path d="M625.288 717.498C614.371 718.284 607.211 705.351 606.349 695.202C605.609 686.441 616.161 677.541 626.038 677.088C634.978 676.672 645.774 688.745 645.849 699.791C645.905 708.561 635.409 717.516 625.288 717.498ZM625.654 685.387C618.494 685.35 614.633 688.884 614.596 695.489C614.558 702.02 621.118 710.3 626.413 710.411C632.064 710.532 637.48 705.277 637.49 699.68C637.49 692.316 631.783 685.424 625.654 685.387Z" fill="white"/>
<path d="M546.427 747.137C543.128 747.294 541.797 746.498 541.198 744.038C538.752 733.898 536.175 723.768 532.267 714.054C531.114 711.195 533.242 710.094 534.713 709.623C541.985 707.328 549.369 705.413 556.744 703.443C558.9 702.869 560.137 704.47 561.083 705.94C562.358 707.92 560.334 708.975 559.209 709.632C555.114 712.037 550.372 712.814 545.808 713.795C542.959 714.406 540.354 714.507 541.554 718.3C542.575 721.548 544.731 723.62 548.282 721.751C551.675 719.956 555.582 719.993 558.909 718.319C561.514 717.005 562.948 717.708 564.11 720.086C565.572 723.065 563.295 723.944 561.336 724.665C557.138 726.21 552.818 727.385 548.61 729.004C543.287 731.049 546.952 733.695 547.289 735.998C547.776 739.245 549.782 739.495 552.546 738.08C556.585 736.017 561.046 735.11 565.469 734.231C568.215 733.685 570.632 735.138 570.876 737.599C571.101 739.828 568.899 741.096 566.359 741.281C560.38 741.725 555.17 744.907 549.388 746.119C548.057 746.397 546.811 746.998 546.427 747.137Z" fill="white"/>
<path d="M273.143 732.963C264.821 733.333 254.888 726.145 255.028 720.409C255.084 717.976 253.36 714.266 257.455 713.609C261.091 713.027 262.965 716.154 263.078 719.022C263.275 723.897 266.892 724.6 270.153 725.645C272.665 726.45 275.663 726.386 276.928 723.536C277.941 721.26 275.851 719.669 274.295 718.281C271.399 715.7 268.26 713.369 265.496 710.668C262.131 707.383 260.473 703.405 263.528 699.14C266.555 694.894 270.312 691.656 276.263 693.738C281.848 695.68 287.64 697.142 289.936 703.674C290.77 706.042 292.025 708.429 289.383 709.909C286.309 711.63 284.144 709.65 282.664 706.986C281.633 705.145 281.22 702.989 278.85 702.008C276.179 700.907 273.171 699.52 271.315 702.295C269.61 704.848 272.234 706.967 274.127 708.54C276.947 710.88 280.48 712.102 282.767 715.432C285.428 719.318 285.869 722.953 283.779 726.894C281.586 731.011 278.109 733.333 273.143 732.963Z" fill="white"/>
<path d="M458.252 735.122C458.252 731.755 458.252 728.397 458.252 725.029C458.252 722.855 457.952 720.172 461.045 720.117C464.166 720.061 466.33 722.143 466.461 725.196C466.733 731.755 466.621 738.342 466.63 744.91C466.649 756.401 454.223 763.737 443.343 759.009C438.648 756.974 435.715 753.708 435.621 749.073C435.471 741.395 433.569 733.855 434.131 726.13C434.318 723.54 434.656 722.069 437.758 722.254C440.428 722.411 442.584 722.67 442.574 726.028C442.546 732.162 442.509 738.305 442.593 744.439C442.677 750.304 445.461 753.264 450.596 753.19C456.462 753.098 458.205 751.164 458.252 744.624C458.271 741.46 458.252 738.286 458.252 735.122Z" fill="white"/>
<path d="M667.251 648.872C668.844 648.928 669.715 650.158 670.484 651.213C671.599 652.739 671.196 654.525 669.528 655.228C665.939 656.763 664.177 660.362 660.738 662.157C657.964 663.591 657.402 666.505 659.847 668.92C661.89 670.936 664.158 672.241 666.801 669.132C668.553 667.079 671.14 665.756 673.108 663.859C674.935 662.092 676.425 661.084 678.374 663.656C680.136 665.978 680.08 668.124 677.681 669.752C674.448 671.936 669.65 673.259 669.022 677.163C668.347 681.391 673.473 683.176 675.928 686.109C678.571 689.263 675.891 690.633 674.223 692.437C672.18 694.648 670.296 693.945 668.713 691.956C662.265 683.824 656.296 675.312 649.108 667.745C647.59 666.154 647.646 663.961 649.474 662.499C654.984 658.086 660.606 653.812 666.192 649.492C666.52 649.242 666.885 649.085 667.251 648.872Z" fill="white"/>
<path d="M332.809 717.882C325.94 715.171 324.993 720.38 324.881 724.006C324.684 730.584 320.757 736.153 320.72 742.712C320.71 745.21 318.405 746.57 315.528 745.997C312.117 745.321 311.92 742.444 312.857 740.501C315.922 734.118 314.732 726.698 318.405 720.463C320.795 716.411 319.323 713.525 314.413 712.784C311.658 712.368 308.181 712.202 309.231 708.223C310.318 704.107 314.104 705.522 316.756 706.096C322.285 707.28 327.701 708.964 333.165 710.481C335.967 711.258 339.687 711.582 338.919 715.662C338.15 719.686 334.355 716.069 332.809 717.882Z" fill="white"/>
<path d="M398.56 719.961C402.758 719.378 407.809 720.59 412.935 721.071C415.165 721.284 416.177 721.848 416.084 724.189C415.999 726.465 415.409 728.084 412.794 728.158C411.801 728.185 410.77 728.204 409.814 727.991C405.663 727.084 403.732 728.935 404.07 732.857C404.688 739.972 402.673 746.901 402.786 753.969C402.833 756.985 401.165 759.224 398.194 758.826C395.401 758.446 394.83 756.541 395.317 753.201C396.414 745.68 395.186 737.936 396.779 730.341C397.454 727.121 395.608 725.586 392.262 725.817C391.072 725.9 389.863 725.798 388.664 725.817C386.611 725.845 384.999 725.132 384.962 722.921C384.915 720.701 386.48 719.933 388.551 719.942C391.55 719.97 394.549 719.961 398.56 719.961Z" fill="white"/>
<path d="M510.676 714.068C514.087 713.92 515.765 714.605 515.952 717.168C516.121 719.536 515.099 721.099 512.588 721.025C506.59 720.84 504.154 722.839 506.216 729.139C508.352 735.652 506.75 742.729 508.69 749.371C509.561 752.36 507.565 753.942 505.007 754.154C502.233 754.386 500.63 752.443 500.452 749.779C500.04 743.534 498.822 737.382 499.084 731.054C499.337 724.809 497.2 723.486 490.884 724.485C488.448 724.874 485.318 725.531 484.831 721.691C484.362 718.056 486.845 717.778 489.76 717.519C497.182 716.835 504.716 716.724 510.676 714.068Z" fill="white"/>
<path d="M181.621 684.235C179.269 684.374 178.172 682.847 177.207 681.395C176.317 680.054 177.057 678.869 178.06 677.722C184.751 670.044 191.405 662.337 197.29 654.02C199.145 651.393 201.469 650.403 204.121 652.771C206.933 655.269 205.499 657.388 203.447 659.784C197.205 667.065 191.152 674.494 185.182 681.996C184.114 683.338 183.261 684.42 181.621 684.235Z" fill="white"/>
<path d="M353.71 748.314C355.387 739.211 356.249 729.941 356.184 720.56C356.165 717.785 357.842 715.768 361.197 716.388C364.496 716.999 366.389 719.191 365.386 722.235C362.537 730.876 362.893 739.859 362.088 748.694C361.788 751.904 360.26 753.8 357.692 753.68C355.209 753.569 352.641 751.922 353.71 748.314Z" fill="white"/>
<path d="M76.2525 503.725C81.9596 500.829 87.2449 498.248 92.4084 495.463C94.6575 494.251 96.9534 494.353 98.0311 496.268C99.1275 498.211 99.2025 500.662 96.1381 502.022C89.8876 504.807 83.7776 507.897 77.5926 510.848C75.306 511.94 72.7477 512.643 70.7329 514.095C68.287 515.862 65.8505 517.407 63.6015 514.687C61.4555 512.106 61.4461 508.471 63.5078 505.982C67.3406 501.329 69.1961 495.334 74.0316 491.365C74.6688 490.838 76.2244 489.357 74.622 487.914C73.3943 486.822 72.148 486.933 70.8079 487.729C66.7689 490.134 62.7862 492.632 58.6348 494.834C56.2732 496.083 54.3521 495.63 52.7122 492.965C51.016 490.199 52.4311 488.358 54.324 487.729C64.2106 484.445 72.6634 478.163 82.5406 474.925C84.1993 474.379 86.1297 471.974 87.348 474.888C88.2476 477.062 91.1058 478.718 88.7443 482.15C85.0895 487.452 81.9127 493.076 77.4239 497.767C75.709 499.534 74.9781 501.264 76.2525 503.725Z" fill="white"/>
<path d="M30.6381 253.203C39.119 254.619 47.0563 255.942 54.9937 257.274C56.1557 257.468 57.3178 257.931 58.461 257.875C61.6004 257.746 65.0864 257.82 65.7518 261.335C66.4359 264.943 62.8936 267.487 60.2603 268.172C54.1691 269.763 49.0243 273.603 42.7925 274.74C41.5648 274.963 39.4188 275.416 39.6531 277.627C39.9155 280.171 42.0147 279.098 43.3922 279.301C48.2371 280.032 53.1101 280.606 57.955 281.374C60.0729 281.707 62.8467 281.994 62.2563 285.028C61.6941 287.914 59.2014 289.441 56.3806 288.627C46.8689 285.907 36.7762 287.1 27.2832 284.14C25.0997 283.455 23.0193 283.585 22.7757 280.606C22.5508 277.886 23.6097 275.795 25.9056 274.74C30.6943 272.52 35.6423 270.624 40.5434 268.653C41.7991 268.144 43.1579 267.913 44.423 267.423C45.9505 266.831 47.6936 265.767 47.4124 264.175C47.0844 262.334 44.9853 262.621 43.4016 262.612C38.8566 262.584 34.2272 263.121 29.8978 261.261C27.555 260.253 25.8869 258.569 26.5241 255.729C27.0677 253.194 29.1012 253.102 30.6381 253.203Z" fill="white"/>
<path d="M54.973 464.528C43.8213 465.638 36.3994 455.406 36.4931 446.524C36.6336 433.388 45.1145 427.309 59.2087 426.653C68.7673 426.199 76.8546 435.488 76.8359 446.302C76.8265 456.701 67.4554 464.509 54.973 464.528ZM55.3385 456.238C56.3412 456.238 57.3626 456.396 58.3279 456.211C67.952 454.379 74.2869 446.571 67.8771 438.568C63.8943 433.591 58.684 434.433 53.2674 435.941C47.7853 437.467 42.8561 442.398 43.2216 446.571C43.6995 452.103 48.9661 456.322 55.3385 456.238Z" fill="white"/>
<path d="M58.8656 321.284C58.6407 325.04 56.8414 326.788 54.0207 327.88C44.3496 331.627 34.7161 335.475 25.0451 339.213C22.7491 340.101 20.1346 341.507 18.4384 338.389C16.8359 335.447 19.3943 333.357 21.231 332.718C27.8002 330.442 27.8189 325.65 27.7815 320.072C27.7533 316.14 26.7131 313.707 22.9272 312.504C20.903 311.866 19.6473 310.191 18.4946 308.646C17.5482 307.37 17.595 305.64 18.6914 304.215C19.8347 302.725 20.9967 303.539 22.3462 304.048C33.3479 308.165 44.4059 312.134 55.3889 316.288C57.7691 317.204 59.2123 319.137 58.8656 321.284ZM34.7442 321.709C34.8098 324.022 34.8192 327.426 37.5181 326.344C40.2451 325.252 45.4648 325.77 45.3336 321.607C45.2212 318.092 40.4606 318.601 37.818 317.731C34.7067 316.713 34.866 319.794 34.7442 321.709Z" fill="white"/>
<path d="M116.55 534.273C117.6 538.066 113.861 539.675 111.958 542.275C106.664 549.528 101.369 556.781 96.1587 564.09C95.2497 565.366 94.3407 567.568 92.8507 565.949C91.2857 564.247 88.062 562.554 89.9269 559.26C93.7878 552.451 92.935 547.095 87.3685 541.877C85.2507 539.888 82.8798 540.554 80.6026 540.582C77.3789 540.628 74.7175 539.564 74.68 536.289C74.6425 532.866 77.9224 533.847 80.1528 533.394C88.9804 531.608 97.7799 529.638 106.579 527.723C113.214 526.298 116.503 528.315 116.55 534.273ZM106.861 537.076C106.692 536.003 105.886 534.522 104.799 535.207C101.613 537.215 96.5054 536.336 95.081 540.684C94.2189 543.311 97.1239 544.68 98.9232 546.022C99.8228 546.688 106.692 538.991 106.861 537.076Z" fill="white"/>
<path d="M53.5221 360.567C53.419 360.29 53.344 360.104 53.2878 359.91C52.3226 356.561 50.7576 352.148 56.0898 352.01C61.4501 351.871 59.6883 357.033 59.8851 360.188C60.2037 365.443 59.5102 370.716 61.7968 375.813C62.9495 378.385 62.0873 380.883 58.7137 381.346C55.4807 381.79 53.6439 380.374 54.0188 376.997C54.5154 372.501 52.0414 371.585 48.1993 371.872C41.0678 372.409 33.8239 372.261 26.833 373.51C22.944 374.204 21.1729 372.575 20.8074 370.05C20.3763 367.062 23.0658 366.173 25.9896 365.951C34.0582 365.322 42.0986 364.286 50.1766 363.703C52.6037 363.527 52.9973 362.149 53.5221 360.567Z" fill="white"/>
<path d="M135.616 559.716C137.659 560.142 138.924 561.807 139.974 563.371C141.454 565.582 138.981 566.535 137.818 567.497C131.933 572.344 125.936 577.072 119.873 581.697C116.499 584.279 115.731 586.527 119.592 589.432C121.944 591.208 123.874 593.548 125.945 595.676C127.829 597.61 128.391 600.367 126.414 601.865C124.652 603.188 121.822 602.68 120.088 600.404C116.302 595.454 112.704 590.338 108.571 585.685C106.36 583.196 107.409 582.021 109.246 580.495C116.949 574.102 124.633 567.682 132.374 561.335C133.245 560.623 134.454 560.29 135.616 559.716Z" fill="white"/>
<path d="M32.4121 412.615C29.6476 412.439 27.7172 411.903 27.4923 408.6C27.2767 405.38 29.3103 404.511 31.7093 404.104C41.1367 402.512 50.5828 401.069 59.7759 398.303C61.8938 397.665 64.8363 397.221 65.8203 400.32C66.6918 403.04 65.2393 404.65 62.5872 405.63C52.8131 409.266 42.0644 408.498 32.4121 412.615Z" fill="white"/>
<path d="M808.54 471.042C800.931 467.675 790.81 465.889 781.298 462.309C779.424 461.606 776.669 461.384 777.109 458.321C777.522 455.463 778.806 452.567 781.87 452.29C788.402 451.698 794.127 448.016 800.744 447.932C802.102 447.914 804.305 448.885 804.586 446.452C804.857 444.056 802.505 443.455 800.997 443.381C796.358 443.14 792.225 441.188 787.877 440.059C783.941 439.042 782.882 436.368 785.684 432.991C786.537 431.964 787.362 431.354 789.208 431.983C798.448 435.128 807.837 437.867 817.124 440.901C819.411 441.651 822.991 441.854 822.503 445.231C822.053 448.367 820.629 451.938 816.581 452.114C810.996 452.354 805.982 455.306 800.341 455.084C798.101 455 795.43 455.5 795.28 457.942C795.083 461.236 798.204 459.385 799.834 459.885C804.136 461.217 808.531 462.281 812.71 463.9C814.453 464.575 816.103 466.259 815.278 468.646C814.463 470.903 813.02 472.337 808.54 471.042Z" fill="white"/>
<path d="M816.376 307.762C812.44 307.503 805.899 305.81 802.741 298.955C798.074 288.825 799.001 282.996 805.252 277.002C806.967 275.355 808.466 273.255 811.231 275.632C814.201 278.186 813.096 280.647 810.931 282.626C809.188 284.227 808.419 285.892 808.251 288.14C807.595 297.327 811.156 300.324 822.158 299.482C833.375 298.631 834.855 290.98 832.175 282.506C831.51 280.415 829.57 280.138 827.705 280.508C825.981 280.85 824.866 281.775 825.559 283.866C826.431 286.494 826.037 288.427 822.645 288.779C819.402 289.112 818.437 287.095 818.072 284.634C817.65 281.757 818.39 278.806 817.172 275.91C816.835 275.114 817.903 273.098 818.868 272.524C827.612 267.352 836.205 271.497 838.482 281.692C839.354 285.615 841.603 289.213 840.206 293.571C836.955 303.766 831.257 307.772 816.376 307.762Z" fill="white"/>
<path d="M840.764 332.21C840.764 344.163 833.183 351.795 821.431 351.693C810.505 351.591 799.634 342.71 800.159 333.043C800.693 323.282 807.45 313.8 821.103 313.763C832.658 313.735 840.764 321.432 840.764 332.21ZM820.925 322.024C812.248 322.024 808.593 325.771 808.152 333.561C807.768 340.36 814.216 342.645 822.368 343.284C829.209 343.82 833.576 339.167 833.586 332.737C833.605 326.335 828.507 322.024 820.925 322.024Z" fill="white"/>
<path d="M810.186 392.124C822.565 392.124 831.112 399.414 831.083 409.951C831.055 421.506 823.849 428.888 812.594 428.898C799.512 428.907 790.281 421.321 790.235 410.515C790.188 400.302 799.062 392.124 810.186 392.124ZM815.077 420.766C818.367 421.071 821.89 418.758 823.493 414.271C825.011 410.016 823.793 405.927 820.054 403.281C816.746 400.931 812.988 398.97 808.677 399.284C803.242 399.682 799.634 402.716 797.844 407.712C796.298 412.014 798.116 415.566 801.517 417.999C804.938 420.442 809.221 420.497 815.077 420.766Z" fill="white"/>
<path d="M738.106 560.696C740.14 560.548 741.03 558.91 742.117 557.55C744.553 554.488 747.027 551.454 749.37 548.317C750.945 546.208 752.584 547.374 753.934 548.262C755.714 549.437 755.789 551.047 754.365 552.814C751.919 555.857 749.895 559.28 747.205 562.093C743.363 566.098 747.927 566.82 749.501 568.68C751.919 571.52 754.112 570.326 755.864 567.958C758.413 564.507 760.728 560.881 763.211 557.384C764.561 555.487 766.041 554.229 768.562 556.024C770.821 557.643 770.774 559.641 769.453 561.39C764.964 567.329 760.156 573.037 755.639 578.958C753.821 581.345 751.985 580.836 750.082 579.504C741.583 573.583 733.13 567.588 724.668 561.612C722.653 560.187 722.466 558.716 724.049 556.644C728.313 551.056 732.296 545.255 736.569 539.677C737.816 538.048 739.474 535.754 741.967 537.715C744.31 539.556 743.644 541.712 741.873 543.858C739.39 546.874 737.244 550.158 734.742 553.165C733.542 554.599 733.449 556.052 733.898 557.569C734.479 559.521 736.663 559.623 738.106 560.696Z" fill="white"/>
<path d="M794.495 510.858C793.034 511.043 791.853 510.358 790.55 509.831C782.397 506.519 774.151 503.438 766.045 500.043C763.936 499.164 760.244 498.628 761.743 495.001C763.083 491.773 766.11 491.282 769.334 492.346C770.074 492.596 770.758 493.003 771.471 493.336C777.993 496.37 777.993 496.37 780.739 489.312C783.737 481.596 783.691 481.707 776.091 478.7C773.645 477.738 769.587 477.433 771.677 472.863C773.373 469.153 775.697 470.124 778.714 471.373C787.195 474.898 795.854 478.025 804.438 481.309C807.437 482.456 809.293 484.612 807.877 487.674C806.612 490.413 804.054 489.922 801.739 488.525C801.243 488.22 800.652 488.063 800.109 487.841C790.466 483.853 788.011 485.047 785.04 495.103C784.468 497.037 784.993 498.258 787.008 499.081C790.25 500.404 793.352 502.069 796.576 503.438C798.544 504.271 800.53 505.243 799.631 507.639C798.844 509.683 797.129 511.228 794.495 510.858Z" fill="white"/>
<path d="M771.171 545.352C760.159 544.778 750.919 539.44 747.499 529.661C744.688 521.622 752.344 509.123 763.327 508.568C765.314 508.467 766.907 508.975 767.319 511.196C767.647 512.953 767.075 514.128 765.267 514.859C763.083 515.738 761.003 516.867 758.932 517.986C756.964 519.05 755.671 520.429 755.24 522.908C754.134 529.245 757.498 533.538 766.888 537.044C772.173 539.014 776.4 537.229 779.548 532.205C781.797 528.616 779.858 526.137 777.59 524C774.319 520.919 777.243 519.531 779.014 518.014C781.095 516.219 782.781 516.302 784.759 518.939C789.763 525.619 787.795 531.9 784.168 538.015C781.113 543.131 775.631 544.417 771.171 545.352Z" fill="white"/>
<path d="M800.384 270.667C798.491 268.734 796.804 266.911 798.631 263.914C800.618 260.639 803.71 258.409 806.334 255.745C809.005 253.034 809.314 251.397 805.004 250.268C801.621 249.38 798.191 248.251 795.183 246.549C792.812 245.199 790.497 242.294 791.978 239.749C793.112 237.807 796.157 239.352 798.5 239.999C805.416 241.933 811.873 245.689 819.51 245.014C822.528 244.745 825.255 244.255 828.01 242.923C830.343 241.794 832.602 242.275 833.642 245.3C834.504 247.817 833.492 250.305 831.487 250.416C818.442 251.138 811.948 261.157 803.71 268.752C802.895 269.52 801.705 269.927 800.384 270.667Z" fill="white"/>
<path d="M722.826 566.801C723.032 568.134 722.357 569.077 721.411 569.882C716.275 574.24 718.122 577.801 722.582 581.289C727.333 585.008 731.991 588.847 736.573 592.761C738.813 594.676 741.25 596.406 738.054 599.977C734.709 603.714 733.162 601.068 730.998 599.033C725.647 594.037 720.099 589.245 714.879 584.12C712.236 581.53 710.072 581.437 708.057 584.37C707.017 585.878 705.892 587.108 704.215 587.756C702.097 588.579 700.907 587.117 699.67 585.794C698.208 584.231 699.557 583.334 700.466 582.344C705.939 576.377 711.552 570.53 716.838 564.405C718.253 562.768 719.593 563.036 720.989 563.443C722.432 563.897 722.995 565.256 722.826 566.801Z" fill="white"/>
<path d="M838.255 369.241C838.255 370.036 838.592 372.266 838.198 374.366C835.978 386.097 835.884 386.393 819.822 384.765C813.843 384.163 807.62 384.191 801.867 381.739C799.721 380.823 795.672 381.823 796.628 377.946C797.462 374.56 800.395 372.479 804.434 373.228C811.172 374.486 817.975 375.476 824.62 377.123C828.987 378.205 830.327 375.828 831.095 372.701C831.826 369.703 832.229 366.567 832.332 363.486C832.416 361.035 832.997 359.897 835.715 360.036C838.92 360.202 839.22 361.793 838.564 364.347C838.283 365.466 838.395 366.687 838.255 369.241Z" fill="white"/>
</g>
<defs>
<clipPath id="clip0_205_304">
<rect width="860" height="1059" fill="white"/>
</clipPath>
</defs>
</svg>
