<?xml version="1.0" encoding="UTF-8"?>
<svg version="1.1" xmlns="http://www.w3.org/2000/svg" width="820" height="71">
<path d="M0 0 C270.6 0 541.2 0 820 0 C820 23.43 820 46.86 820 71 C549.4 71 278.8 71 0 71 C0 47.57 0 24.14 0 0 Z " fill="#FCFCFC" transform="translate(0,0)"/>
<path d="M0 0 C30.69 0 61.38 0 93 0 C87.40280001 12.59369997 81.75158739 25.15462491 76 37.67724609 C70.91668539 48.74983715 65.94882819 59.86513657 61 71 C40.87 71 20.74 71 0 71 C0 47.57 0 24.14 0 0 Z " fill="#FDFDFD" transform="translate(0,0)"/>
<path d="M0 0 C3.50349547 0.09855326 7.00134867 0.12295024 10.50610352 0.13427734 C12.75811547 0.16246719 15.01007929 0.19488247 17.26196289 0.23193359 C18.81250114 0.2480217 18.81250114 0.2480217 20.3943634 0.26443481 C28.00326968 0.50909666 36.38236499 1.52516363 42.2504425 6.81106567 C46.32465617 11.40508727 47.50258608 14.54504124 47.43383789 20.65380859 C47.03735975 24.7855282 45.25937876 27.71628456 42.64868164 30.84912109 C41.21118164 31.97412109 41.21118164 31.97412109 39.21118164 31.97412109 C39.21118164 32.63412109 39.21118164 33.29412109 39.21118164 33.97412109 C39.95368164 34.18037109 40.69618164 34.38662109 41.46118164 34.59912109 C45.27086646 36.5039635 46.3818851 38.11227284 48.21118164 41.97412109 C49.14840072 48.17491399 48.71498188 53.84122952 45.54321289 59.32177734 C41.97251325 63.7511203 36.53312105 65.45379212 31.21118164 66.97412109 C27.98403931 67.21463013 27.98403931 67.21463013 24.47143555 67.20117188 C23.82682373 67.20146393 23.18221191 67.20175598 22.51806641 67.20205688 C20.40781741 67.20067425 18.29793072 67.1851642 16.18774414 67.16943359 C14.71658521 67.16569966 13.24542379 67.16285448 11.77426147 67.16085815 C7.91747066 67.15325165 4.06083243 67.1336291 0.20410156 67.1114502 C-4.43153226 67.08731374 -9.06721733 67.07819656 -13.70289612 67.06654358 C-20.73164272 67.04720269 -27.76005507 67.00885963 -34.78881836 66.97412109 C-34.78881836 53.77412109 -34.78881836 40.57412109 -34.78881836 26.97412109 C-30.48077148 26.91353516 -26.17272461 26.85294922 -21.73413086 26.79052734 C-18.30432237 26.73957819 -14.87453166 26.68765787 -11.44474792 26.63507843 C-7.82135019 26.57979818 -4.19794553 26.52623912 -0.57446289 26.47680664 C2.91393286 26.42915132 6.40222934 26.37680813 9.89050674 26.32118034 C11.87250352 26.29080877 13.85457319 26.26532322 15.8366394 26.23988342 C17.03773346 26.2199382 18.23882751 26.19999298 19.47631836 26.17944336 C21.06849686 26.15612694 21.06849686 26.15612694 22.69284058 26.13233948 C25.206974 26.13882929 25.206974 26.13882929 27.21118164 24.97412109 C27.21118164 23.32412109 27.21118164 21.67412109 27.21118164 19.97412109 C24.56698047 18.65202051 22.52918549 18.81289987 19.56811523 18.76879883 C18.38704193 18.74885361 17.20596863 18.72890839 15.98910522 18.70835876 C14.06875961 18.68329002 14.06875961 18.68329002 12.10961914 18.65771484 C10.80288239 18.63693375 9.49614563 18.61615265 8.14981079 18.59474182 C4.67449264 18.53952815 1.19911511 18.49011584 -2.27630615 18.44189453 C-5.82219736 18.39167432 -9.36800226 18.33599098 -12.91381836 18.28076172 C-19.87207686 18.17318882 -26.83041332 18.07174192 -33.78881836 17.97412109 C-33.18384521 16.9301416 -32.57887207 15.88616211 -31.95556641 14.81054688 C-30.67935822 12.60134645 -29.56922124 10.47543032 -28.53808594 8.13378906 C-22.62951127 -2.46602086 -10.59843829 -0.30363774 0 0 Z " fill="#010101" transform="translate(354.788818359375,1.02587890625)"/>
<path d="M0 0 C0.825 -0.0103125 1.65 -0.020625 2.5 -0.03125 C6.08835373 0.73127517 7.42315253 1.82858933 10 4.5 C12.18558643 8.01303782 14.02957749 11.67438927 15.875 15.375 C16.65955566 16.91426147 16.65955566 16.91426147 17.45996094 18.48461914 C18.98519815 21.48392219 20.49458332 24.49071013 22 27.5 C22.77821645 29.04318536 23.55681083 30.58618024 24.3359375 32.12890625 C25.90530105 35.24542175 27.45906907 38.36930582 29 41.5 C29.21914063 40.51644531 29.43828125 39.53289063 29.6640625 38.51953125 C31.60584864 29.96376455 33.77478294 21.49827326 36.1875 13.0625 C36.44934082 12.14509033 36.71118164 11.22768066 36.98095703 10.2824707 C38.8645388 3.77092241 38.8645388 3.77092241 40 1.5 C46.27 1.5 52.54 1.5 59 1.5 C56.75056689 11.62244898 56.75056689 11.62244898 55.703125 15.234375 C55.46964355 16.04535645 55.23616211 16.85633789 54.99560547 17.69189453 C54.62653076 18.95815674 54.62653076 18.95815674 54.25 20.25 C53.71592201 22.09628943 53.18207473 23.94264562 52.6484375 25.7890625 C52.37612305 26.72911133 52.10380859 27.66916016 51.82324219 28.63769531 C51.00823124 31.47138106 50.20856897 34.30894047 49.4140625 37.1484375 C47.97773236 42.276118 46.50643635 47.3924848 45 52.5 C44.65195312 53.68335938 44.30390625 54.86671875 43.9453125 56.0859375 C42.05794962 61.90400653 40.4514828 65.45974998 35 68.5 C32.13606106 69.18161747 29.82045277 69.38139149 27 68.5 C22.41818169 65.1109803 19.83346181 62.1044186 17.08984375 57.01953125 C16.75505508 56.40663742 16.42026642 55.79374359 16.07533264 55.16227722 C15.01748303 53.21852697 13.97749478 51.26584992 12.9375 49.3125 C12.23744749 48.02217853 11.53628338 46.7324595 10.83398438 45.44335938 C7.08318042 38.53206688 3.45347114 31.56528243 0 24.5 C-0.58265625 25.55574219 -1.1653125 26.61148437 -1.765625 27.69921875 C-4.49747983 32.64004756 -7.24722832 37.57080176 -10 42.5 C-10.52368164 43.44020996 -11.04736328 44.38041992 -11.58691406 45.34912109 C-13.1756496 48.19524387 -14.77409785 51.03570625 -16.375 53.875 C-16.87418945 54.77178467 -17.37337891 55.66856934 -17.88769531 56.5925293 C-23.61830011 66.70610004 -23.61830011 66.70610004 -29 68.5 C-33.36952653 68.99466338 -35.35937125 68.93228086 -39.05078125 66.44140625 C-42.34688754 63.51519233 -43.65786668 60.22403257 -44.875 56.0625 C-45.11130127 55.3096875 -45.34760254 54.556875 -45.59106445 53.78125 C-48.76456596 43.41846512 -51.43673498 32.89245748 -54.16796875 22.40625 C-55.46924521 17.4113136 -56.88240775 12.47720694 -58.4777832 7.56835938 C-59 5.5 -59 5.5 -59 1.5 C-52.73 1.5 -46.46 1.5 -40 1.5 C-36.6246345 10.50097466 -36.6246345 10.50097466 -35.68359375 14.15625 C-35.47669922 14.95160156 -35.26980469 15.74695313 -35.05664062 16.56640625 C-34.85232422 17.36949219 -34.64800781 18.17257813 -34.4375 19 C-34.22931641 19.80308594 -34.02113281 20.60617188 -33.80664062 21.43359375 C-33.39589661 23.02249068 -32.98874683 24.6123217 -32.58544922 26.203125 C-32.19989138 27.71577229 -31.80588731 29.22629572 -31.40283203 30.734375 C-30.50518631 34.14495505 -30 36.94400774 -30 40.5 C-26.72169166 38.86084583 -25.9357332 35.28642203 -24.5 32.0625 C-21.48010188 25.48537795 -18.27935793 19.04101317 -14.8125 12.6875 C-14.40902344 11.92961182 -14.00554687 11.17172363 -13.58984375 10.39086914 C-10.37683382 4.58369494 -7.22727155 -0.09034089 0 0 Z " fill="#020202" transform="translate(470,0.5)"/>
<path d="M0 0 C0.825 -0.0103125 1.65 -0.020625 2.5 -0.03125 C6.08835373 0.73127517 7.42315253 1.82858933 10 4.5 C12.18558643 8.01303782 14.02957749 11.67438927 15.875 15.375 C16.65955566 16.91426147 16.65955566 16.91426147 17.45996094 18.48461914 C18.98519815 21.48392219 20.49458332 24.49071013 22 27.5 C22.77821645 29.04318536 23.55681083 30.58618024 24.3359375 32.12890625 C25.90530105 35.24542175 27.45906907 38.36930582 29 41.5 C29.21914062 40.51644531 29.43828125 39.53289063 29.6640625 38.51953125 C31.60584864 29.96376455 33.77478294 21.49827326 36.1875 13.0625 C36.44934082 12.14509033 36.71118164 11.22768066 36.98095703 10.2824707 C38.8645388 3.77092241 38.8645388 3.77092241 40 1.5 C46.27 1.5 52.54 1.5 59 1.5 C56.75056689 11.62244898 56.75056689 11.62244898 55.703125 15.234375 C55.46964355 16.04535645 55.23616211 16.85633789 54.99560547 17.69189453 C54.62653076 18.95815674 54.62653076 18.95815674 54.25 20.25 C53.71592201 22.09628943 53.18207473 23.94264562 52.6484375 25.7890625 C52.37612305 26.72911133 52.10380859 27.66916016 51.82324219 28.63769531 C51.00823124 31.47138106 50.20856897 34.30894047 49.4140625 37.1484375 C47.97773236 42.276118 46.50643635 47.3924848 45 52.5 C44.65195313 53.68335938 44.30390625 54.86671875 43.9453125 56.0859375 C42.05794962 61.90400653 40.4514828 65.45974998 35 68.5 C32.13606106 69.18161747 29.82045277 69.38139149 27 68.5 C22.41818169 65.1109803 19.83346181 62.1044186 17.08984375 57.01953125 C16.75505508 56.40663742 16.42026642 55.79374359 16.07533264 55.16227722 C15.01748303 53.21852697 13.97749478 51.26584992 12.9375 49.3125 C12.23744749 48.02217853 11.53628338 46.7324595 10.83398438 45.44335938 C7.08318042 38.53206688 3.45347114 31.56528243 0 24.5 C-0.58265625 25.55574219 -1.1653125 26.61148437 -1.765625 27.69921875 C-4.49747983 32.64004756 -7.24722832 37.57080176 -10 42.5 C-10.52368164 43.44020996 -11.04736328 44.38041992 -11.58691406 45.34912109 C-13.1756496 48.19524387 -14.77409785 51.03570625 -16.375 53.875 C-16.87418945 54.77178467 -17.37337891 55.66856934 -17.88769531 56.5925293 C-23.61830011 66.70610004 -23.61830011 66.70610004 -29 68.5 C-33.36952653 68.99466338 -35.35937125 68.93228086 -39.05078125 66.44140625 C-42.34688754 63.51519233 -43.65786668 60.22403257 -44.875 56.0625 C-45.11130127 55.3096875 -45.34760254 54.556875 -45.59106445 53.78125 C-48.76456596 43.41846512 -51.43673498 32.89245748 -54.16796875 22.40625 C-55.46924521 17.4113136 -56.88240775 12.47720694 -58.4777832 7.56835938 C-59 5.5 -59 5.5 -59 1.5 C-52.73 1.5 -46.46 1.5 -40 1.5 C-36.6246345 10.50097466 -36.6246345 10.50097466 -35.68359375 14.15625 C-35.47669922 14.95160156 -35.26980469 15.74695313 -35.05664062 16.56640625 C-34.85232422 17.36949219 -34.64800781 18.17257813 -34.4375 19 C-34.22931641 19.80308594 -34.02113281 20.60617188 -33.80664062 21.43359375 C-33.39589661 23.02249068 -32.98874683 24.6123217 -32.58544922 26.203125 C-32.19989138 27.71577229 -31.80588731 29.22629572 -31.40283203 30.734375 C-30.50518631 34.14495505 -30 36.94400774 -30 40.5 C-26.72169166 38.86084583 -25.9357332 35.28642203 -24.5 32.0625 C-21.48010188 25.48537795 -18.27935793 19.04101317 -14.8125 12.6875 C-14.40902344 11.92961182 -14.00554687 11.17172363 -13.58984375 10.39086914 C-10.37683382 4.58369494 -7.22727155 -0.09034089 0 0 Z " fill="#020202" transform="translate(167,0.5)"/>
<path d="M0 0 C24.75 0 49.5 0 75 0 C73.02 2.97 71.04 5.94 69 9 C68.09233887 10.48951172 67.18467773 11.97902344 66.24951172 13.51367188 C64.51348423 15.78076336 63.55904895 16.82580053 60.81793213 17.67993164 C58.17560304 17.92649013 55.65872773 17.90158472 53.0078125 17.78125 C52.06187225 17.76993042 51.11593201 17.75861084 50.1413269 17.74694824 C47.13378305 17.70232805 44.13109051 17.60199923 41.125 17.5 C39.08079826 17.45985413 37.03652142 17.42335529 34.9921875 17.390625 C29.99293578 17.30264007 24.99728888 17.16469706 20 17 C20 19.64 20 22.28 20 25 C36.83 25 53.66 25 71 25 C69.02 27.97 67.04 30.94 65 34 C64.24178955 35.16354004 63.4835791 36.32708008 62.70239258 37.52587891 C58.83073579 41.0704963 55.83609451 40.77099642 50.76171875 40.5859375 C49.88095169 40.57744781 49.00018463 40.56895813 48.09272766 40.56021118 C45.28972125 40.52672156 42.48963115 40.45145454 39.6875 40.375 C37.78324478 40.34489448 35.8789443 40.31751969 33.97460938 40.29296875 C29.3152889 40.2269452 24.65813821 40.12345728 20 40 C20 42.97 20 45.94 20 49 C38.15 49 56.3 49 75 49 C73.02 51.97 71.04 54.94 69 58 C68.18257324 59.48951172 67.36514648 60.97902344 66.52294922 62.51367188 C64.45533922 65.20506138 63.38868906 65.91066832 60.04156494 66.67993164 C56.2221338 66.9286159 52.45361213 66.90193069 48.6328125 66.78125 C47.40038818 66.77319336 46.16796387 66.76513672 44.89819336 66.75683594 C40.30652074 66.71506524 35.7156989 66.60337249 31.125 66.5 C20.85375 66.335 10.5825 66.17 0 66 C0 44.22 0 22.44 0 0 Z " fill="#000000" transform="translate(237,2)"/>
<path d="M0 0 C1.24509338 -0.01283524 2.49018677 -0.02567047 3.77301025 -0.03889465 C5.14391687 -0.04706294 6.51482797 -0.0545065 7.88574219 -0.0612793 C8.57363579 -0.06535482 9.26152939 -0.06943035 9.97026825 -0.07362938 C13.61347659 -0.09451205 17.25664705 -0.10880229 20.89990234 -0.11816406 C24.66061369 -0.12921335 28.42073081 -0.16358876 32.18123245 -0.20333576 C35.07406702 -0.22951075 37.9667605 -0.23785678 40.85970306 -0.24144554 C42.24557239 -0.24631192 43.63143539 -0.2579276 45.01718903 -0.27648354 C46.96053273 -0.30088116 48.90416466 -0.29748955 50.84765625 -0.29296875 C52.5052597 -0.30176811 52.5052597 -0.30176811 54.1963501 -0.31074524 C57.90243813 0.29457035 59.54355776 1.54814727 62.18261719 4.17700195 C63.43261719 7.42700195 63.43261719 7.42700195 63.18261719 11.17700195 C59.42377374 17.9746039 52.1490611 22.53457554 46.08886719 27.1652832 C41.22462597 30.8865268 36.50293008 34.77987606 31.77661133 38.67382812 C31.14875732 39.18792236 30.52090332 39.7020166 29.87402344 40.23168945 C29.05720093 40.90433838 29.05720093 40.90433838 28.22387695 41.59057617 C25.27980691 43.87864783 22.21674335 46.00976898 19.18261719 48.17700195 C42.44761719 48.67200195 42.44761719 48.67200195 66.18261719 49.17700195 C63.87261719 52.80700195 61.56261719 56.43700195 59.18261719 60.17700195 C58.51294922 61.3788916 57.84328125 62.58078125 57.15332031 63.8190918 C52.03581116 67.88096749 45.94814352 66.9930015 39.65136719 66.90356445 C38.21317548 66.9025263 36.77498091 66.90356539 35.33679199 66.90658569 C32.32712254 66.90640657 29.31852827 66.88562082 26.30908203 66.84936523 C22.45861484 66.80398782 18.60971711 66.80290464 14.75905609 66.81640053 C11.79061016 66.82309577 8.82251965 66.80979133 5.85414124 66.79014206 C4.43483848 66.78246448 3.0154961 66.78013067 1.59617615 66.78331375 C-0.39007485 66.78405859 -2.37627216 66.75578661 -4.36230469 66.72631836 C-5.49083862 66.71710358 -6.61937256 66.70788879 -7.78210449 66.69839478 C-11.4765983 66.0637635 -13.16314329 64.77585345 -15.81738281 62.17700195 C-16.90230967 59.0549518 -16.63676504 56.35685617 -15.81738281 53.17700195 C-12.07800353 47.20963013 -5.03724985 43.17832675 0.49902344 39.0012207 C5.28025967 35.37070945 9.90710696 31.55065821 14.5378418 27.73120117 C15.17085205 27.21187012 15.8038623 26.69253906 16.45605469 26.1574707 C17.28242432 25.47527466 17.28242432 25.47527466 18.12548828 24.77929688 C21.07293715 22.48353294 24.14247726 20.34853047 27.18261719 18.17700195 C12.33261719 17.84700195 -2.51738281 17.51700195 -17.81738281 17.17700195 C-15.94611067 13.43445767 -13.77581836 10.29101154 -11.25488281 6.98950195 C-10.84302734 6.44358398 -10.43117188 5.89766602 -10.00683594 5.33520508 C-6.43344262 0.61551865 -5.95802018 0.0532287 0 0 Z " fill="#010101" transform="translate(587.8173828125,1.822998046875)"/>
<path d="M0 0 C6.6 0 13.2 0 20 0 C20 21.78 20 43.56 20 66 C13.4 66 6.8 66 0 66 C0 44.22 0 22.44 0 0 Z " fill="#040404" transform="translate(540,2)"/>
<path d="M0 0 C11.30887618 4.97643213 22.5211648 10.14090388 33.65713501 15.49212646 C34.96860884 16.12216595 36.28076406 16.75078905 37.59359741 17.37799072 C39.45261326 18.26704821 41.30872939 19.16188096 43.1640625 20.05859375 C44.24123535 20.57736084 45.3184082 21.09612793 46.42822266 21.63061523 C49 23 49 23 51 25 C51.625 27.8125 51.625 27.8125 51 31 C44.72440208 35.50476088 37.7272412 38.7079511 30.77539062 42.02905273 C28.89690984 42.9270264 27.02246503 43.83301006 25.1484375 44.74023438 C16.86190938 48.73274539 8.48364398 52.44489482 0 56 C0 52.04 0 48.08 0 44 C8.08243192 39.91099042 16.18010373 35.85980523 24.375 32 C25.01058838 31.69763428 25.64617676 31.39526855 26.30102539 31.08374023 C30.76199899 29 30.76199899 29 33 29 C33 28.34 33 27.68 33 27 C32.30616211 26.89494141 31.61232422 26.78988281 30.89746094 26.68164062 C27.53099118 25.88966358 24.75235285 24.60351763 21.640625 23.09375 C21.0507782 22.80898804 20.4609314 22.52422607 19.85321045 22.23083496 C18.61486758 21.63167254 17.37784399 21.02977652 16.14208984 20.42529297 C14.24477676 19.49744567 12.34351412 18.57812792 10.44140625 17.66015625 C1.15917685 13.15917685 1.15917685 13.15917685 0 12 C-0.07244053 9.98035801 -0.08377188 7.95832876 -0.0625 5.9375 C-0.05347656 4.83277344 -0.04445313 3.72804688 -0.03515625 2.58984375 C-0.02355469 1.73519531 -0.01195312 0.88054688 0 0 Z " fill="#050505" transform="translate(660,7)"/>
<path d="M0 0 C0 3.96 0 7.92 0 12 C-8.08243192 16.08900958 -16.18010373 20.14019477 -24.375 24 C-25.01058838 24.30236572 -25.64617676 24.60473145 -26.30102539 24.91625977 C-30.76199899 27 -30.76199899 27 -33 27 C-33 27.66 -33 28.32 -33 29 C-31.7625 29.37898438 -30.525 29.75796875 -29.25 30.1484375 C-23.26239046 32.14508943 -17.66744863 34.86669801 -12 37.625 C-10.95199219 38.12773438 -9.90398438 38.63046875 -8.82421875 39.1484375 C-1.14773261 42.85226739 -1.14773261 42.85226739 0 44 C0.07244053 46.01964199 0.08377188 48.04167124 0.0625 50.0625 C0.05347656 51.16722656 0.04445312 52.27195313 0.03515625 53.41015625 C0.02355469 54.26480469 0.01195312 55.11945312 0 56 C-11.29996741 51.02748815 -22.51633469 45.88194078 -33.65713501 40.56280518 C-34.96791972 39.93813799 -36.28007786 39.31634456 -37.59359741 38.69744873 C-39.45445827 37.81951046 -41.30978275 36.93080019 -43.1640625 36.0390625 C-44.24123535 35.52553223 -45.3184082 35.01200195 -46.42822266 34.48291016 C-49 33 -49 33 -51 30 C-51.08203125 27.08203125 -51.08203125 27.08203125 -50 24 C-47.52242674 22.2187585 -45.4073064 20.97831195 -42.6875 19.6875 C-41.93637939 19.31069092 -41.18525879 18.93388184 -40.41137695 18.5456543 C-32.92747351 14.84016636 -25.28641983 11.45894245 -17.6484375 8.0859375 C-12.68529021 5.88256718 -7.84537459 3.48663388 -3.01953125 0.99609375 C-1 0 -1 0 0 0 Z " fill="#050505" transform="translate(55,7)"/>
<path d="M0 0 C1.51400391 0.01740234 1.51400391 0.01740234 3.05859375 0.03515625 C4.07050781 0.04417969 5.08242187 0.05320313 6.125 0.0625 C6.90746094 0.07410156 7.68992188 0.08570313 8.49609375 0.09765625 C7.82776745 4.95712038 5.87491294 9.04427096 3.84765625 13.45703125 C3.47884842 14.27121017 3.11004059 15.0853891 2.73005676 15.92424011 C1.53171804 18.56751765 0.32641238 21.20755525 -0.87890625 23.84765625 C-2.52296648 27.46778372 -4.16369371 31.08941921 -5.8046875 34.7109375 C-6.41264412 36.05056297 -6.41264412 36.05056297 -7.03288269 37.41725159 C-10.90626666 45.96072868 -14.68407776 54.54383312 -18.41748047 63.14941406 C-18.81854004 64.06948242 -19.21959961 64.98955078 -19.6328125 65.9375 C-19.9738501 66.72503662 -20.3148877 67.51257324 -20.66625977 68.32397461 C-21.50390625 70.09765625 -21.50390625 70.09765625 -22.50390625 71.09765625 C-24.52354824 71.17009678 -26.54557749 71.18142813 -28.56640625 71.16015625 C-29.67113281 71.15113281 -30.77585937 71.14210938 -31.9140625 71.1328125 C-32.76871094 71.12121094 -33.62335937 71.10960938 -34.50390625 71.09765625 C-32.60148055 65.00443313 -30.34020623 59.23453807 -27.625 53.4609375 C-27.25628784 52.66645706 -26.88757568 51.87197662 -26.50769043 51.05342102 C-25.32331608 48.50359839 -24.13243907 45.95687445 -22.94140625 43.41015625 C-21.71884139 40.78301847 -20.49786647 38.15514573 -19.2769928 35.52722168 C-18.47314143 33.79722435 -17.668733 32.06748575 -16.86375427 30.3380127 C-13.26159329 22.59461604 -9.72657444 14.82211651 -6.23413086 7.02856445 C-3.12158618 0.12174673 -3.12158618 0.12174673 0 0 Z " fill="#050505" transform="translate(95.50390625,-0.09765625)"/>
<path d="M0 0 C5.64166991 -0.04940499 11.28321413 -0.08572193 16.92504883 -0.10986328 C18.84466749 -0.11992639 20.76427081 -0.13357816 22.68383789 -0.15087891 C25.44160752 -0.17511364 28.19917464 -0.18647992 30.95703125 -0.1953125 C32.24623222 -0.21079636 32.24623222 -0.21079636 33.56147766 -0.22659302 C34.36208115 -0.22674408 35.16268463 -0.22689514 35.98754883 -0.22705078 C36.6914827 -0.231492 37.39541656 -0.23593323 38.12068176 -0.24050903 C40 0 40 0 43 2 C42.625 4.9375 42.625 4.9375 42 8 C38.61606992 9.69196504 34.77522209 9.11986549 31.0546875 9.09765625 C30.1696756 9.0962413 29.2846637 9.09482635 28.37283325 9.09336853 C25.54018809 9.0877614 22.70762136 9.07520771 19.875 9.0625 C17.95703239 9.05748592 16.03906354 9.05292285 14.12109375 9.04882812 C9.41403218 9.03778966 4.7070294 9.02052025 0 9 C0 6.03 0 3.06 0 0 Z " fill="#FCFCFC" transform="translate(340,42)"/>
</svg>
